M48
; DRILL file {KiCad 9.0.3} date 2026-08-06T01:27:17+0530
; FORMAT={-:-/ absolute / metric / decimal}
; #@! TF.CreationDate,2026-08-06T01:27:17+05:30
; #@! TF.GenerationSoftware,Kicad,Pcbnew,9.0.3
; #@! TF.FileFunction,MixedPlating,1,2
FMAT,2
METRIC
; #@! TA.AperFunction,Plated,PTH,ViaDrill
T1C0.300
; #@! TA.AperFunction,Plated,PTH,ComponentDrill
T2C0.600
; #@! TA.AperFunction,NonPlated,NPTH,ComponentDrill
T3C0.650
%
G90
G05
T1
X69.983Y-75.86
X72.343Y-75.86
X72.582Y-71.3
X73.87Y-80.67
X74.534Y-68.709
X75.032Y-79.73
X76.892Y-65.52
X77.123Y-93.172
X77.13Y-90.22
X79.142Y-85.63
X79.602Y-71.91
X79.662Y-90.8
X79.662Y-92.52
X80.02Y-89.26
X80.222Y-80.06
X80.222Y-85.65
X82.252Y-57.89
X82.257Y-91.9
X82.77Y-89.26
X82.79Y-94.68
X83.63Y-71.92
X83.64Y-72.56
X83.64Y-74.46
X83.65Y-73.21
X83.65Y-73.86
X84.28Y-71.92
X84.29Y-72.56
X84.29Y-74.46
X84.3Y-73.21
X84.3Y-73.86
X84.7Y-100.63
X84.92Y-71.93
X84.93Y-72.57
X84.93Y-74.47
X84.94Y-73.22
X84.94Y-73.87
X85.54Y-71.94
X85.55Y-72.58
X85.55Y-74.48
X85.56Y-73.23
X85.56Y-73.88
X85.626Y-66.226
X86.17Y-71.92
X86.18Y-72.56
X86.18Y-74.46
X86.19Y-73.21
X86.19Y-73.86
X86.25Y-105.97
X86.69Y-100.63
X86.82Y-71.92
X86.83Y-72.56
X86.83Y-74.46
X86.84Y-73.21
X86.84Y-73.86
X87.649Y-93.419
X88.332Y-84.86
X88.35Y-93.74
X88.36Y-87.42
X88.802Y-77.63
X89.26Y-100.68
X89.26Y-110.61
X89.27Y-101.32
X89.28Y-101.97
X89.28Y-102.62
X89.49Y-89.25
X89.5Y-61.12
X89.52Y-61.96
X89.552Y-86.07
X89.88Y-100.69
X89.89Y-101.33
X89.9Y-101.98
X89.9Y-102.63
X90.51Y-100.67
X90.52Y-101.31
X90.53Y-101.96
X90.53Y-102.61
X91.16Y-100.67
X91.17Y-101.31
X91.18Y-101.96
X91.18Y-102.61
X91.43Y-66.86
X91.76Y-65.86
X91.77Y-62.16
X91.78Y-63.88
X91.78Y-64.74
X91.79Y-61.24
X91.79Y-62.99
X91.942Y-86.07
X92.07Y-89.25
X93.432Y-78.48
X95.042Y-84.92
X95.042Y-86.94
X96.272Y-67.86
X96.662Y-75.09
X97.09Y-104.18
X97.132Y-86.07
X97.336Y-76.786
X97.45Y-89.26
X97.522Y-71.46
X97.782Y-105.46
X97.812Y-57.81
X98.68Y-92.1
X99.92Y-100.14
X100.102Y-86.07
X100.2Y-89.26
X100.34Y-131.76
X100.382Y-75.92
X100.97Y-92.82
X101.035Y-127.062
X101.7Y-129.41
X102.446Y-82.096
X102.77Y-93.73
X102.8Y-100.14
X103.17Y-92.66
X104.162Y-71.24
X105.093Y-67.61
X105.222Y-105.82
X105.36Y-129.77
X105.38Y-127.84
X105.45Y-100.68
X105.46Y-101.32
X105.47Y-101.97
X105.47Y-102.62
X106.07Y-100.69
X106.08Y-101.33
X106.09Y-101.98
X106.09Y-102.63
X106.7Y-100.67
X106.71Y-101.31
X106.72Y-101.96
X106.72Y-102.61
X107.35Y-100.67
X107.36Y-101.31
X107.37Y-101.96
X107.37Y-102.61
X107.672Y-65.61
X108.062Y-74.73
X108.953Y-78.41
X109.932Y-72.11
X109.942Y-74.66
X110.042Y-85.98
X110.442Y-116.19
X110.72Y-131.81
X111.082Y-79.95
X111.082Y-85.96
X112.492Y-79.12
X112.502Y-105.09
X112.502Y-123.44
X113.082Y-57.98
X113.11Y-111.27
X113.12Y-111.92
X113.12Y-112.57
X113.47Y-129.87
X113.74Y-111.25
X113.75Y-111.9
X113.75Y-112.55
X114.39Y-111.25
X114.4Y-111.9
X114.4Y-112.55
X114.48Y-130.17
X114.64Y-71.88
X114.65Y-72.52
X114.65Y-74.42
X114.66Y-73.17
X114.66Y-73.82
X115.29Y-71.88
X115.3Y-72.52
X115.3Y-74.42
X115.31Y-73.17
X115.31Y-73.82
X115.85Y-120.75
X115.852Y-104.96
X115.93Y-71.89
X115.94Y-72.53
X115.94Y-74.43
X115.95Y-73.18
X115.95Y-73.83
X116.062Y-123.15
X116.55Y-71.9
X116.56Y-72.54
X116.56Y-74.44
X116.57Y-73.19
X116.57Y-73.84
X117.18Y-71.88
X117.19Y-72.52
X117.19Y-74.42
X117.2Y-73.17
X117.2Y-73.82
X117.83Y-71.88
X117.84Y-72.52
X117.84Y-74.42
X117.85Y-73.17
X117.85Y-73.82
X117.953Y-104.89
X118.82Y-65.03
X119.172Y-116.34
X119.77Y-89.2
X119.83Y-61.35
X120.372Y-107.03
X120.382Y-124.96
X120.382Y-127.28
X120.4Y-118.42
X120.522Y-79.51
X120.55Y-60.84
X120.55Y-61.82
X120.554Y-77.019
X121.7Y-66.8
X122.042Y-114.22
X122.28Y-66.14
X122.4Y-60.93
X122.4Y-61.69
X122.41Y-62.43
X122.42Y-63.17
X122.44Y-65.32
X122.46Y-63.87
X122.46Y-64.57
X122.852Y-79.51
X124.372Y-77.41
X124.432Y-89.27
X126.102Y-66.34
X126.53Y-70.42
X126.64Y-74.3
X127.15Y-83.0
X127.222Y-78.31
X128.082Y-57.96
T3
X110.832Y-130.17
X116.612Y-130.17
T2
G00X109.402Y-129.12
M15
G01X109.402Y-130.22
M16
G05
G00X109.402Y-133.55
M15
G01X109.402Y-134.15
M16
G05
G00X118.042Y-129.12
M15
G01X118.042Y-130.22
M16
G05
G00X118.042Y-133.55
M15
G01X118.042Y-134.15
M16
G05
M30
