%TF.GenerationSoftware,KiCad,Pcbnew,9.0.3*%
%TF.CreationDate,2026-08-08T16:38:22+05:30*%
%TF.ProjectId,V2,56322e6b-6963-4616-945f-706362585858,rev?*%
%TF.SameCoordinates,Original*%
%TF.FileFunction,Soldermask,Top*%
%TF.FilePolarity,Negative*%
%FSLAX46Y46*%
G04 Gerber Fmt 4.6, Leading zero omitted, Abs format (unit mm)*
G04 Created by KiCad (PCBNEW 9.0.3) date 2026-08-08 16:38:22*
%MOMM*%
%LPD*%
G01*
G04 APERTURE LIST*
G04 Aperture macros list*
%AMRoundRect*
0 Rectangle with rounded corners*
0 $1 Rounding radius*
0 $2 $3 $4 $5 $6 $7 $8 $9 X,Y pos of 4 corners*
0 Add a 4 corners polygon primitive as box body*
4,1,4,$2,$3,$4,$5,$6,$7,$8,$9,$2,$3,0*
0 Add four circle primitives for the rounded corners*
1,1,$1+$1,$2,$3*
1,1,$1+$1,$4,$5*
1,1,$1+$1,$6,$7*
1,1,$1+$1,$8,$9*
0 Add four rect primitives between the rounded corners*
20,1,$1+$1,$2,$3,$4,$5,0*
20,1,$1+$1,$4,$5,$6,$7,0*
20,1,$1+$1,$6,$7,$8,$9,0*
20,1,$1+$1,$8,$9,$2,$3,0*%
G04 Aperture macros list end*
%ADD10C,0.650000*%
%ADD11RoundRect,0.150000X-0.150000X-0.500000X0.150000X-0.500000X0.150000X0.500000X-0.150000X0.500000X0*%
%ADD12RoundRect,0.075000X-0.075000X-0.575000X0.075000X-0.575000X0.075000X0.575000X-0.075000X0.575000X0*%
%ADD13O,1.000000X2.100000*%
%ADD14O,1.000000X1.600000*%
%ADD15RoundRect,0.140000X-0.170000X0.140000X-0.170000X-0.140000X0.170000X-0.140000X0.170000X0.140000X0*%
%ADD16C,2.500000*%
%ADD17RoundRect,0.062500X-0.337500X-0.062500X0.337500X-0.062500X0.337500X0.062500X-0.337500X0.062500X0*%
%ADD18RoundRect,0.062500X-0.062500X-0.337500X0.062500X-0.337500X0.062500X0.337500X-0.062500X0.337500X0*%
%ADD19R,3.350000X3.350000*%
%ADD20RoundRect,0.135000X-0.185000X0.135000X-0.185000X-0.135000X0.185000X-0.135000X0.185000X0.135000X0*%
%ADD21RoundRect,0.225000X0.250000X-0.225000X0.250000X0.225000X-0.250000X0.225000X-0.250000X-0.225000X0*%
%ADD22RoundRect,0.147500X-0.147500X-0.172500X0.147500X-0.172500X0.147500X0.172500X-0.147500X0.172500X0*%
%ADD23RoundRect,0.243750X-0.456250X0.243750X-0.456250X-0.243750X0.456250X-0.243750X0.456250X0.243750X0*%
%ADD24RoundRect,0.225000X-0.250000X0.225000X-0.250000X-0.225000X0.250000X-0.225000X0.250000X0.225000X0*%
%ADD25RoundRect,0.140000X0.170000X-0.140000X0.170000X0.140000X-0.170000X0.140000X-0.170000X-0.140000X0*%
%ADD26R,1.524000X0.508000*%
%ADD27RoundRect,0.050000X-0.050000X0.350000X-0.050000X-0.350000X0.050000X-0.350000X0.050000X0.350000X0*%
%ADD28RoundRect,0.050000X-0.350000X0.050000X-0.350000X-0.050000X0.350000X-0.050000X0.350000X0.050000X0*%
%ADD29R,3.860000X3.890000*%
%ADD30RoundRect,0.225000X0.225000X0.250000X-0.225000X0.250000X-0.225000X-0.250000X0.225000X-0.250000X0*%
%ADD31R,1.500000X5.080000*%
%ADD32RoundRect,0.135000X-0.135000X-0.185000X0.135000X-0.185000X0.135000X0.185000X-0.135000X0.185000X0*%
%ADD33RoundRect,0.150000X-0.200000X0.150000X-0.200000X-0.150000X0.200000X-0.150000X0.200000X0.150000X0*%
%ADD34RoundRect,0.135000X0.185000X-0.135000X0.185000X0.135000X-0.185000X0.135000X-0.185000X-0.135000X0*%
%ADD35RoundRect,0.147500X-0.172500X0.147500X-0.172500X-0.147500X0.172500X-0.147500X0.172500X0.147500X0*%
%ADD36RoundRect,0.140000X-0.140000X-0.170000X0.140000X-0.170000X0.140000X0.170000X-0.140000X0.170000X0*%
%ADD37RoundRect,0.243750X0.243750X0.456250X-0.243750X0.456250X-0.243750X-0.456250X0.243750X-0.456250X0*%
%ADD38RoundRect,0.135000X0.135000X0.185000X-0.135000X0.185000X-0.135000X-0.185000X0.135000X-0.185000X0*%
%ADD39RoundRect,0.150000X0.512500X0.150000X-0.512500X0.150000X-0.512500X-0.150000X0.512500X-0.150000X0*%
%ADD40RoundRect,0.245000X-1.455000X0.245000X-1.455000X-0.245000X1.455000X-0.245000X1.455000X0.245000X0*%
%ADD41RoundRect,0.243750X-0.243750X-0.456250X0.243750X-0.456250X0.243750X0.456250X-0.243750X0.456250X0*%
%ADD42RoundRect,0.250000X0.450000X0.350000X-0.450000X0.350000X-0.450000X-0.350000X0.450000X-0.350000X0*%
%ADD43RoundRect,0.150000X0.150000X-0.587500X0.150000X0.587500X-0.150000X0.587500X-0.150000X-0.587500X0*%
%ADD44RoundRect,0.225000X-0.225000X-0.250000X0.225000X-0.250000X0.225000X0.250000X-0.225000X0.250000X0*%
%ADD45R,3.850000X3.890000*%
%ADD46RoundRect,0.218750X0.381250X-0.218750X0.381250X0.218750X-0.381250X0.218750X-0.381250X-0.218750X0*%
%ADD47RoundRect,0.140000X0.140000X0.170000X-0.140000X0.170000X-0.140000X-0.170000X0.140000X-0.170000X0*%
%ADD48RoundRect,0.140000X-0.021213X0.219203X-0.219203X0.021213X0.021213X-0.219203X0.219203X-0.021213X0*%
%ADD49RoundRect,0.102000X0.000000X1.257236X-1.257236X0.000000X0.000000X-1.257236X1.257236X0.000000X0*%
%ADD50RoundRect,0.121000X0.183848X0.354968X-0.354968X-0.183848X-0.183848X-0.354968X0.354968X0.183848X0*%
%ADD51RoundRect,0.121000X-0.183848X0.354968X-0.354968X0.183848X0.183848X-0.354968X0.354968X-0.183848X0*%
%ADD52RoundRect,0.250000X-0.375000X-0.625000X0.375000X-0.625000X0.375000X0.625000X-0.375000X0.625000X0*%
%ADD53RoundRect,0.150000X0.150000X-0.825000X0.150000X0.825000X-0.150000X0.825000X-0.150000X-0.825000X0*%
%ADD54RoundRect,0.250000X0.300000X-0.300000X0.300000X0.300000X-0.300000X0.300000X-0.300000X-0.300000X0*%
%ADD55RoundRect,0.150000X-0.512500X-0.150000X0.512500X-0.150000X0.512500X0.150000X-0.512500X0.150000X0*%
G04 APERTURE END LIST*
D10*
%TO.C,J2*%
X124660000Y-111955000D03*
X130440000Y-111955000D03*
D11*
X124350000Y-110815000D03*
X125150000Y-110815000D03*
D12*
X126300000Y-110815000D03*
X127300000Y-110815000D03*
X127800000Y-110815000D03*
X128800000Y-110815000D03*
D11*
X129950000Y-110815000D03*
X130750000Y-110815000D03*
X130750000Y-110815000D03*
X129950000Y-110815000D03*
D12*
X129300000Y-110815000D03*
X128300000Y-110815000D03*
X126800000Y-110815000D03*
X125800000Y-110815000D03*
D11*
X125150000Y-110815000D03*
X124350000Y-110815000D03*
D13*
X123230000Y-111455000D03*
D14*
X123230000Y-115635000D03*
D13*
X131870000Y-111455000D03*
D14*
X131870000Y-115635000D03*
%TD*%
D15*
%TO.C,C47*%
X143460000Y-83180000D03*
X143460000Y-84140000D03*
%TD*%
D16*
%TO.C,H2*%
X150080000Y-113060000D03*
%TD*%
D17*
%TO.C,U11*%
X106840000Y-102020000D03*
X106840000Y-102520000D03*
X106840000Y-103020000D03*
X106840000Y-103520000D03*
X106840000Y-104020000D03*
X106840000Y-104520000D03*
X106840000Y-105020000D03*
D18*
X107790000Y-105970000D03*
X108290000Y-105970000D03*
X108790000Y-105970000D03*
X109290000Y-105970000D03*
X109790000Y-105970000D03*
X110290000Y-105970000D03*
X110790000Y-105970000D03*
D17*
X111740000Y-105020000D03*
X111740000Y-104520000D03*
X111740000Y-104020000D03*
X111740000Y-103520000D03*
X111740000Y-103020000D03*
X111740000Y-102520000D03*
X111740000Y-102020000D03*
D18*
X110790000Y-101070000D03*
X110290000Y-101070000D03*
X109790000Y-101070000D03*
X109290000Y-101070000D03*
X108790000Y-101070000D03*
X108290000Y-101070000D03*
X107790000Y-101070000D03*
D19*
X109290000Y-103520000D03*
%TD*%
D20*
%TO.C,R7*%
X109420000Y-79170000D03*
X109420000Y-80190000D03*
%TD*%
D21*
%TO.C,C38*%
X135230000Y-72815000D03*
X135230000Y-71265000D03*
%TD*%
D22*
%TO.C,L8*%
X142045000Y-69760000D03*
X143015000Y-69760000D03*
%TD*%
D23*
%TO.C,D7*%
X138590000Y-105335000D03*
X138590000Y-107210000D03*
%TD*%
D24*
%TO.C,C43*%
X136010000Y-83055000D03*
X136010000Y-84605000D03*
%TD*%
D15*
%TO.C,C31*%
X120210000Y-74830000D03*
X120210000Y-75790000D03*
%TD*%
D25*
%TO.C,C1*%
X118980000Y-73600000D03*
X118980000Y-72640000D03*
%TD*%
D15*
%TO.C,C21*%
X129650000Y-106780000D03*
X129650000Y-107740000D03*
%TD*%
D20*
%TO.C,R3*%
X121270000Y-74790000D03*
X121270000Y-75810000D03*
%TD*%
D26*
%TO.C,SW3*%
X128560000Y-78709000D03*
X128560000Y-74391000D03*
%TD*%
D25*
%TO.C,C15*%
X122010000Y-73600000D03*
X122010000Y-72640000D03*
%TD*%
D20*
%TO.C,R16*%
X128930000Y-102660000D03*
X128930000Y-103680000D03*
%TD*%
D27*
%TO.C,U1*%
X116140000Y-76120000D03*
X115740000Y-76120000D03*
X115340000Y-76120000D03*
X114940000Y-76120000D03*
X114540000Y-76120000D03*
X114140000Y-76120000D03*
X113740000Y-76120000D03*
X113340000Y-76120000D03*
X112940000Y-76120000D03*
X112540000Y-76120000D03*
X112140000Y-76120000D03*
X111740000Y-76120000D03*
D28*
X110990000Y-76870000D03*
X110990000Y-77270000D03*
X110990000Y-77670000D03*
X110990000Y-78070000D03*
X110990000Y-78470000D03*
X110990000Y-78870000D03*
X110990000Y-79270000D03*
X110990000Y-79670000D03*
X110990000Y-80070000D03*
X110990000Y-80470000D03*
X110990000Y-80870000D03*
X110990000Y-81270000D03*
D27*
X111740000Y-82020000D03*
X112140000Y-82020000D03*
X112540000Y-82020000D03*
X112940000Y-82020000D03*
X113340000Y-82020000D03*
X113740000Y-82020000D03*
X114140000Y-82020000D03*
X114540000Y-82020000D03*
X114940000Y-82020000D03*
X115340000Y-82020000D03*
X115740000Y-82020000D03*
X116140000Y-82020000D03*
D28*
X116890000Y-81270000D03*
X116890000Y-80870000D03*
X116890000Y-80470000D03*
X116890000Y-80070000D03*
X116890000Y-79670000D03*
X116890000Y-79270000D03*
X116890000Y-78870000D03*
X116890000Y-78470000D03*
X116890000Y-78070000D03*
X116890000Y-77670000D03*
X116890000Y-77270000D03*
X116890000Y-76870000D03*
D29*
X113930000Y-79075000D03*
%TD*%
D30*
%TO.C,C60*%
X145825000Y-69770000D03*
X144275000Y-69770000D03*
%TD*%
D25*
%TO.C,C45*%
X145270000Y-73520000D03*
X145270000Y-72560000D03*
%TD*%
D31*
%TO.C,J1*%
X142040000Y-65172500D03*
X137790000Y-65172500D03*
X146290000Y-65172500D03*
%TD*%
D32*
%TO.C,R1*%
X141440000Y-108290000D03*
X142460000Y-108290000D03*
%TD*%
D33*
%TO.C,D1*%
X107530000Y-76520000D03*
X107530000Y-75120000D03*
%TD*%
D34*
%TO.C,R26*%
X141080000Y-92950000D03*
X141080000Y-91930000D03*
%TD*%
D21*
%TO.C,C6*%
X108780000Y-73345000D03*
X108780000Y-71795000D03*
%TD*%
D20*
%TO.C,R9*%
X138590000Y-108552500D03*
X138590000Y-109572500D03*
%TD*%
D35*
%TO.C,L2*%
X115740000Y-71535000D03*
X115740000Y-72505000D03*
%TD*%
D36*
%TO.C,C32*%
X122350000Y-74790000D03*
X123310000Y-74790000D03*
%TD*%
D25*
%TO.C,C3*%
X108420000Y-109260000D03*
X108420000Y-108300000D03*
%TD*%
D34*
%TO.C,R29*%
X132610000Y-75412500D03*
X132610000Y-74392500D03*
%TD*%
D24*
%TO.C,C17*%
X104900000Y-75147500D03*
X104900000Y-76697500D03*
%TD*%
D37*
%TO.C,D3*%
X143647500Y-109900000D03*
X141772500Y-109900000D03*
%TD*%
D38*
%TO.C,R11*%
X147240000Y-76710000D03*
X146220000Y-76710000D03*
%TD*%
D34*
%TO.C,R28*%
X132740000Y-82000000D03*
X132740000Y-80980000D03*
%TD*%
D25*
%TO.C,C9*%
X109420000Y-78180000D03*
X109420000Y-77220000D03*
%TD*%
D20*
%TO.C,R15*%
X127870000Y-102660000D03*
X127870000Y-103680000D03*
%TD*%
D34*
%TO.C,R12*%
X106190000Y-76142500D03*
X106190000Y-75122500D03*
%TD*%
D20*
%TO.C,R20*%
X106110000Y-92490000D03*
X106110000Y-93510000D03*
%TD*%
D39*
%TO.C,U10*%
X116757500Y-114312500D03*
X116757500Y-113362500D03*
X116757500Y-112412500D03*
X114482500Y-112412500D03*
X114482500Y-113362500D03*
X114482500Y-114312500D03*
%TD*%
D25*
%TO.C,C46*%
X135670000Y-78140000D03*
X135670000Y-77180000D03*
%TD*%
D21*
%TO.C,C2*%
X107190000Y-73345000D03*
X107190000Y-71795000D03*
%TD*%
D38*
%TO.C,R24*%
X136650000Y-101090000D03*
X135630000Y-101090000D03*
%TD*%
D21*
%TO.C,C35*%
X133570000Y-72810000D03*
X133570000Y-71260000D03*
%TD*%
%TO.C,C29*%
X106350000Y-115165000D03*
X106350000Y-113615000D03*
%TD*%
D25*
%TO.C,C22*%
X107370000Y-109260000D03*
X107370000Y-108300000D03*
%TD*%
D40*
%TO.C,L3*%
X109710000Y-112805000D03*
X109710000Y-115175000D03*
%TD*%
D15*
%TO.C,C50*%
X142420000Y-106260000D03*
X142420000Y-107220000D03*
%TD*%
D36*
%TO.C,C36*%
X148240000Y-74740000D03*
X149200000Y-74740000D03*
%TD*%
D41*
%TO.C,D4*%
X104262500Y-109340000D03*
X106137500Y-109340000D03*
%TD*%
D42*
%TO.C,Y1*%
X147990000Y-78240000D03*
X145790000Y-78240000D03*
X145790000Y-79940000D03*
X147990000Y-79940000D03*
%TD*%
D43*
%TO.C,Q1*%
X106110000Y-98020000D03*
X108010000Y-98020000D03*
X107060000Y-96145000D03*
%TD*%
D36*
%TO.C,C14*%
X145220000Y-81390000D03*
X146180000Y-81390000D03*
%TD*%
D24*
%TO.C,C55*%
X105230000Y-104795000D03*
X105230000Y-106345000D03*
%TD*%
D15*
%TO.C,C39*%
X136590000Y-72815000D03*
X136590000Y-73775000D03*
%TD*%
D20*
%TO.C,R23*%
X147240000Y-74730000D03*
X147240000Y-75750000D03*
%TD*%
D24*
%TO.C,C11*%
X109980000Y-83035000D03*
X109980000Y-84585000D03*
%TD*%
D26*
%TO.C,SW2*%
X102090000Y-85179000D03*
X102090000Y-80861000D03*
%TD*%
D44*
%TO.C,C27*%
X119775000Y-114700000D03*
X121325000Y-114700000D03*
%TD*%
D34*
%TO.C,R25*%
X142410000Y-92940000D03*
X142410000Y-91920000D03*
%TD*%
D17*
%TO.C,U5*%
X145650000Y-103750000D03*
X145650000Y-104250000D03*
X145650000Y-104750000D03*
X145650000Y-105250000D03*
X145650000Y-105750000D03*
X145650000Y-106250000D03*
X145650000Y-106750000D03*
D18*
X146600000Y-107700000D03*
X147100000Y-107700000D03*
X147600000Y-107700000D03*
X148100000Y-107700000D03*
X148600000Y-107700000D03*
X149100000Y-107700000D03*
X149600000Y-107700000D03*
D17*
X150550000Y-106750000D03*
X150550000Y-106250000D03*
X150550000Y-105750000D03*
X150550000Y-105250000D03*
X150550000Y-104750000D03*
X150550000Y-104250000D03*
X150550000Y-103750000D03*
D18*
X149600000Y-102800000D03*
X149100000Y-102800000D03*
X148600000Y-102800000D03*
X148100000Y-102800000D03*
X147600000Y-102800000D03*
X147100000Y-102800000D03*
X146600000Y-102800000D03*
D19*
X148100000Y-105250000D03*
%TD*%
D36*
%TO.C,C23*%
X133710000Y-101090000D03*
X134670000Y-101090000D03*
%TD*%
D27*
%TO.C,U4*%
X142450000Y-76220000D03*
X142050000Y-76220000D03*
X141650000Y-76220000D03*
X141250000Y-76220000D03*
X140850000Y-76220000D03*
X140450000Y-76220000D03*
X140050000Y-76220000D03*
X139650000Y-76220000D03*
X139250000Y-76220000D03*
X138850000Y-76220000D03*
X138450000Y-76220000D03*
X138050000Y-76220000D03*
D28*
X137300000Y-76970000D03*
X137300000Y-77370000D03*
X137300000Y-77770000D03*
X137300000Y-78170000D03*
X137300000Y-78570000D03*
X137300000Y-78970000D03*
X137300000Y-79370000D03*
X137300000Y-79770000D03*
X137300000Y-80170000D03*
X137300000Y-80570000D03*
X137300000Y-80970000D03*
X137300000Y-81370000D03*
D27*
X138050000Y-82120000D03*
X138450000Y-82120000D03*
X138850000Y-82120000D03*
X139250000Y-82120000D03*
X139650000Y-82120000D03*
X140050000Y-82120000D03*
X140450000Y-82120000D03*
X140850000Y-82120000D03*
X141250000Y-82120000D03*
X141650000Y-82120000D03*
X142050000Y-82120000D03*
X142450000Y-82120000D03*
D28*
X143200000Y-81370000D03*
X143200000Y-80970000D03*
X143200000Y-80570000D03*
X143200000Y-80170000D03*
X143200000Y-79770000D03*
X143200000Y-79370000D03*
X143200000Y-78970000D03*
X143200000Y-78570000D03*
X143200000Y-78170000D03*
X143200000Y-77770000D03*
X143200000Y-77370000D03*
X143200000Y-76970000D03*
D45*
X140245000Y-79185000D03*
%TD*%
D24*
%TO.C,C33*%
X132350000Y-103945000D03*
X132350000Y-105495000D03*
%TD*%
D16*
%TO.C,H1*%
X104030000Y-66950000D03*
%TD*%
D36*
%TO.C,C12*%
X148930000Y-76710000D03*
X149890000Y-76710000D03*
%TD*%
D33*
%TO.C,D13*%
X150880000Y-73497500D03*
X150880000Y-72097500D03*
%TD*%
D24*
%TO.C,C56*%
X143730000Y-106255000D03*
X143730000Y-107805000D03*
%TD*%
D34*
%TO.C,R4*%
X106240000Y-81890000D03*
X106240000Y-80870000D03*
%TD*%
D24*
%TO.C,C48*%
X131250000Y-80985000D03*
X131250000Y-82535000D03*
%TD*%
D20*
%TO.C,R27*%
X135680000Y-79080000D03*
X135680000Y-80100000D03*
%TD*%
D46*
%TO.C,FB1*%
X117250000Y-110122500D03*
X117250000Y-107997500D03*
%TD*%
D15*
%TO.C,C7*%
X110240000Y-73340000D03*
X110240000Y-74300000D03*
%TD*%
D43*
%TO.C,Q3*%
X145100000Y-99982500D03*
X147000000Y-99982500D03*
X146050000Y-98107500D03*
%TD*%
D34*
%TO.C,R18*%
X145090000Y-94990000D03*
X145090000Y-93970000D03*
%TD*%
D47*
%TO.C,C53*%
X146010000Y-108990000D03*
X145050000Y-108990000D03*
%TD*%
D21*
%TO.C,C25*%
X149250000Y-73505000D03*
X149250000Y-71955000D03*
%TD*%
D36*
%TO.C,C62*%
X141090000Y-73900000D03*
X142050000Y-73900000D03*
%TD*%
D38*
%TO.C,R22*%
X121180000Y-76760000D03*
X120160000Y-76760000D03*
%TD*%
D33*
%TO.C,D2*%
X107740000Y-82267500D03*
X107740000Y-80867500D03*
%TD*%
D31*
%TO.C,J3*%
X115740000Y-65190000D03*
X111490000Y-65190000D03*
X119990000Y-65190000D03*
%TD*%
D48*
%TO.C,C34*%
X131249411Y-101854142D03*
X130570589Y-102532964D03*
%TD*%
D34*
%TO.C,R13*%
X124400000Y-107800000D03*
X124400000Y-106780000D03*
%TD*%
D26*
%TO.C,SW1*%
X102060000Y-79430050D03*
X102060000Y-75112050D03*
%TD*%
D49*
%TO.C,CH334F1*%
X129570330Y-99115456D03*
D50*
X131868427Y-98585126D03*
X131514874Y-98231573D03*
X131161320Y-97878019D03*
X130807767Y-97524466D03*
X130454213Y-97170912D03*
X130100660Y-96817359D03*
D51*
X129040000Y-96817359D03*
X128686447Y-97170912D03*
X128332893Y-97524466D03*
X127979340Y-97878019D03*
X127625786Y-98231573D03*
X127272233Y-98585126D03*
D50*
X127272233Y-99645786D03*
X127625786Y-99999339D03*
X127979340Y-100352893D03*
X128332893Y-100706446D03*
X128686447Y-101060000D03*
X129040000Y-101413553D03*
D51*
X130100660Y-101413553D03*
X130454213Y-101060000D03*
X130807767Y-100706446D03*
X131161320Y-100352893D03*
X131514874Y-99999339D03*
X131868427Y-99645786D03*
%TD*%
D23*
%TO.C,D6*%
X136400000Y-105335000D03*
X136400000Y-107210000D03*
%TD*%
D15*
%TO.C,C10*%
X117310000Y-82860000D03*
X117310000Y-83820000D03*
%TD*%
%TO.C,C28*%
X112920000Y-113360000D03*
X112920000Y-114320000D03*
%TD*%
D52*
%TO.C,F1*%
X119390000Y-108000000D03*
X122190000Y-108000000D03*
%TD*%
D15*
%TO.C,C40*%
X146250000Y-74770000D03*
X146250000Y-75730000D03*
%TD*%
D36*
%TO.C,C4*%
X138690000Y-96823553D03*
X139650000Y-96823553D03*
%TD*%
D20*
%TO.C,R6*%
X136400000Y-108572500D03*
X136400000Y-109592500D03*
%TD*%
D53*
%TO.C,U3*%
X138455000Y-89345000D03*
X139725000Y-89345000D03*
X140995000Y-89345000D03*
X142265000Y-89345000D03*
X142265000Y-84395000D03*
X140995000Y-84395000D03*
X139725000Y-84395000D03*
X138455000Y-84395000D03*
%TD*%
D35*
%TO.C,L1*%
X137690000Y-72820000D03*
X137690000Y-73790000D03*
%TD*%
D34*
%TO.C,R14*%
X130770000Y-107770000D03*
X130770000Y-106750000D03*
%TD*%
D32*
%TO.C,R2*%
X103940000Y-107700000D03*
X104960000Y-107700000D03*
%TD*%
D15*
%TO.C,C19*%
X103940000Y-105680000D03*
X103940000Y-106640000D03*
%TD*%
D21*
%TO.C,C30*%
X104690000Y-115165000D03*
X104690000Y-113615000D03*
%TD*%
D35*
%TO.C,L4*%
X111390000Y-73345000D03*
X111390000Y-74315000D03*
%TD*%
D36*
%TO.C,C57*%
X114780000Y-73490000D03*
X115740000Y-73490000D03*
%TD*%
D54*
%TO.C,D9*%
X119770000Y-112927500D03*
X119770000Y-110127500D03*
%TD*%
D32*
%TO.C,R30*%
X147100000Y-109110000D03*
X148120000Y-109110000D03*
%TD*%
D43*
%TO.C,Q4*%
X148720000Y-100000000D03*
X150620000Y-100000000D03*
X149670000Y-98125000D03*
%TD*%
D25*
%TO.C,C41*%
X147970000Y-73520000D03*
X147970000Y-72560000D03*
%TD*%
D36*
%TO.C,C26*%
X119590000Y-81580000D03*
X120550000Y-81580000D03*
%TD*%
D26*
%TO.C,SW4*%
X128570000Y-85290050D03*
X128570000Y-80972050D03*
%TD*%
D33*
%TO.C,D5*%
X124940000Y-73580000D03*
X124940000Y-72180000D03*
%TD*%
D47*
%TO.C,C54*%
X146010000Y-110030000D03*
X145050000Y-110030000D03*
%TD*%
D21*
%TO.C,C5*%
X123330000Y-73575000D03*
X123330000Y-72025000D03*
%TD*%
D36*
%TO.C,C58*%
X114780000Y-70540000D03*
X115740000Y-70540000D03*
%TD*%
D32*
%TO.C,R8*%
X108300000Y-107190000D03*
X109320000Y-107190000D03*
%TD*%
D24*
%TO.C,C49*%
X131180000Y-74397500D03*
X131180000Y-75947500D03*
%TD*%
D36*
%TO.C,C61*%
X141090000Y-70890000D03*
X142050000Y-70890000D03*
%TD*%
D22*
%TO.C,L7*%
X115700000Y-69440000D03*
X116670000Y-69440000D03*
%TD*%
D30*
%TO.C,C59*%
X119600000Y-69440000D03*
X118050000Y-69440000D03*
%TD*%
D42*
%TO.C,Y2*%
X137010000Y-97943553D03*
X134810000Y-97943553D03*
X134810000Y-99643553D03*
X137010000Y-99643553D03*
%TD*%
D55*
%TO.C,U9*%
X125912500Y-105829749D03*
X125912500Y-106779749D03*
X125912500Y-107729749D03*
X128187500Y-107729749D03*
X128187500Y-106779749D03*
X128187500Y-105829749D03*
%TD*%
D21*
%TO.C,C42*%
X139090000Y-73810000D03*
X139090000Y-72260000D03*
%TD*%
D34*
%TO.C,R19*%
X108020000Y-94520000D03*
X108020000Y-93500000D03*
%TD*%
D35*
%TO.C,L9*%
X142050000Y-71905000D03*
X142050000Y-72875000D03*
%TD*%
D24*
%TO.C,C37*%
X130770000Y-103955000D03*
X130770000Y-105505000D03*
%TD*%
%TO.C,C16*%
X104900000Y-80865000D03*
X104900000Y-82415000D03*
%TD*%
D20*
%TO.C,R5*%
X146990000Y-95540000D03*
X146990000Y-96560000D03*
%TD*%
D53*
%TO.C,U2*%
X112140000Y-89310000D03*
X113410000Y-89310000D03*
X114680000Y-89310000D03*
X115950000Y-89310000D03*
X115950000Y-84360000D03*
X114680000Y-84360000D03*
X113410000Y-84360000D03*
X112140000Y-84360000D03*
%TD*%
D43*
%TO.C,Q2*%
X109960000Y-98030000D03*
X111860000Y-98030000D03*
X110910000Y-96155000D03*
%TD*%
D36*
%TO.C,C24*%
X123190000Y-76770000D03*
X124150000Y-76770000D03*
%TD*%
D21*
%TO.C,C44*%
X146560000Y-73525000D03*
X146560000Y-71975000D03*
%TD*%
D33*
%TO.C,D14*%
X134170000Y-82380000D03*
X134170000Y-80980000D03*
%TD*%
D21*
%TO.C,C13*%
X120530000Y-73600000D03*
X120530000Y-72050000D03*
%TD*%
D42*
%TO.C,Y3*%
X121790000Y-78280000D03*
X119590000Y-78280000D03*
X119590000Y-79980000D03*
X121790000Y-79980000D03*
%TD*%
D33*
%TO.C,D15*%
X133980000Y-75790000D03*
X133980000Y-74390000D03*
%TD*%
D21*
%TO.C,C8*%
X112760000Y-74310000D03*
X112760000Y-72760000D03*
%TD*%
D38*
%TO.C,R17*%
X133220000Y-96823553D03*
X132200000Y-96823553D03*
%TD*%
M02*
