M48
; DRILL file {KiCad 9.0.3} date 2026-08-08T16:38:24+0530
; FORMAT={-:-/ absolute / metric / decimal}
; #@! TF.CreationDate,2026-08-08T16:38:24+05:30
; #@! TF.GenerationSoftware,Kicad,Pcbnew,9.0.3
; #@! TF.FileFunction,MixedPlating,1,4
FMAT,2
METRIC
; #@! TA.AperFunction,Plated,PTH,ViaDrill
T1C0.300
; #@! TA.AperFunction,Plated,PTH,ComponentDrill
T2C0.600
; #@! TA.AperFunction,NonPlated,NPTH,ComponentDrill
T3C0.650
; #@! TA.AperFunction,NonPlated,NPTH,ComponentDrill
T4C2.500
%
G90
G05
T1
X101.11Y-104.12
X101.35Y-111.39
X101.46Y-89.69
X101.46Y-90.49
X101.47Y-91.33
X101.47Y-92.96
X101.48Y-92.16
X101.48Y-93.78
X101.48Y-94.58
X101.71Y-103.51
X102.09Y-82.98
X102.09Y-86.21
X102.1Y-77.17
X102.24Y-112.13
X102.3Y-89.69
X102.3Y-90.49
X102.31Y-91.32
X102.31Y-92.96
X102.32Y-92.15
X102.32Y-93.78
X102.32Y-94.58
X102.35Y-102.96
X102.96Y-115.62
X102.98Y-109.34
X103.47Y-114.453
X103.5Y-113.61
X103.6Y-102.59
X103.6Y-112.27
X104.15Y-79.44
X104.4Y-99.23
X104.47Y-102.57
X104.64Y-112.28
X104.71Y-116.14
X104.91Y-83.6
X105.35Y-73.01
X105.51Y-112.26
X105.59Y-102.6
X106.003Y-107.11
X106.24Y-83.64
X106.34Y-116.16
X106.39Y-112.25
X106.88Y-86.48
X106.88Y-88.11
X106.89Y-87.31
X106.89Y-88.93
X106.89Y-89.73
X107.05Y-92.49
X107.07Y-93.49
X107.18Y-70.58
X107.37Y-64.22
X107.37Y-65.85
X107.38Y-65.05
X107.38Y-66.67
X107.71Y-112.03
X107.72Y-86.47
X107.72Y-88.11
X107.73Y-87.3
X107.73Y-88.93
X107.73Y-89.73
X107.77Y-83.6
X107.87Y-116.36
X107.91Y-70.11
X108.11Y-103.11
X108.12Y-102.31
X108.12Y-103.93
X108.12Y-104.73
X108.21Y-64.21
X108.21Y-65.85
X108.22Y-65.04
X108.22Y-66.67
X108.4Y-79.17
X108.45Y-78.18
X108.56Y-114.02
X108.68Y-84.6
X108.68Y-116.36
X108.7Y-70.57
X108.95Y-103.11
X108.96Y-102.3
X108.96Y-103.93
X108.96Y-104.73
X108.97Y-81.92
X109.05Y-64.2
X109.06Y-65.03
X109.06Y-65.85
X109.07Y-66.67
X109.29Y-74.42
X109.48Y-114.0
X109.5Y-116.36
X109.57Y-70.11
X109.7Y-108.3
X109.8Y-67.76
X109.8Y-102.29
X109.8Y-103.11
X109.81Y-63.61
X109.81Y-103.93
X109.81Y-104.75
X109.83Y-66.1
X109.84Y-66.95
X109.85Y-76.06
X109.87Y-64.47
X109.88Y-62.76
X109.937Y-92.497
X109.96Y-85.91
X109.96Y-93.46
X110.33Y-116.37
X110.43Y-68.46
X110.46Y-70.56
X110.6Y-102.3
X110.6Y-103.11
X110.61Y-103.93
X110.61Y-104.73
X110.65Y-109.44
X110.66Y-107.54
X110.91Y-94.65
X111.14Y-84.25
X111.2Y-116.37
X111.49Y-109.43
X111.5Y-63.89
X111.5Y-65.53
X111.5Y-68.56
X111.51Y-64.72
X111.51Y-66.35
X112.04Y-116.31
X112.19Y-77.46
X112.19Y-79.09
X112.2Y-78.29
X112.2Y-79.91
X112.2Y-80.71
X112.32Y-108.37
X112.33Y-106.41
X112.33Y-107.44
X112.47Y-68.45
X112.75Y-71.5
X112.97Y-67.61
X113.03Y-77.45
X113.03Y-79.09
X113.04Y-63.17
X113.04Y-78.28
X113.04Y-79.91
X113.04Y-80.71
X113.06Y-64.03
X113.06Y-65.66
X113.07Y-64.86
X113.07Y-66.48
X113.07Y-116.01
X113.16Y-85.97
X113.51Y-111.12
X113.58Y-71.49
X113.6Y-67.1
X113.85Y-70.53
X113.87Y-77.44
X113.88Y-78.27
X113.88Y-79.09
X113.89Y-79.91
X113.89Y-80.73
X113.94Y-116.01
X114.12Y-68.14
X114.16Y-110.5
X114.28Y-63.13
X114.37Y-68.96
X114.38Y-64.03
X114.38Y-65.66
X114.39Y-64.86
X114.39Y-66.48
X114.45Y-67.37
X114.67Y-77.45
X114.68Y-78.28
X114.68Y-79.09
X114.69Y-79.91
X114.69Y-80.71
X114.72Y-111.14
X114.77Y-109.78
X114.78Y-116.0
X114.79Y-72.56
X114.8Y-71.75
X114.83Y-69.68
X114.91Y-104.21
X114.92Y-102.57
X114.92Y-103.4
X114.93Y-101.75
X114.93Y-105.02
X114.94Y-105.85
X115.173Y-68.45
X115.49Y-77.44
X115.5Y-78.27
X115.5Y-79.08
X115.51Y-79.9
X115.51Y-80.7
X115.6Y-112.97
X115.76Y-109.74
X115.77Y-108.1
X115.77Y-108.93
X115.78Y-107.28
X115.78Y-110.55
X115.79Y-111.38
X115.91Y-98.95
X116.297Y-68.46
X116.32Y-86.74
X116.35Y-115.54
X116.59Y-70.5
X116.59Y-71.4
X116.62Y-72.31
X116.62Y-73.15
X116.64Y-73.96
X116.66Y-106.79
X116.7Y-109.05
X116.702Y-81.98
X116.74Y-98.95
X117.01Y-64.05
X117.01Y-65.68
X117.02Y-64.88
X117.02Y-66.5
X117.1Y-67.42
X117.15Y-87.87
X117.22Y-85.65
X117.31Y-96.17
X117.32Y-68.2
X117.34Y-115.54
X117.56Y-98.96
X117.59Y-106.77
X117.62Y-109.04
X118.13Y-114.11
X118.13Y-114.99
X118.14Y-96.17
X118.36Y-64.04
X118.36Y-65.67
X118.36Y-111.47
X118.37Y-64.87
X118.37Y-66.49
X118.49Y-98.97
X118.52Y-67.31
X118.83Y-68.13
X118.9Y-106.45
X118.96Y-96.18
X119.31Y-98.98
X119.84Y-84.56
X119.84Y-86.19
X119.85Y-85.39
X119.85Y-87.01
X119.85Y-87.81
X119.86Y-88.65
X119.86Y-90.28
X119.87Y-89.48
X119.87Y-91.1
X119.87Y-91.9
X119.89Y-96.19
X119.91Y-106.44
X119.96Y-63.89
X119.96Y-65.53
X119.97Y-64.72
X119.97Y-66.35
X120.14Y-98.98
X120.58Y-82.77
X120.68Y-84.55
X120.68Y-86.19
X120.69Y-85.38
X120.69Y-87.01
X120.69Y-87.81
X120.7Y-88.64
X120.7Y-90.28
X120.71Y-89.47
X120.71Y-91.1
X120.71Y-91.9
X120.71Y-96.2
X120.95Y-98.99
X121.02Y-111.62
X121.32Y-115.9
X121.34Y-113.43
X121.35Y-68.16
X121.42Y-63.16
X121.44Y-69.88
X121.44Y-70.77
X121.48Y-66.43
X121.48Y-67.33
X121.5Y-64.12
X121.54Y-96.2
X121.61Y-81.58
X121.76Y-98.97
X121.78Y-110.72
X121.84Y-109.62
X122.17Y-106.49
X122.35Y-96.21
X122.48Y-70.76
X122.59Y-98.96
X122.67Y-63.38
X122.68Y-64.21
X123.16Y-96.19
X123.23Y-111.48
X123.23Y-115.635
X123.35Y-70.75
X123.47Y-79.15
X123.47Y-79.97
X123.47Y-80.81
X123.49Y-63.37
X123.49Y-83.14
X123.49Y-84.77
X123.5Y-64.2
X123.5Y-83.97
X123.5Y-85.59
X123.5Y-86.39
X123.51Y-87.23
X123.51Y-88.86
X123.52Y-88.06
X123.52Y-89.68
X123.52Y-90.48
X123.53Y-106.78
X123.99Y-96.18
X124.15Y-113.13
X124.33Y-83.13
X124.33Y-84.77
X124.34Y-83.96
X124.34Y-85.59
X124.34Y-86.39
X124.35Y-63.4
X124.35Y-87.22
X124.35Y-88.86
X124.36Y-64.23
X124.36Y-88.05
X124.36Y-89.68
X124.36Y-90.48
X124.39Y-105.8
X124.51Y-74.8
X124.98Y-70.74
X125.15Y-109.06
X125.17Y-83.12
X125.17Y-115.01
X125.17Y-115.85
X125.18Y-83.95
X125.18Y-84.77
X125.19Y-63.39
X125.19Y-85.59
X125.19Y-86.41
X125.19Y-87.21
X125.2Y-64.22
X125.2Y-88.04
X125.2Y-88.86
X125.21Y-89.68
X125.21Y-90.5
X125.36Y-75.13
X125.36Y-75.95
X125.36Y-76.79
X125.71Y-102.15
X125.72Y-100.51
X125.72Y-101.34
X125.73Y-98.87
X125.73Y-99.69
X125.73Y-102.96
X125.74Y-103.79
X126.0Y-115.0
X126.01Y-115.84
X126.03Y-63.38
X126.83Y-63.39
X126.83Y-114.99
X126.84Y-115.83
X126.95Y-64.58
X126.95Y-66.21
X126.96Y-65.41
X126.96Y-67.03
X126.96Y-67.83
X126.97Y-68.67
X126.97Y-70.3
X126.98Y-69.5
X126.98Y-71.12
X126.98Y-71.92
X127.024Y-112.855
X127.4Y-96.76
X127.64Y-115.0
X127.64Y-115.84
X127.65Y-63.38
X127.79Y-64.57
X127.79Y-66.21
X127.79Y-86.32
X127.79Y-87.95
X127.8Y-65.4
X127.8Y-67.03
X127.8Y-67.83
X127.8Y-87.15
X127.8Y-88.77
X127.8Y-89.57
X127.81Y-68.66
X127.81Y-70.3
X127.81Y-90.41
X127.81Y-92.04
X127.81Y-112.05
X127.82Y-69.49
X127.82Y-71.12
X127.82Y-71.92
X127.82Y-91.24
X127.82Y-92.86
X127.82Y-93.66
X128.0Y-96.2
X128.26Y-99.2
X128.46Y-114.99
X128.46Y-115.83
X128.51Y-63.41
X128.56Y-75.92
X128.57Y-82.57
X128.62Y-95.64
X128.63Y-64.56
X128.63Y-86.31
X128.63Y-87.95
X128.64Y-65.39
X128.64Y-66.21
X128.64Y-87.14
X128.64Y-88.77
X128.64Y-89.57
X128.65Y-67.03
X128.65Y-67.85
X128.65Y-68.65
X128.65Y-90.4
X128.65Y-92.04
X128.66Y-69.48
X128.66Y-70.3
X128.66Y-91.23
X128.66Y-92.86
X128.66Y-93.66
X128.67Y-71.12
X128.67Y-71.94
X128.91Y-98.63
X128.91Y-99.77
X129.26Y-114.99
X129.26Y-115.83
X129.35Y-63.4
X129.363Y-106.157
X129.47Y-86.3
X129.48Y-87.13
X129.48Y-87.95
X129.49Y-88.77
X129.49Y-89.59
X129.49Y-90.39
X129.5Y-91.22
X129.5Y-92.04
X129.5Y-99.19
X129.51Y-92.86
X129.51Y-93.68
X129.53Y-95.88
X129.53Y-97.99
X129.55Y-100.33
X129.63Y-104.83
X129.95Y-109.06
X129.97Y-64.56
X129.97Y-66.19
X129.98Y-65.39
X129.98Y-67.01
X129.98Y-67.81
X129.99Y-68.65
X129.99Y-70.28
X130.0Y-69.48
X130.0Y-71.1
X130.0Y-71.9
X130.13Y-99.74
X130.15Y-63.41
X130.18Y-98.6
X130.81Y-64.55
X130.81Y-66.19
X130.81Y-99.13
X130.82Y-65.38
X130.82Y-67.01
X130.82Y-67.81
X130.83Y-68.64
X130.83Y-70.28
X130.84Y-69.47
X130.84Y-71.1
X130.84Y-71.9
X130.97Y-63.4
X131.09Y-113.14
X131.18Y-77.01
X131.18Y-102.9
X131.65Y-64.54
X131.66Y-65.37
X131.66Y-66.19
X131.67Y-67.01
X131.67Y-67.83
X131.67Y-68.63
X131.68Y-69.46
X131.68Y-70.28
X131.69Y-71.1
X131.69Y-71.92
X131.77Y-107.33
X131.832Y-111.417
X131.87Y-115.635
X132.05Y-83.96
X132.05Y-85.59
X132.06Y-84.79
X132.06Y-86.41
X132.06Y-87.21
X132.07Y-88.05
X132.07Y-89.68
X132.08Y-88.88
X132.08Y-90.5
X132.08Y-91.3
X132.17Y-109.04
X132.27Y-73.1
X132.63Y-77.04
X132.75Y-83.0
X132.89Y-83.95
X132.89Y-85.59
X132.9Y-84.78
X132.9Y-86.41
X132.9Y-87.21
X132.91Y-88.04
X132.91Y-89.68
X132.92Y-88.87
X132.92Y-90.5
X132.92Y-91.3
X133.08Y-107.06
X133.22Y-94.18
X133.26Y-78.1
X133.3Y-110.63
X133.3Y-112.4
X133.31Y-111.5
X133.31Y-115.04
X133.37Y-116.08
X133.73Y-83.94
X133.74Y-84.77
X133.74Y-85.59
X133.75Y-86.41
X133.75Y-87.23
X133.75Y-88.03
X133.76Y-88.86
X133.76Y-89.68
X133.77Y-90.5
X133.77Y-91.32
X133.93Y-104.25
X134.03Y-63.87
X134.03Y-65.5
X134.04Y-64.7
X134.04Y-66.32
X134.05Y-94.18
X134.08Y-105.73
X134.14Y-110.66
X134.14Y-112.43
X134.15Y-111.53
X134.44Y-78.14
X134.45Y-77.18
X134.68Y-79.09
X134.87Y-63.86
X134.87Y-65.5
X134.87Y-94.19
X134.88Y-64.69
X134.88Y-66.32
X135.25Y-73.76
X135.71Y-63.85
X135.72Y-64.68
X135.72Y-65.5
X135.73Y-66.32
X135.8Y-94.2
X136.21Y-62.94
X136.27Y-67.95
X136.3Y-66.97
X136.4Y-74.932
X136.4Y-110.98
X136.46Y-75.84
X136.62Y-94.21
X137.08Y-68.42
X137.29Y-85.06
X137.45Y-94.21
X137.81Y-63.08
X137.81Y-63.92
X137.81Y-65.56
X137.82Y-64.75
X137.82Y-66.38
X137.82Y-67.23
X137.93Y-101.08
X137.95Y-68.46
X138.26Y-94.22
X138.44Y-86.02
X138.58Y-77.52
X138.58Y-79.15
X138.59Y-78.35
X138.59Y-79.97
X138.59Y-80.77
X138.59Y-110.95
X138.85Y-68.23
X139.04Y-64.37
X139.07Y-94.2
X139.08Y-63.37
X139.09Y-67.22
X139.13Y-66.26
X139.42Y-77.51
X139.42Y-79.15
X139.43Y-78.34
X139.43Y-79.97
X139.43Y-80.77
X139.48Y-99.01
X139.87Y-67.79
X139.89Y-63.87
X139.89Y-65.5
X139.89Y-66.71
X139.9Y-64.7
X139.9Y-94.19
X140.23Y-70.89
X140.26Y-77.5
X140.27Y-78.33
X140.27Y-79.15
X140.28Y-79.97
X140.28Y-80.79
X140.36Y-69.47
X140.71Y-63.15
X140.74Y-65.77
X140.74Y-68.0
X140.75Y-64.0
X140.75Y-66.66
X140.77Y-64.87
X141.05Y-71.76
X141.06Y-77.51
X141.06Y-91.1
X141.07Y-78.34
X141.07Y-79.15
X141.08Y-79.97
X141.08Y-80.77
X141.08Y-93.92
X141.09Y-70.06
X141.09Y-73.16
X141.24Y-68.83
X141.88Y-77.5
X141.88Y-103.91
X141.88Y-104.74
X141.89Y-78.33
X141.89Y-79.14
X141.89Y-98.06
X141.89Y-103.09
X141.9Y-79.96
X141.9Y-80.76
X141.9Y-98.89
X141.9Y-102.16
X141.91Y-100.51
X141.91Y-101.34
X141.92Y-99.7
X142.41Y-93.81
X142.705Y-90.935
X142.71Y-86.87
X142.81Y-68.85
X143.012Y-82.095
X143.02Y-70.8
X143.04Y-71.66
X143.05Y-72.47
X143.06Y-73.3
X143.06Y-74.18
X143.33Y-65.13
X143.33Y-66.07
X143.33Y-68.09
X143.34Y-64.0
X143.37Y-66.95
X143.55Y-85.4
X143.65Y-86.86
X143.66Y-112.01
X144.04Y-68.6
X144.26Y-63.98
X144.26Y-65.61
X144.27Y-64.81
X144.27Y-66.43
X144.3Y-67.43
X144.31Y-72.52
X144.42Y-103.46
X144.98Y-63.45
X145.01Y-66.1
X145.06Y-66.98
X145.25Y-71.29
X145.48Y-111.59
X145.98Y-95.54
X146.01Y-93.99
X146.05Y-96.59
X146.16Y-82.37
X146.37Y-63.02
X146.37Y-63.88
X146.37Y-65.52
X146.38Y-64.71
X146.38Y-66.34
X146.39Y-67.16
X146.56Y-70.87
X146.82Y-104.82
X146.83Y-104.02
X146.83Y-105.64
X146.83Y-106.44
X147.12Y-81.33
X147.19Y-69.77
X147.37Y-110.44
X147.66Y-104.82
X147.67Y-104.01
X147.67Y-105.64
X147.67Y-106.44
X147.98Y-70.73
X148.38Y-63.98
X148.38Y-65.61
X148.39Y-64.81
X148.39Y-66.43
X148.51Y-104.0
X148.51Y-104.82
X148.52Y-105.64
X148.52Y-106.46
X148.72Y-95.54
X149.21Y-75.68
X149.22Y-63.97
X149.22Y-65.61
X149.23Y-64.8
X149.23Y-66.43
X149.25Y-109.11
X149.27Y-70.68
X149.31Y-104.01
X149.31Y-104.82
X149.32Y-105.64
X149.32Y-106.44
X149.66Y-96.02
X149.93Y-79.93
X150.06Y-63.96
X150.07Y-64.79
X150.07Y-65.61
X150.08Y-66.43
X150.13Y-74.72
X150.41Y-84.12
X150.41Y-85.75
X150.42Y-84.95
X150.42Y-86.57
X150.42Y-87.37
X150.43Y-88.21
X150.43Y-89.84
X150.44Y-89.04
X150.44Y-90.66
X150.44Y-91.46
X150.61Y-93.94
X150.7Y-76.73
X150.88Y-71.0
X151.25Y-84.11
X151.25Y-85.75
X151.26Y-84.94
X151.26Y-86.57
X151.26Y-87.37
X151.27Y-88.2
X151.27Y-89.84
X151.28Y-89.03
X151.28Y-90.66
X151.28Y-91.46
X151.52Y-63.37
X151.52Y-65.0
X151.53Y-64.2
X151.53Y-65.82
X151.53Y-66.62
X151.53Y-75.31
X151.53Y-76.94
X151.54Y-67.46
X151.54Y-69.09
X151.54Y-76.14
X151.54Y-77.76
X151.54Y-78.56
X151.55Y-68.29
X151.55Y-69.91
X151.55Y-79.4
X151.55Y-81.03
X151.56Y-80.23
X151.56Y-81.85
X151.56Y-82.65
X151.9Y-72.08
X152.09Y-84.1
X152.1Y-84.93
X152.1Y-85.75
X152.11Y-86.57
X152.11Y-87.39
X152.11Y-88.19
X152.12Y-89.02
X152.12Y-89.84
X152.13Y-90.66
X152.13Y-91.48
X152.28Y-73.5
X152.36Y-63.36
X152.36Y-65.0
X152.37Y-64.19
X152.37Y-65.82
X152.37Y-66.62
X152.37Y-75.3
X152.37Y-76.94
X152.38Y-67.45
X152.38Y-69.09
X152.38Y-76.13
X152.38Y-77.76
X152.38Y-78.56
X152.39Y-68.28
X152.39Y-69.91
X152.39Y-70.71
X152.39Y-79.39
X152.39Y-81.03
X152.4Y-80.22
X152.4Y-81.85
X152.4Y-82.65
X153.2Y-63.35
X153.21Y-64.18
X153.21Y-65.0
X153.21Y-75.29
X153.22Y-65.82
X153.22Y-66.64
X153.22Y-67.44
X153.22Y-76.12
X153.22Y-76.94
X153.23Y-68.27
X153.23Y-69.09
X153.23Y-77.76
X153.23Y-78.58
X153.23Y-79.38
X153.24Y-69.91
X153.24Y-70.73
X153.24Y-80.21
X153.24Y-81.03
X153.25Y-81.85
X153.25Y-82.67
T3
X124.66Y-111.955
X130.44Y-111.955
T4
X104.03Y-66.95
X150.08Y-113.06
T2
G00X123.23Y-110.905
M15
G01X123.23Y-112.005
M16
G05
G00X123.23Y-115.335
M15
G01X123.23Y-115.935
M16
G05
G00X131.87Y-110.905
M15
G01X131.87Y-112.005
M16
G05
G00X131.87Y-115.335
M15
G01X131.87Y-115.935
M16
G05
M30
