%TF.GenerationSoftware,KiCad,Pcbnew,9.0.3*%
%TF.CreationDate,2026-05-30T21:23:59+05:30*%
%TF.ProjectId,new',6e657727-2e6b-4696-9361-645f70636258,rev?*%
%TF.SameCoordinates,Original*%
%TF.FileFunction,Copper,L2,Inr*%
%TF.FilePolarity,Positive*%
%FSLAX46Y46*%
G04 Gerber Fmt 4.6, Leading zero omitted, Abs format (unit mm)*
G04 Created by KiCad (PCBNEW 9.0.3) date 2026-05-30 21:23:59*
%MOMM*%
%LPD*%
G01*
G04 APERTURE LIST*
%TA.AperFunction,HeatsinkPad*%
%ADD10O,2.100000X1.000000*%
%TD*%
%TA.AperFunction,HeatsinkPad*%
%ADD11O,1.600000X1.000000*%
%TD*%
%TA.AperFunction,ViaPad*%
%ADD12C,0.600000*%
%TD*%
%TA.AperFunction,Conductor*%
%ADD13C,0.600000*%
%TD*%
%TA.AperFunction,Conductor*%
%ADD14C,0.500000*%
%TD*%
G04 APERTURE END LIST*
D10*
%TO.N,GND*%
%TO.C,J3*%
X174365000Y-85330000D03*
D11*
X170185000Y-85330000D03*
D10*
X174365000Y-93970000D03*
D11*
X170185000Y-93970000D03*
%TD*%
D12*
%TO.N,GND*%
X180000000Y-86500000D03*
X209470000Y-90100000D03*
X184770000Y-81460000D03*
X207920000Y-85790000D03*
X201450000Y-95180000D03*
X196900000Y-95180000D03*
X187530000Y-95180000D03*
X201990000Y-74280000D03*
X189170000Y-73440000D03*
X170185000Y-89870000D03*
X182500000Y-73078000D03*
X176490000Y-75390000D03*
X177948000Y-78348000D03*
X172840000Y-81510000D03*
%TO.N,+3V3*%
X181570000Y-93810000D03*
X184710000Y-74690000D03*
X183480000Y-74690000D03*
%TO.N,Net-(D1-A2)*%
X184770000Y-77870000D03*
%TO.N,+3V3*%
X189140000Y-74690000D03*
%TO.N,+5V*%
X184030000Y-87570000D03*
X184030000Y-90150000D03*
%TO.N,+3V3*%
X181570000Y-79210000D03*
%TO.N,Net-(F3-Pad2)*%
X177370000Y-87250000D03*
X177360000Y-92050000D03*
%TO.N,GND*%
X179160000Y-92530000D03*
X179130000Y-87080000D03*
X178212500Y-90150000D03*
%TD*%
D13*
%TO.N,Net-(D1-A2)*%
X184780000Y-77880000D02*
X184770000Y-77870000D01*
X184770000Y-77870000D02*
X184760000Y-77880000D01*
D14*
%TO.N,Net-(F3-Pad2)*%
X177370000Y-92040000D02*
X177360000Y-92050000D01*
%TD*%
%TA.AperFunction,Conductor*%
%TO.N,GND*%
G36*
X209742539Y-72220185D02*
G01*
X209788294Y-72272989D01*
X209799500Y-72324500D01*
X209799500Y-96675500D01*
X209779815Y-96742539D01*
X209727011Y-96788294D01*
X209675500Y-96799500D01*
X168324500Y-96799500D01*
X168257461Y-96779815D01*
X168211706Y-96727011D01*
X168200500Y-96675500D01*
X168200500Y-93720000D01*
X168915138Y-93720000D01*
X169718012Y-93720000D01*
X169700795Y-93729940D01*
X169644940Y-93785795D01*
X169605444Y-93854204D01*
X169585000Y-93930504D01*
X169585000Y-94009496D01*
X169605444Y-94085796D01*
X169644940Y-94154205D01*
X169700795Y-94210060D01*
X169718012Y-94220000D01*
X168915138Y-94220000D01*
X168923430Y-94261690D01*
X168923430Y-94261692D01*
X168998807Y-94443671D01*
X168998814Y-94443684D01*
X169108248Y-94607462D01*
X169108251Y-94607466D01*
X169247533Y-94746748D01*
X169247537Y-94746751D01*
X169411315Y-94856185D01*
X169411328Y-94856192D01*
X169593306Y-94931569D01*
X169593318Y-94931572D01*
X169786504Y-94969999D01*
X169786508Y-94970000D01*
X169935000Y-94970000D01*
X169935000Y-94270000D01*
X170435000Y-94270000D01*
X170435000Y-94970000D01*
X170583492Y-94970000D01*
X170583495Y-94969999D01*
X170776681Y-94931572D01*
X170776693Y-94931569D01*
X170958671Y-94856192D01*
X170958684Y-94856185D01*
X171122462Y-94746751D01*
X171122466Y-94746748D01*
X171261748Y-94607466D01*
X171261751Y-94607462D01*
X171371185Y-94443684D01*
X171371192Y-94443671D01*
X171446569Y-94261692D01*
X171446569Y-94261690D01*
X171454862Y-94220000D01*
X170651988Y-94220000D01*
X170669205Y-94210060D01*
X170725060Y-94154205D01*
X170764556Y-94085796D01*
X170785000Y-94009496D01*
X170785000Y-93930504D01*
X170764556Y-93854204D01*
X170725060Y-93785795D01*
X170669205Y-93729940D01*
X170651988Y-93720000D01*
X171454862Y-93720000D01*
X172845138Y-93720000D01*
X173648012Y-93720000D01*
X173630795Y-93729940D01*
X173574940Y-93785795D01*
X173535444Y-93854204D01*
X173515000Y-93930504D01*
X173515000Y-94009496D01*
X173535444Y-94085796D01*
X173574940Y-94154205D01*
X173630795Y-94210060D01*
X173648012Y-94220000D01*
X172845138Y-94220000D01*
X172853430Y-94261690D01*
X172853430Y-94261692D01*
X172928807Y-94443671D01*
X172928814Y-94443684D01*
X173038248Y-94607462D01*
X173038251Y-94607466D01*
X173177533Y-94746748D01*
X173177537Y-94746751D01*
X173341315Y-94856185D01*
X173341328Y-94856192D01*
X173523306Y-94931569D01*
X173523318Y-94931572D01*
X173716504Y-94969999D01*
X173716508Y-94970000D01*
X174115000Y-94970000D01*
X174115000Y-94270000D01*
X174615000Y-94270000D01*
X174615000Y-94970000D01*
X175013492Y-94970000D01*
X175013495Y-94969999D01*
X175206681Y-94931572D01*
X175206693Y-94931569D01*
X175388671Y-94856192D01*
X175388684Y-94856185D01*
X175552462Y-94746751D01*
X175552466Y-94746748D01*
X175691748Y-94607466D01*
X175691751Y-94607462D01*
X175801185Y-94443684D01*
X175801192Y-94443671D01*
X175876569Y-94261692D01*
X175876569Y-94261690D01*
X175884862Y-94220000D01*
X175081988Y-94220000D01*
X175099205Y-94210060D01*
X175155060Y-94154205D01*
X175194556Y-94085796D01*
X175215000Y-94009496D01*
X175215000Y-93930504D01*
X175194556Y-93854204D01*
X175155060Y-93785795D01*
X175100418Y-93731153D01*
X180769500Y-93731153D01*
X180769500Y-93888846D01*
X180800261Y-94043489D01*
X180800264Y-94043501D01*
X180860602Y-94189172D01*
X180860609Y-94189185D01*
X180948210Y-94320288D01*
X180948213Y-94320292D01*
X181059707Y-94431786D01*
X181059711Y-94431789D01*
X181190814Y-94519390D01*
X181190827Y-94519397D01*
X181336498Y-94579735D01*
X181336503Y-94579737D01*
X181475885Y-94607462D01*
X181491153Y-94610499D01*
X181491156Y-94610500D01*
X181491158Y-94610500D01*
X181648844Y-94610500D01*
X181648845Y-94610499D01*
X181803497Y-94579737D01*
X181949179Y-94519394D01*
X182080289Y-94431789D01*
X182191789Y-94320289D01*
X182279394Y-94189179D01*
X182339737Y-94043497D01*
X182370500Y-93888842D01*
X182370500Y-93731158D01*
X182370500Y-93731155D01*
X182370499Y-93731153D01*
X182370258Y-93729940D01*
X182339737Y-93576503D01*
X182306528Y-93496328D01*
X182279397Y-93430827D01*
X182279390Y-93430814D01*
X182191789Y-93299711D01*
X182191786Y-93299707D01*
X182080292Y-93188213D01*
X182080288Y-93188210D01*
X181949185Y-93100609D01*
X181949172Y-93100602D01*
X181803501Y-93040264D01*
X181803489Y-93040261D01*
X181648845Y-93009500D01*
X181648842Y-93009500D01*
X181491158Y-93009500D01*
X181491155Y-93009500D01*
X181336510Y-93040261D01*
X181336498Y-93040264D01*
X181190827Y-93100602D01*
X181190814Y-93100609D01*
X181059711Y-93188210D01*
X181059707Y-93188213D01*
X180948213Y-93299707D01*
X180948210Y-93299711D01*
X180860609Y-93430814D01*
X180860602Y-93430827D01*
X180800264Y-93576498D01*
X180800261Y-93576510D01*
X180769500Y-93731153D01*
X175100418Y-93731153D01*
X175099205Y-93729940D01*
X175081988Y-93720000D01*
X175884863Y-93720000D01*
X175876572Y-93678319D01*
X175876569Y-93678307D01*
X175801192Y-93496328D01*
X175801185Y-93496315D01*
X175691751Y-93332537D01*
X175691748Y-93332533D01*
X175552466Y-93193251D01*
X175552462Y-93193248D01*
X175388684Y-93083814D01*
X175388671Y-93083807D01*
X175206693Y-93008430D01*
X175206681Y-93008427D01*
X175013495Y-92970000D01*
X174615000Y-92970000D01*
X174615000Y-93670000D01*
X174115000Y-93670000D01*
X174115000Y-92943110D01*
X174123644Y-92913669D01*
X174130168Y-92883683D01*
X174133922Y-92878667D01*
X174134685Y-92876071D01*
X174151319Y-92855429D01*
X174175791Y-92830957D01*
X174190574Y-92816174D01*
X174205485Y-92801263D01*
X174261503Y-92704237D01*
X174290500Y-92596018D01*
X174290500Y-92483982D01*
X174261503Y-92375763D01*
X174205485Y-92278737D01*
X174126263Y-92199515D01*
X174029237Y-92143497D01*
X173921018Y-92114500D01*
X173808982Y-92114500D01*
X173700763Y-92143497D01*
X173700760Y-92143498D01*
X173603740Y-92199513D01*
X173603734Y-92199517D01*
X173524517Y-92278734D01*
X173524513Y-92278740D01*
X173468498Y-92375760D01*
X173468497Y-92375763D01*
X173439500Y-92483982D01*
X173439500Y-92596018D01*
X173468497Y-92704237D01*
X173524515Y-92801263D01*
X173524517Y-92801265D01*
X173539426Y-92816174D01*
X173572911Y-92877497D01*
X173567927Y-92947189D01*
X173526055Y-93003122D01*
X173499198Y-93018416D01*
X173341325Y-93083809D01*
X173341315Y-93083814D01*
X173177537Y-93193248D01*
X173177533Y-93193251D01*
X173038251Y-93332533D01*
X173038248Y-93332537D01*
X172928814Y-93496315D01*
X172928807Y-93496328D01*
X172853430Y-93678307D01*
X172853430Y-93678309D01*
X172845138Y-93720000D01*
X171454862Y-93720000D01*
X171446569Y-93678309D01*
X171446569Y-93678307D01*
X171371192Y-93496328D01*
X171371185Y-93496315D01*
X171261751Y-93332537D01*
X171261748Y-93332533D01*
X171122466Y-93193251D01*
X171122462Y-93193248D01*
X170958684Y-93083814D01*
X170958671Y-93083807D01*
X170776693Y-93008430D01*
X170776681Y-93008427D01*
X170583495Y-92970000D01*
X170435000Y-92970000D01*
X170435000Y-93670000D01*
X169935000Y-93670000D01*
X169935000Y-92970000D01*
X169786504Y-92970000D01*
X169593318Y-93008427D01*
X169593306Y-93008430D01*
X169411328Y-93083807D01*
X169411315Y-93083814D01*
X169247537Y-93193248D01*
X169247533Y-93193251D01*
X169108251Y-93332533D01*
X169108248Y-93332537D01*
X168998814Y-93496315D01*
X168998807Y-93496328D01*
X168923430Y-93678307D01*
X168923430Y-93678309D01*
X168915138Y-93720000D01*
X168200500Y-93720000D01*
X168200500Y-91971153D01*
X176559500Y-91971153D01*
X176559500Y-92128846D01*
X176590261Y-92283489D01*
X176590264Y-92283501D01*
X176650602Y-92429172D01*
X176650609Y-92429185D01*
X176738210Y-92560288D01*
X176738213Y-92560292D01*
X176849707Y-92671786D01*
X176849711Y-92671789D01*
X176980814Y-92759390D01*
X176980827Y-92759397D01*
X177081902Y-92801263D01*
X177126503Y-92819737D01*
X177281153Y-92850499D01*
X177281156Y-92850500D01*
X177281158Y-92850500D01*
X177438844Y-92850500D01*
X177438845Y-92850499D01*
X177593497Y-92819737D01*
X177739179Y-92759394D01*
X177870289Y-92671789D01*
X177981789Y-92560289D01*
X178069394Y-92429179D01*
X178129737Y-92283497D01*
X178160500Y-92128842D01*
X178160500Y-91971158D01*
X178160500Y-91971155D01*
X178160499Y-91971153D01*
X178129738Y-91816510D01*
X178129737Y-91816503D01*
X178129735Y-91816498D01*
X178069397Y-91670827D01*
X178069390Y-91670814D01*
X177981789Y-91539711D01*
X177981786Y-91539707D01*
X177870292Y-91428213D01*
X177870288Y-91428210D01*
X177739185Y-91340609D01*
X177739172Y-91340602D01*
X177593501Y-91280264D01*
X177593489Y-91280261D01*
X177438845Y-91249500D01*
X177438842Y-91249500D01*
X177281158Y-91249500D01*
X177281155Y-91249500D01*
X177126510Y-91280261D01*
X177126498Y-91280264D01*
X176980827Y-91340602D01*
X176980814Y-91340609D01*
X176849711Y-91428210D01*
X176849707Y-91428213D01*
X176738213Y-91539707D01*
X176738210Y-91539711D01*
X176650609Y-91670814D01*
X176650602Y-91670827D01*
X176590264Y-91816498D01*
X176590261Y-91816510D01*
X176559500Y-91971153D01*
X168200500Y-91971153D01*
X168200500Y-90071153D01*
X183229500Y-90071153D01*
X183229500Y-90228846D01*
X183260261Y-90383489D01*
X183260264Y-90383501D01*
X183320602Y-90529172D01*
X183320609Y-90529185D01*
X183408210Y-90660288D01*
X183408213Y-90660292D01*
X183519707Y-90771786D01*
X183519711Y-90771789D01*
X183650814Y-90859390D01*
X183650827Y-90859397D01*
X183796498Y-90919735D01*
X183796503Y-90919737D01*
X183951153Y-90950499D01*
X183951156Y-90950500D01*
X183951158Y-90950500D01*
X184108844Y-90950500D01*
X184108845Y-90950499D01*
X184263497Y-90919737D01*
X184409179Y-90859394D01*
X184540289Y-90771789D01*
X184651789Y-90660289D01*
X184739394Y-90529179D01*
X184799737Y-90383497D01*
X184830500Y-90228842D01*
X184830500Y-90071158D01*
X184830500Y-90071155D01*
X184830499Y-90071153D01*
X184799738Y-89916510D01*
X184799737Y-89916503D01*
X184799735Y-89916498D01*
X184739397Y-89770827D01*
X184739390Y-89770814D01*
X184651789Y-89639711D01*
X184651786Y-89639707D01*
X184540292Y-89528213D01*
X184540288Y-89528210D01*
X184409185Y-89440609D01*
X184409172Y-89440602D01*
X184263501Y-89380264D01*
X184263489Y-89380261D01*
X184108845Y-89349500D01*
X184108842Y-89349500D01*
X183951158Y-89349500D01*
X183951155Y-89349500D01*
X183796510Y-89380261D01*
X183796498Y-89380264D01*
X183650827Y-89440602D01*
X183650814Y-89440609D01*
X183519711Y-89528210D01*
X183519707Y-89528213D01*
X183408213Y-89639707D01*
X183408210Y-89639711D01*
X183320609Y-89770814D01*
X183320602Y-89770827D01*
X183260264Y-89916498D01*
X183260261Y-89916510D01*
X183229500Y-90071153D01*
X168200500Y-90071153D01*
X168200500Y-85080000D01*
X168915138Y-85080000D01*
X169718012Y-85080000D01*
X169700795Y-85089940D01*
X169644940Y-85145795D01*
X169605444Y-85214204D01*
X169585000Y-85290504D01*
X169585000Y-85369496D01*
X169605444Y-85445796D01*
X169644940Y-85514205D01*
X169700795Y-85570060D01*
X169718012Y-85580000D01*
X168915138Y-85580000D01*
X168923430Y-85621690D01*
X168923430Y-85621692D01*
X168998807Y-85803671D01*
X168998814Y-85803684D01*
X169108248Y-85967462D01*
X169108251Y-85967466D01*
X169247533Y-86106748D01*
X169247537Y-86106751D01*
X169411315Y-86216185D01*
X169411328Y-86216192D01*
X169593306Y-86291569D01*
X169593318Y-86291572D01*
X169786504Y-86329999D01*
X169786508Y-86330000D01*
X169935000Y-86330000D01*
X169935000Y-85630000D01*
X170435000Y-85630000D01*
X170435000Y-86330000D01*
X170583492Y-86330000D01*
X170583495Y-86329999D01*
X170776681Y-86291572D01*
X170776693Y-86291569D01*
X170958671Y-86216192D01*
X170958684Y-86216185D01*
X171122462Y-86106751D01*
X171122466Y-86106748D01*
X171261748Y-85967466D01*
X171261751Y-85967462D01*
X171371185Y-85803684D01*
X171371192Y-85803671D01*
X171446569Y-85621692D01*
X171446569Y-85621690D01*
X171454862Y-85580000D01*
X170651988Y-85580000D01*
X170669205Y-85570060D01*
X170725060Y-85514205D01*
X170764556Y-85445796D01*
X170785000Y-85369496D01*
X170785000Y-85290504D01*
X170764556Y-85214204D01*
X170725060Y-85145795D01*
X170669205Y-85089940D01*
X170651988Y-85080000D01*
X171454862Y-85080000D01*
X172845138Y-85080000D01*
X173648012Y-85080000D01*
X173630795Y-85089940D01*
X173574940Y-85145795D01*
X173535444Y-85214204D01*
X173515000Y-85290504D01*
X173515000Y-85369496D01*
X173535444Y-85445796D01*
X173574940Y-85514205D01*
X173630795Y-85570060D01*
X173648012Y-85580000D01*
X172845138Y-85580000D01*
X172853430Y-85621690D01*
X172853430Y-85621692D01*
X172928807Y-85803671D01*
X172928814Y-85803684D01*
X173038248Y-85967462D01*
X173038251Y-85967466D01*
X173177533Y-86106748D01*
X173177537Y-86106751D01*
X173341315Y-86216185D01*
X173341328Y-86216192D01*
X173499197Y-86281583D01*
X173553601Y-86325424D01*
X173575666Y-86391718D01*
X173558387Y-86459417D01*
X173539428Y-86483823D01*
X173524518Y-86498733D01*
X173524513Y-86498740D01*
X173468498Y-86595760D01*
X173468497Y-86595763D01*
X173439500Y-86703982D01*
X173439500Y-86816018D01*
X173468497Y-86924237D01*
X173524515Y-87021263D01*
X173603737Y-87100485D01*
X173700763Y-87156503D01*
X173808982Y-87185500D01*
X173808984Y-87185500D01*
X173921016Y-87185500D01*
X173921018Y-87185500D01*
X173974562Y-87171153D01*
X176569500Y-87171153D01*
X176569500Y-87328846D01*
X176600261Y-87483489D01*
X176600264Y-87483501D01*
X176660602Y-87629172D01*
X176660609Y-87629185D01*
X176748210Y-87760288D01*
X176748213Y-87760292D01*
X176859707Y-87871786D01*
X176859711Y-87871789D01*
X176990814Y-87959390D01*
X176990827Y-87959397D01*
X177136498Y-88019735D01*
X177136503Y-88019737D01*
X177291153Y-88050499D01*
X177291156Y-88050500D01*
X177291158Y-88050500D01*
X177448844Y-88050500D01*
X177448845Y-88050499D01*
X177603497Y-88019737D01*
X177749179Y-87959394D01*
X177880289Y-87871789D01*
X177991789Y-87760289D01*
X178079394Y-87629179D01*
X178136566Y-87491153D01*
X183229500Y-87491153D01*
X183229500Y-87648846D01*
X183260261Y-87803489D01*
X183260264Y-87803501D01*
X183320602Y-87949172D01*
X183320609Y-87949185D01*
X183408210Y-88080288D01*
X183408213Y-88080292D01*
X183519707Y-88191786D01*
X183519711Y-88191789D01*
X183650814Y-88279390D01*
X183650827Y-88279397D01*
X183796498Y-88339735D01*
X183796503Y-88339737D01*
X183951153Y-88370499D01*
X183951156Y-88370500D01*
X183951158Y-88370500D01*
X184108844Y-88370500D01*
X184108845Y-88370499D01*
X184263497Y-88339737D01*
X184409179Y-88279394D01*
X184540289Y-88191789D01*
X184651789Y-88080289D01*
X184739394Y-87949179D01*
X184799737Y-87803497D01*
X184830500Y-87648842D01*
X184830500Y-87491158D01*
X184830500Y-87491155D01*
X184830499Y-87491153D01*
X184799738Y-87336510D01*
X184799737Y-87336503D01*
X184796564Y-87328842D01*
X184739397Y-87190827D01*
X184739390Y-87190814D01*
X184651789Y-87059711D01*
X184651786Y-87059707D01*
X184540292Y-86948213D01*
X184540288Y-86948210D01*
X184409185Y-86860609D01*
X184409172Y-86860602D01*
X184263501Y-86800264D01*
X184263489Y-86800261D01*
X184108845Y-86769500D01*
X184108842Y-86769500D01*
X183951158Y-86769500D01*
X183951155Y-86769500D01*
X183796510Y-86800261D01*
X183796498Y-86800264D01*
X183650827Y-86860602D01*
X183650814Y-86860609D01*
X183519711Y-86948210D01*
X183519707Y-86948213D01*
X183408213Y-87059707D01*
X183408210Y-87059711D01*
X183320609Y-87190814D01*
X183320602Y-87190827D01*
X183260264Y-87336498D01*
X183260261Y-87336510D01*
X183229500Y-87491153D01*
X178136566Y-87491153D01*
X178139737Y-87483497D01*
X178168977Y-87336498D01*
X178170500Y-87328844D01*
X178170500Y-87171155D01*
X178170499Y-87171153D01*
X178167585Y-87156502D01*
X178139737Y-87016503D01*
X178111450Y-86948211D01*
X178079397Y-86870827D01*
X178079390Y-86870814D01*
X177991789Y-86739711D01*
X177991786Y-86739707D01*
X177880292Y-86628213D01*
X177880288Y-86628210D01*
X177749185Y-86540609D01*
X177749172Y-86540602D01*
X177603501Y-86480264D01*
X177603489Y-86480261D01*
X177448845Y-86449500D01*
X177448842Y-86449500D01*
X177291158Y-86449500D01*
X177291155Y-86449500D01*
X177136510Y-86480261D01*
X177136498Y-86480264D01*
X176990827Y-86540602D01*
X176990814Y-86540609D01*
X176859711Y-86628210D01*
X176859707Y-86628213D01*
X176748213Y-86739707D01*
X176748210Y-86739711D01*
X176660609Y-86870814D01*
X176660602Y-86870827D01*
X176600264Y-87016498D01*
X176600261Y-87016510D01*
X176569500Y-87171153D01*
X173974562Y-87171153D01*
X174029237Y-87156503D01*
X174126263Y-87100485D01*
X174205485Y-87021263D01*
X174261503Y-86924237D01*
X174290500Y-86816018D01*
X174290500Y-86703982D01*
X174261503Y-86595763D01*
X174205485Y-86498737D01*
X174151319Y-86444571D01*
X174117834Y-86383248D01*
X174115000Y-86356890D01*
X174115000Y-85630000D01*
X174615000Y-85630000D01*
X174615000Y-86330000D01*
X175013492Y-86330000D01*
X175013495Y-86329999D01*
X175206681Y-86291572D01*
X175206693Y-86291569D01*
X175388671Y-86216192D01*
X175388684Y-86216185D01*
X175552462Y-86106751D01*
X175552466Y-86106748D01*
X175691748Y-85967466D01*
X175691751Y-85967462D01*
X175801185Y-85803684D01*
X175801192Y-85803671D01*
X175876569Y-85621692D01*
X175876569Y-85621690D01*
X175884862Y-85580000D01*
X175081988Y-85580000D01*
X175099205Y-85570060D01*
X175155060Y-85514205D01*
X175194556Y-85445796D01*
X175215000Y-85369496D01*
X175215000Y-85290504D01*
X175194556Y-85214204D01*
X175155060Y-85145795D01*
X175099205Y-85089940D01*
X175081988Y-85080000D01*
X175884862Y-85080000D01*
X175876569Y-85038309D01*
X175876569Y-85038307D01*
X175801192Y-84856328D01*
X175801185Y-84856315D01*
X175691751Y-84692537D01*
X175691748Y-84692533D01*
X175552466Y-84553251D01*
X175552462Y-84553248D01*
X175388684Y-84443814D01*
X175388671Y-84443807D01*
X175206693Y-84368430D01*
X175206681Y-84368427D01*
X175013495Y-84330000D01*
X174615000Y-84330000D01*
X174615000Y-85030000D01*
X174115000Y-85030000D01*
X174115000Y-84330000D01*
X173716504Y-84330000D01*
X173523318Y-84368427D01*
X173523306Y-84368430D01*
X173341328Y-84443807D01*
X173341315Y-84443814D01*
X173177537Y-84553248D01*
X173177533Y-84553251D01*
X173038251Y-84692533D01*
X173038248Y-84692537D01*
X172928814Y-84856315D01*
X172928807Y-84856328D01*
X172853430Y-85038307D01*
X172853430Y-85038309D01*
X172845138Y-85080000D01*
X171454862Y-85080000D01*
X171446569Y-85038309D01*
X171446569Y-85038307D01*
X171371192Y-84856328D01*
X171371185Y-84856315D01*
X171261751Y-84692537D01*
X171261748Y-84692533D01*
X171122466Y-84553251D01*
X171122462Y-84553248D01*
X170958684Y-84443814D01*
X170958671Y-84443807D01*
X170776693Y-84368430D01*
X170776681Y-84368427D01*
X170583495Y-84330000D01*
X170435000Y-84330000D01*
X170435000Y-85030000D01*
X169935000Y-85030000D01*
X169935000Y-84330000D01*
X169786504Y-84330000D01*
X169593318Y-84368427D01*
X169593306Y-84368430D01*
X169411328Y-84443807D01*
X169411315Y-84443814D01*
X169247537Y-84553248D01*
X169247533Y-84553251D01*
X169108251Y-84692533D01*
X169108248Y-84692537D01*
X168998814Y-84856315D01*
X168998807Y-84856328D01*
X168923430Y-85038307D01*
X168923430Y-85038309D01*
X168915138Y-85080000D01*
X168200500Y-85080000D01*
X168200500Y-79131153D01*
X180769500Y-79131153D01*
X180769500Y-79288846D01*
X180800261Y-79443489D01*
X180800264Y-79443501D01*
X180860602Y-79589172D01*
X180860609Y-79589185D01*
X180948210Y-79720288D01*
X180948213Y-79720292D01*
X181059707Y-79831786D01*
X181059711Y-79831789D01*
X181190814Y-79919390D01*
X181190827Y-79919397D01*
X181336498Y-79979735D01*
X181336503Y-79979737D01*
X181491153Y-80010499D01*
X181491156Y-80010500D01*
X181491158Y-80010500D01*
X181648844Y-80010500D01*
X181648845Y-80010499D01*
X181803497Y-79979737D01*
X181949179Y-79919394D01*
X182080289Y-79831789D01*
X182191789Y-79720289D01*
X182279394Y-79589179D01*
X182339737Y-79443497D01*
X182370500Y-79288842D01*
X182370500Y-79131158D01*
X182370500Y-79131155D01*
X182370499Y-79131153D01*
X182339738Y-78976510D01*
X182339737Y-78976503D01*
X182339735Y-78976498D01*
X182279397Y-78830827D01*
X182279390Y-78830814D01*
X182191789Y-78699711D01*
X182191786Y-78699707D01*
X182080292Y-78588213D01*
X182080288Y-78588210D01*
X181949185Y-78500609D01*
X181949172Y-78500602D01*
X181803501Y-78440264D01*
X181803489Y-78440261D01*
X181648845Y-78409500D01*
X181648842Y-78409500D01*
X181491158Y-78409500D01*
X181491155Y-78409500D01*
X181336510Y-78440261D01*
X181336498Y-78440264D01*
X181190827Y-78500602D01*
X181190814Y-78500609D01*
X181059711Y-78588210D01*
X181059707Y-78588213D01*
X180948213Y-78699707D01*
X180948210Y-78699711D01*
X180860609Y-78830814D01*
X180860602Y-78830827D01*
X180800264Y-78976498D01*
X180800261Y-78976510D01*
X180769500Y-79131153D01*
X168200500Y-79131153D01*
X168200500Y-77801153D01*
X183959500Y-77801153D01*
X183959500Y-77958846D01*
X183990261Y-78113489D01*
X183990264Y-78113501D01*
X184050602Y-78259172D01*
X184050609Y-78259185D01*
X184138210Y-78390288D01*
X184138213Y-78390292D01*
X184249707Y-78501786D01*
X184249711Y-78501789D01*
X184380814Y-78589390D01*
X184380827Y-78589397D01*
X184526498Y-78649735D01*
X184526503Y-78649737D01*
X184681153Y-78680499D01*
X184681156Y-78680500D01*
X184681158Y-78680500D01*
X184858844Y-78680500D01*
X184858845Y-78680499D01*
X185013497Y-78649737D01*
X185159179Y-78589393D01*
X185290289Y-78501789D01*
X185401789Y-78390289D01*
X185489393Y-78259179D01*
X185549737Y-78113497D01*
X185580500Y-77958842D01*
X185580500Y-77801157D01*
X185580500Y-77801154D01*
X185549738Y-77646508D01*
X185549737Y-77646507D01*
X185549737Y-77646503D01*
X185489393Y-77500821D01*
X185489388Y-77500814D01*
X185401790Y-77369712D01*
X185401784Y-77369705D01*
X185280292Y-77248213D01*
X185280288Y-77248210D01*
X185149185Y-77160609D01*
X185149172Y-77160602D01*
X185003501Y-77100264D01*
X185003489Y-77100261D01*
X184848845Y-77069500D01*
X184848842Y-77069500D01*
X184691157Y-77069500D01*
X184691155Y-77069500D01*
X184536508Y-77100261D01*
X184536498Y-77100264D01*
X184390827Y-77160602D01*
X184390815Y-77160609D01*
X184302680Y-77219500D01*
X184302679Y-77219501D01*
X184259708Y-77248212D01*
X184138213Y-77369707D01*
X184138210Y-77369711D01*
X184050609Y-77500814D01*
X184050602Y-77500827D01*
X183990264Y-77646498D01*
X183990261Y-77646510D01*
X183959500Y-77801153D01*
X168200500Y-77801153D01*
X168200500Y-74611153D01*
X182679500Y-74611153D01*
X182679500Y-74768846D01*
X182710261Y-74923489D01*
X182710264Y-74923501D01*
X182770602Y-75069172D01*
X182770609Y-75069185D01*
X182858210Y-75200288D01*
X182858213Y-75200292D01*
X182969707Y-75311786D01*
X182969711Y-75311789D01*
X183100814Y-75399390D01*
X183100827Y-75399397D01*
X183246498Y-75459735D01*
X183246503Y-75459737D01*
X183401153Y-75490499D01*
X183401156Y-75490500D01*
X183401158Y-75490500D01*
X183558844Y-75490500D01*
X183558845Y-75490499D01*
X183713497Y-75459737D01*
X183859179Y-75399394D01*
X183990289Y-75311789D01*
X184007317Y-75294761D01*
X184068639Y-75261274D01*
X184138331Y-75266257D01*
X184182683Y-75294761D01*
X184199708Y-75311787D01*
X184199711Y-75311789D01*
X184330814Y-75399390D01*
X184330827Y-75399397D01*
X184476498Y-75459735D01*
X184476503Y-75459737D01*
X184631153Y-75490499D01*
X184631156Y-75490500D01*
X184631158Y-75490500D01*
X184788844Y-75490500D01*
X184788845Y-75490499D01*
X184943497Y-75459737D01*
X185089179Y-75399394D01*
X185220289Y-75311789D01*
X185331789Y-75200289D01*
X185419394Y-75069179D01*
X185479737Y-74923497D01*
X185510500Y-74768842D01*
X185510500Y-74611158D01*
X185510500Y-74611155D01*
X185510499Y-74611153D01*
X188339500Y-74611153D01*
X188339500Y-74768846D01*
X188370261Y-74923489D01*
X188370264Y-74923501D01*
X188430602Y-75069172D01*
X188430609Y-75069185D01*
X188518210Y-75200288D01*
X188518213Y-75200292D01*
X188629707Y-75311786D01*
X188629711Y-75311789D01*
X188760814Y-75399390D01*
X188760827Y-75399397D01*
X188906498Y-75459735D01*
X188906503Y-75459737D01*
X189061153Y-75490499D01*
X189061156Y-75490500D01*
X189061158Y-75490500D01*
X189218844Y-75490500D01*
X189218845Y-75490499D01*
X189373497Y-75459737D01*
X189519179Y-75399394D01*
X189650289Y-75311789D01*
X189761789Y-75200289D01*
X189849394Y-75069179D01*
X189909737Y-74923497D01*
X189940500Y-74768842D01*
X189940500Y-74611158D01*
X189940500Y-74611155D01*
X189940499Y-74611153D01*
X189909738Y-74456510D01*
X189909737Y-74456503D01*
X189909735Y-74456498D01*
X189849397Y-74310827D01*
X189849390Y-74310814D01*
X189761789Y-74179711D01*
X189761786Y-74179707D01*
X189650292Y-74068213D01*
X189650288Y-74068210D01*
X189519185Y-73980609D01*
X189519172Y-73980602D01*
X189373501Y-73920264D01*
X189373489Y-73920261D01*
X189218845Y-73889500D01*
X189218842Y-73889500D01*
X189061158Y-73889500D01*
X189061155Y-73889500D01*
X188906510Y-73920261D01*
X188906498Y-73920264D01*
X188760827Y-73980602D01*
X188760814Y-73980609D01*
X188629711Y-74068210D01*
X188629707Y-74068213D01*
X188518213Y-74179707D01*
X188518210Y-74179711D01*
X188430609Y-74310814D01*
X188430602Y-74310827D01*
X188370264Y-74456498D01*
X188370261Y-74456510D01*
X188339500Y-74611153D01*
X185510499Y-74611153D01*
X185479738Y-74456510D01*
X185479737Y-74456503D01*
X185479735Y-74456498D01*
X185419397Y-74310827D01*
X185419390Y-74310814D01*
X185331789Y-74179711D01*
X185331786Y-74179707D01*
X185220292Y-74068213D01*
X185220288Y-74068210D01*
X185089185Y-73980609D01*
X185089172Y-73980602D01*
X184943501Y-73920264D01*
X184943489Y-73920261D01*
X184788845Y-73889500D01*
X184788842Y-73889500D01*
X184631158Y-73889500D01*
X184631155Y-73889500D01*
X184476510Y-73920261D01*
X184476498Y-73920264D01*
X184330827Y-73980602D01*
X184330814Y-73980609D01*
X184199711Y-74068210D01*
X184199707Y-74068213D01*
X184182681Y-74085240D01*
X184121358Y-74118725D01*
X184051666Y-74113741D01*
X184007319Y-74085240D01*
X183990292Y-74068213D01*
X183990288Y-74068210D01*
X183859185Y-73980609D01*
X183859172Y-73980602D01*
X183713501Y-73920264D01*
X183713489Y-73920261D01*
X183558845Y-73889500D01*
X183558842Y-73889500D01*
X183401158Y-73889500D01*
X183401155Y-73889500D01*
X183246510Y-73920261D01*
X183246498Y-73920264D01*
X183100827Y-73980602D01*
X183100814Y-73980609D01*
X182969711Y-74068210D01*
X182969707Y-74068213D01*
X182858213Y-74179707D01*
X182858210Y-74179711D01*
X182770609Y-74310814D01*
X182770602Y-74310827D01*
X182710264Y-74456498D01*
X182710261Y-74456510D01*
X182679500Y-74611153D01*
X168200500Y-74611153D01*
X168200500Y-72324500D01*
X168220185Y-72257461D01*
X168272989Y-72211706D01*
X168324500Y-72200500D01*
X209675500Y-72200500D01*
X209742539Y-72220185D01*
G37*
%TD.AperFunction*%
%TD*%
M02*
