M48
; DRILL file {KiCad 9.0.3} date 2026-05-30T21:24:01+0530
; FORMAT={-:-/ absolute / metric / decimal}
; #@! TF.CreationDate,2026-05-30T21:24:01+05:30
; #@! TF.GenerationSoftware,Kicad,Pcbnew,9.0.3
; #@! TF.FileFunction,MixedPlating,1,4
FMAT,2
METRIC
; #@! TA.AperFunction,Plated,PTH,ViaDrill
T1C0.300
; #@! TA.AperFunction,Plated,PTH,ComponentDrill
T2C0.600
; #@! TA.AperFunction,NonPlated,NPTH,ComponentDrill
T3C0.650
%
G90
G05
T1
X170.185Y-89.87
X172.84Y-81.51
X176.49Y-75.39
X177.36Y-92.05
X177.37Y-87.25
X177.948Y-78.348
X178.213Y-90.15
X179.13Y-87.08
X179.16Y-92.53
X180.0Y-86.5
X181.57Y-79.21
X181.57Y-93.81
X182.5Y-73.078
X183.48Y-74.69
X184.03Y-87.57
X184.03Y-90.15
X184.71Y-74.69
X184.77Y-77.87
X184.77Y-81.46
X187.53Y-95.18
X189.14Y-74.69
X189.17Y-73.44
X196.9Y-95.18
X201.45Y-95.18
X201.99Y-74.28
X207.92Y-85.79
X209.47Y-90.1
T3
X173.865Y-86.76
X173.865Y-92.54
T2
G00X170.485Y-85.33
M15
G01X169.885Y-85.33
M16
G05
G00X170.485Y-93.97
M15
G01X169.885Y-93.97
M16
G05
G00X174.915Y-85.33
M15
G01X173.815Y-85.33
M16
G05
G00X174.915Y-93.97
M15
G01X173.815Y-93.97
M16
G05
M30
