%TF.GenerationSoftware,KiCad,Pcbnew,9.0.3*%
%TF.CreationDate,2026-05-30T21:23:59+05:30*%
%TF.ProjectId,new',6e657727-2e6b-4696-9361-645f70636258,rev?*%
%TF.SameCoordinates,Original*%
%TF.FileFunction,Copper,L3,Inr*%
%TF.FilePolarity,Positive*%
%FSLAX46Y46*%
G04 Gerber Fmt 4.6, Leading zero omitted, Abs format (unit mm)*
G04 Created by KiCad (PCBNEW 9.0.3) date 2026-05-30 21:23:59*
%MOMM*%
%LPD*%
G01*
G04 APERTURE LIST*
%TA.AperFunction,HeatsinkPad*%
%ADD10O,2.100000X1.000000*%
%TD*%
%TA.AperFunction,HeatsinkPad*%
%ADD11O,1.600000X1.000000*%
%TD*%
%TA.AperFunction,ViaPad*%
%ADD12C,0.600000*%
%TD*%
G04 APERTURE END LIST*
D10*
%TO.N,GND*%
%TO.C,J3*%
X174365000Y-85330000D03*
D11*
X170185000Y-85330000D03*
D10*
X174365000Y-93970000D03*
D11*
X170185000Y-93970000D03*
%TD*%
D12*
%TO.N,GND*%
X180000000Y-86500000D03*
X209470000Y-90100000D03*
X184770000Y-81460000D03*
X207920000Y-85790000D03*
X201450000Y-95180000D03*
X196900000Y-95180000D03*
X187530000Y-95180000D03*
X201990000Y-74280000D03*
X189170000Y-73440000D03*
X170185000Y-89870000D03*
X182500000Y-73078000D03*
X176490000Y-75390000D03*
X177948000Y-78348000D03*
X172840000Y-81510000D03*
%TO.N,+3V3*%
X181570000Y-93810000D03*
X184710000Y-74690000D03*
X183480000Y-74690000D03*
%TO.N,Net-(D1-A2)*%
X184770000Y-77870000D03*
%TO.N,+3V3*%
X189140000Y-74690000D03*
%TO.N,+5V*%
X184030000Y-87570000D03*
X184030000Y-90150000D03*
%TO.N,+3V3*%
X181570000Y-79210000D03*
%TO.N,Net-(F3-Pad2)*%
X177370000Y-87250000D03*
X177360000Y-92050000D03*
%TO.N,GND*%
X179160000Y-92530000D03*
X179130000Y-87080000D03*
X178212500Y-90150000D03*
%TD*%
%TA.AperFunction,Conductor*%
%TO.N,+3V3*%
G36*
X182030675Y-72220185D02*
G01*
X182076430Y-72272989D01*
X182086374Y-72342147D01*
X182057349Y-72405703D01*
X182032527Y-72427602D01*
X181989710Y-72456210D01*
X181878213Y-72567707D01*
X181878210Y-72567711D01*
X181790609Y-72698814D01*
X181790602Y-72698827D01*
X181730264Y-72844498D01*
X181730261Y-72844510D01*
X181699500Y-72999153D01*
X181699500Y-73156846D01*
X181730261Y-73311489D01*
X181730264Y-73311501D01*
X181790602Y-73457172D01*
X181790609Y-73457185D01*
X181878210Y-73588288D01*
X181878213Y-73588292D01*
X181989707Y-73699786D01*
X181989711Y-73699789D01*
X182120814Y-73787390D01*
X182120827Y-73787397D01*
X182266498Y-73847735D01*
X182266503Y-73847737D01*
X182421153Y-73878499D01*
X182421156Y-73878500D01*
X182421158Y-73878500D01*
X182578844Y-73878500D01*
X182578845Y-73878499D01*
X182733497Y-73847737D01*
X182879179Y-73787394D01*
X183010289Y-73699789D01*
X183121789Y-73588289D01*
X183209394Y-73457179D01*
X183249169Y-73361153D01*
X188369500Y-73361153D01*
X188369500Y-73518846D01*
X188400261Y-73673489D01*
X188400264Y-73673501D01*
X188460602Y-73819172D01*
X188460609Y-73819185D01*
X188548210Y-73950288D01*
X188548213Y-73950292D01*
X188659707Y-74061786D01*
X188659711Y-74061789D01*
X188790814Y-74149390D01*
X188790827Y-74149397D01*
X188915779Y-74201153D01*
X188936503Y-74209737D01*
X189091153Y-74240499D01*
X189091156Y-74240500D01*
X189091158Y-74240500D01*
X189248844Y-74240500D01*
X189248845Y-74240499D01*
X189403497Y-74209737D01*
X189424221Y-74201153D01*
X201189500Y-74201153D01*
X201189500Y-74358846D01*
X201220261Y-74513489D01*
X201220264Y-74513501D01*
X201280602Y-74659172D01*
X201280609Y-74659185D01*
X201368210Y-74790288D01*
X201368213Y-74790292D01*
X201479707Y-74901786D01*
X201479711Y-74901789D01*
X201610814Y-74989390D01*
X201610827Y-74989397D01*
X201756498Y-75049735D01*
X201756503Y-75049737D01*
X201911153Y-75080499D01*
X201911156Y-75080500D01*
X201911158Y-75080500D01*
X202068844Y-75080500D01*
X202068845Y-75080499D01*
X202223497Y-75049737D01*
X202369179Y-74989394D01*
X202500289Y-74901789D01*
X202611789Y-74790289D01*
X202699394Y-74659179D01*
X202759737Y-74513497D01*
X202790500Y-74358842D01*
X202790500Y-74201158D01*
X202790500Y-74201155D01*
X202790499Y-74201153D01*
X202768780Y-74091964D01*
X202759737Y-74046503D01*
X202759735Y-74046498D01*
X202699397Y-73900827D01*
X202699390Y-73900814D01*
X202611789Y-73769711D01*
X202611786Y-73769707D01*
X202500292Y-73658213D01*
X202500288Y-73658210D01*
X202369185Y-73570609D01*
X202369172Y-73570602D01*
X202223501Y-73510264D01*
X202223489Y-73510261D01*
X202068845Y-73479500D01*
X202068842Y-73479500D01*
X201911158Y-73479500D01*
X201911155Y-73479500D01*
X201756510Y-73510261D01*
X201756498Y-73510264D01*
X201610827Y-73570602D01*
X201610814Y-73570609D01*
X201479711Y-73658210D01*
X201479707Y-73658213D01*
X201368213Y-73769707D01*
X201368210Y-73769711D01*
X201280609Y-73900814D01*
X201280602Y-73900827D01*
X201220264Y-74046498D01*
X201220261Y-74046510D01*
X201189500Y-74201153D01*
X189424221Y-74201153D01*
X189549179Y-74149394D01*
X189549185Y-74149390D01*
X189635130Y-74091964D01*
X189658020Y-74076668D01*
X189680289Y-74061789D01*
X189791789Y-73950289D01*
X189879394Y-73819179D01*
X189939737Y-73673497D01*
X189970500Y-73518842D01*
X189970500Y-73361158D01*
X189970500Y-73361155D01*
X189970499Y-73361153D01*
X189960623Y-73311504D01*
X189939737Y-73206503D01*
X189919167Y-73156842D01*
X189879397Y-73060827D01*
X189879390Y-73060814D01*
X189791789Y-72929711D01*
X189791786Y-72929707D01*
X189680292Y-72818213D01*
X189680288Y-72818210D01*
X189549185Y-72730609D01*
X189549172Y-72730602D01*
X189403501Y-72670264D01*
X189403489Y-72670261D01*
X189248845Y-72639500D01*
X189248842Y-72639500D01*
X189091158Y-72639500D01*
X189091155Y-72639500D01*
X188936510Y-72670261D01*
X188936498Y-72670264D01*
X188790827Y-72730602D01*
X188790814Y-72730609D01*
X188659711Y-72818210D01*
X188659707Y-72818213D01*
X188548213Y-72929707D01*
X188548210Y-72929711D01*
X188460609Y-73060814D01*
X188460602Y-73060827D01*
X188400264Y-73206498D01*
X188400261Y-73206510D01*
X188369500Y-73361153D01*
X183249169Y-73361153D01*
X183269737Y-73311497D01*
X183300500Y-73156842D01*
X183300500Y-72999158D01*
X183300500Y-72999155D01*
X183300499Y-72999153D01*
X183269738Y-72844510D01*
X183269737Y-72844503D01*
X183269735Y-72844498D01*
X183209397Y-72698827D01*
X183209390Y-72698814D01*
X183121789Y-72567711D01*
X183121786Y-72567707D01*
X183010289Y-72456210D01*
X182967473Y-72427602D01*
X182922668Y-72373990D01*
X182913961Y-72304665D01*
X182944115Y-72241638D01*
X183003558Y-72204918D01*
X183036364Y-72200500D01*
X209675500Y-72200500D01*
X209742539Y-72220185D01*
X209788294Y-72272989D01*
X209799500Y-72324500D01*
X209799500Y-89198264D01*
X209779815Y-89265303D01*
X209727011Y-89311058D01*
X209657853Y-89321002D01*
X209651309Y-89319881D01*
X209548846Y-89299500D01*
X209548842Y-89299500D01*
X209391158Y-89299500D01*
X209391155Y-89299500D01*
X209236510Y-89330261D01*
X209236498Y-89330264D01*
X209090827Y-89390602D01*
X209090814Y-89390609D01*
X208959711Y-89478210D01*
X208959707Y-89478213D01*
X208848213Y-89589707D01*
X208848210Y-89589711D01*
X208760609Y-89720814D01*
X208760602Y-89720827D01*
X208700264Y-89866498D01*
X208700261Y-89866510D01*
X208669500Y-90021153D01*
X208669500Y-90178846D01*
X208700261Y-90333489D01*
X208700264Y-90333501D01*
X208760602Y-90479172D01*
X208760609Y-90479185D01*
X208848210Y-90610288D01*
X208848213Y-90610292D01*
X208959707Y-90721786D01*
X208959711Y-90721789D01*
X209090814Y-90809390D01*
X209090827Y-90809397D01*
X209236498Y-90869735D01*
X209236503Y-90869737D01*
X209391153Y-90900499D01*
X209391156Y-90900500D01*
X209391158Y-90900500D01*
X209548844Y-90900500D01*
X209629483Y-90884459D01*
X209651308Y-90880118D01*
X209720900Y-90886345D01*
X209776077Y-90929208D01*
X209799322Y-90995097D01*
X209799500Y-91001735D01*
X209799500Y-96675500D01*
X209779815Y-96742539D01*
X209727011Y-96788294D01*
X209675500Y-96799500D01*
X168324500Y-96799500D01*
X168257461Y-96779815D01*
X168211706Y-96727011D01*
X168200500Y-96675500D01*
X168200500Y-95101153D01*
X186729500Y-95101153D01*
X186729500Y-95258846D01*
X186760261Y-95413489D01*
X186760264Y-95413501D01*
X186820602Y-95559172D01*
X186820609Y-95559185D01*
X186908210Y-95690288D01*
X186908213Y-95690292D01*
X187019707Y-95801786D01*
X187019711Y-95801789D01*
X187150814Y-95889390D01*
X187150827Y-95889397D01*
X187296498Y-95949735D01*
X187296503Y-95949737D01*
X187451153Y-95980499D01*
X187451156Y-95980500D01*
X187451158Y-95980500D01*
X187608844Y-95980500D01*
X187608845Y-95980499D01*
X187763497Y-95949737D01*
X187909179Y-95889394D01*
X188040289Y-95801789D01*
X188151789Y-95690289D01*
X188239394Y-95559179D01*
X188299737Y-95413497D01*
X188330500Y-95258842D01*
X188330500Y-95101158D01*
X188330500Y-95101155D01*
X188330499Y-95101153D01*
X196099500Y-95101153D01*
X196099500Y-95258846D01*
X196130261Y-95413489D01*
X196130264Y-95413501D01*
X196190602Y-95559172D01*
X196190609Y-95559185D01*
X196278210Y-95690288D01*
X196278213Y-95690292D01*
X196389707Y-95801786D01*
X196389711Y-95801789D01*
X196520814Y-95889390D01*
X196520827Y-95889397D01*
X196666498Y-95949735D01*
X196666503Y-95949737D01*
X196821153Y-95980499D01*
X196821156Y-95980500D01*
X196821158Y-95980500D01*
X196978844Y-95980500D01*
X196978845Y-95980499D01*
X197133497Y-95949737D01*
X197279179Y-95889394D01*
X197410289Y-95801789D01*
X197521789Y-95690289D01*
X197609394Y-95559179D01*
X197669737Y-95413497D01*
X197700500Y-95258842D01*
X197700500Y-95101158D01*
X197700500Y-95101155D01*
X197700499Y-95101153D01*
X200649500Y-95101153D01*
X200649500Y-95258846D01*
X200680261Y-95413489D01*
X200680264Y-95413501D01*
X200740602Y-95559172D01*
X200740609Y-95559185D01*
X200828210Y-95690288D01*
X200828213Y-95690292D01*
X200939707Y-95801786D01*
X200939711Y-95801789D01*
X201070814Y-95889390D01*
X201070827Y-95889397D01*
X201216498Y-95949735D01*
X201216503Y-95949737D01*
X201371153Y-95980499D01*
X201371156Y-95980500D01*
X201371158Y-95980500D01*
X201528844Y-95980500D01*
X201528845Y-95980499D01*
X201683497Y-95949737D01*
X201829179Y-95889394D01*
X201960289Y-95801789D01*
X202071789Y-95690289D01*
X202159394Y-95559179D01*
X202219737Y-95413497D01*
X202250500Y-95258842D01*
X202250500Y-95101158D01*
X202250500Y-95101155D01*
X202250499Y-95101153D01*
X202219738Y-94946510D01*
X202219737Y-94946503D01*
X202182513Y-94856635D01*
X202159397Y-94800827D01*
X202159390Y-94800814D01*
X202071789Y-94669711D01*
X202071786Y-94669707D01*
X201960292Y-94558213D01*
X201960288Y-94558210D01*
X201829185Y-94470609D01*
X201829172Y-94470602D01*
X201683501Y-94410264D01*
X201683489Y-94410261D01*
X201528845Y-94379500D01*
X201528842Y-94379500D01*
X201371158Y-94379500D01*
X201371155Y-94379500D01*
X201216510Y-94410261D01*
X201216498Y-94410264D01*
X201070827Y-94470602D01*
X201070814Y-94470609D01*
X200939711Y-94558210D01*
X200939707Y-94558213D01*
X200828213Y-94669707D01*
X200828210Y-94669711D01*
X200740609Y-94800814D01*
X200740602Y-94800827D01*
X200680264Y-94946498D01*
X200680261Y-94946510D01*
X200649500Y-95101153D01*
X197700499Y-95101153D01*
X197669738Y-94946510D01*
X197669737Y-94946503D01*
X197632513Y-94856635D01*
X197609397Y-94800827D01*
X197609390Y-94800814D01*
X197521789Y-94669711D01*
X197521786Y-94669707D01*
X197410292Y-94558213D01*
X197410288Y-94558210D01*
X197279185Y-94470609D01*
X197279172Y-94470602D01*
X197133501Y-94410264D01*
X197133489Y-94410261D01*
X196978845Y-94379500D01*
X196978842Y-94379500D01*
X196821158Y-94379500D01*
X196821155Y-94379500D01*
X196666510Y-94410261D01*
X196666498Y-94410264D01*
X196520827Y-94470602D01*
X196520814Y-94470609D01*
X196389711Y-94558210D01*
X196389707Y-94558213D01*
X196278213Y-94669707D01*
X196278210Y-94669711D01*
X196190609Y-94800814D01*
X196190602Y-94800827D01*
X196130264Y-94946498D01*
X196130261Y-94946510D01*
X196099500Y-95101153D01*
X188330499Y-95101153D01*
X188299738Y-94946510D01*
X188299737Y-94946503D01*
X188262513Y-94856635D01*
X188239397Y-94800827D01*
X188239390Y-94800814D01*
X188151789Y-94669711D01*
X188151786Y-94669707D01*
X188040292Y-94558213D01*
X188040288Y-94558210D01*
X187909185Y-94470609D01*
X187909172Y-94470602D01*
X187763501Y-94410264D01*
X187763489Y-94410261D01*
X187608845Y-94379500D01*
X187608842Y-94379500D01*
X187451158Y-94379500D01*
X187451155Y-94379500D01*
X187296510Y-94410261D01*
X187296498Y-94410264D01*
X187150827Y-94470602D01*
X187150814Y-94470609D01*
X187019711Y-94558210D01*
X187019707Y-94558213D01*
X186908213Y-94669707D01*
X186908210Y-94669711D01*
X186820609Y-94800814D01*
X186820602Y-94800827D01*
X186760264Y-94946498D01*
X186760261Y-94946510D01*
X186729500Y-95101153D01*
X168200500Y-95101153D01*
X168200500Y-94068543D01*
X168884499Y-94068543D01*
X168922947Y-94261829D01*
X168922950Y-94261839D01*
X168998364Y-94443907D01*
X168998371Y-94443920D01*
X169107860Y-94607781D01*
X169107863Y-94607785D01*
X169247214Y-94747136D01*
X169247218Y-94747139D01*
X169411079Y-94856628D01*
X169411092Y-94856635D01*
X169593160Y-94932049D01*
X169593165Y-94932051D01*
X169593169Y-94932051D01*
X169593170Y-94932052D01*
X169786456Y-94970500D01*
X169786459Y-94970500D01*
X170583543Y-94970500D01*
X170713582Y-94944632D01*
X170776835Y-94932051D01*
X170958914Y-94856632D01*
X171122782Y-94747139D01*
X171262139Y-94607782D01*
X171371632Y-94443914D01*
X171447051Y-94261835D01*
X171485500Y-94068543D01*
X172814499Y-94068543D01*
X172852947Y-94261829D01*
X172852950Y-94261839D01*
X172928364Y-94443907D01*
X172928371Y-94443920D01*
X173037860Y-94607781D01*
X173037863Y-94607785D01*
X173177214Y-94747136D01*
X173177218Y-94747139D01*
X173341079Y-94856628D01*
X173341092Y-94856635D01*
X173523160Y-94932049D01*
X173523165Y-94932051D01*
X173523169Y-94932051D01*
X173523170Y-94932052D01*
X173716456Y-94970500D01*
X173716459Y-94970500D01*
X175013543Y-94970500D01*
X175143582Y-94944632D01*
X175206835Y-94932051D01*
X175388914Y-94856632D01*
X175552782Y-94747139D01*
X175692139Y-94607782D01*
X175801632Y-94443914D01*
X175877051Y-94261835D01*
X175915500Y-94068541D01*
X175915500Y-93871459D01*
X175915500Y-93871456D01*
X175877052Y-93678170D01*
X175877051Y-93678169D01*
X175877051Y-93678165D01*
X175877049Y-93678160D01*
X175801635Y-93496092D01*
X175801628Y-93496079D01*
X175692139Y-93332218D01*
X175692136Y-93332214D01*
X175552785Y-93192863D01*
X175552781Y-93192860D01*
X175388920Y-93083371D01*
X175388907Y-93083364D01*
X175206839Y-93007950D01*
X175206829Y-93007947D01*
X175013543Y-92969500D01*
X175013541Y-92969500D01*
X174323127Y-92969500D01*
X174256088Y-92949815D01*
X174210333Y-92897011D01*
X174200389Y-92827853D01*
X174215740Y-92783500D01*
X174261503Y-92704237D01*
X174290500Y-92596018D01*
X174290500Y-92483982D01*
X174261503Y-92375763D01*
X174205485Y-92278737D01*
X174126263Y-92199515D01*
X174041923Y-92150821D01*
X174029239Y-92143498D01*
X174029238Y-92143497D01*
X174029237Y-92143497D01*
X173921018Y-92114500D01*
X173808982Y-92114500D01*
X173700763Y-92143497D01*
X173700760Y-92143498D01*
X173603740Y-92199513D01*
X173603734Y-92199517D01*
X173524517Y-92278734D01*
X173524513Y-92278740D01*
X173468498Y-92375760D01*
X173468497Y-92375763D01*
X173439500Y-92483982D01*
X173439500Y-92596018D01*
X173468497Y-92704237D01*
X173524515Y-92801263D01*
X173524517Y-92801265D01*
X173539044Y-92815792D01*
X173572529Y-92877115D01*
X173567545Y-92946807D01*
X173525673Y-93002740D01*
X173498816Y-93018034D01*
X173341088Y-93083366D01*
X173341079Y-93083371D01*
X173177218Y-93192860D01*
X173177214Y-93192863D01*
X173037863Y-93332214D01*
X173037860Y-93332218D01*
X172928371Y-93496079D01*
X172928364Y-93496092D01*
X172852950Y-93678160D01*
X172852947Y-93678170D01*
X172814500Y-93871456D01*
X172814500Y-93871459D01*
X172814500Y-94068541D01*
X172814500Y-94068543D01*
X172814499Y-94068543D01*
X171485500Y-94068543D01*
X171485500Y-94068541D01*
X171485500Y-93871459D01*
X171485500Y-93871456D01*
X171447052Y-93678170D01*
X171447051Y-93678169D01*
X171447051Y-93678165D01*
X171447049Y-93678160D01*
X171371635Y-93496092D01*
X171371628Y-93496079D01*
X171262139Y-93332218D01*
X171262136Y-93332214D01*
X171122785Y-93192863D01*
X171122781Y-93192860D01*
X170958920Y-93083371D01*
X170958907Y-93083364D01*
X170776839Y-93007950D01*
X170776829Y-93007947D01*
X170583543Y-92969500D01*
X170583541Y-92969500D01*
X169786459Y-92969500D01*
X169786457Y-92969500D01*
X169593170Y-93007947D01*
X169593160Y-93007950D01*
X169411092Y-93083364D01*
X169411079Y-93083371D01*
X169247218Y-93192860D01*
X169247214Y-93192863D01*
X169107863Y-93332214D01*
X169107860Y-93332218D01*
X168998371Y-93496079D01*
X168998364Y-93496092D01*
X168922950Y-93678160D01*
X168922947Y-93678170D01*
X168884500Y-93871456D01*
X168884500Y-93871459D01*
X168884500Y-94068541D01*
X168884500Y-94068543D01*
X168884499Y-94068543D01*
X168200500Y-94068543D01*
X168200500Y-91971153D01*
X176559500Y-91971153D01*
X176559500Y-92128846D01*
X176590261Y-92283489D01*
X176590264Y-92283501D01*
X176650602Y-92429172D01*
X176650609Y-92429185D01*
X176738210Y-92560288D01*
X176738213Y-92560292D01*
X176849707Y-92671786D01*
X176849711Y-92671789D01*
X176980814Y-92759390D01*
X176980827Y-92759397D01*
X177081902Y-92801263D01*
X177126503Y-92819737D01*
X177281153Y-92850499D01*
X177281156Y-92850500D01*
X177281158Y-92850500D01*
X177438844Y-92850500D01*
X177438845Y-92850499D01*
X177593497Y-92819737D01*
X177729264Y-92763501D01*
X177739172Y-92759397D01*
X177739172Y-92759396D01*
X177739179Y-92759394D01*
X177870289Y-92671789D01*
X177981789Y-92560289D01*
X178054711Y-92451153D01*
X178359500Y-92451153D01*
X178359500Y-92608846D01*
X178390261Y-92763489D01*
X178390264Y-92763501D01*
X178450602Y-92909172D01*
X178450609Y-92909185D01*
X178538210Y-93040288D01*
X178538213Y-93040292D01*
X178649707Y-93151786D01*
X178649711Y-93151789D01*
X178780814Y-93239390D01*
X178780827Y-93239397D01*
X178926498Y-93299735D01*
X178926503Y-93299737D01*
X179081153Y-93330499D01*
X179081156Y-93330500D01*
X179081158Y-93330500D01*
X179238844Y-93330500D01*
X179238845Y-93330499D01*
X179393497Y-93299737D01*
X179539179Y-93239394D01*
X179670289Y-93151789D01*
X179781789Y-93040289D01*
X179869394Y-92909179D01*
X179929737Y-92763497D01*
X179960500Y-92608842D01*
X179960500Y-92451158D01*
X179960500Y-92451155D01*
X179960499Y-92451153D01*
X179929738Y-92296510D01*
X179929737Y-92296503D01*
X179929735Y-92296498D01*
X179869397Y-92150827D01*
X179869390Y-92150814D01*
X179781789Y-92019711D01*
X179781786Y-92019707D01*
X179670292Y-91908213D01*
X179670288Y-91908210D01*
X179539185Y-91820609D01*
X179539172Y-91820602D01*
X179393501Y-91760264D01*
X179393489Y-91760261D01*
X179238845Y-91729500D01*
X179238842Y-91729500D01*
X179081158Y-91729500D01*
X179081155Y-91729500D01*
X178926510Y-91760261D01*
X178926498Y-91760264D01*
X178780827Y-91820602D01*
X178780814Y-91820609D01*
X178649711Y-91908210D01*
X178649707Y-91908213D01*
X178538213Y-92019707D01*
X178538210Y-92019711D01*
X178450609Y-92150814D01*
X178450602Y-92150827D01*
X178390264Y-92296498D01*
X178390261Y-92296510D01*
X178359500Y-92451153D01*
X178054711Y-92451153D01*
X178069394Y-92429179D01*
X178091520Y-92375763D01*
X178129735Y-92283501D01*
X178129737Y-92283497D01*
X178160500Y-92128842D01*
X178160500Y-91971158D01*
X178160500Y-91971155D01*
X178160499Y-91971153D01*
X178147979Y-91908210D01*
X178129737Y-91816503D01*
X178106441Y-91760261D01*
X178069397Y-91670827D01*
X178069390Y-91670814D01*
X177981789Y-91539711D01*
X177981786Y-91539707D01*
X177870292Y-91428213D01*
X177870288Y-91428210D01*
X177739185Y-91340609D01*
X177739172Y-91340602D01*
X177593501Y-91280264D01*
X177593489Y-91280261D01*
X177438845Y-91249500D01*
X177438842Y-91249500D01*
X177281158Y-91249500D01*
X177281155Y-91249500D01*
X177126510Y-91280261D01*
X177126498Y-91280264D01*
X176980827Y-91340602D01*
X176980814Y-91340609D01*
X176849711Y-91428210D01*
X176849707Y-91428213D01*
X176738213Y-91539707D01*
X176738210Y-91539711D01*
X176650609Y-91670814D01*
X176650602Y-91670827D01*
X176590264Y-91816498D01*
X176590261Y-91816510D01*
X176559500Y-91971153D01*
X168200500Y-91971153D01*
X168200500Y-89791153D01*
X169384500Y-89791153D01*
X169384500Y-89948846D01*
X169415261Y-90103489D01*
X169415264Y-90103501D01*
X169475602Y-90249172D01*
X169475609Y-90249185D01*
X169563210Y-90380288D01*
X169563213Y-90380292D01*
X169674707Y-90491786D01*
X169674711Y-90491789D01*
X169805814Y-90579390D01*
X169805827Y-90579397D01*
X169951498Y-90639735D01*
X169951503Y-90639737D01*
X170106153Y-90670499D01*
X170106156Y-90670500D01*
X170106158Y-90670500D01*
X170263844Y-90670500D01*
X170263845Y-90670499D01*
X170418497Y-90639737D01*
X170564179Y-90579394D01*
X170695289Y-90491789D01*
X170806789Y-90380289D01*
X170894394Y-90249179D01*
X170954737Y-90103497D01*
X170961171Y-90071153D01*
X177412000Y-90071153D01*
X177412000Y-90228846D01*
X177442761Y-90383489D01*
X177442764Y-90383501D01*
X177503102Y-90529172D01*
X177503109Y-90529185D01*
X177590710Y-90660288D01*
X177590713Y-90660292D01*
X177702207Y-90771786D01*
X177702211Y-90771789D01*
X177833314Y-90859390D01*
X177833327Y-90859397D01*
X177932560Y-90900500D01*
X177979003Y-90919737D01*
X178133653Y-90950499D01*
X178133656Y-90950500D01*
X178133658Y-90950500D01*
X178291344Y-90950500D01*
X178291345Y-90950499D01*
X178445997Y-90919737D01*
X178591679Y-90859394D01*
X178722789Y-90771789D01*
X178834289Y-90660289D01*
X178921894Y-90529179D01*
X178982237Y-90383497D01*
X179013000Y-90228842D01*
X179013000Y-90071158D01*
X179013000Y-90071155D01*
X179012999Y-90071153D01*
X183229500Y-90071153D01*
X183229500Y-90228846D01*
X183260261Y-90383489D01*
X183260264Y-90383501D01*
X183320602Y-90529172D01*
X183320609Y-90529185D01*
X183408210Y-90660288D01*
X183408213Y-90660292D01*
X183519707Y-90771786D01*
X183519711Y-90771789D01*
X183650814Y-90859390D01*
X183650827Y-90859397D01*
X183750060Y-90900500D01*
X183796503Y-90919737D01*
X183951153Y-90950499D01*
X183951156Y-90950500D01*
X183951158Y-90950500D01*
X184108844Y-90950500D01*
X184108845Y-90950499D01*
X184263497Y-90919737D01*
X184409179Y-90859394D01*
X184540289Y-90771789D01*
X184651789Y-90660289D01*
X184739394Y-90529179D01*
X184799737Y-90383497D01*
X184830500Y-90228842D01*
X184830500Y-90071158D01*
X184830500Y-90071155D01*
X184830499Y-90071153D01*
X184806170Y-89948844D01*
X184799737Y-89916503D01*
X184799735Y-89916498D01*
X184739397Y-89770827D01*
X184739390Y-89770814D01*
X184651789Y-89639711D01*
X184651786Y-89639707D01*
X184540292Y-89528213D01*
X184540288Y-89528210D01*
X184409185Y-89440609D01*
X184409172Y-89440602D01*
X184263501Y-89380264D01*
X184263489Y-89380261D01*
X184108845Y-89349500D01*
X184108842Y-89349500D01*
X183951158Y-89349500D01*
X183951155Y-89349500D01*
X183796510Y-89380261D01*
X183796498Y-89380264D01*
X183650827Y-89440602D01*
X183650814Y-89440609D01*
X183519711Y-89528210D01*
X183519707Y-89528213D01*
X183408213Y-89639707D01*
X183408210Y-89639711D01*
X183320609Y-89770814D01*
X183320602Y-89770827D01*
X183260264Y-89916498D01*
X183260261Y-89916510D01*
X183229500Y-90071153D01*
X179012999Y-90071153D01*
X178988670Y-89948844D01*
X178982237Y-89916503D01*
X178982235Y-89916498D01*
X178921897Y-89770827D01*
X178921890Y-89770814D01*
X178834289Y-89639711D01*
X178834286Y-89639707D01*
X178722792Y-89528213D01*
X178722788Y-89528210D01*
X178591685Y-89440609D01*
X178591672Y-89440602D01*
X178446001Y-89380264D01*
X178445989Y-89380261D01*
X178291345Y-89349500D01*
X178291342Y-89349500D01*
X178133658Y-89349500D01*
X178133655Y-89349500D01*
X177979010Y-89380261D01*
X177978998Y-89380264D01*
X177833327Y-89440602D01*
X177833314Y-89440609D01*
X177702211Y-89528210D01*
X177702207Y-89528213D01*
X177590713Y-89639707D01*
X177590710Y-89639711D01*
X177503109Y-89770814D01*
X177503102Y-89770827D01*
X177442764Y-89916498D01*
X177442761Y-89916510D01*
X177412000Y-90071153D01*
X170961171Y-90071153D01*
X170985500Y-89948842D01*
X170985500Y-89791158D01*
X170985500Y-89791155D01*
X170985499Y-89791153D01*
X170971509Y-89720821D01*
X170954737Y-89636503D01*
X170935354Y-89589707D01*
X170894397Y-89490827D01*
X170894390Y-89490814D01*
X170806789Y-89359711D01*
X170806786Y-89359707D01*
X170695292Y-89248213D01*
X170695288Y-89248210D01*
X170564185Y-89160609D01*
X170564172Y-89160602D01*
X170418501Y-89100264D01*
X170418489Y-89100261D01*
X170263845Y-89069500D01*
X170263842Y-89069500D01*
X170106158Y-89069500D01*
X170106155Y-89069500D01*
X169951510Y-89100261D01*
X169951498Y-89100264D01*
X169805827Y-89160602D01*
X169805814Y-89160609D01*
X169674711Y-89248210D01*
X169674707Y-89248213D01*
X169563213Y-89359707D01*
X169563210Y-89359711D01*
X169475609Y-89490814D01*
X169475602Y-89490827D01*
X169415264Y-89636498D01*
X169415261Y-89636510D01*
X169384500Y-89791153D01*
X168200500Y-89791153D01*
X168200500Y-85428543D01*
X168884499Y-85428543D01*
X168922947Y-85621829D01*
X168922950Y-85621839D01*
X168998364Y-85803907D01*
X168998371Y-85803920D01*
X169107860Y-85967781D01*
X169107863Y-85967785D01*
X169247214Y-86107136D01*
X169247218Y-86107139D01*
X169411079Y-86216628D01*
X169411092Y-86216635D01*
X169509403Y-86257356D01*
X169593165Y-86292051D01*
X169593169Y-86292051D01*
X169593170Y-86292052D01*
X169786456Y-86330500D01*
X169786459Y-86330500D01*
X170583543Y-86330500D01*
X170735425Y-86300288D01*
X170776835Y-86292051D01*
X170958914Y-86216632D01*
X171122782Y-86107139D01*
X171262139Y-85967782D01*
X171371632Y-85803914D01*
X171447051Y-85621835D01*
X171485500Y-85428543D01*
X172814499Y-85428543D01*
X172852947Y-85621829D01*
X172852950Y-85621839D01*
X172928364Y-85803907D01*
X172928371Y-85803920D01*
X173037860Y-85967781D01*
X173037863Y-85967785D01*
X173177214Y-86107136D01*
X173177218Y-86107139D01*
X173341079Y-86216628D01*
X173341092Y-86216635D01*
X173498815Y-86281965D01*
X173553219Y-86325805D01*
X173575284Y-86392099D01*
X173558005Y-86459799D01*
X173539046Y-86484205D01*
X173524518Y-86498732D01*
X173524513Y-86498740D01*
X173468498Y-86595760D01*
X173468497Y-86595763D01*
X173439500Y-86703982D01*
X173439500Y-86816018D01*
X173468497Y-86924237D01*
X173524515Y-87021263D01*
X173603737Y-87100485D01*
X173700763Y-87156503D01*
X173808982Y-87185500D01*
X173808984Y-87185500D01*
X173921016Y-87185500D01*
X173921018Y-87185500D01*
X173974562Y-87171153D01*
X176569500Y-87171153D01*
X176569500Y-87328846D01*
X176600261Y-87483489D01*
X176600264Y-87483501D01*
X176660602Y-87629172D01*
X176660609Y-87629185D01*
X176748210Y-87760288D01*
X176748213Y-87760292D01*
X176859707Y-87871786D01*
X176859711Y-87871789D01*
X176990814Y-87959390D01*
X176990827Y-87959397D01*
X177136498Y-88019735D01*
X177136503Y-88019737D01*
X177291153Y-88050499D01*
X177291156Y-88050500D01*
X177291158Y-88050500D01*
X177448844Y-88050500D01*
X177448845Y-88050499D01*
X177603497Y-88019737D01*
X177749179Y-87959394D01*
X177880289Y-87871789D01*
X177991789Y-87760289D01*
X178079394Y-87629179D01*
X178139737Y-87483497D01*
X178154378Y-87409893D01*
X178186762Y-87347982D01*
X178247478Y-87313408D01*
X178317248Y-87317147D01*
X178373920Y-87358013D01*
X178390556Y-87386632D01*
X178420602Y-87459172D01*
X178420609Y-87459185D01*
X178508210Y-87590288D01*
X178508213Y-87590292D01*
X178619707Y-87701786D01*
X178619711Y-87701789D01*
X178750814Y-87789390D01*
X178750827Y-87789397D01*
X178896498Y-87849735D01*
X178896503Y-87849737D01*
X179051153Y-87880499D01*
X179051156Y-87880500D01*
X179051158Y-87880500D01*
X179208844Y-87880500D01*
X179208845Y-87880499D01*
X179363497Y-87849737D01*
X179509179Y-87789394D01*
X179640289Y-87701789D01*
X179751789Y-87590289D01*
X179818030Y-87491153D01*
X183229500Y-87491153D01*
X183229500Y-87648846D01*
X183260261Y-87803489D01*
X183260264Y-87803501D01*
X183320602Y-87949172D01*
X183320609Y-87949185D01*
X183408210Y-88080288D01*
X183408213Y-88080292D01*
X183519707Y-88191786D01*
X183519711Y-88191789D01*
X183650814Y-88279390D01*
X183650827Y-88279397D01*
X183796498Y-88339735D01*
X183796503Y-88339737D01*
X183951153Y-88370499D01*
X183951156Y-88370500D01*
X183951158Y-88370500D01*
X184108844Y-88370500D01*
X184108845Y-88370499D01*
X184263497Y-88339737D01*
X184409179Y-88279394D01*
X184540289Y-88191789D01*
X184651789Y-88080289D01*
X184739394Y-87949179D01*
X184799737Y-87803497D01*
X184830500Y-87648842D01*
X184830500Y-87491158D01*
X184830500Y-87491155D01*
X184830499Y-87491153D01*
X184824139Y-87459179D01*
X184799737Y-87336503D01*
X184796564Y-87328842D01*
X184739397Y-87190827D01*
X184739390Y-87190814D01*
X184651789Y-87059711D01*
X184651786Y-87059707D01*
X184540292Y-86948213D01*
X184540288Y-86948210D01*
X184409185Y-86860609D01*
X184409172Y-86860602D01*
X184263501Y-86800264D01*
X184263489Y-86800261D01*
X184108845Y-86769500D01*
X184108842Y-86769500D01*
X183951158Y-86769500D01*
X183951155Y-86769500D01*
X183796510Y-86800261D01*
X183796498Y-86800264D01*
X183650827Y-86860602D01*
X183650814Y-86860609D01*
X183519711Y-86948210D01*
X183519707Y-86948213D01*
X183408213Y-87059707D01*
X183408210Y-87059711D01*
X183320609Y-87190814D01*
X183320602Y-87190827D01*
X183260264Y-87336498D01*
X183260261Y-87336510D01*
X183229500Y-87491153D01*
X179818030Y-87491153D01*
X179839394Y-87459179D01*
X179839397Y-87459172D01*
X179848327Y-87437614D01*
X179873414Y-87377048D01*
X179917255Y-87322644D01*
X179983549Y-87300579D01*
X179987975Y-87300500D01*
X180078844Y-87300500D01*
X180078845Y-87300499D01*
X180233497Y-87269737D01*
X180379179Y-87209394D01*
X180510289Y-87121789D01*
X180621789Y-87010289D01*
X180709394Y-86879179D01*
X180712854Y-86870827D01*
X180767163Y-86739711D01*
X180769737Y-86733497D01*
X180800500Y-86578842D01*
X180800500Y-86421158D01*
X180800500Y-86421155D01*
X180800499Y-86421153D01*
X180790445Y-86370609D01*
X180769737Y-86266503D01*
X180729427Y-86169185D01*
X180709397Y-86120827D01*
X180709390Y-86120814D01*
X180621789Y-85989711D01*
X180621786Y-85989707D01*
X180510292Y-85878213D01*
X180510288Y-85878210D01*
X180405463Y-85808168D01*
X180379184Y-85790609D01*
X180379172Y-85790602D01*
X180233501Y-85730264D01*
X180233489Y-85730261D01*
X180137428Y-85711153D01*
X207119500Y-85711153D01*
X207119500Y-85868846D01*
X207150261Y-86023489D01*
X207150264Y-86023501D01*
X207210602Y-86169172D01*
X207210609Y-86169185D01*
X207298210Y-86300288D01*
X207298213Y-86300292D01*
X207409707Y-86411786D01*
X207409711Y-86411789D01*
X207540814Y-86499390D01*
X207540827Y-86499397D01*
X207686498Y-86559735D01*
X207686503Y-86559737D01*
X207841153Y-86590499D01*
X207841156Y-86590500D01*
X207841158Y-86590500D01*
X207998844Y-86590500D01*
X207998845Y-86590499D01*
X208153497Y-86559737D01*
X208299179Y-86499394D01*
X208430289Y-86411789D01*
X208541789Y-86300289D01*
X208629394Y-86169179D01*
X208689737Y-86023497D01*
X208720500Y-85868842D01*
X208720500Y-85711158D01*
X208720500Y-85711155D01*
X208720499Y-85711153D01*
X208689738Y-85556510D01*
X208689737Y-85556503D01*
X208636734Y-85428541D01*
X208629397Y-85410827D01*
X208629390Y-85410814D01*
X208541789Y-85279711D01*
X208541786Y-85279707D01*
X208430292Y-85168213D01*
X208430288Y-85168210D01*
X208299185Y-85080609D01*
X208299172Y-85080602D01*
X208153501Y-85020264D01*
X208153489Y-85020261D01*
X207998845Y-84989500D01*
X207998842Y-84989500D01*
X207841158Y-84989500D01*
X207841155Y-84989500D01*
X207686510Y-85020261D01*
X207686498Y-85020264D01*
X207540827Y-85080602D01*
X207540814Y-85080609D01*
X207409711Y-85168210D01*
X207409707Y-85168213D01*
X207298213Y-85279707D01*
X207298210Y-85279711D01*
X207210609Y-85410814D01*
X207210602Y-85410827D01*
X207150264Y-85556498D01*
X207150261Y-85556510D01*
X207119500Y-85711153D01*
X180137428Y-85711153D01*
X180078845Y-85699500D01*
X180078842Y-85699500D01*
X179921158Y-85699500D01*
X179921155Y-85699500D01*
X179766510Y-85730261D01*
X179766498Y-85730264D01*
X179620827Y-85790602D01*
X179620814Y-85790609D01*
X179489711Y-85878210D01*
X179489707Y-85878213D01*
X179378213Y-85989707D01*
X179378210Y-85989711D01*
X179290609Y-86120814D01*
X179290602Y-86120827D01*
X179256586Y-86202952D01*
X179212745Y-86257356D01*
X179146451Y-86279421D01*
X179142025Y-86279500D01*
X179051155Y-86279500D01*
X178896510Y-86310261D01*
X178896498Y-86310264D01*
X178750827Y-86370602D01*
X178750814Y-86370609D01*
X178619711Y-86458210D01*
X178619707Y-86458213D01*
X178508213Y-86569707D01*
X178508210Y-86569711D01*
X178420609Y-86700814D01*
X178420602Y-86700827D01*
X178360264Y-86846498D01*
X178360261Y-86846507D01*
X178345621Y-86920108D01*
X178313235Y-86982018D01*
X178252519Y-87016592D01*
X178182750Y-87012851D01*
X178126078Y-86971984D01*
X178109445Y-86943371D01*
X178079394Y-86870821D01*
X178079390Y-86870814D01*
X177991789Y-86739711D01*
X177991786Y-86739707D01*
X177880292Y-86628213D01*
X177880288Y-86628210D01*
X177749185Y-86540609D01*
X177749172Y-86540602D01*
X177603501Y-86480264D01*
X177603489Y-86480261D01*
X177448845Y-86449500D01*
X177448842Y-86449500D01*
X177291158Y-86449500D01*
X177291155Y-86449500D01*
X177136510Y-86480261D01*
X177136498Y-86480264D01*
X176990827Y-86540602D01*
X176990814Y-86540609D01*
X176859711Y-86628210D01*
X176859707Y-86628213D01*
X176748213Y-86739707D01*
X176748210Y-86739711D01*
X176660609Y-86870814D01*
X176660602Y-86870827D01*
X176600264Y-87016498D01*
X176600261Y-87016510D01*
X176569500Y-87171153D01*
X173974562Y-87171153D01*
X174029237Y-87156503D01*
X174126263Y-87100485D01*
X174205485Y-87021263D01*
X174261503Y-86924237D01*
X174290500Y-86816018D01*
X174290500Y-86703982D01*
X174261503Y-86595763D01*
X174215739Y-86516498D01*
X174199267Y-86448600D01*
X174222119Y-86382573D01*
X174277040Y-86339383D01*
X174323127Y-86330500D01*
X175013543Y-86330500D01*
X175165425Y-86300288D01*
X175206835Y-86292051D01*
X175388914Y-86216632D01*
X175552782Y-86107139D01*
X175692139Y-85967782D01*
X175801632Y-85803914D01*
X175877051Y-85621835D01*
X175915500Y-85428541D01*
X175915500Y-85231459D01*
X175915500Y-85231456D01*
X175877052Y-85038170D01*
X175877051Y-85038169D01*
X175877051Y-85038165D01*
X175869635Y-85020261D01*
X175801635Y-84856092D01*
X175801628Y-84856079D01*
X175692139Y-84692218D01*
X175692136Y-84692214D01*
X175552785Y-84552863D01*
X175552781Y-84552860D01*
X175388920Y-84443371D01*
X175388907Y-84443364D01*
X175206839Y-84367950D01*
X175206829Y-84367947D01*
X175013543Y-84329500D01*
X175013541Y-84329500D01*
X173716459Y-84329500D01*
X173716457Y-84329500D01*
X173523170Y-84367947D01*
X173523160Y-84367950D01*
X173341092Y-84443364D01*
X173341079Y-84443371D01*
X173177218Y-84552860D01*
X173177214Y-84552863D01*
X173037863Y-84692214D01*
X173037860Y-84692218D01*
X172928371Y-84856079D01*
X172928364Y-84856092D01*
X172852950Y-85038160D01*
X172852947Y-85038170D01*
X172814500Y-85231456D01*
X172814500Y-85231459D01*
X172814500Y-85428541D01*
X172814500Y-85428543D01*
X172814499Y-85428543D01*
X171485500Y-85428543D01*
X171485500Y-85428541D01*
X171485500Y-85231459D01*
X171485500Y-85231456D01*
X171447052Y-85038170D01*
X171447051Y-85038169D01*
X171447051Y-85038165D01*
X171439635Y-85020261D01*
X171371635Y-84856092D01*
X171371628Y-84856079D01*
X171262139Y-84692218D01*
X171262136Y-84692214D01*
X171122785Y-84552863D01*
X171122781Y-84552860D01*
X170958920Y-84443371D01*
X170958907Y-84443364D01*
X170776839Y-84367950D01*
X170776829Y-84367947D01*
X170583543Y-84329500D01*
X170583541Y-84329500D01*
X169786459Y-84329500D01*
X169786457Y-84329500D01*
X169593170Y-84367947D01*
X169593160Y-84367950D01*
X169411092Y-84443364D01*
X169411079Y-84443371D01*
X169247218Y-84552860D01*
X169247214Y-84552863D01*
X169107863Y-84692214D01*
X169107860Y-84692218D01*
X168998371Y-84856079D01*
X168998364Y-84856092D01*
X168922950Y-85038160D01*
X168922947Y-85038170D01*
X168884500Y-85231456D01*
X168884500Y-85231459D01*
X168884500Y-85428541D01*
X168884500Y-85428543D01*
X168884499Y-85428543D01*
X168200500Y-85428543D01*
X168200500Y-81431153D01*
X172039500Y-81431153D01*
X172039500Y-81588846D01*
X172070261Y-81743489D01*
X172070264Y-81743501D01*
X172130602Y-81889172D01*
X172130609Y-81889185D01*
X172218210Y-82020288D01*
X172218213Y-82020292D01*
X172329707Y-82131786D01*
X172329711Y-82131789D01*
X172460814Y-82219390D01*
X172460827Y-82219397D01*
X172560060Y-82260500D01*
X172606503Y-82279737D01*
X172761153Y-82310499D01*
X172761156Y-82310500D01*
X172761158Y-82310500D01*
X172918844Y-82310500D01*
X172918845Y-82310499D01*
X173073497Y-82279737D01*
X173219179Y-82219394D01*
X173350289Y-82131789D01*
X173461789Y-82020289D01*
X173549394Y-81889179D01*
X173609737Y-81743497D01*
X173640500Y-81588842D01*
X173640500Y-81431158D01*
X173640500Y-81431155D01*
X173634155Y-81399258D01*
X173634155Y-81399257D01*
X173630554Y-81381153D01*
X183969500Y-81381153D01*
X183969500Y-81538846D01*
X184000261Y-81693489D01*
X184000264Y-81693501D01*
X184060602Y-81839172D01*
X184060609Y-81839185D01*
X184148210Y-81970288D01*
X184148213Y-81970292D01*
X184259707Y-82081786D01*
X184259711Y-82081789D01*
X184390814Y-82169390D01*
X184390827Y-82169397D01*
X184536498Y-82229735D01*
X184536503Y-82229737D01*
X184691153Y-82260499D01*
X184691156Y-82260500D01*
X184691158Y-82260500D01*
X184848844Y-82260500D01*
X184848845Y-82260499D01*
X185003497Y-82229737D01*
X185149179Y-82169394D01*
X185280289Y-82081789D01*
X185391789Y-81970289D01*
X185479394Y-81839179D01*
X185539737Y-81693497D01*
X185570500Y-81538842D01*
X185570500Y-81381158D01*
X185570500Y-81381155D01*
X185570499Y-81381153D01*
X185549684Y-81276510D01*
X185539737Y-81226503D01*
X185500102Y-81130814D01*
X185479397Y-81080827D01*
X185479390Y-81080814D01*
X185391789Y-80949711D01*
X185391786Y-80949707D01*
X185280292Y-80838213D01*
X185280288Y-80838210D01*
X185149185Y-80750609D01*
X185149172Y-80750602D01*
X185003501Y-80690264D01*
X185003489Y-80690261D01*
X184848845Y-80659500D01*
X184848842Y-80659500D01*
X184691158Y-80659500D01*
X184691155Y-80659500D01*
X184536510Y-80690261D01*
X184536498Y-80690264D01*
X184390827Y-80750602D01*
X184390814Y-80750609D01*
X184259711Y-80838210D01*
X184259707Y-80838213D01*
X184148213Y-80949707D01*
X184148210Y-80949711D01*
X184060609Y-81080814D01*
X184060602Y-81080827D01*
X184000264Y-81226498D01*
X184000261Y-81226510D01*
X183969500Y-81381153D01*
X173630554Y-81381153D01*
X173609738Y-81276510D01*
X173609737Y-81276503D01*
X173609735Y-81276498D01*
X173549397Y-81130827D01*
X173549390Y-81130814D01*
X173461789Y-80999711D01*
X173461786Y-80999707D01*
X173350292Y-80888213D01*
X173350288Y-80888210D01*
X173219185Y-80800609D01*
X173219172Y-80800602D01*
X173073501Y-80740264D01*
X173073489Y-80740261D01*
X172918845Y-80709500D01*
X172918842Y-80709500D01*
X172761158Y-80709500D01*
X172761155Y-80709500D01*
X172606510Y-80740261D01*
X172606498Y-80740264D01*
X172460827Y-80800602D01*
X172460814Y-80800609D01*
X172329711Y-80888210D01*
X172329707Y-80888213D01*
X172218213Y-80999707D01*
X172218210Y-80999711D01*
X172130609Y-81130814D01*
X172130602Y-81130827D01*
X172070264Y-81276498D01*
X172070261Y-81276510D01*
X172039500Y-81431153D01*
X168200500Y-81431153D01*
X168200500Y-78269153D01*
X177147500Y-78269153D01*
X177147500Y-78426846D01*
X177178261Y-78581489D01*
X177178264Y-78581501D01*
X177238602Y-78727172D01*
X177238609Y-78727185D01*
X177326210Y-78858288D01*
X177326213Y-78858292D01*
X177437707Y-78969786D01*
X177437711Y-78969789D01*
X177568814Y-79057390D01*
X177568827Y-79057397D01*
X177714498Y-79117735D01*
X177714503Y-79117737D01*
X177869153Y-79148499D01*
X177869156Y-79148500D01*
X177869158Y-79148500D01*
X178026844Y-79148500D01*
X178026845Y-79148499D01*
X178181497Y-79117737D01*
X178327179Y-79057394D01*
X178458289Y-78969789D01*
X178569789Y-78858289D01*
X178657394Y-78727179D01*
X178717737Y-78581497D01*
X178748500Y-78426842D01*
X178748500Y-78269158D01*
X178748500Y-78269155D01*
X178748499Y-78269153D01*
X178744526Y-78249179D01*
X178717737Y-78114503D01*
X178713175Y-78103489D01*
X178657397Y-77968827D01*
X178657390Y-77968814D01*
X178580645Y-77853957D01*
X178580644Y-77853956D01*
X178569791Y-77837713D01*
X178569786Y-77837707D01*
X178523232Y-77791153D01*
X183969500Y-77791153D01*
X183969500Y-77948846D01*
X184000261Y-78103489D01*
X184000264Y-78103501D01*
X184060602Y-78249172D01*
X184060609Y-78249185D01*
X184148210Y-78380288D01*
X184148213Y-78380292D01*
X184259707Y-78491786D01*
X184259711Y-78491789D01*
X184390814Y-78579390D01*
X184390827Y-78579397D01*
X184536498Y-78639735D01*
X184536503Y-78639737D01*
X184691153Y-78670499D01*
X184691156Y-78670500D01*
X184691158Y-78670500D01*
X184848844Y-78670500D01*
X184848845Y-78670499D01*
X185003497Y-78639737D01*
X185149179Y-78579394D01*
X185280289Y-78491789D01*
X185391789Y-78380289D01*
X185479394Y-78249179D01*
X185539737Y-78103497D01*
X185570500Y-77948842D01*
X185570500Y-77791158D01*
X185570500Y-77791155D01*
X185570499Y-77791153D01*
X185539737Y-77636503D01*
X185515614Y-77578264D01*
X185479397Y-77490827D01*
X185479390Y-77490814D01*
X185391789Y-77359711D01*
X185391786Y-77359707D01*
X185280292Y-77248213D01*
X185280288Y-77248210D01*
X185149185Y-77160609D01*
X185149172Y-77160602D01*
X185003501Y-77100264D01*
X185003489Y-77100261D01*
X184848845Y-77069500D01*
X184848842Y-77069500D01*
X184691158Y-77069500D01*
X184691155Y-77069500D01*
X184536510Y-77100261D01*
X184536498Y-77100264D01*
X184390827Y-77160602D01*
X184390814Y-77160609D01*
X184259711Y-77248210D01*
X184259707Y-77248213D01*
X184148213Y-77359707D01*
X184148210Y-77359711D01*
X184060609Y-77490814D01*
X184060602Y-77490827D01*
X184000264Y-77636498D01*
X184000261Y-77636510D01*
X183969500Y-77791153D01*
X178523232Y-77791153D01*
X178458292Y-77726213D01*
X178458288Y-77726210D01*
X178327185Y-77638609D01*
X178327172Y-77638602D01*
X178181501Y-77578264D01*
X178181489Y-77578261D01*
X178026845Y-77547500D01*
X178026842Y-77547500D01*
X177869158Y-77547500D01*
X177869155Y-77547500D01*
X177714510Y-77578261D01*
X177714498Y-77578264D01*
X177568827Y-77638602D01*
X177568814Y-77638609D01*
X177437711Y-77726210D01*
X177437707Y-77726213D01*
X177326213Y-77837707D01*
X177326210Y-77837711D01*
X177238609Y-77968814D01*
X177238602Y-77968827D01*
X177178264Y-78114498D01*
X177178261Y-78114510D01*
X177147500Y-78269153D01*
X168200500Y-78269153D01*
X168200500Y-75311153D01*
X175689500Y-75311153D01*
X175689500Y-75468846D01*
X175720261Y-75623489D01*
X175720264Y-75623501D01*
X175780602Y-75769172D01*
X175780609Y-75769185D01*
X175868210Y-75900288D01*
X175868213Y-75900292D01*
X175979707Y-76011786D01*
X175979711Y-76011789D01*
X176110814Y-76099390D01*
X176110827Y-76099397D01*
X176256498Y-76159735D01*
X176256503Y-76159737D01*
X176411153Y-76190499D01*
X176411156Y-76190500D01*
X176411158Y-76190500D01*
X176568844Y-76190500D01*
X176568845Y-76190499D01*
X176723497Y-76159737D01*
X176869179Y-76099394D01*
X177000289Y-76011789D01*
X177111789Y-75900289D01*
X177199394Y-75769179D01*
X177259737Y-75623497D01*
X177290500Y-75468842D01*
X177290500Y-75311158D01*
X177290500Y-75311155D01*
X177290499Y-75311153D01*
X177259738Y-75156510D01*
X177259737Y-75156503D01*
X177228256Y-75080500D01*
X177199397Y-75010827D01*
X177199390Y-75010814D01*
X177111789Y-74879711D01*
X177111786Y-74879707D01*
X177000292Y-74768213D01*
X177000288Y-74768210D01*
X176869185Y-74680609D01*
X176869172Y-74680602D01*
X176723501Y-74620264D01*
X176723489Y-74620261D01*
X176568845Y-74589500D01*
X176568842Y-74589500D01*
X176411158Y-74589500D01*
X176411155Y-74589500D01*
X176256510Y-74620261D01*
X176256498Y-74620264D01*
X176110827Y-74680602D01*
X176110814Y-74680609D01*
X175979711Y-74768210D01*
X175979707Y-74768213D01*
X175868213Y-74879707D01*
X175868210Y-74879711D01*
X175780609Y-75010814D01*
X175780602Y-75010827D01*
X175720264Y-75156498D01*
X175720261Y-75156510D01*
X175689500Y-75311153D01*
X168200500Y-75311153D01*
X168200500Y-72324500D01*
X168220185Y-72257461D01*
X168272989Y-72211706D01*
X168324500Y-72200500D01*
X181963636Y-72200500D01*
X182030675Y-72220185D01*
G37*
%TD.AperFunction*%
%TD*%
M02*
