%TF.GenerationSoftware,KiCad,Pcbnew,9.0.3*%
%TF.CreationDate,2026-05-30T21:23:59+05:30*%
%TF.ProjectId,new',6e657727-2e6b-4696-9361-645f70636258,rev?*%
%TF.SameCoordinates,Original*%
%TF.FileFunction,Copper,L1,Top*%
%TF.FilePolarity,Positive*%
%FSLAX46Y46*%
G04 Gerber Fmt 4.6, Leading zero omitted, Abs format (unit mm)*
G04 Created by KiCad (PCBNEW 9.0.3) date 2026-05-30 21:23:59*
%MOMM*%
%LPD*%
G01*
G04 APERTURE LIST*
G04 Aperture macros list*
%AMRoundRect*
0 Rectangle with rounded corners*
0 $1 Rounding radius*
0 $2 $3 $4 $5 $6 $7 $8 $9 X,Y pos of 4 corners*
0 Add a 4 corners polygon primitive as box body*
4,1,4,$2,$3,$4,$5,$6,$7,$8,$9,$2,$3,0*
0 Add four circle primitives for the rounded corners*
1,1,$1+$1,$2,$3*
1,1,$1+$1,$4,$5*
1,1,$1+$1,$6,$7*
1,1,$1+$1,$8,$9*
0 Add four rect primitives between the rounded corners*
20,1,$1+$1,$2,$3,$4,$5,0*
20,1,$1+$1,$4,$5,$6,$7,0*
20,1,$1+$1,$6,$7,$8,$9,0*
20,1,$1+$1,$8,$9,$2,$3,0*%
G04 Aperture macros list end*
%TA.AperFunction,SMDPad,CuDef*%
%ADD10R,1.450000X0.900001*%
%TD*%
%TA.AperFunction,SMDPad,CuDef*%
%ADD11R,1.450000X3.149999*%
%TD*%
%TA.AperFunction,SMDPad,CuDef*%
%ADD12R,0.457200X0.457200*%
%TD*%
%TA.AperFunction,SMDPad,CuDef*%
%ADD13RoundRect,0.150000X-0.512500X-0.150000X0.512500X-0.150000X0.512500X0.150000X-0.512500X0.150000X0*%
%TD*%
%TA.AperFunction,SMDPad,CuDef*%
%ADD14R,1.500000X0.900000*%
%TD*%
%TA.AperFunction,SMDPad,CuDef*%
%ADD15R,0.900000X1.500000*%
%TD*%
%TA.AperFunction,SMDPad,CuDef*%
%ADD16R,0.900000X0.900000*%
%TD*%
%TA.AperFunction,SMDPad,CuDef*%
%ADD17R,1.524000X0.508000*%
%TD*%
%TA.AperFunction,SMDPad,CuDef*%
%ADD18R,0.508000X1.524000*%
%TD*%
%TA.AperFunction,SMDPad,CuDef*%
%ADD19RoundRect,0.150000X-0.500000X0.150000X-0.500000X-0.150000X0.500000X-0.150000X0.500000X0.150000X0*%
%TD*%
%TA.AperFunction,SMDPad,CuDef*%
%ADD20RoundRect,0.075000X-0.575000X0.075000X-0.575000X-0.075000X0.575000X-0.075000X0.575000X0.075000X0*%
%TD*%
%TA.AperFunction,HeatsinkPad*%
%ADD21O,2.100000X1.000000*%
%TD*%
%TA.AperFunction,HeatsinkPad*%
%ADD22O,1.600000X1.000000*%
%TD*%
%TA.AperFunction,SMDPad,CuDef*%
%ADD23R,1.397000X0.863600*%
%TD*%
%TA.AperFunction,SMDPad,CuDef*%
%ADD24R,1.020000X0.950000*%
%TD*%
%TA.AperFunction,SMDPad,CuDef*%
%ADD25RoundRect,0.243750X0.243750X0.456250X-0.243750X0.456250X-0.243750X-0.456250X0.243750X-0.456250X0*%
%TD*%
%TA.AperFunction,SMDPad,CuDef*%
%ADD26RoundRect,0.243750X-0.243750X-0.456250X0.243750X-0.456250X0.243750X0.456250X-0.243750X0.456250X0*%
%TD*%
%TA.AperFunction,SMDPad,CuDef*%
%ADD27RoundRect,0.225000X-0.375000X0.225000X-0.375000X-0.225000X0.375000X-0.225000X0.375000X0.225000X0*%
%TD*%
%TA.AperFunction,SMDPad,CuDef*%
%ADD28RoundRect,0.075000X0.175000X0.075000X-0.175000X0.075000X-0.175000X-0.075000X0.175000X-0.075000X0*%
%TD*%
%TA.AperFunction,SMDPad,CuDef*%
%ADD29RoundRect,0.075000X0.075000X-0.175000X0.075000X0.175000X-0.075000X0.175000X-0.075000X-0.175000X0*%
%TD*%
%TA.AperFunction,SMDPad,CuDef*%
%ADD30RoundRect,0.067500X0.232500X-0.202500X0.232500X0.202500X-0.232500X0.202500X-0.232500X-0.202500X0*%
%TD*%
%TA.AperFunction,SMDPad,CuDef*%
%ADD31RoundRect,0.067500X0.202500X0.232500X-0.202500X0.232500X-0.202500X-0.232500X0.202500X-0.232500X0*%
%TD*%
%TA.AperFunction,ViaPad*%
%ADD32C,0.600000*%
%TD*%
%TA.AperFunction,Conductor*%
%ADD33C,0.500000*%
%TD*%
%TA.AperFunction,Conductor*%
%ADD34C,0.400000*%
%TD*%
%TA.AperFunction,Conductor*%
%ADD35C,0.200000*%
%TD*%
%TA.AperFunction,Conductor*%
%ADD36C,0.300000*%
%TD*%
%TA.AperFunction,Conductor*%
%ADD37C,0.600000*%
%TD*%
%TA.AperFunction,Conductor*%
%ADD38C,0.240000*%
%TD*%
G04 APERTURE END LIST*
D10*
%TO.P,U4,1,ADJ*%
%TO.N,GND*%
X175400000Y-81550000D03*
%TO.P,U4,2,VO*%
%TO.N,+3V3*%
X175400000Y-79250000D03*
%TO.P,U4,3,VI*%
%TO.N,+5V*%
X175400000Y-76950000D03*
D11*
%TO.P,U4,4*%
%TO.N,N/C*%
X169250000Y-79250000D03*
%TD*%
D12*
%TO.P,R5,1*%
%TO.N,/CC1_2*%
X177095600Y-88400000D03*
%TO.P,R5,2*%
%TO.N,GND*%
X178010000Y-88400000D03*
%TD*%
D13*
%TO.P,U2,1,I/O1*%
%TO.N,/D_2-*%
X180275000Y-89200000D03*
%TO.P,U2,2,GND*%
%TO.N,GND*%
X180275000Y-90150000D03*
%TO.P,U2,3,I/O2*%
%TO.N,/D_2+*%
X180275000Y-91100000D03*
%TO.P,U2,4,I/O3*%
%TO.N,unconnected-(U2-I{slash}O3-Pad4)*%
X182550000Y-91100000D03*
%TO.P,U2,5,VBUS*%
%TO.N,+5V*%
X182550000Y-90150000D03*
%TO.P,U2,6,I/O4*%
%TO.N,unconnected-(U2-I{slash}O4-Pad6)*%
X182550000Y-89200000D03*
%TD*%
D14*
%TO.P,U1,1,GND*%
%TO.N,GND*%
X186550000Y-74280000D03*
%TO.P,U1,2,3V3*%
%TO.N,+3V3*%
X186550000Y-75550000D03*
%TO.P,U1,3,EN*%
%TO.N,Net-(D1-A2)*%
X186550000Y-76820000D03*
%TO.P,U1,4,IO4*%
%TO.N,unconnected-(U1-IO4-Pad4)*%
X186550000Y-78090000D03*
%TO.P,U1,5,IO5*%
%TO.N,unconnected-(U1-IO5-Pad5)*%
X186550000Y-79360000D03*
%TO.P,U1,6,IO6*%
%TO.N,unconnected-(U1-IO6-Pad6)*%
X186550000Y-80630000D03*
%TO.P,U1,7,IO7*%
%TO.N,unconnected-(U1-IO7-Pad7)*%
X186550000Y-81900000D03*
%TO.P,U1,8,IO15*%
%TO.N,unconnected-(U1-IO15-Pad8)*%
X186550000Y-83170000D03*
%TO.P,U1,9,IO16*%
%TO.N,unconnected-(U1-IO16-Pad9)*%
X186550000Y-84440000D03*
%TO.P,U1,10,IO17*%
%TO.N,unconnected-(U1-IO17-Pad10)*%
X186550000Y-85710000D03*
%TO.P,U1,11,IO18*%
%TO.N,unconnected-(U1-IO18-Pad11)*%
X186550000Y-86980000D03*
%TO.P,U1,12,IO8*%
%TO.N,unconnected-(U1-IO8-Pad12)*%
X186550000Y-88250000D03*
%TO.P,U1,13,IO19*%
%TO.N,/D_2-*%
X186550000Y-89520000D03*
%TO.P,U1,14,IO20*%
%TO.N,/D_2+*%
X186550000Y-90790000D03*
D15*
%TO.P,U1,15,IO3*%
%TO.N,Net-(U1-IO3)*%
X188315000Y-92040000D03*
%TO.P,U1,16,IO46*%
%TO.N,unconnected-(U1-IO46-Pad16)*%
X189585000Y-92040000D03*
%TO.P,U1,17,IO9*%
%TO.N,unconnected-(U1-IO9-Pad17)*%
X190855000Y-92040000D03*
%TO.P,U1,18,IO10*%
%TO.N,/WIFI_OFF_3*%
X192125000Y-92040000D03*
%TO.P,U1,19,IO11*%
%TO.N,unconnected-(U1-IO11-Pad19)*%
X193395000Y-92040000D03*
%TO.P,U1,20,IO12*%
%TO.N,/WIFI_con_3*%
X194665000Y-92040000D03*
%TO.P,U1,21,IO13*%
%TO.N,unconnected-(U1-IO13-Pad21)*%
X195935000Y-92040000D03*
%TO.P,U1,22,IO14*%
%TO.N,/WIFI_On_3*%
X197205000Y-92040000D03*
%TO.P,U1,23,IO21*%
%TO.N,unconnected-(U1-IO21-Pad23)*%
X198475000Y-92040000D03*
%TO.P,U1,24,IO47*%
%TO.N,unconnected-(U1-IO47-Pad24)*%
X199745000Y-92040000D03*
%TO.P,U1,25,IO48*%
%TO.N,unconnected-(U1-IO48-Pad25)*%
X201015000Y-92040000D03*
%TO.P,U1,26,IO45*%
%TO.N,unconnected-(U1-IO45-Pad26)*%
X202285000Y-92040000D03*
D14*
%TO.P,U1,27,IO0*%
%TO.N,/ESP_IO_3*%
X204050000Y-90790000D03*
%TO.P,U1,28,IO35*%
%TO.N,unconnected-(U1-IO35-Pad28)*%
X204050000Y-89520000D03*
%TO.P,U1,29,IO36*%
%TO.N,unconnected-(U1-IO36-Pad29)*%
X204050000Y-88250000D03*
%TO.P,U1,30,IO37*%
%TO.N,unconnected-(U1-IO37-Pad30)*%
X204050000Y-86980000D03*
%TO.P,U1,31,IO38*%
%TO.N,unconnected-(U1-IO38-Pad31)*%
X204050000Y-85710000D03*
%TO.P,U1,32,IO39*%
%TO.N,unconnected-(U1-IO39-Pad32)*%
X204050000Y-84440000D03*
%TO.P,U1,33,IO40*%
%TO.N,unconnected-(U1-IO40-Pad33)*%
X204050000Y-83170000D03*
%TO.P,U1,34,IO41*%
%TO.N,unconnected-(U1-IO41-Pad34)*%
X204050000Y-81900000D03*
%TO.P,U1,35,IO42*%
%TO.N,unconnected-(U1-IO42-Pad35)*%
X204050000Y-80630000D03*
%TO.P,U1,36,RXD0*%
%TO.N,unconnected-(U1-RXD0-Pad36)*%
X204050000Y-79360000D03*
%TO.P,U1,37,TXD0*%
%TO.N,unconnected-(U1-TXD0-Pad37)*%
X204050000Y-78090000D03*
%TO.P,U1,38,IO2*%
%TO.N,unconnected-(U1-IO2-Pad38)*%
X204050000Y-76820000D03*
%TO.P,U1,39,IO1*%
%TO.N,unconnected-(U1-IO1-Pad39)*%
X204050000Y-75550000D03*
%TO.P,U1,40,GND*%
%TO.N,GND*%
X204050000Y-74280000D03*
D16*
%TO.P,U1,41*%
%TO.N,N/C*%
X192400000Y-80600000D03*
X192400000Y-82000000D03*
X192400000Y-83400000D03*
X193800000Y-80600000D03*
X193800000Y-82000000D03*
X193800000Y-83400000D03*
X195200000Y-80600000D03*
X195200000Y-82000000D03*
X195200000Y-83400000D03*
%TD*%
D17*
%TO.P,SW2,1,A*%
%TO.N,GND*%
X207920000Y-84431000D03*
%TO.P,SW2,2,B*%
%TO.N,/ESP_IO_3*%
X207920000Y-88749000D03*
%TD*%
D18*
%TO.P,SW1,1,A*%
%TO.N,GND*%
X177091000Y-73750000D03*
%TO.P,SW1,2,B*%
%TO.N,Net-(D1-A2)*%
X181409000Y-73750000D03*
%TD*%
D12*
%TO.P,R12,1*%
%TO.N,Net-(D21-A)*%
X193752800Y-93670000D03*
%TO.P,R12,2*%
%TO.N,/WIFI_con_3*%
X194667200Y-93670000D03*
%TD*%
%TO.P,R11,1*%
%TO.N,Net-(D12-A)*%
X191212800Y-93620000D03*
%TO.P,R11,2*%
%TO.N,/WIFI_OFF_3*%
X192127200Y-93620000D03*
%TD*%
%TO.P,R6,1*%
%TO.N,/CC2_2*%
X177102800Y-91400000D03*
%TO.P,R6,2*%
%TO.N,GND*%
X178017200Y-91400000D03*
%TD*%
%TO.P,R2,1*%
%TO.N,+3V3*%
X182692800Y-93810000D03*
%TO.P,R2,2*%
%TO.N,Net-(U1-IO3)*%
X183607200Y-93810000D03*
%TD*%
%TO.P,R1,1*%
%TO.N,+3V3*%
X183540000Y-75972800D03*
%TO.P,R1,2*%
%TO.N,Net-(D1-A2)*%
X183540000Y-76887200D03*
%TD*%
D19*
%TO.P,J3,A1,GND*%
%TO.N,GND*%
X175005000Y-86450000D03*
%TO.P,J3,A4,VBUS*%
%TO.N,Net-(F3-Pad2)*%
X175005000Y-87250000D03*
D20*
%TO.P,J3,A5,CC1*%
%TO.N,/CC1_2*%
X175005000Y-88400000D03*
%TO.P,J3,A6,D+*%
%TO.N,/D_2+*%
X175005000Y-89400000D03*
%TO.P,J3,A7,D-*%
%TO.N,/D_2-*%
X175005000Y-89900000D03*
%TO.P,J3,A8,SBU1*%
%TO.N,unconnected-(J3-SBU1-PadA8)*%
X175005000Y-90900000D03*
D19*
%TO.P,J3,A9,VBUS*%
%TO.N,Net-(F3-Pad2)*%
X175005000Y-92050000D03*
%TO.P,J3,A12,GND*%
%TO.N,GND*%
X175005000Y-92850000D03*
%TO.P,J3,B1,GND*%
X175005000Y-92850000D03*
%TO.P,J3,B4,VBUS*%
%TO.N,Net-(F3-Pad2)*%
X175005000Y-92050000D03*
D20*
%TO.P,J3,B5,CC2*%
%TO.N,/CC2_2*%
X175005000Y-91400000D03*
%TO.P,J3,B6,D+*%
%TO.N,/D_2+*%
X175005000Y-90400000D03*
%TO.P,J3,B7,D-*%
%TO.N,/D_2-*%
X175005000Y-88900000D03*
%TO.P,J3,B8,SBU2*%
%TO.N,unconnected-(J3-SBU2-PadB8)*%
X175005000Y-87900000D03*
D19*
%TO.P,J3,B9,VBUS*%
%TO.N,Net-(F3-Pad2)*%
X175005000Y-87250000D03*
%TO.P,J3,B12,GND*%
%TO.N,GND*%
X175005000Y-86450000D03*
D21*
%TO.P,J3,S1,SHIELD*%
X174365000Y-85330000D03*
D22*
X170185000Y-85330000D03*
D21*
X174365000Y-93970000D03*
D22*
X170185000Y-93970000D03*
%TD*%
D23*
%TO.P,FB3,1*%
%TO.N,Net-(D3-A)*%
X177380000Y-81104500D03*
%TO.P,FB3,2*%
%TO.N,Net-(F3-Pad1)*%
X177380000Y-82755500D03*
%TD*%
D24*
%TO.P,F3,1*%
%TO.N,Net-(F3-Pad1)*%
X177380000Y-84495000D03*
%TO.P,F3,2*%
%TO.N,Net-(F3-Pad2)*%
X177380000Y-86065000D03*
%TD*%
D25*
%TO.P,D22,1,K*%
%TO.N,GND*%
X199987500Y-95180000D03*
%TO.P,D22,2,A*%
%TO.N,Net-(D22-A)*%
X198112500Y-95180000D03*
%TD*%
%TO.P,D21,1,K*%
%TO.N,GND*%
X195627500Y-95180000D03*
%TO.P,D21,2,A*%
%TO.N,Net-(D21-A)*%
X193752500Y-95180000D03*
%TD*%
%TO.P,D13,1,K*%
%TO.N,GND*%
X174937500Y-73930000D03*
%TO.P,D13,2,A*%
%TO.N,Net-(D13-A)*%
X173062500Y-73930000D03*
%TD*%
D26*
%TO.P,D12,1,K*%
%TO.N,GND*%
X189315000Y-95180000D03*
%TO.P,D12,2,A*%
%TO.N,Net-(D12-A)*%
X191190000Y-95180000D03*
%TD*%
D27*
%TO.P,D3,1,K*%
%TO.N,+5V*%
X179700000Y-76900000D03*
%TO.P,D3,2,A*%
%TO.N,Net-(D3-A)*%
X179700000Y-80200000D03*
%TD*%
D28*
%TO.P,D2,1,A1*%
%TO.N,GND*%
X208350750Y-90100000D03*
%TO.P,D2,2,A2*%
%TO.N,/ESP_IO_3*%
X207350750Y-90100000D03*
%TD*%
D29*
%TO.P,D1,1,A1*%
%TO.N,GND*%
X184770000Y-80040000D03*
%TO.P,D1,2,A2*%
%TO.N,Net-(D1-A2)*%
X184770000Y-79040000D03*
%TD*%
D30*
%TO.P,C23,1*%
%TO.N,+3V3*%
X176910000Y-79212000D03*
%TO.P,C23,2*%
%TO.N,GND*%
X176910000Y-78348000D03*
%TD*%
%TO.P,C22,1*%
%TO.N,+5V*%
X177460000Y-76892000D03*
%TO.P,C22,2*%
%TO.N,GND*%
X177460000Y-76028000D03*
%TD*%
D31*
%TO.P,C5,1*%
%TO.N,+5V*%
X182902000Y-87580000D03*
%TO.P,C5,2*%
%TO.N,GND*%
X182038000Y-87580000D03*
%TD*%
D30*
%TO.P,C3,1*%
%TO.N,Net-(D1-A2)*%
X184760000Y-76892000D03*
%TO.P,C3,2*%
%TO.N,GND*%
X184760000Y-76028000D03*
%TD*%
%TO.P,C2,1*%
%TO.N,+3V3*%
X183480000Y-73942000D03*
%TO.P,C2,2*%
%TO.N,GND*%
X183480000Y-73078000D03*
%TD*%
%TO.P,C1,1*%
%TO.N,+3V3*%
X184710000Y-73930000D03*
%TO.P,C1,2*%
%TO.N,GND*%
X184710000Y-73066000D03*
%TD*%
D12*
%TO.P,R23,1*%
%TO.N,+3V3*%
X170972800Y-73930000D03*
%TO.P,R23,2*%
%TO.N,Net-(D13-A)*%
X171887200Y-73930000D03*
%TD*%
%TO.P,R13,1*%
%TO.N,Net-(D22-A)*%
X198107200Y-93720000D03*
%TO.P,R13,2*%
%TO.N,/WIFI_On_3*%
X197192800Y-93720000D03*
%TD*%
D32*
%TO.N,GND*%
X180000000Y-86500000D03*
X209470000Y-90100000D03*
X184770000Y-81460000D03*
X207920000Y-85790000D03*
X201450000Y-95180000D03*
X196900000Y-95180000D03*
X187530000Y-95180000D03*
X201990000Y-74280000D03*
X189170000Y-73440000D03*
X170185000Y-89870000D03*
X182500000Y-73078000D03*
X176490000Y-75390000D03*
X177948000Y-78348000D03*
X172840000Y-81510000D03*
%TO.N,+3V3*%
X181570000Y-93810000D03*
X184710000Y-74690000D03*
X183480000Y-74690000D03*
%TO.N,Net-(D1-A2)*%
X184770000Y-77870000D03*
%TO.N,+3V3*%
X189140000Y-74690000D03*
%TO.N,+5V*%
X184030000Y-87570000D03*
X184030000Y-90150000D03*
%TO.N,+3V3*%
X181570000Y-79210000D03*
%TO.N,Net-(F3-Pad2)*%
X177370000Y-87250000D03*
X177360000Y-92050000D03*
%TO.N,GND*%
X179160000Y-92530000D03*
X179130000Y-87080000D03*
X178212500Y-90150000D03*
%TD*%
D33*
%TO.N,GND*%
X176410000Y-73930000D02*
X176490000Y-74010000D01*
X174937500Y-73930000D02*
X176410000Y-73930000D01*
X176490000Y-74010000D02*
X176490000Y-75390000D01*
X177091000Y-73750000D02*
X176750000Y-73750000D01*
X176750000Y-73750000D02*
X176490000Y-74010000D01*
D34*
%TO.N,Net-(D1-A2)*%
X181409000Y-75159000D02*
X181409000Y-73750000D01*
X183137200Y-76887200D02*
X181409000Y-75159000D01*
X183540000Y-76887200D02*
X183137200Y-76887200D01*
D35*
%TO.N,GND*%
X182500000Y-73078000D02*
X183480000Y-73078000D01*
D34*
%TO.N,Net-(D13-A)*%
X173062500Y-73930000D02*
X171887200Y-73930000D01*
D36*
%TO.N,Net-(D1-A2)*%
X185930000Y-76820000D02*
X186550000Y-76820000D01*
X185500000Y-77250000D02*
X185930000Y-76820000D01*
X185380000Y-77870000D02*
X185500000Y-77750000D01*
X185500000Y-77750000D02*
X185500000Y-77250000D01*
X184770000Y-77870000D02*
X185380000Y-77870000D01*
D33*
%TO.N,+5V*%
X181150000Y-76900000D02*
X179700000Y-76900000D01*
X184030000Y-79780000D02*
X181150000Y-76900000D01*
X184030000Y-86250000D02*
X184030000Y-79780000D01*
%TO.N,GND*%
X180000000Y-86500000D02*
X180000000Y-87250000D01*
X180000000Y-87250000D02*
X180330000Y-87580000D01*
X180330000Y-87580000D02*
X182038000Y-87580000D01*
D34*
%TO.N,+3V3*%
X170951200Y-78201200D02*
X170951200Y-73930000D01*
X172000000Y-79250000D02*
X170951200Y-78201200D01*
X175400000Y-79250000D02*
X172000000Y-79250000D01*
D33*
%TO.N,+5V*%
X177460000Y-76892000D02*
X175458000Y-76892000D01*
X175458000Y-76892000D02*
X175400000Y-76950000D01*
D37*
%TO.N,+3V3*%
X176910000Y-79212000D02*
X175438000Y-79212000D01*
X175438000Y-79212000D02*
X175400000Y-79250000D01*
D35*
%TO.N,GND*%
X172880000Y-81550000D02*
X172840000Y-81510000D01*
D37*
X175400000Y-81550000D02*
X172880000Y-81550000D01*
D35*
X179130000Y-87830000D02*
X179130000Y-87080000D01*
D37*
%TO.N,+5V*%
X184030000Y-86250000D02*
X184030000Y-87570000D01*
X182912000Y-87570000D02*
X182902000Y-87580000D01*
X184030000Y-87570000D02*
X182912000Y-87570000D01*
D33*
X175353000Y-76892000D02*
X175335000Y-76910000D01*
X177468000Y-76900000D02*
X177460000Y-76892000D01*
X179700000Y-76900000D02*
X177468000Y-76900000D01*
D36*
%TO.N,GND*%
X208350750Y-90100000D02*
X209470000Y-90100000D01*
D35*
X184770000Y-81460000D02*
X184770000Y-81480000D01*
D36*
X184770000Y-80040000D02*
X184770000Y-81460000D01*
D34*
X184760000Y-75489943D02*
X185039943Y-75210000D01*
X184760000Y-76028000D02*
X184760000Y-75489943D01*
X185039943Y-75210000D02*
X185969943Y-74280000D01*
X185969943Y-74280000D02*
X186550000Y-74280000D01*
D35*
%TO.N,+3V3*%
X183540000Y-74750000D02*
X183480000Y-74690000D01*
D34*
X183540000Y-75972800D02*
X183540000Y-74750000D01*
D38*
%TO.N,/D_2+*%
X181268751Y-91100000D02*
X180275000Y-91100000D01*
X181898751Y-91730000D02*
X181268751Y-91100000D01*
X183890000Y-91730000D02*
X181898751Y-91730000D01*
X184830000Y-90790000D02*
X183890000Y-91730000D01*
X186550000Y-90790000D02*
X184830000Y-90790000D01*
%TO.N,/D_2-*%
X181268751Y-89200000D02*
X180275000Y-89200000D01*
X184880000Y-89530000D02*
X183920000Y-88570000D01*
X183920000Y-88570000D02*
X181898751Y-88570000D01*
X185414999Y-89530000D02*
X184880000Y-89530000D01*
X185424999Y-89520000D02*
X185414999Y-89530000D01*
X186550000Y-89520000D02*
X185424999Y-89520000D01*
X181898751Y-88570000D02*
X181268751Y-89200000D01*
D35*
%TO.N,GND*%
X207920000Y-85790000D02*
X207920000Y-85820000D01*
D37*
X207920000Y-84431000D02*
X207920000Y-85790000D01*
D35*
X201450000Y-95180000D02*
X201500000Y-95180000D01*
X187530000Y-95180000D02*
X187510000Y-95180000D01*
D37*
X189315000Y-95180000D02*
X187530000Y-95180000D01*
X195627500Y-95180000D02*
X196900000Y-95180000D01*
X199987500Y-95180000D02*
X201450000Y-95180000D01*
X204050000Y-74280000D02*
X201990000Y-74280000D01*
X188330000Y-74280000D02*
X189170000Y-73440000D01*
X186550000Y-74280000D02*
X188330000Y-74280000D01*
%TO.N,/ESP_IO_3*%
X206401000Y-88749000D02*
X207920000Y-88749000D01*
X205630000Y-89520000D02*
X206401000Y-88749000D01*
X205630000Y-90130000D02*
X205630000Y-89520000D01*
X205630000Y-90520000D02*
X205630000Y-90130000D01*
X205360000Y-90790000D02*
X205630000Y-90520000D01*
X204050000Y-90790000D02*
X205360000Y-90790000D01*
%TO.N,GND*%
X170185000Y-89870000D02*
X170185000Y-85330000D01*
X170185000Y-93970000D02*
X170185000Y-89870000D01*
X174365000Y-93970000D02*
X170185000Y-93970000D01*
X175005000Y-93330000D02*
X174365000Y-93970000D01*
X175005000Y-92850000D02*
X175005000Y-93330000D01*
X174365000Y-85330000D02*
X170185000Y-85330000D01*
X175005000Y-85970000D02*
X174365000Y-85330000D01*
X175005000Y-86450000D02*
X175005000Y-85970000D01*
D35*
X183492000Y-73066000D02*
X183480000Y-73078000D01*
X184710000Y-73066000D02*
X183492000Y-73066000D01*
D34*
X176632000Y-76028000D02*
X177460000Y-76028000D01*
X176490000Y-75886000D02*
X176632000Y-76028000D01*
X176490000Y-75390000D02*
X176490000Y-75886000D01*
X176910000Y-78348000D02*
X177948000Y-78348000D01*
D36*
%TO.N,/ESP_IO_3*%
X207350750Y-90100000D02*
X205660000Y-90100000D01*
D35*
X205660000Y-90100000D02*
X205630000Y-90130000D01*
%TO.N,GND*%
X172840000Y-81510000D02*
X172830000Y-81520000D01*
D34*
%TO.N,Net-(D22-A)*%
X198107200Y-95174700D02*
X198112500Y-95180000D01*
X198107200Y-93720000D02*
X198107200Y-95174700D01*
%TO.N,/WIFI_On_3*%
X197205000Y-93707800D02*
X197192800Y-93720000D01*
X197205000Y-92040000D02*
X197205000Y-93707800D01*
D35*
%TO.N,Net-(D21-A)*%
X193752800Y-95179700D02*
X193752500Y-95180000D01*
D34*
X193752800Y-93670000D02*
X193752800Y-95179700D01*
%TO.N,/WIFI_con_3*%
X194665000Y-93667800D02*
X194667200Y-93670000D01*
X194665000Y-92040000D02*
X194665000Y-93667800D01*
D35*
%TO.N,Net-(D12-A)*%
X191212800Y-95157200D02*
X191190000Y-95180000D01*
D34*
X191212800Y-93620000D02*
X191212800Y-95157200D01*
%TO.N,/WIFI_OFF_3*%
X192125000Y-93617800D02*
X192127200Y-93620000D01*
X192125000Y-92040000D02*
X192125000Y-93617800D01*
%TO.N,Net-(U1-IO3)*%
X188315000Y-93045000D02*
X188315000Y-92040000D01*
X187550000Y-93810000D02*
X188315000Y-93045000D01*
X183607200Y-93810000D02*
X187550000Y-93810000D01*
%TO.N,+3V3*%
X182692800Y-93810000D02*
X181570000Y-93810000D01*
D33*
X183480000Y-73942000D02*
X183480000Y-74690000D01*
X184710000Y-73930000D02*
X184710000Y-74690000D01*
D34*
%TO.N,Net-(D1-A2)*%
X183850000Y-77870000D02*
X184770000Y-77870000D01*
X183540000Y-77560000D02*
X183850000Y-77870000D01*
X183540000Y-76887200D02*
X183540000Y-77560000D01*
D35*
X184760000Y-77860000D02*
X184770000Y-77870000D01*
D34*
X184760000Y-76892000D02*
X184760000Y-77860000D01*
D36*
X184770000Y-79040000D02*
X184770000Y-77870000D01*
D37*
%TO.N,+3V3*%
X188280000Y-75550000D02*
X189140000Y-74690000D01*
X186550000Y-75550000D02*
X188280000Y-75550000D01*
X181570000Y-79210000D02*
X177990000Y-79210000D01*
D35*
X177990000Y-79210000D02*
X177988000Y-79212000D01*
D37*
%TO.N,+5V*%
X182550000Y-90150000D02*
X184030000Y-90150000D01*
%TO.N,+3V3*%
X176910000Y-79212000D02*
X177988000Y-79212000D01*
D35*
X176908000Y-79210000D02*
X176910000Y-79212000D01*
D33*
%TO.N,+5V*%
X179690000Y-76910000D02*
X179700000Y-76900000D01*
%TO.N,Net-(D3-A)*%
X179700000Y-80770000D02*
X179700000Y-80200000D01*
X179365500Y-81104500D02*
X179700000Y-80770000D01*
X177380000Y-81104500D02*
X179365500Y-81104500D01*
%TO.N,Net-(F3-Pad1)*%
X177380000Y-84495000D02*
X177380000Y-82755500D01*
%TO.N,Net-(F3-Pad2)*%
X177370000Y-86075000D02*
X177380000Y-86065000D01*
X177370000Y-87250000D02*
X177370000Y-86075000D01*
X175005000Y-92050000D02*
X177360000Y-92050000D01*
X175005000Y-87250000D02*
X177370000Y-87250000D01*
D35*
%TO.N,GND*%
X178560000Y-88400000D02*
X179130000Y-87830000D01*
X178010000Y-88400000D02*
X178560000Y-88400000D01*
X179160000Y-91920000D02*
X179160000Y-92530000D01*
X178640000Y-91400000D02*
X179040000Y-91800000D01*
X179040000Y-91800000D02*
X179160000Y-91920000D01*
X178017200Y-91400000D02*
X178640000Y-91400000D01*
%TO.N,/CC2_2*%
X177102800Y-91400000D02*
X175005000Y-91400000D01*
%TO.N,/CC1_2*%
X177095600Y-88400000D02*
X175005000Y-88400000D01*
D38*
%TO.N,/D_2-*%
X178871249Y-89610000D02*
X179281249Y-89200000D01*
X176760000Y-89610000D02*
X178871249Y-89610000D01*
X176470000Y-89900000D02*
X176760000Y-89610000D01*
X175005000Y-89900000D02*
X176470000Y-89900000D01*
X179281249Y-89200000D02*
X180275000Y-89200000D01*
%TO.N,/D_2+*%
X178580000Y-90680000D02*
X179000000Y-91100000D01*
X176735000Y-90680000D02*
X178580000Y-90680000D01*
X176455000Y-90400000D02*
X176735000Y-90680000D01*
X175005000Y-90400000D02*
X176455000Y-90400000D01*
X179000000Y-91100000D02*
X180275000Y-91100000D01*
D37*
%TO.N,GND*%
X180275000Y-90150000D02*
X178212500Y-90150000D01*
%TD*%
M02*
