%TF.GenerationSoftware,KiCad,Pcbnew,9.0.3*%
%TF.CreationDate,2026-08-06T01:27:26+05:30*%
%TF.ProjectId,V2,56322e6b-6963-4616-945f-706362585858,rev?*%
%TF.SameCoordinates,Original*%
%TF.FileFunction,Copper,L2,Bot*%
%TF.FilePolarity,Positive*%
%FSLAX46Y46*%
G04 Gerber Fmt 4.6, Leading zero omitted, Abs format (unit mm)*
G04 Created by KiCad (PCBNEW 9.0.3) date 2026-08-06 01:27:26*
%MOMM*%
%LPD*%
G01*
G04 APERTURE LIST*
%TA.AperFunction,SMDPad,CuDef*%
%ADD10R,1.500000X5.080000*%
%TD*%
%TA.AperFunction,HeatsinkPad*%
%ADD11O,1.000000X2.100000*%
%TD*%
%TA.AperFunction,HeatsinkPad*%
%ADD12O,1.000000X1.600000*%
%TD*%
%TA.AperFunction,ViaPad*%
%ADD13C,0.600000*%
%TD*%
%TA.AperFunction,ViaPad*%
%ADD14C,0.800000*%
%TD*%
%TA.AperFunction,Conductor*%
%ADD15C,0.200000*%
%TD*%
%TA.AperFunction,Conductor*%
%ADD16C,0.400000*%
%TD*%
%TA.AperFunction,Conductor*%
%ADD17C,0.240000*%
%TD*%
G04 APERTURE END LIST*
D10*
%TO.P,J1,2,Ext*%
%TO.N,GND*%
X117242500Y-57460000D03*
X125742500Y-57460000D03*
%TD*%
%TO.P,J3,2,Ext*%
%TO.N,GND*%
X86372500Y-57470000D03*
X94872500Y-57470000D03*
%TD*%
D11*
%TO.P,J2,S1,SHIELD*%
%TO.N,GND*%
X109402500Y-129670000D03*
D12*
X109402500Y-133850000D03*
D11*
X118042500Y-129670000D03*
D12*
X118042500Y-133850000D03*
%TD*%
D13*
%TO.N,GND*%
X90530000Y-101960000D03*
X114640000Y-71880000D03*
X114400000Y-112550000D03*
X116570000Y-73190000D03*
X91790000Y-61240000D03*
X91430000Y-66860000D03*
X113120000Y-112570000D03*
X109942500Y-74660000D03*
X86170000Y-71920000D03*
X76892500Y-65520000D03*
X96272500Y-67860000D03*
X102446250Y-82096250D03*
X115950000Y-73830000D03*
X106090000Y-101980000D03*
X107360000Y-101310000D03*
X82252500Y-57890000D03*
X105450000Y-100680000D03*
X89280000Y-102620000D03*
X113750000Y-112550000D03*
D14*
X105360000Y-129770000D03*
D13*
X91760000Y-65860000D03*
X84930000Y-72570000D03*
X86820000Y-71920000D03*
X72582500Y-71300000D03*
X117840000Y-72520000D03*
X120550000Y-61820000D03*
X117190000Y-74420000D03*
X113082500Y-57980000D03*
X115930000Y-71890000D03*
X113740000Y-111250000D03*
X112492500Y-79120000D03*
X106720000Y-102610000D03*
X106710000Y-101310000D03*
X114660000Y-73820000D03*
X105222500Y-105820000D03*
X91170000Y-101310000D03*
X122440000Y-65320000D03*
X86190000Y-73210000D03*
X89500000Y-61120000D03*
X89280000Y-101970000D03*
X91180000Y-102610000D03*
X100340000Y-131760000D03*
X90510000Y-100670000D03*
X108062500Y-74730000D03*
X91780000Y-64740000D03*
X97812500Y-57810000D03*
X115290000Y-71880000D03*
X104162500Y-71240000D03*
X83650000Y-73860000D03*
X122400000Y-61690000D03*
X86840000Y-73860000D03*
X114390000Y-111250000D03*
X106700000Y-100670000D03*
X117180000Y-71880000D03*
X122400000Y-60930000D03*
X84290000Y-74460000D03*
X86190000Y-73860000D03*
X115310000Y-73170000D03*
X89890000Y-101330000D03*
X115950000Y-73180000D03*
X91180000Y-101960000D03*
X116062500Y-123150000D03*
X115852500Y-104960000D03*
X110442500Y-116190000D03*
X89520000Y-61960000D03*
X114650000Y-72520000D03*
X84940000Y-73220000D03*
X122420000Y-63170000D03*
X86180000Y-74460000D03*
D14*
X105380000Y-127840000D03*
D13*
X84300000Y-73210000D03*
X79142500Y-85630000D03*
X97782500Y-105460000D03*
X126640000Y-74300000D03*
X89880000Y-100690000D03*
X89900000Y-102630000D03*
X120553520Y-77018980D03*
X84940000Y-73870000D03*
X83640000Y-74460000D03*
X105470000Y-101970000D03*
X114400000Y-111900000D03*
X105460000Y-101320000D03*
X108952500Y-78410000D03*
X84280000Y-71920000D03*
X116550000Y-71900000D03*
X119172500Y-116340000D03*
X88802500Y-77630000D03*
X115940000Y-74430000D03*
X112502500Y-123440000D03*
X85550000Y-72580000D03*
X85626250Y-66226250D03*
X114660000Y-73170000D03*
X91780000Y-63880000D03*
X122042500Y-114220000D03*
X115300000Y-72520000D03*
X106090000Y-102630000D03*
X117850000Y-73820000D03*
X109932500Y-72110000D03*
X85560000Y-73880000D03*
X91770000Y-62160000D03*
X117830000Y-71880000D03*
X113750000Y-111900000D03*
X114650000Y-74420000D03*
X84300000Y-73860000D03*
X105470000Y-102620000D03*
X85550000Y-74480000D03*
X84930000Y-74470000D03*
X106720000Y-101960000D03*
X113120000Y-111920000D03*
X107370000Y-102610000D03*
X117840000Y-74420000D03*
X117200000Y-73820000D03*
X84290000Y-72560000D03*
X117952500Y-104890000D03*
X115850000Y-120750000D03*
X115300000Y-74420000D03*
X116570000Y-73840000D03*
X84920000Y-71930000D03*
X107350000Y-100670000D03*
X83640000Y-72560000D03*
X89260000Y-110610000D03*
X117200000Y-73170000D03*
X91790000Y-62990000D03*
X90530000Y-102610000D03*
X90520000Y-101310000D03*
X97522500Y-71460000D03*
X124372500Y-77410000D03*
X83630000Y-71920000D03*
X107672500Y-65610000D03*
X117850000Y-73170000D03*
X113110000Y-111270000D03*
X116560000Y-74440000D03*
X128082500Y-57960000D03*
X85540000Y-71940000D03*
X86830000Y-74460000D03*
X86180000Y-72560000D03*
X96662500Y-75090000D03*
X89260000Y-100680000D03*
X89270000Y-101320000D03*
X74533591Y-68708909D03*
X122280000Y-66140000D03*
X112502500Y-105090000D03*
X119830000Y-61350000D03*
X115940000Y-72530000D03*
X73870000Y-80670000D03*
X122460000Y-64570000D03*
X89900000Y-101980000D03*
X122410000Y-62430000D03*
X115310000Y-73820000D03*
X118820000Y-65030000D03*
X106070000Y-100690000D03*
X83650000Y-73210000D03*
X85560000Y-73230000D03*
X126102500Y-66340000D03*
X107370000Y-101960000D03*
X86830000Y-72560000D03*
X106080000Y-101330000D03*
X86840000Y-73210000D03*
X91160000Y-100670000D03*
X105092500Y-67610000D03*
X101035000Y-127062500D03*
X117190000Y-72520000D03*
X121700000Y-66800000D03*
X93432500Y-78480000D03*
X116560000Y-72540000D03*
X126530000Y-70420000D03*
X110042500Y-85980000D03*
X79602500Y-71910000D03*
X75032500Y-79730000D03*
X120550000Y-60840000D03*
X122460000Y-63870000D03*
%TO.N,+3V3*%
X88332500Y-84860000D03*
X100382500Y-75920000D03*
X95042500Y-86940000D03*
X69982500Y-75860000D03*
X82770000Y-89260000D03*
X92070000Y-89250000D03*
X119770000Y-89200000D03*
X97336250Y-76786250D03*
X127150000Y-83000000D03*
X80020000Y-89260000D03*
X77122500Y-93172500D03*
X124432500Y-89270000D03*
X72342500Y-75860000D03*
X127222500Y-78310000D03*
X88360000Y-87420000D03*
X100200000Y-89260000D03*
X77130000Y-90220000D03*
X95042500Y-84920000D03*
X89490000Y-89250000D03*
X97450000Y-89260000D03*
%TO.N,+5V*%
X101700000Y-129410000D03*
X120372500Y-107030000D03*
X120400000Y-118420000D03*
X120382500Y-124960000D03*
X120382500Y-127280000D03*
X86250000Y-105970000D03*
X97090000Y-104180000D03*
X110720000Y-131810000D03*
%TO.N,/RESET_1*%
X82256801Y-91900000D03*
X87649449Y-93419449D03*
%TO.N,/D+*%
X114480000Y-130170000D03*
X113470000Y-129870000D03*
%TO.N,/RESET_2*%
X98680000Y-92100000D03*
X103170000Y-92660000D03*
%TO.N,/SD_DATA2_1*%
X80222500Y-80060000D03*
X80222500Y-85650000D03*
%TO.N,/SD_DATA2_2*%
X111082500Y-85960000D03*
X111082500Y-79950000D03*
%TO.N,Net-(U4-VDET_1{slash}GPIO34{slash}ADC1_CH6)*%
X120522500Y-79510000D03*
X122852500Y-79510000D03*
%TO.N,Net-(U4-VDET_2{slash}GPIO35{slash}ADC1_CH7)*%
X91942500Y-86070000D03*
X100102500Y-86070000D03*
X79662500Y-90800000D03*
X79662500Y-92520000D03*
X89552500Y-86070000D03*
X97132500Y-86070000D03*
%TO.N,/DTR_1*%
X84700000Y-100630000D03*
X86690000Y-100630000D03*
%TO.N,/RST_2*%
X99920000Y-100140000D03*
X102800000Y-100140000D03*
%TO.N,Net-(Q1-B)*%
X82790000Y-94680000D03*
X88350000Y-93740000D03*
%TO.N,Net-(Q4-B)*%
X100970000Y-92820000D03*
X102770000Y-93730000D03*
%TD*%
D15*
%TO.N,GND*%
X97812500Y-57670000D02*
X97812500Y-57810000D01*
X117242500Y-57460000D02*
X113602500Y-57460000D01*
X82672500Y-57470000D02*
X82252500Y-57890000D01*
X86372500Y-57470000D02*
X82672500Y-57470000D01*
X94872500Y-57470000D02*
X97612500Y-57470000D01*
X127582500Y-57460000D02*
X128082500Y-57960000D01*
X125742500Y-57460000D02*
X127582500Y-57460000D01*
X97612500Y-57470000D02*
X97652500Y-57510000D01*
X97652500Y-57510000D02*
X97812500Y-57670000D01*
X113602500Y-57460000D02*
X113082500Y-57980000D01*
D16*
%TO.N,+3V3*%
X95042500Y-86940000D02*
X95042500Y-84920000D01*
X88332500Y-84860000D02*
X88332500Y-87392500D01*
X127150000Y-83000000D02*
X127150000Y-78382500D01*
X100200000Y-89260000D02*
X97450000Y-89260000D01*
X80020000Y-89260000D02*
X82770000Y-89260000D01*
X119770000Y-89200000D02*
X124362500Y-89200000D01*
D15*
X88332500Y-87392500D02*
X88360000Y-87420000D01*
X72342500Y-75860000D02*
X69982500Y-75860000D01*
D16*
X124362500Y-89200000D02*
X124432500Y-89270000D01*
D15*
X100200000Y-89260000D02*
X100210000Y-89270000D01*
D16*
X98202500Y-75920000D02*
X100382500Y-75920000D01*
X77122500Y-90227500D02*
X77130000Y-90220000D01*
X77122500Y-93172500D02*
X77122500Y-90227500D01*
X89490000Y-89250000D02*
X92070000Y-89250000D01*
X97336250Y-76786250D02*
X98202500Y-75920000D01*
X127150000Y-78382500D02*
X127222500Y-78310000D01*
%TO.N,+5V*%
X120382500Y-124960000D02*
X120372500Y-124950000D01*
X102492500Y-131640000D02*
X110550000Y-131640000D01*
X96410000Y-103500000D02*
X97090000Y-104180000D01*
X110550000Y-131640000D02*
X110720000Y-131810000D01*
X101700000Y-130847500D02*
X102492500Y-131640000D01*
X120400000Y-107057500D02*
X120372500Y-107030000D01*
X120382500Y-124960000D02*
X120382500Y-127280000D01*
X120400000Y-118420000D02*
X120400000Y-107057500D01*
X101700000Y-129410000D02*
X101700000Y-130847500D01*
X86250000Y-105970000D02*
X88720000Y-103500000D01*
X88720000Y-103500000D02*
X96410000Y-103500000D01*
D15*
%TO.N,/RESET_1*%
X85710000Y-91900000D02*
X87229449Y-93419449D01*
X82256801Y-91900000D02*
X85710000Y-91900000D01*
X87229449Y-93419449D02*
X87649449Y-93419449D01*
D17*
%TO.N,/D+*%
X114180000Y-129870000D02*
X114480000Y-130170000D01*
X113470000Y-129870000D02*
X114180000Y-129870000D01*
D15*
%TO.N,/RESET_2*%
X101560000Y-92100000D02*
X98680000Y-92100000D01*
X102120000Y-92660000D02*
X101560000Y-92100000D01*
X103170000Y-92660000D02*
X102120000Y-92660000D01*
%TO.N,/SD_DATA2_1*%
X80222500Y-80060000D02*
X80222500Y-85650000D01*
%TO.N,/SD_DATA2_2*%
X111082500Y-79950000D02*
X111082500Y-85960000D01*
%TO.N,Net-(U4-VDET_1{slash}GPIO34{slash}ADC1_CH6)*%
X122852500Y-79510000D02*
X120522500Y-79510000D01*
%TO.N,Net-(U4-VDET_2{slash}GPIO35{slash}ADC1_CH7)*%
X91942500Y-86070000D02*
X89552500Y-86070000D01*
X79662500Y-90800000D02*
X79662500Y-92520000D01*
X100102500Y-86070000D02*
X97132500Y-86070000D01*
%TO.N,/DTR_1*%
X86690000Y-100630000D02*
X84700000Y-100630000D01*
%TO.N,/RST_2*%
X102800000Y-100140000D02*
X99920000Y-100140000D01*
%TO.N,Net-(Q1-B)*%
X87410000Y-94680000D02*
X82790000Y-94680000D01*
X88350000Y-93740000D02*
X87410000Y-94680000D01*
%TO.N,Net-(Q4-B)*%
X101540000Y-92820000D02*
X100970000Y-92820000D01*
X102450000Y-93730000D02*
X101540000Y-92820000D01*
X102770000Y-93730000D02*
X102450000Y-93730000D01*
%TD*%
%TA.AperFunction,Conductor*%
%TO.N,GND*%
G36*
X85065539Y-55130185D02*
G01*
X85111294Y-55182989D01*
X85122500Y-55234500D01*
X85122500Y-57220000D01*
X87622500Y-57220000D01*
X87622500Y-55234500D01*
X87642185Y-55167461D01*
X87694989Y-55121706D01*
X87746500Y-55110500D01*
X93498500Y-55110500D01*
X93565539Y-55130185D01*
X93611294Y-55182989D01*
X93622500Y-55234500D01*
X93622500Y-57220000D01*
X96122500Y-57220000D01*
X96122500Y-55234500D01*
X96142185Y-55167461D01*
X96194989Y-55121706D01*
X96246500Y-55110500D01*
X115868500Y-55110500D01*
X115935539Y-55130185D01*
X115981294Y-55182989D01*
X115992500Y-55234500D01*
X115992500Y-57210000D01*
X118492500Y-57210000D01*
X118492500Y-55234500D01*
X118512185Y-55167461D01*
X118564989Y-55121706D01*
X118616500Y-55110500D01*
X124368500Y-55110500D01*
X124435539Y-55130185D01*
X124481294Y-55182989D01*
X124492500Y-55234500D01*
X124492500Y-57210000D01*
X126992500Y-57210000D01*
X126992500Y-55234500D01*
X127012185Y-55167461D01*
X127064989Y-55121706D01*
X127116500Y-55110500D01*
X128388000Y-55110500D01*
X128455039Y-55130185D01*
X128500794Y-55182989D01*
X128512000Y-55234500D01*
X128512000Y-134585500D01*
X128492315Y-134652539D01*
X128439511Y-134698294D01*
X128388000Y-134709500D01*
X119078719Y-134709500D01*
X119011680Y-134689815D01*
X118965925Y-134637011D01*
X118955981Y-134567853D01*
X118964158Y-134538047D01*
X119004070Y-134441689D01*
X119004072Y-134441681D01*
X119042499Y-134248495D01*
X119042500Y-134248492D01*
X119042500Y-134100000D01*
X118342500Y-134100000D01*
X118342500Y-133600000D01*
X119042500Y-133600000D01*
X119042500Y-133451508D01*
X119042499Y-133451504D01*
X119004072Y-133258318D01*
X119004069Y-133258306D01*
X118928692Y-133076328D01*
X118928685Y-133076315D01*
X118819251Y-132912537D01*
X118819248Y-132912533D01*
X118679966Y-132773251D01*
X118679962Y-132773248D01*
X118516184Y-132663814D01*
X118516171Y-132663807D01*
X118334191Y-132588429D01*
X118334183Y-132588427D01*
X118292500Y-132580135D01*
X118292500Y-133383011D01*
X118282560Y-133365795D01*
X118226705Y-133309940D01*
X118158296Y-133270444D01*
X118081996Y-133250000D01*
X118003004Y-133250000D01*
X117926704Y-133270444D01*
X117858295Y-133309940D01*
X117802440Y-133365795D01*
X117792500Y-133383011D01*
X117792500Y-132580136D01*
X117792499Y-132580135D01*
X117750816Y-132588427D01*
X117750808Y-132588429D01*
X117568828Y-132663807D01*
X117568815Y-132663814D01*
X117405037Y-132773248D01*
X117405033Y-132773251D01*
X117265751Y-132912533D01*
X117265748Y-132912537D01*
X117156314Y-133076315D01*
X117156307Y-133076328D01*
X117080930Y-133258306D01*
X117080927Y-133258318D01*
X117042500Y-133451504D01*
X117042500Y-133600000D01*
X117742500Y-133600000D01*
X117742500Y-134100000D01*
X117042500Y-134100000D01*
X117042500Y-134248495D01*
X117080927Y-134441681D01*
X117080929Y-134441689D01*
X117120842Y-134538047D01*
X117128311Y-134607517D01*
X117097036Y-134669996D01*
X117036947Y-134705648D01*
X117006281Y-134709500D01*
X110438719Y-134709500D01*
X110371680Y-134689815D01*
X110325925Y-134637011D01*
X110315981Y-134567853D01*
X110324158Y-134538047D01*
X110364070Y-134441689D01*
X110364072Y-134441681D01*
X110402499Y-134248495D01*
X110402500Y-134248492D01*
X110402500Y-134100000D01*
X109702500Y-134100000D01*
X109702500Y-133600000D01*
X110402500Y-133600000D01*
X110402500Y-133451508D01*
X110402499Y-133451504D01*
X110364072Y-133258318D01*
X110364069Y-133258306D01*
X110288692Y-133076328D01*
X110288685Y-133076315D01*
X110179251Y-132912537D01*
X110179248Y-132912533D01*
X110039966Y-132773251D01*
X110039962Y-132773248D01*
X109876184Y-132663814D01*
X109876171Y-132663807D01*
X109694193Y-132588430D01*
X109694181Y-132588427D01*
X109682568Y-132586117D01*
X109620657Y-132553733D01*
X109586083Y-132493017D01*
X109589822Y-132423247D01*
X109630688Y-132366575D01*
X109695706Y-132340994D01*
X109706759Y-132340500D01*
X110067060Y-132340500D01*
X110134099Y-132360185D01*
X110154736Y-132376814D01*
X110190911Y-132412989D01*
X110209712Y-132431790D01*
X110340814Y-132519390D01*
X110340827Y-132519397D01*
X110423723Y-132553733D01*
X110486503Y-132579737D01*
X110641153Y-132610499D01*
X110641156Y-132610500D01*
X110641158Y-132610500D01*
X110798844Y-132610500D01*
X110798845Y-132610499D01*
X110953497Y-132579737D01*
X111099179Y-132519394D01*
X111230289Y-132431789D01*
X111341789Y-132320289D01*
X111429394Y-132189179D01*
X111489737Y-132043497D01*
X111520500Y-131888842D01*
X111520500Y-131731158D01*
X111520500Y-131731155D01*
X111520499Y-131731153D01*
X111489738Y-131576510D01*
X111489737Y-131576503D01*
X111489735Y-131576498D01*
X111429397Y-131430827D01*
X111429390Y-131430814D01*
X111341789Y-131299711D01*
X111341786Y-131299707D01*
X111230292Y-131188213D01*
X111230288Y-131188210D01*
X111099185Y-131100609D01*
X111099172Y-131100602D01*
X110953501Y-131040264D01*
X110953492Y-131040261D01*
X110920048Y-131033609D01*
X110885789Y-131021351D01*
X110881807Y-131019223D01*
X110754332Y-130966421D01*
X110754322Y-130966418D01*
X110618996Y-130939500D01*
X110618994Y-130939500D01*
X110618993Y-130939500D01*
X110356424Y-130939500D01*
X110289385Y-130919815D01*
X110243630Y-130867011D01*
X110233686Y-130797853D01*
X110253322Y-130746609D01*
X110288685Y-130693684D01*
X110288692Y-130693671D01*
X110354083Y-130535802D01*
X110397923Y-130481398D01*
X110464218Y-130459333D01*
X110531917Y-130476612D01*
X110556325Y-130495573D01*
X110571237Y-130510485D01*
X110668263Y-130566503D01*
X110776482Y-130595500D01*
X110776484Y-130595500D01*
X110888516Y-130595500D01*
X110888518Y-130595500D01*
X110996737Y-130566503D01*
X111093763Y-130510485D01*
X111172985Y-130431263D01*
X111229003Y-130334237D01*
X111258000Y-130226018D01*
X111258000Y-130113982D01*
X111229003Y-130005763D01*
X111172985Y-129908737D01*
X111093763Y-129829515D01*
X111027318Y-129791153D01*
X112669500Y-129791153D01*
X112669500Y-129948846D01*
X112700261Y-130103489D01*
X112700264Y-130103501D01*
X112760602Y-130249172D01*
X112760609Y-130249185D01*
X112848210Y-130380288D01*
X112848213Y-130380292D01*
X112959707Y-130491786D01*
X112959711Y-130491789D01*
X113090814Y-130579390D01*
X113090827Y-130579397D01*
X113212532Y-130629808D01*
X113236503Y-130639737D01*
X113343806Y-130661081D01*
X113391153Y-130670499D01*
X113391156Y-130670500D01*
X113391158Y-130670500D01*
X113548844Y-130670500D01*
X113548845Y-130670499D01*
X113703497Y-130639737D01*
X113709429Y-130637279D01*
X113778898Y-130629808D01*
X113841378Y-130661081D01*
X113853977Y-130675884D01*
X113854347Y-130675581D01*
X113858213Y-130680292D01*
X113969707Y-130791786D01*
X113969711Y-130791789D01*
X114100814Y-130879390D01*
X114100827Y-130879397D01*
X114245931Y-130939500D01*
X114246503Y-130939737D01*
X114380637Y-130966418D01*
X114401153Y-130970499D01*
X114401156Y-130970500D01*
X114401158Y-130970500D01*
X114558844Y-130970500D01*
X114558845Y-130970499D01*
X114713497Y-130939737D01*
X114859179Y-130879394D01*
X114990289Y-130791789D01*
X115101789Y-130680289D01*
X115189394Y-130549179D01*
X115249737Y-130403497D01*
X115280500Y-130248842D01*
X115280500Y-130113982D01*
X116187000Y-130113982D01*
X116187000Y-130226018D01*
X116215997Y-130334237D01*
X116272015Y-130431263D01*
X116351237Y-130510485D01*
X116448263Y-130566503D01*
X116556482Y-130595500D01*
X116556484Y-130595500D01*
X116668516Y-130595500D01*
X116668518Y-130595500D01*
X116776737Y-130566503D01*
X116873763Y-130510485D01*
X116888674Y-130495573D01*
X116949994Y-130462088D01*
X117019686Y-130467071D01*
X117075620Y-130508941D01*
X117090916Y-130535801D01*
X117156309Y-130693675D01*
X117156314Y-130693684D01*
X117265748Y-130857462D01*
X117265751Y-130857466D01*
X117405033Y-130996748D01*
X117405037Y-130996751D01*
X117568815Y-131106185D01*
X117568828Y-131106192D01*
X117750808Y-131181569D01*
X117792500Y-131189862D01*
X117792500Y-130386988D01*
X117802440Y-130404205D01*
X117858295Y-130460060D01*
X117926704Y-130499556D01*
X118003004Y-130520000D01*
X118081996Y-130520000D01*
X118158296Y-130499556D01*
X118226705Y-130460060D01*
X118282560Y-130404205D01*
X118292500Y-130386988D01*
X118292500Y-131189862D01*
X118334190Y-131181569D01*
X118334192Y-131181569D01*
X118516171Y-131106192D01*
X118516184Y-131106185D01*
X118679962Y-130996751D01*
X118679966Y-130996748D01*
X118819248Y-130857466D01*
X118819251Y-130857462D01*
X118928685Y-130693684D01*
X118928692Y-130693671D01*
X119004069Y-130511693D01*
X119004072Y-130511681D01*
X119042499Y-130318495D01*
X119042500Y-130318492D01*
X119042500Y-129920000D01*
X118342500Y-129920000D01*
X118342500Y-129420000D01*
X119042500Y-129420000D01*
X119042500Y-129021508D01*
X119042499Y-129021504D01*
X119004072Y-128828318D01*
X119004069Y-128828306D01*
X118928692Y-128646328D01*
X118928685Y-128646315D01*
X118819251Y-128482537D01*
X118819248Y-128482533D01*
X118679966Y-128343251D01*
X118679962Y-128343248D01*
X118516184Y-128233814D01*
X118516171Y-128233807D01*
X118334191Y-128158429D01*
X118334183Y-128158427D01*
X118292500Y-128150135D01*
X118292500Y-128953011D01*
X118282560Y-128935795D01*
X118226705Y-128879940D01*
X118158296Y-128840444D01*
X118081996Y-128820000D01*
X118003004Y-128820000D01*
X117926704Y-128840444D01*
X117858295Y-128879940D01*
X117802440Y-128935795D01*
X117792500Y-128953011D01*
X117792500Y-128150136D01*
X117792499Y-128150135D01*
X117750816Y-128158427D01*
X117750808Y-128158429D01*
X117568828Y-128233807D01*
X117568815Y-128233814D01*
X117405037Y-128343248D01*
X117405033Y-128343251D01*
X117265751Y-128482533D01*
X117265748Y-128482537D01*
X117156314Y-128646315D01*
X117156307Y-128646328D01*
X117080930Y-128828306D01*
X117080927Y-128828318D01*
X117042500Y-129021504D01*
X117042500Y-129420000D01*
X117742500Y-129420000D01*
X117742500Y-129920000D01*
X117015610Y-129920000D01*
X116948571Y-129900315D01*
X116927929Y-129883681D01*
X116873765Y-129829517D01*
X116873763Y-129829515D01*
X116776737Y-129773497D01*
X116668518Y-129744500D01*
X116556482Y-129744500D01*
X116448263Y-129773497D01*
X116448260Y-129773498D01*
X116351240Y-129829513D01*
X116351234Y-129829517D01*
X116272017Y-129908734D01*
X116272013Y-129908740D01*
X116215998Y-130005760D01*
X116215997Y-130005763D01*
X116187000Y-130113982D01*
X115280500Y-130113982D01*
X115280500Y-130091158D01*
X115280500Y-130091155D01*
X115280499Y-130091153D01*
X115249738Y-129936510D01*
X115249737Y-129936503D01*
X115242901Y-129920000D01*
X115189397Y-129790827D01*
X115189390Y-129790814D01*
X115101789Y-129659711D01*
X115101786Y-129659707D01*
X114990292Y-129548213D01*
X114990288Y-129548210D01*
X114859185Y-129460609D01*
X114859172Y-129460602D01*
X114713501Y-129400264D01*
X114713491Y-129400261D01*
X114567337Y-129371189D01*
X114566770Y-129370986D01*
X114566463Y-129371012D01*
X114564274Y-129370096D01*
X114533264Y-129359031D01*
X114527792Y-129356118D01*
X114473917Y-129320120D01*
X114417455Y-129296733D01*
X114360993Y-129273345D01*
X114360990Y-129273344D01*
X114360986Y-129273343D01*
X114241119Y-129249500D01*
X114241115Y-129249500D01*
X114241114Y-129249500D01*
X114019834Y-129249500D01*
X114004957Y-129245627D01*
X113992331Y-129246411D01*
X113968394Y-129236111D01*
X113959380Y-129233765D01*
X113955053Y-129231349D01*
X113849179Y-129160606D01*
X113768550Y-129127208D01*
X113768549Y-129127208D01*
X113703501Y-129100264D01*
X113703489Y-129100261D01*
X113548845Y-129069500D01*
X113548842Y-129069500D01*
X113391158Y-129069500D01*
X113391155Y-129069500D01*
X113236510Y-129100261D01*
X113236498Y-129100264D01*
X113090827Y-129160602D01*
X113090814Y-129160609D01*
X112959711Y-129248210D01*
X112959707Y-129248213D01*
X112848213Y-129359707D01*
X112848210Y-129359711D01*
X112760609Y-129490814D01*
X112760602Y-129490827D01*
X112700264Y-129636498D01*
X112700261Y-129636510D01*
X112669500Y-129791153D01*
X111027318Y-129791153D01*
X110996737Y-129773497D01*
X110888518Y-129744500D01*
X110776482Y-129744500D01*
X110668263Y-129773497D01*
X110668260Y-129773498D01*
X110571240Y-129829513D01*
X110571234Y-129829517D01*
X110517071Y-129883681D01*
X110455748Y-129917166D01*
X110429390Y-129920000D01*
X109702500Y-129920000D01*
X109702500Y-129420000D01*
X110402500Y-129420000D01*
X110402500Y-129021508D01*
X110402499Y-129021504D01*
X110364072Y-128828318D01*
X110364069Y-128828306D01*
X110288692Y-128646328D01*
X110288685Y-128646315D01*
X110179251Y-128482537D01*
X110179248Y-128482533D01*
X110039966Y-128343251D01*
X110039962Y-128343248D01*
X109876184Y-128233814D01*
X109876171Y-128233807D01*
X109694191Y-128158429D01*
X109694183Y-128158427D01*
X109652500Y-128150135D01*
X109652500Y-128953011D01*
X109642560Y-128935795D01*
X109586705Y-128879940D01*
X109518296Y-128840444D01*
X109441996Y-128820000D01*
X109363004Y-128820000D01*
X109286704Y-128840444D01*
X109218295Y-128879940D01*
X109162440Y-128935795D01*
X109152500Y-128953011D01*
X109152500Y-128150136D01*
X109152499Y-128150135D01*
X109110816Y-128158427D01*
X109110808Y-128158429D01*
X108928828Y-128233807D01*
X108928815Y-128233814D01*
X108765037Y-128343248D01*
X108765033Y-128343251D01*
X108625751Y-128482533D01*
X108625748Y-128482537D01*
X108516314Y-128646315D01*
X108516307Y-128646328D01*
X108440930Y-128828306D01*
X108440927Y-128828318D01*
X108402500Y-129021504D01*
X108402500Y-129420000D01*
X109102500Y-129420000D01*
X109102500Y-129920000D01*
X108402500Y-129920000D01*
X108402500Y-130318495D01*
X108440927Y-130511681D01*
X108440930Y-130511693D01*
X108516307Y-130693671D01*
X108516314Y-130693684D01*
X108551678Y-130746609D01*
X108572556Y-130813286D01*
X108554072Y-130880666D01*
X108502093Y-130927357D01*
X108448576Y-130939500D01*
X102834019Y-130939500D01*
X102766980Y-130919815D01*
X102746338Y-130903181D01*
X102436819Y-130593662D01*
X102403334Y-130532339D01*
X102400500Y-130505981D01*
X102400500Y-129835316D01*
X102409939Y-129787864D01*
X102463021Y-129659711D01*
X102469737Y-129643497D01*
X102500500Y-129488842D01*
X102500500Y-129331158D01*
X102500500Y-129331155D01*
X102500499Y-129331153D01*
X102484001Y-129248213D01*
X102469737Y-129176503D01*
X102463151Y-129160602D01*
X102422669Y-129062869D01*
X102409397Y-129030827D01*
X102409390Y-129030814D01*
X102321789Y-128899711D01*
X102321786Y-128899707D01*
X102210292Y-128788213D01*
X102210288Y-128788210D01*
X102079185Y-128700609D01*
X102079172Y-128700602D01*
X101933501Y-128640264D01*
X101933489Y-128640261D01*
X101778845Y-128609500D01*
X101778842Y-128609500D01*
X101621158Y-128609500D01*
X101621155Y-128609500D01*
X101466510Y-128640261D01*
X101466498Y-128640264D01*
X101320827Y-128700602D01*
X101320814Y-128700609D01*
X101189711Y-128788210D01*
X101189707Y-128788213D01*
X101078213Y-128899707D01*
X101078210Y-128899711D01*
X100990609Y-129030814D01*
X100990602Y-129030827D01*
X100930264Y-129176498D01*
X100930261Y-129176510D01*
X100899500Y-129331153D01*
X100899500Y-129488846D01*
X100930261Y-129643489D01*
X100930264Y-129643501D01*
X100990061Y-129787864D01*
X100999500Y-129835316D01*
X100999500Y-130778506D01*
X100999500Y-130916494D01*
X100999500Y-130916496D01*
X100999499Y-130916496D01*
X101026418Y-131051822D01*
X101026421Y-131051832D01*
X101079222Y-131179307D01*
X101155887Y-131294045D01*
X102045954Y-132184112D01*
X102160692Y-132260777D01*
X102248419Y-132297114D01*
X102288171Y-132313580D01*
X102288175Y-132313580D01*
X102288176Y-132313581D01*
X102296672Y-132315271D01*
X102296678Y-132315272D01*
X102296698Y-132315276D01*
X102372783Y-132330410D01*
X102423505Y-132340500D01*
X102423507Y-132340500D01*
X109098241Y-132340500D01*
X109165280Y-132360185D01*
X109211035Y-132412989D01*
X109220979Y-132482147D01*
X109191954Y-132545703D01*
X109133176Y-132583477D01*
X109122432Y-132586117D01*
X109110818Y-132588427D01*
X109110806Y-132588430D01*
X108928828Y-132663807D01*
X108928815Y-132663814D01*
X108765037Y-132773248D01*
X108765033Y-132773251D01*
X108625751Y-132912533D01*
X108625748Y-132912537D01*
X108516314Y-133076315D01*
X108516307Y-133076328D01*
X108440930Y-133258306D01*
X108440927Y-133258318D01*
X108402500Y-133451504D01*
X108402500Y-133600000D01*
X109102500Y-133600000D01*
X109102500Y-134100000D01*
X108402500Y-134100000D01*
X108402500Y-134248495D01*
X108440927Y-134441681D01*
X108440929Y-134441689D01*
X108480842Y-134538047D01*
X108488311Y-134607517D01*
X108457036Y-134669996D01*
X108396947Y-134705648D01*
X108366281Y-134709500D01*
X69037000Y-134709500D01*
X68969961Y-134689815D01*
X68924206Y-134637011D01*
X68913000Y-134585500D01*
X68913000Y-124881153D01*
X119582000Y-124881153D01*
X119582000Y-125038846D01*
X119612761Y-125193489D01*
X119612764Y-125193501D01*
X119672561Y-125337864D01*
X119682000Y-125385316D01*
X119682000Y-126854684D01*
X119672561Y-126902136D01*
X119612764Y-127046498D01*
X119612761Y-127046510D01*
X119582000Y-127201153D01*
X119582000Y-127358846D01*
X119612761Y-127513489D01*
X119612764Y-127513501D01*
X119673102Y-127659172D01*
X119673109Y-127659185D01*
X119760710Y-127790288D01*
X119760713Y-127790292D01*
X119872207Y-127901786D01*
X119872211Y-127901789D01*
X120003314Y-127989390D01*
X120003327Y-127989397D01*
X120148998Y-128049735D01*
X120149003Y-128049737D01*
X120303653Y-128080499D01*
X120303656Y-128080500D01*
X120303658Y-128080500D01*
X120461344Y-128080500D01*
X120461345Y-128080499D01*
X120615997Y-128049737D01*
X120761679Y-127989394D01*
X120892789Y-127901789D01*
X121004289Y-127790289D01*
X121091894Y-127659179D01*
X121152237Y-127513497D01*
X121183000Y-127358842D01*
X121183000Y-127201158D01*
X121183000Y-127201155D01*
X121182999Y-127201153D01*
X121152238Y-127046510D01*
X121152237Y-127046503D01*
X121092439Y-126902136D01*
X121083000Y-126854684D01*
X121083000Y-125385316D01*
X121092439Y-125337864D01*
X121152235Y-125193501D01*
X121152237Y-125193497D01*
X121183000Y-125038842D01*
X121183000Y-124881158D01*
X121183000Y-124881155D01*
X121182999Y-124881153D01*
X121152238Y-124726510D01*
X121152237Y-124726503D01*
X121152235Y-124726498D01*
X121091897Y-124580827D01*
X121091890Y-124580814D01*
X121004289Y-124449711D01*
X121004286Y-124449707D01*
X120892792Y-124338213D01*
X120892788Y-124338210D01*
X120761685Y-124250609D01*
X120761672Y-124250602D01*
X120616001Y-124190264D01*
X120615989Y-124190261D01*
X120461345Y-124159500D01*
X120461342Y-124159500D01*
X120303658Y-124159500D01*
X120303655Y-124159500D01*
X120149010Y-124190261D01*
X120148998Y-124190264D01*
X120003327Y-124250602D01*
X120003314Y-124250609D01*
X119872211Y-124338210D01*
X119872207Y-124338213D01*
X119760713Y-124449707D01*
X119760710Y-124449711D01*
X119673109Y-124580814D01*
X119673102Y-124580827D01*
X119612764Y-124726498D01*
X119612761Y-124726510D01*
X119582000Y-124881153D01*
X68913000Y-124881153D01*
X68913000Y-106951153D01*
X119572000Y-106951153D01*
X119572000Y-107108846D01*
X119602761Y-107263489D01*
X119602764Y-107263501D01*
X119663103Y-107409174D01*
X119663105Y-107409177D01*
X119678601Y-107432368D01*
X119699480Y-107499045D01*
X119699500Y-107501260D01*
X119699500Y-117994684D01*
X119690061Y-118042136D01*
X119630264Y-118186498D01*
X119630261Y-118186510D01*
X119599500Y-118341153D01*
X119599500Y-118498846D01*
X119630261Y-118653489D01*
X119630264Y-118653501D01*
X119690602Y-118799172D01*
X119690609Y-118799185D01*
X119778210Y-118930288D01*
X119778213Y-118930292D01*
X119889707Y-119041786D01*
X119889711Y-119041789D01*
X120020814Y-119129390D01*
X120020827Y-119129397D01*
X120166498Y-119189735D01*
X120166503Y-119189737D01*
X120321153Y-119220499D01*
X120321156Y-119220500D01*
X120321158Y-119220500D01*
X120478844Y-119220500D01*
X120478845Y-119220499D01*
X120633497Y-119189737D01*
X120779179Y-119129394D01*
X120910289Y-119041789D01*
X121021789Y-118930289D01*
X121109394Y-118799179D01*
X121169737Y-118653497D01*
X121200500Y-118498842D01*
X121200500Y-118341158D01*
X121200500Y-118341155D01*
X121200499Y-118341153D01*
X121169738Y-118186510D01*
X121169737Y-118186503D01*
X121109939Y-118042136D01*
X121100500Y-117994684D01*
X121100500Y-107388924D01*
X121109939Y-107341471D01*
X121142237Y-107263497D01*
X121173000Y-107108842D01*
X121173000Y-106951158D01*
X121173000Y-106951155D01*
X121172999Y-106951153D01*
X121142238Y-106796510D01*
X121142237Y-106796503D01*
X121131466Y-106770499D01*
X121081897Y-106650827D01*
X121081890Y-106650814D01*
X120994289Y-106519711D01*
X120994286Y-106519707D01*
X120882792Y-106408213D01*
X120882788Y-106408210D01*
X120751685Y-106320609D01*
X120751672Y-106320602D01*
X120606001Y-106260264D01*
X120605989Y-106260261D01*
X120451345Y-106229500D01*
X120451342Y-106229500D01*
X120293658Y-106229500D01*
X120293655Y-106229500D01*
X120139010Y-106260261D01*
X120138998Y-106260264D01*
X119993327Y-106320602D01*
X119993314Y-106320609D01*
X119862211Y-106408210D01*
X119862207Y-106408213D01*
X119750713Y-106519707D01*
X119750710Y-106519711D01*
X119663109Y-106650814D01*
X119663102Y-106650827D01*
X119602764Y-106796498D01*
X119602761Y-106796510D01*
X119572000Y-106951153D01*
X68913000Y-106951153D01*
X68913000Y-105891153D01*
X85449500Y-105891153D01*
X85449500Y-106048846D01*
X85480261Y-106203489D01*
X85480264Y-106203501D01*
X85540602Y-106349172D01*
X85540609Y-106349185D01*
X85628210Y-106480288D01*
X85628213Y-106480292D01*
X85739707Y-106591786D01*
X85739711Y-106591789D01*
X85870814Y-106679390D01*
X85870827Y-106679397D01*
X86016498Y-106739735D01*
X86016503Y-106739737D01*
X86171153Y-106770499D01*
X86171156Y-106770500D01*
X86171158Y-106770500D01*
X86328844Y-106770500D01*
X86328845Y-106770499D01*
X86483497Y-106739737D01*
X86629179Y-106679394D01*
X86760289Y-106591789D01*
X86871789Y-106480289D01*
X86959394Y-106349179D01*
X87019193Y-106204809D01*
X87046070Y-106164584D01*
X88973837Y-104236819D01*
X89035160Y-104203334D01*
X89061518Y-104200500D01*
X96068481Y-104200500D01*
X96097921Y-104209144D01*
X96127908Y-104215668D01*
X96132923Y-104219422D01*
X96135520Y-104220185D01*
X96156162Y-104236819D01*
X96293928Y-104374585D01*
X96320808Y-104414814D01*
X96380602Y-104559172D01*
X96380609Y-104559185D01*
X96468210Y-104690288D01*
X96468213Y-104690292D01*
X96579707Y-104801786D01*
X96579711Y-104801789D01*
X96710814Y-104889390D01*
X96710827Y-104889397D01*
X96856498Y-104949735D01*
X96856503Y-104949737D01*
X97011153Y-104980499D01*
X97011156Y-104980500D01*
X97011158Y-104980500D01*
X97168844Y-104980500D01*
X97168845Y-104980499D01*
X97323497Y-104949737D01*
X97469179Y-104889394D01*
X97600289Y-104801789D01*
X97711789Y-104690289D01*
X97799394Y-104559179D01*
X97859737Y-104413497D01*
X97890500Y-104258842D01*
X97890500Y-104101158D01*
X97890500Y-104101155D01*
X97890499Y-104101153D01*
X97859738Y-103946510D01*
X97859737Y-103946503D01*
X97859735Y-103946498D01*
X97799397Y-103800827D01*
X97799390Y-103800814D01*
X97711789Y-103669711D01*
X97711786Y-103669707D01*
X97600292Y-103558213D01*
X97600288Y-103558210D01*
X97469185Y-103470609D01*
X97469172Y-103470602D01*
X97324814Y-103410808D01*
X97284585Y-103383928D01*
X96856546Y-102955888D01*
X96856545Y-102955887D01*
X96741807Y-102879222D01*
X96614332Y-102826421D01*
X96614322Y-102826418D01*
X96478996Y-102799500D01*
X96478994Y-102799500D01*
X96478993Y-102799500D01*
X88651007Y-102799500D01*
X88651003Y-102799500D01*
X88553760Y-102818843D01*
X88553758Y-102818843D01*
X88542591Y-102821065D01*
X88515671Y-102826420D01*
X88462866Y-102848292D01*
X88388189Y-102879225D01*
X88388188Y-102879226D01*
X88367199Y-102893249D01*
X88367192Y-102893253D01*
X88273457Y-102955886D01*
X88273453Y-102955889D01*
X86055414Y-105173928D01*
X86015186Y-105200808D01*
X85870823Y-105260604D01*
X85870814Y-105260609D01*
X85739711Y-105348210D01*
X85739707Y-105348213D01*
X85628213Y-105459707D01*
X85628210Y-105459711D01*
X85540609Y-105590814D01*
X85540602Y-105590827D01*
X85480264Y-105736498D01*
X85480261Y-105736510D01*
X85449500Y-105891153D01*
X68913000Y-105891153D01*
X68913000Y-100551153D01*
X83899500Y-100551153D01*
X83899500Y-100708846D01*
X83930261Y-100863489D01*
X83930264Y-100863501D01*
X83990602Y-101009172D01*
X83990609Y-101009185D01*
X84078210Y-101140288D01*
X84078213Y-101140292D01*
X84189707Y-101251786D01*
X84189711Y-101251789D01*
X84320814Y-101339390D01*
X84320827Y-101339397D01*
X84466498Y-101399735D01*
X84466503Y-101399737D01*
X84621153Y-101430499D01*
X84621156Y-101430500D01*
X84621158Y-101430500D01*
X84778844Y-101430500D01*
X84778845Y-101430499D01*
X84933497Y-101399737D01*
X85079179Y-101339394D01*
X85079185Y-101339390D01*
X85210875Y-101251398D01*
X85277553Y-101230520D01*
X85279766Y-101230500D01*
X86110234Y-101230500D01*
X86177273Y-101250185D01*
X86179125Y-101251398D01*
X86310814Y-101339390D01*
X86310827Y-101339397D01*
X86456498Y-101399735D01*
X86456503Y-101399737D01*
X86611153Y-101430499D01*
X86611156Y-101430500D01*
X86611158Y-101430500D01*
X86768844Y-101430500D01*
X86768845Y-101430499D01*
X86923497Y-101399737D01*
X87069179Y-101339394D01*
X87200289Y-101251789D01*
X87311789Y-101140289D01*
X87399394Y-101009179D01*
X87459737Y-100863497D01*
X87490500Y-100708842D01*
X87490500Y-100551158D01*
X87490500Y-100551155D01*
X87490499Y-100551153D01*
X87484139Y-100519179D01*
X87459737Y-100396503D01*
X87450208Y-100373497D01*
X87399397Y-100250827D01*
X87399390Y-100250814D01*
X87314626Y-100123957D01*
X87314625Y-100123955D01*
X87314624Y-100123954D01*
X87311788Y-100119709D01*
X87253232Y-100061153D01*
X99119500Y-100061153D01*
X99119500Y-100218846D01*
X99150261Y-100373489D01*
X99150264Y-100373501D01*
X99210602Y-100519172D01*
X99210609Y-100519185D01*
X99298210Y-100650288D01*
X99298213Y-100650292D01*
X99409707Y-100761786D01*
X99409711Y-100761789D01*
X99540814Y-100849390D01*
X99540827Y-100849397D01*
X99686498Y-100909735D01*
X99686503Y-100909737D01*
X99841153Y-100940499D01*
X99841156Y-100940500D01*
X99841158Y-100940500D01*
X99998844Y-100940500D01*
X99998845Y-100940499D01*
X100153497Y-100909737D01*
X100299179Y-100849394D01*
X100299185Y-100849390D01*
X100430875Y-100761398D01*
X100497553Y-100740520D01*
X100499766Y-100740500D01*
X102220234Y-100740500D01*
X102287273Y-100760185D01*
X102289125Y-100761398D01*
X102420814Y-100849390D01*
X102420827Y-100849397D01*
X102566498Y-100909735D01*
X102566503Y-100909737D01*
X102721153Y-100940499D01*
X102721156Y-100940500D01*
X102721158Y-100940500D01*
X102878844Y-100940500D01*
X102878845Y-100940499D01*
X103033497Y-100909737D01*
X103179179Y-100849394D01*
X103310289Y-100761789D01*
X103421789Y-100650289D01*
X103509394Y-100519179D01*
X103569737Y-100373497D01*
X103600500Y-100218842D01*
X103600500Y-100061158D01*
X103600500Y-100061155D01*
X103600499Y-100061153D01*
X103590046Y-100008602D01*
X103569737Y-99906503D01*
X103569735Y-99906498D01*
X103509397Y-99760827D01*
X103509390Y-99760814D01*
X103421789Y-99629711D01*
X103421786Y-99629707D01*
X103310292Y-99518213D01*
X103310288Y-99518210D01*
X103179185Y-99430609D01*
X103179172Y-99430602D01*
X103033501Y-99370264D01*
X103033489Y-99370261D01*
X102878845Y-99339500D01*
X102878842Y-99339500D01*
X102721158Y-99339500D01*
X102721155Y-99339500D01*
X102566510Y-99370261D01*
X102566498Y-99370264D01*
X102420827Y-99430602D01*
X102420814Y-99430609D01*
X102289125Y-99518602D01*
X102222447Y-99539480D01*
X102220234Y-99539500D01*
X100499766Y-99539500D01*
X100432727Y-99519815D01*
X100430875Y-99518602D01*
X100299185Y-99430609D01*
X100299172Y-99430602D01*
X100153501Y-99370264D01*
X100153489Y-99370261D01*
X99998845Y-99339500D01*
X99998842Y-99339500D01*
X99841158Y-99339500D01*
X99841155Y-99339500D01*
X99686510Y-99370261D01*
X99686498Y-99370264D01*
X99540827Y-99430602D01*
X99540814Y-99430609D01*
X99409711Y-99518210D01*
X99409707Y-99518213D01*
X99298213Y-99629707D01*
X99298210Y-99629711D01*
X99210609Y-99760814D01*
X99210602Y-99760827D01*
X99150264Y-99906498D01*
X99150261Y-99906510D01*
X99119500Y-100061153D01*
X87253232Y-100061153D01*
X87200292Y-100008213D01*
X87200288Y-100008210D01*
X87069185Y-99920609D01*
X87069172Y-99920602D01*
X86923501Y-99860264D01*
X86923489Y-99860261D01*
X86768845Y-99829500D01*
X86768842Y-99829500D01*
X86611158Y-99829500D01*
X86611155Y-99829500D01*
X86456510Y-99860261D01*
X86456498Y-99860264D01*
X86310827Y-99920602D01*
X86310814Y-99920609D01*
X86179125Y-100008602D01*
X86112447Y-100029480D01*
X86110234Y-100029500D01*
X85279766Y-100029500D01*
X85212727Y-100009815D01*
X85210875Y-100008602D01*
X85079185Y-99920609D01*
X85079172Y-99920602D01*
X84933501Y-99860264D01*
X84933489Y-99860261D01*
X84778845Y-99829500D01*
X84778842Y-99829500D01*
X84621158Y-99829500D01*
X84621155Y-99829500D01*
X84466510Y-99860261D01*
X84466498Y-99860264D01*
X84320827Y-99920602D01*
X84320814Y-99920609D01*
X84189711Y-100008210D01*
X84189707Y-100008213D01*
X84078213Y-100119707D01*
X84078210Y-100119711D01*
X83990609Y-100250814D01*
X83990602Y-100250827D01*
X83930264Y-100396498D01*
X83930261Y-100396510D01*
X83899500Y-100551153D01*
X68913000Y-100551153D01*
X68913000Y-93093653D01*
X76322000Y-93093653D01*
X76322000Y-93251346D01*
X76352761Y-93405989D01*
X76352764Y-93406001D01*
X76413102Y-93551672D01*
X76413109Y-93551685D01*
X76500710Y-93682788D01*
X76500713Y-93682792D01*
X76612207Y-93794286D01*
X76612211Y-93794289D01*
X76743314Y-93881890D01*
X76743327Y-93881897D01*
X76857391Y-93929143D01*
X76889003Y-93942237D01*
X76995884Y-93963497D01*
X77043653Y-93972999D01*
X77043656Y-93973000D01*
X77043658Y-93973000D01*
X77201344Y-93973000D01*
X77201345Y-93972999D01*
X77355997Y-93942237D01*
X77501679Y-93881894D01*
X77632789Y-93794289D01*
X77744289Y-93682789D01*
X77831894Y-93551679D01*
X77892237Y-93405997D01*
X77923000Y-93251342D01*
X77923000Y-93093658D01*
X77923000Y-93093655D01*
X77922999Y-93093653D01*
X77915010Y-93053489D01*
X77892237Y-92939003D01*
X77875744Y-92899185D01*
X77832439Y-92794636D01*
X77823000Y-92747184D01*
X77823000Y-90721153D01*
X78862000Y-90721153D01*
X78862000Y-90878846D01*
X78892761Y-91033489D01*
X78892764Y-91033501D01*
X78953102Y-91179172D01*
X78953109Y-91179185D01*
X79041102Y-91310874D01*
X79061980Y-91377551D01*
X79062000Y-91379765D01*
X79062000Y-91940234D01*
X79042315Y-92007273D01*
X79041102Y-92009125D01*
X78953109Y-92140814D01*
X78953102Y-92140827D01*
X78892764Y-92286498D01*
X78892761Y-92286510D01*
X78862000Y-92441153D01*
X78862000Y-92598846D01*
X78892761Y-92753489D01*
X78892764Y-92753501D01*
X78953102Y-92899172D01*
X78953109Y-92899185D01*
X79040710Y-93030288D01*
X79040713Y-93030292D01*
X79152207Y-93141786D01*
X79152211Y-93141789D01*
X79283314Y-93229390D01*
X79283327Y-93229397D01*
X79428998Y-93289735D01*
X79429003Y-93289737D01*
X79583653Y-93320499D01*
X79583656Y-93320500D01*
X79583658Y-93320500D01*
X79741344Y-93320500D01*
X79741345Y-93320499D01*
X79895997Y-93289737D01*
X80040914Y-93229711D01*
X80041672Y-93229397D01*
X80041672Y-93229396D01*
X80041679Y-93229394D01*
X80172789Y-93141789D01*
X80284289Y-93030289D01*
X80371894Y-92899179D01*
X80432237Y-92753497D01*
X80463000Y-92598842D01*
X80463000Y-92441158D01*
X80463000Y-92441155D01*
X80462999Y-92441153D01*
X80456860Y-92410289D01*
X80432237Y-92286503D01*
X80429886Y-92280827D01*
X80371897Y-92140827D01*
X80371890Y-92140814D01*
X80283898Y-92009125D01*
X80278247Y-91991078D01*
X80268023Y-91975169D01*
X80263571Y-91944207D01*
X80263020Y-91942447D01*
X80263000Y-91940234D01*
X80263000Y-91821153D01*
X81456301Y-91821153D01*
X81456301Y-91978846D01*
X81487062Y-92133489D01*
X81487065Y-92133501D01*
X81547403Y-92279172D01*
X81547410Y-92279185D01*
X81635011Y-92410288D01*
X81635014Y-92410292D01*
X81746508Y-92521786D01*
X81746512Y-92521789D01*
X81877615Y-92609390D01*
X81877628Y-92609397D01*
X82023299Y-92669735D01*
X82023304Y-92669737D01*
X82177954Y-92700499D01*
X82177957Y-92700500D01*
X82177959Y-92700500D01*
X82335645Y-92700500D01*
X82335646Y-92700499D01*
X82490298Y-92669737D01*
X82635980Y-92609394D01*
X82678246Y-92581153D01*
X82767676Y-92521398D01*
X82834354Y-92500520D01*
X82836567Y-92500500D01*
X85409903Y-92500500D01*
X85476942Y-92520185D01*
X85497584Y-92536819D01*
X86748927Y-93788162D01*
X86748929Y-93788165D01*
X86828585Y-93867821D01*
X86834313Y-93878311D01*
X86862068Y-93929141D01*
X86862067Y-93929142D01*
X86862068Y-93929143D01*
X86857084Y-93998834D01*
X86815212Y-94054768D01*
X86785315Y-94065918D01*
X86749749Y-94079184D01*
X86740902Y-94079500D01*
X83369766Y-94079500D01*
X83302727Y-94059815D01*
X83300875Y-94058602D01*
X83169185Y-93970609D01*
X83169172Y-93970602D01*
X83023501Y-93910264D01*
X83023489Y-93910261D01*
X82868845Y-93879500D01*
X82868842Y-93879500D01*
X82711158Y-93879500D01*
X82711155Y-93879500D01*
X82556510Y-93910261D01*
X82556498Y-93910264D01*
X82410827Y-93970602D01*
X82410814Y-93970609D01*
X82279711Y-94058210D01*
X82279707Y-94058213D01*
X82168213Y-94169707D01*
X82168210Y-94169711D01*
X82080609Y-94300814D01*
X82080602Y-94300827D01*
X82020264Y-94446498D01*
X82020261Y-94446510D01*
X81989500Y-94601153D01*
X81989500Y-94758846D01*
X82020261Y-94913489D01*
X82020264Y-94913501D01*
X82080602Y-95059172D01*
X82080609Y-95059185D01*
X82168210Y-95190288D01*
X82168213Y-95190292D01*
X82279707Y-95301786D01*
X82279711Y-95301789D01*
X82410814Y-95389390D01*
X82410827Y-95389397D01*
X82556498Y-95449735D01*
X82556503Y-95449737D01*
X82711153Y-95480499D01*
X82711156Y-95480500D01*
X82711158Y-95480500D01*
X82868844Y-95480500D01*
X82868845Y-95480499D01*
X83023497Y-95449737D01*
X83169179Y-95389394D01*
X83169185Y-95389390D01*
X83300875Y-95301398D01*
X83367553Y-95280520D01*
X83369766Y-95280500D01*
X87323331Y-95280500D01*
X87323347Y-95280501D01*
X87330943Y-95280501D01*
X87489054Y-95280501D01*
X87489057Y-95280501D01*
X87641785Y-95239577D01*
X87691904Y-95210639D01*
X87778716Y-95160520D01*
X87890520Y-95048716D01*
X87890520Y-95048714D01*
X87900728Y-95038507D01*
X87900729Y-95038504D01*
X88364665Y-94574570D01*
X88425984Y-94541088D01*
X88428151Y-94540637D01*
X88428840Y-94540500D01*
X88428842Y-94540500D01*
X88583497Y-94509737D01*
X88729179Y-94449394D01*
X88860289Y-94361789D01*
X88971789Y-94250289D01*
X89059394Y-94119179D01*
X89069669Y-94094374D01*
X89084647Y-94058213D01*
X89119737Y-93973497D01*
X89150500Y-93818842D01*
X89150500Y-93661158D01*
X89150500Y-93661155D01*
X89150499Y-93661153D01*
X89148510Y-93651153D01*
X89119737Y-93506503D01*
X89078108Y-93406001D01*
X89059397Y-93360827D01*
X89059390Y-93360814D01*
X88971789Y-93229711D01*
X88971786Y-93229707D01*
X88860292Y-93118213D01*
X88860288Y-93118210D01*
X88729185Y-93030609D01*
X88729172Y-93030602D01*
X88583501Y-92970264D01*
X88583489Y-92970261D01*
X88428845Y-92939500D01*
X88428842Y-92939500D01*
X88352941Y-92939500D01*
X88285902Y-92919815D01*
X88265260Y-92903181D01*
X88159741Y-92797662D01*
X88159737Y-92797659D01*
X88028634Y-92710058D01*
X88028621Y-92710051D01*
X87882950Y-92649713D01*
X87882938Y-92649710D01*
X87728294Y-92618949D01*
X87728291Y-92618949D01*
X87570607Y-92618949D01*
X87570605Y-92618949D01*
X87415954Y-92649711D01*
X87410120Y-92651481D01*
X87409705Y-92650113D01*
X87347359Y-92656814D01*
X87284882Y-92625536D01*
X87281701Y-92622466D01*
X86680388Y-92021153D01*
X97879500Y-92021153D01*
X97879500Y-92178846D01*
X97910261Y-92333489D01*
X97910264Y-92333501D01*
X97970602Y-92479172D01*
X97970609Y-92479185D01*
X98058210Y-92610288D01*
X98058213Y-92610292D01*
X98169707Y-92721786D01*
X98169711Y-92721789D01*
X98300814Y-92809390D01*
X98300827Y-92809397D01*
X98446498Y-92869735D01*
X98446503Y-92869737D01*
X98565912Y-92893489D01*
X98601153Y-92900499D01*
X98601156Y-92900500D01*
X98601158Y-92900500D01*
X98758844Y-92900500D01*
X98758845Y-92900499D01*
X98913497Y-92869737D01*
X99059179Y-92809394D01*
X99152283Y-92747184D01*
X99190875Y-92721398D01*
X99257553Y-92700520D01*
X99259766Y-92700500D01*
X100045500Y-92700500D01*
X100112539Y-92720185D01*
X100158294Y-92772989D01*
X100169500Y-92824500D01*
X100169500Y-92898846D01*
X100200261Y-93053489D01*
X100200264Y-93053501D01*
X100260602Y-93199172D01*
X100260609Y-93199185D01*
X100348210Y-93330288D01*
X100348213Y-93330292D01*
X100459707Y-93441786D01*
X100459711Y-93441789D01*
X100590814Y-93529390D01*
X100590827Y-93529397D01*
X100696214Y-93573049D01*
X100736503Y-93589737D01*
X100891153Y-93620499D01*
X100891156Y-93620500D01*
X100891158Y-93620500D01*
X101048844Y-93620500D01*
X101048845Y-93620499D01*
X101203497Y-93589737D01*
X101259008Y-93566743D01*
X101308681Y-93546169D01*
X101378150Y-93538700D01*
X101440629Y-93569975D01*
X101443814Y-93573049D01*
X101965139Y-94094374D01*
X101965149Y-94094385D01*
X101969479Y-94098715D01*
X101969480Y-94098716D01*
X102081284Y-94210520D01*
X102081286Y-94210521D01*
X102081287Y-94210522D01*
X102155062Y-94253116D01*
X102180743Y-94272822D01*
X102259707Y-94351786D01*
X102259711Y-94351789D01*
X102390814Y-94439390D01*
X102390827Y-94439397D01*
X102536498Y-94499735D01*
X102536503Y-94499737D01*
X102691153Y-94530499D01*
X102691156Y-94530500D01*
X102691158Y-94530500D01*
X102848844Y-94530500D01*
X102848845Y-94530499D01*
X103003497Y-94499737D01*
X103116166Y-94453067D01*
X103149172Y-94439397D01*
X103149172Y-94439396D01*
X103149179Y-94439394D01*
X103280289Y-94351789D01*
X103391789Y-94240289D01*
X103479394Y-94109179D01*
X103539737Y-93963497D01*
X103570500Y-93808842D01*
X103570500Y-93651158D01*
X103570500Y-93651155D01*
X103570499Y-93651153D01*
X103539739Y-93496511D01*
X103539738Y-93496509D01*
X103539737Y-93496503D01*
X103539491Y-93495910D01*
X103539455Y-93495576D01*
X103537970Y-93490680D01*
X103538898Y-93490398D01*
X103532019Y-93426446D01*
X103563289Y-93363965D01*
X103585153Y-93345356D01*
X103680289Y-93281789D01*
X103791789Y-93170289D01*
X103879394Y-93039179D01*
X103939737Y-92893497D01*
X103970500Y-92738842D01*
X103970500Y-92581158D01*
X103970500Y-92581155D01*
X103970499Y-92581153D01*
X103958613Y-92521398D01*
X103939737Y-92426503D01*
X103901210Y-92333489D01*
X103879397Y-92280827D01*
X103879390Y-92280814D01*
X103791789Y-92149711D01*
X103791786Y-92149707D01*
X103680292Y-92038213D01*
X103680288Y-92038210D01*
X103549185Y-91950609D01*
X103549172Y-91950602D01*
X103403501Y-91890264D01*
X103403489Y-91890261D01*
X103248845Y-91859500D01*
X103248842Y-91859500D01*
X103091158Y-91859500D01*
X103091155Y-91859500D01*
X102936510Y-91890261D01*
X102936498Y-91890264D01*
X102790827Y-91950602D01*
X102790814Y-91950609D01*
X102659125Y-92038602D01*
X102641078Y-92044252D01*
X102625169Y-92054477D01*
X102594207Y-92058928D01*
X102592447Y-92059480D01*
X102590234Y-92059500D01*
X102420098Y-92059500D01*
X102353059Y-92039815D01*
X102332417Y-92023181D01*
X101928717Y-91619481D01*
X101928716Y-91619480D01*
X101841904Y-91569360D01*
X101841904Y-91569359D01*
X101841900Y-91569358D01*
X101791785Y-91540423D01*
X101639057Y-91499499D01*
X101480943Y-91499499D01*
X101473347Y-91499499D01*
X101473331Y-91499500D01*
X99259766Y-91499500D01*
X99192727Y-91479815D01*
X99190875Y-91478602D01*
X99059185Y-91390609D01*
X99059172Y-91390602D01*
X98913501Y-91330264D01*
X98913489Y-91330261D01*
X98758845Y-91299500D01*
X98758842Y-91299500D01*
X98601158Y-91299500D01*
X98601155Y-91299500D01*
X98446510Y-91330261D01*
X98446498Y-91330264D01*
X98300827Y-91390602D01*
X98300814Y-91390609D01*
X98169711Y-91478210D01*
X98169707Y-91478213D01*
X98058213Y-91589707D01*
X98058210Y-91589711D01*
X97970609Y-91720814D01*
X97970602Y-91720827D01*
X97910264Y-91866498D01*
X97910261Y-91866510D01*
X97879500Y-92021153D01*
X86680388Y-92021153D01*
X86197590Y-91538355D01*
X86197588Y-91538352D01*
X86078717Y-91419481D01*
X86078716Y-91419480D01*
X85991904Y-91369360D01*
X85991904Y-91369359D01*
X85991900Y-91369358D01*
X85941785Y-91340423D01*
X85789057Y-91299499D01*
X85630943Y-91299499D01*
X85623347Y-91299499D01*
X85623331Y-91299500D01*
X82836567Y-91299500D01*
X82769528Y-91279815D01*
X82767676Y-91278602D01*
X82635986Y-91190609D01*
X82635973Y-91190602D01*
X82490302Y-91130264D01*
X82490290Y-91130261D01*
X82335646Y-91099500D01*
X82335643Y-91099500D01*
X82177959Y-91099500D01*
X82177956Y-91099500D01*
X82023311Y-91130261D01*
X82023299Y-91130264D01*
X81877628Y-91190602D01*
X81877615Y-91190609D01*
X81746512Y-91278210D01*
X81746508Y-91278213D01*
X81635014Y-91389707D01*
X81635011Y-91389711D01*
X81547410Y-91520814D01*
X81547403Y-91520827D01*
X81487065Y-91666498D01*
X81487062Y-91666510D01*
X81456301Y-91821153D01*
X80263000Y-91821153D01*
X80263000Y-91379765D01*
X80282685Y-91312726D01*
X80283898Y-91310874D01*
X80305722Y-91278213D01*
X80371894Y-91179179D01*
X80432237Y-91033497D01*
X80463000Y-90878842D01*
X80463000Y-90721158D01*
X80463000Y-90721155D01*
X80462999Y-90721153D01*
X80432237Y-90566503D01*
X80432235Y-90566498D01*
X80371897Y-90420827D01*
X80371890Y-90420814D01*
X80284289Y-90289711D01*
X80284286Y-90289707D01*
X80222665Y-90228086D01*
X80206942Y-90199292D01*
X80190198Y-90171070D01*
X80190279Y-90168777D01*
X80189180Y-90166763D01*
X80191521Y-90134027D01*
X80192692Y-90101245D01*
X80194000Y-90099360D01*
X80194164Y-90097071D01*
X80213832Y-90070797D01*
X80232541Y-90043853D01*
X80235172Y-90042291D01*
X80236036Y-90041138D01*
X80262889Y-90025846D01*
X80357886Y-89986498D01*
X80397864Y-89969939D01*
X80445316Y-89960500D01*
X82344684Y-89960500D01*
X82392136Y-89969939D01*
X82512363Y-90019738D01*
X82536503Y-90029737D01*
X82691153Y-90060499D01*
X82691156Y-90060500D01*
X82691158Y-90060500D01*
X82848844Y-90060500D01*
X82848845Y-90060499D01*
X83003497Y-90029737D01*
X83116166Y-89983067D01*
X83149172Y-89969397D01*
X83149172Y-89969396D01*
X83149179Y-89969394D01*
X83280289Y-89881789D01*
X83391789Y-89770289D01*
X83479394Y-89639179D01*
X83539737Y-89493497D01*
X83570500Y-89338842D01*
X83570500Y-89181158D01*
X83568510Y-89171153D01*
X88689500Y-89171153D01*
X88689500Y-89328846D01*
X88720261Y-89483489D01*
X88720264Y-89483501D01*
X88780602Y-89629172D01*
X88780609Y-89629185D01*
X88868210Y-89760288D01*
X88868213Y-89760292D01*
X88979707Y-89871786D01*
X88979711Y-89871789D01*
X89110814Y-89959390D01*
X89110827Y-89959397D01*
X89210060Y-90000500D01*
X89256503Y-90019737D01*
X89369889Y-90042291D01*
X89411153Y-90050499D01*
X89411156Y-90050500D01*
X89411158Y-90050500D01*
X89568844Y-90050500D01*
X89568845Y-90050499D01*
X89723497Y-90019737D01*
X89820887Y-89979397D01*
X89867864Y-89959939D01*
X89915316Y-89950500D01*
X91644684Y-89950500D01*
X91692136Y-89959939D01*
X91756256Y-89986498D01*
X91836503Y-90019737D01*
X91949889Y-90042291D01*
X91991153Y-90050499D01*
X91991156Y-90050500D01*
X91991158Y-90050500D01*
X92148844Y-90050500D01*
X92148845Y-90050499D01*
X92303497Y-90019737D01*
X92424213Y-89969735D01*
X92449172Y-89959397D01*
X92449172Y-89959396D01*
X92449179Y-89959394D01*
X92580289Y-89871789D01*
X92691789Y-89760289D01*
X92779394Y-89629179D01*
X92839737Y-89483497D01*
X92870500Y-89328842D01*
X92870500Y-89181153D01*
X96649500Y-89181153D01*
X96649500Y-89338846D01*
X96680261Y-89493489D01*
X96680264Y-89493501D01*
X96740602Y-89639172D01*
X96740609Y-89639185D01*
X96828210Y-89770288D01*
X96828213Y-89770292D01*
X96939707Y-89881786D01*
X96939711Y-89881789D01*
X97070814Y-89969390D01*
X97070827Y-89969397D01*
X97192363Y-90019738D01*
X97216503Y-90029737D01*
X97371153Y-90060499D01*
X97371156Y-90060500D01*
X97371158Y-90060500D01*
X97528844Y-90060500D01*
X97528845Y-90060499D01*
X97683497Y-90029737D01*
X97787886Y-89986498D01*
X97827864Y-89969939D01*
X97875316Y-89960500D01*
X99774684Y-89960500D01*
X99822136Y-89969939D01*
X99942363Y-90019738D01*
X99966503Y-90029737D01*
X100121153Y-90060499D01*
X100121156Y-90060500D01*
X100121158Y-90060500D01*
X100278844Y-90060500D01*
X100278845Y-90060499D01*
X100433497Y-90029737D01*
X100546166Y-89983067D01*
X100579172Y-89969397D01*
X100579172Y-89969396D01*
X100579179Y-89969394D01*
X100710289Y-89881789D01*
X100821789Y-89770289D01*
X100909394Y-89639179D01*
X100969737Y-89493497D01*
X101000500Y-89338842D01*
X101000500Y-89181158D01*
X101000500Y-89181155D01*
X101000499Y-89181153D01*
X100992166Y-89139257D01*
X100988565Y-89121153D01*
X118969500Y-89121153D01*
X118969500Y-89278846D01*
X119000261Y-89433489D01*
X119000264Y-89433501D01*
X119060602Y-89579172D01*
X119060609Y-89579185D01*
X119148210Y-89710288D01*
X119148213Y-89710292D01*
X119259707Y-89821786D01*
X119259711Y-89821789D01*
X119390814Y-89909390D01*
X119390827Y-89909397D01*
X119520064Y-89962928D01*
X119536503Y-89969737D01*
X119686131Y-89999500D01*
X119691153Y-90000499D01*
X119691156Y-90000500D01*
X119691158Y-90000500D01*
X119848844Y-90000500D01*
X119848845Y-90000499D01*
X120003497Y-89969737D01*
X120120199Y-89921398D01*
X120147864Y-89909939D01*
X120195316Y-89900500D01*
X123897633Y-89900500D01*
X123964672Y-89920185D01*
X123966524Y-89921398D01*
X124053321Y-89979394D01*
X124053323Y-89979395D01*
X124053327Y-89979397D01*
X124198998Y-90039735D01*
X124199003Y-90039737D01*
X124353653Y-90070499D01*
X124353656Y-90070500D01*
X124353658Y-90070500D01*
X124511344Y-90070500D01*
X124511345Y-90070499D01*
X124665997Y-90039737D01*
X124811679Y-89979394D01*
X124942789Y-89891789D01*
X125054289Y-89780289D01*
X125141894Y-89649179D01*
X125202237Y-89503497D01*
X125233000Y-89348842D01*
X125233000Y-89191158D01*
X125233000Y-89191155D01*
X125232999Y-89191153D01*
X125202238Y-89036510D01*
X125202237Y-89036503D01*
X125173245Y-88966510D01*
X125141897Y-88890827D01*
X125141890Y-88890814D01*
X125054289Y-88759711D01*
X125054286Y-88759707D01*
X124942792Y-88648213D01*
X124942788Y-88648210D01*
X124811685Y-88560609D01*
X124811672Y-88560602D01*
X124666001Y-88500264D01*
X124665989Y-88500261D01*
X124511345Y-88469500D01*
X124511342Y-88469500D01*
X124353658Y-88469500D01*
X124353656Y-88469500D01*
X124259341Y-88488260D01*
X124214818Y-88497117D01*
X124190628Y-88499500D01*
X120195316Y-88499500D01*
X120147864Y-88490061D01*
X120003501Y-88430264D01*
X120003489Y-88430261D01*
X119848845Y-88399500D01*
X119848842Y-88399500D01*
X119691158Y-88399500D01*
X119691155Y-88399500D01*
X119536510Y-88430261D01*
X119536498Y-88430264D01*
X119390827Y-88490602D01*
X119390814Y-88490609D01*
X119259711Y-88578210D01*
X119259707Y-88578213D01*
X119148213Y-88689707D01*
X119148210Y-88689711D01*
X119060609Y-88820814D01*
X119060602Y-88820827D01*
X119000264Y-88966498D01*
X119000261Y-88966510D01*
X118969500Y-89121153D01*
X100988565Y-89121153D01*
X100969738Y-89026508D01*
X100969737Y-89026507D01*
X100969737Y-89026503D01*
X100965593Y-89016498D01*
X100909397Y-88880827D01*
X100909390Y-88880814D01*
X100821789Y-88749711D01*
X100821786Y-88749707D01*
X100710292Y-88638213D01*
X100710288Y-88638210D01*
X100579185Y-88550609D01*
X100579172Y-88550602D01*
X100433501Y-88490264D01*
X100433489Y-88490261D01*
X100278845Y-88459500D01*
X100278842Y-88459500D01*
X100121158Y-88459500D01*
X100121155Y-88459500D01*
X99966510Y-88490261D01*
X99966498Y-88490264D01*
X99822136Y-88550061D01*
X99774684Y-88559500D01*
X97875316Y-88559500D01*
X97827864Y-88550061D01*
X97683501Y-88490264D01*
X97683489Y-88490261D01*
X97528845Y-88459500D01*
X97528842Y-88459500D01*
X97371158Y-88459500D01*
X97371155Y-88459500D01*
X97216510Y-88490261D01*
X97216498Y-88490264D01*
X97070827Y-88550602D01*
X97070814Y-88550609D01*
X96939711Y-88638210D01*
X96939707Y-88638213D01*
X96828213Y-88749707D01*
X96828210Y-88749711D01*
X96740609Y-88880814D01*
X96740602Y-88880827D01*
X96680264Y-89026498D01*
X96680261Y-89026510D01*
X96649500Y-89181153D01*
X92870500Y-89181153D01*
X92870500Y-89171158D01*
X92870500Y-89171155D01*
X92870499Y-89171153D01*
X92860553Y-89121153D01*
X92839737Y-89016503D01*
X92839735Y-89016498D01*
X92779397Y-88870827D01*
X92779390Y-88870814D01*
X92691789Y-88739711D01*
X92691786Y-88739707D01*
X92580292Y-88628213D01*
X92580288Y-88628210D01*
X92449185Y-88540609D01*
X92449172Y-88540602D01*
X92303501Y-88480264D01*
X92303489Y-88480261D01*
X92148845Y-88449500D01*
X92148842Y-88449500D01*
X91991158Y-88449500D01*
X91991155Y-88449500D01*
X91836510Y-88480261D01*
X91836498Y-88480264D01*
X91692136Y-88540061D01*
X91644684Y-88549500D01*
X89915316Y-88549500D01*
X89867864Y-88540061D01*
X89723501Y-88480264D01*
X89723489Y-88480261D01*
X89568845Y-88449500D01*
X89568842Y-88449500D01*
X89411158Y-88449500D01*
X89411155Y-88449500D01*
X89256510Y-88480261D01*
X89256498Y-88480264D01*
X89110827Y-88540602D01*
X89110814Y-88540609D01*
X88979711Y-88628210D01*
X88979707Y-88628213D01*
X88868213Y-88739707D01*
X88868210Y-88739711D01*
X88780609Y-88870814D01*
X88780602Y-88870827D01*
X88720264Y-89016498D01*
X88720261Y-89016510D01*
X88689500Y-89171153D01*
X83568510Y-89171153D01*
X83539737Y-89026503D01*
X83535593Y-89016498D01*
X83479397Y-88880827D01*
X83479390Y-88880814D01*
X83391789Y-88749711D01*
X83391786Y-88749707D01*
X83280292Y-88638213D01*
X83280288Y-88638210D01*
X83149185Y-88550609D01*
X83149172Y-88550602D01*
X83003501Y-88490264D01*
X83003489Y-88490261D01*
X82848845Y-88459500D01*
X82848842Y-88459500D01*
X82691158Y-88459500D01*
X82691155Y-88459500D01*
X82536510Y-88490261D01*
X82536498Y-88490264D01*
X82392136Y-88550061D01*
X82344684Y-88559500D01*
X80445316Y-88559500D01*
X80397864Y-88550061D01*
X80253501Y-88490264D01*
X80253489Y-88490261D01*
X80098845Y-88459500D01*
X80098842Y-88459500D01*
X79941158Y-88459500D01*
X79941155Y-88459500D01*
X79786510Y-88490261D01*
X79786498Y-88490264D01*
X79640827Y-88550602D01*
X79640814Y-88550609D01*
X79509711Y-88638210D01*
X79509707Y-88638213D01*
X79398213Y-88749707D01*
X79398210Y-88749711D01*
X79310609Y-88880814D01*
X79310602Y-88880827D01*
X79250264Y-89026498D01*
X79250261Y-89026510D01*
X79219500Y-89181153D01*
X79219500Y-89338846D01*
X79250261Y-89493489D01*
X79250264Y-89493501D01*
X79310602Y-89639172D01*
X79310609Y-89639185D01*
X79398210Y-89770288D01*
X79398213Y-89770292D01*
X79459834Y-89831913D01*
X79493319Y-89893236D01*
X79488335Y-89962928D01*
X79446463Y-90018861D01*
X79419606Y-90034155D01*
X79283323Y-90090604D01*
X79283314Y-90090609D01*
X79152211Y-90178210D01*
X79152207Y-90178213D01*
X79040713Y-90289707D01*
X79040710Y-90289711D01*
X78953109Y-90420814D01*
X78953102Y-90420827D01*
X78892764Y-90566498D01*
X78892761Y-90566510D01*
X78862000Y-90721153D01*
X77823000Y-90721153D01*
X77823000Y-90660909D01*
X77837647Y-90602446D01*
X77839387Y-90599188D01*
X77839394Y-90599179D01*
X77899737Y-90453497D01*
X77930500Y-90298842D01*
X77930500Y-90141158D01*
X77930500Y-90141155D01*
X77930499Y-90141153D01*
X77920445Y-90090609D01*
X77899737Y-89986503D01*
X77888734Y-89959939D01*
X77839397Y-89840827D01*
X77839390Y-89840814D01*
X77751789Y-89709711D01*
X77751786Y-89709707D01*
X77640292Y-89598213D01*
X77640288Y-89598210D01*
X77509185Y-89510609D01*
X77509172Y-89510602D01*
X77363501Y-89450264D01*
X77363489Y-89450261D01*
X77208845Y-89419500D01*
X77208842Y-89419500D01*
X77051158Y-89419500D01*
X77051155Y-89419500D01*
X76896510Y-89450261D01*
X76896498Y-89450264D01*
X76750827Y-89510602D01*
X76750814Y-89510609D01*
X76619711Y-89598210D01*
X76619707Y-89598213D01*
X76508213Y-89709707D01*
X76508210Y-89709711D01*
X76420609Y-89840814D01*
X76420602Y-89840827D01*
X76360264Y-89986498D01*
X76360261Y-89986510D01*
X76329500Y-90141153D01*
X76329500Y-90298846D01*
X76353763Y-90420821D01*
X76360263Y-90453497D01*
X76412561Y-90579757D01*
X76422000Y-90627208D01*
X76422000Y-92747184D01*
X76412561Y-92794636D01*
X76352764Y-92938998D01*
X76352761Y-92939010D01*
X76322000Y-93093653D01*
X68913000Y-93093653D01*
X68913000Y-79981153D01*
X79422000Y-79981153D01*
X79422000Y-80138846D01*
X79452761Y-80293489D01*
X79452764Y-80293501D01*
X79513102Y-80439172D01*
X79513109Y-80439185D01*
X79601102Y-80570874D01*
X79621980Y-80637551D01*
X79622000Y-80639765D01*
X79622000Y-85070234D01*
X79602315Y-85137273D01*
X79601102Y-85139125D01*
X79513109Y-85270814D01*
X79513102Y-85270827D01*
X79452764Y-85416498D01*
X79452761Y-85416510D01*
X79422000Y-85571153D01*
X79422000Y-85728846D01*
X79452761Y-85883489D01*
X79452764Y-85883501D01*
X79513102Y-86029172D01*
X79513109Y-86029185D01*
X79600710Y-86160288D01*
X79600713Y-86160292D01*
X79712207Y-86271786D01*
X79712211Y-86271789D01*
X79843314Y-86359390D01*
X79843327Y-86359397D01*
X79988998Y-86419735D01*
X79989003Y-86419737D01*
X80136982Y-86449172D01*
X80143653Y-86450499D01*
X80143656Y-86450500D01*
X80143658Y-86450500D01*
X80301344Y-86450500D01*
X80301345Y-86450499D01*
X80455997Y-86419737D01*
X80601679Y-86359394D01*
X80732789Y-86271789D01*
X80844289Y-86160289D01*
X80931894Y-86029179D01*
X80992237Y-85883497D01*
X81023000Y-85728842D01*
X81023000Y-85571158D01*
X81023000Y-85571155D01*
X81022999Y-85571153D01*
X80998863Y-85449815D01*
X80992237Y-85416503D01*
X80962751Y-85345316D01*
X80931897Y-85270827D01*
X80931890Y-85270814D01*
X80843898Y-85139125D01*
X80823020Y-85072447D01*
X80823000Y-85070234D01*
X80823000Y-84781153D01*
X87532000Y-84781153D01*
X87532000Y-84938846D01*
X87562761Y-85093489D01*
X87562764Y-85093501D01*
X87622561Y-85237864D01*
X87632000Y-85285316D01*
X87632000Y-87061076D01*
X87622561Y-87108528D01*
X87590263Y-87186501D01*
X87590260Y-87186511D01*
X87559500Y-87341153D01*
X87559500Y-87498846D01*
X87590261Y-87653489D01*
X87590264Y-87653501D01*
X87650602Y-87799172D01*
X87650609Y-87799185D01*
X87738210Y-87930288D01*
X87738213Y-87930292D01*
X87849707Y-88041786D01*
X87849711Y-88041789D01*
X87980814Y-88129390D01*
X87980827Y-88129397D01*
X88126498Y-88189735D01*
X88126503Y-88189737D01*
X88281153Y-88220499D01*
X88281156Y-88220500D01*
X88281158Y-88220500D01*
X88438844Y-88220500D01*
X88438845Y-88220499D01*
X88593497Y-88189737D01*
X88739179Y-88129394D01*
X88870289Y-88041789D01*
X88981789Y-87930289D01*
X89069394Y-87799179D01*
X89129737Y-87653497D01*
X89160500Y-87498842D01*
X89160500Y-87341158D01*
X89160500Y-87341155D01*
X89160499Y-87341153D01*
X89156127Y-87319172D01*
X89129737Y-87186503D01*
X89129735Y-87186498D01*
X89069397Y-87040828D01*
X89069396Y-87040827D01*
X89069394Y-87040821D01*
X89053896Y-87017627D01*
X89048246Y-86999581D01*
X89038023Y-86983673D01*
X89033571Y-86952710D01*
X89033020Y-86950950D01*
X89033000Y-86948738D01*
X89033000Y-86906850D01*
X89052685Y-86839811D01*
X89105489Y-86794056D01*
X89174647Y-86784112D01*
X89204452Y-86792289D01*
X89208718Y-86794056D01*
X89319003Y-86839737D01*
X89473653Y-86870499D01*
X89473656Y-86870500D01*
X89473658Y-86870500D01*
X89631344Y-86870500D01*
X89631345Y-86870499D01*
X89785997Y-86839737D01*
X89931679Y-86779394D01*
X89959956Y-86760500D01*
X90063375Y-86691398D01*
X90130053Y-86670520D01*
X90132266Y-86670500D01*
X91362734Y-86670500D01*
X91429773Y-86690185D01*
X91431625Y-86691398D01*
X91563314Y-86779390D01*
X91563327Y-86779397D01*
X91708998Y-86839735D01*
X91709003Y-86839737D01*
X91863653Y-86870499D01*
X91863656Y-86870500D01*
X91863658Y-86870500D01*
X92021344Y-86870500D01*
X92021345Y-86870499D01*
X92175997Y-86839737D01*
X92321679Y-86779394D01*
X92452789Y-86691789D01*
X92564289Y-86580289D01*
X92651894Y-86449179D01*
X92712237Y-86303497D01*
X92743000Y-86148842D01*
X92743000Y-85991158D01*
X92743000Y-85991155D01*
X92742999Y-85991153D01*
X92712237Y-85836503D01*
X92712235Y-85836498D01*
X92651897Y-85690827D01*
X92651890Y-85690814D01*
X92564289Y-85559711D01*
X92564286Y-85559707D01*
X92452792Y-85448213D01*
X92452788Y-85448210D01*
X92321685Y-85360609D01*
X92321672Y-85360602D01*
X92176001Y-85300264D01*
X92175989Y-85300261D01*
X92021345Y-85269500D01*
X92021342Y-85269500D01*
X91863658Y-85269500D01*
X91863655Y-85269500D01*
X91709010Y-85300261D01*
X91708998Y-85300264D01*
X91563327Y-85360602D01*
X91563314Y-85360609D01*
X91431625Y-85448602D01*
X91364947Y-85469480D01*
X91362734Y-85469500D01*
X90132266Y-85469500D01*
X90065227Y-85449815D01*
X90063375Y-85448602D01*
X89931685Y-85360609D01*
X89931672Y-85360602D01*
X89786001Y-85300264D01*
X89785989Y-85300261D01*
X89631345Y-85269500D01*
X89631342Y-85269500D01*
X89473658Y-85269500D01*
X89473655Y-85269500D01*
X89319010Y-85300261D01*
X89319002Y-85300263D01*
X89230533Y-85336907D01*
X89161063Y-85344374D01*
X89098585Y-85313099D01*
X89062933Y-85253009D01*
X89065428Y-85183184D01*
X89068505Y-85174933D01*
X89102237Y-85093497D01*
X89133000Y-84938842D01*
X89133000Y-84841153D01*
X94242000Y-84841153D01*
X94242000Y-84998846D01*
X94272761Y-85153489D01*
X94272764Y-85153501D01*
X94332561Y-85297864D01*
X94342000Y-85345316D01*
X94342000Y-86514684D01*
X94332561Y-86562136D01*
X94272764Y-86706498D01*
X94272761Y-86706510D01*
X94242000Y-86861153D01*
X94242000Y-87018846D01*
X94272761Y-87173489D01*
X94272764Y-87173501D01*
X94333102Y-87319172D01*
X94333109Y-87319185D01*
X94420710Y-87450288D01*
X94420713Y-87450292D01*
X94532207Y-87561786D01*
X94532211Y-87561789D01*
X94663314Y-87649390D01*
X94663327Y-87649397D01*
X94808998Y-87709735D01*
X94809003Y-87709737D01*
X94963653Y-87740499D01*
X94963656Y-87740500D01*
X94963658Y-87740500D01*
X95121344Y-87740500D01*
X95121345Y-87740499D01*
X95275997Y-87709737D01*
X95411764Y-87653501D01*
X95421672Y-87649397D01*
X95421672Y-87649396D01*
X95421679Y-87649394D01*
X95552789Y-87561789D01*
X95664289Y-87450289D01*
X95751894Y-87319179D01*
X95812237Y-87173497D01*
X95843000Y-87018842D01*
X95843000Y-86861158D01*
X95843000Y-86861155D01*
X95842999Y-86861153D01*
X95827674Y-86784112D01*
X95812237Y-86706503D01*
X95802327Y-86682578D01*
X95752439Y-86562136D01*
X95743000Y-86514684D01*
X95743000Y-85991153D01*
X96332000Y-85991153D01*
X96332000Y-86148846D01*
X96362761Y-86303489D01*
X96362764Y-86303501D01*
X96423102Y-86449172D01*
X96423109Y-86449185D01*
X96510710Y-86580288D01*
X96510713Y-86580292D01*
X96622207Y-86691786D01*
X96622211Y-86691789D01*
X96753314Y-86779390D01*
X96753327Y-86779397D01*
X96898998Y-86839735D01*
X96899003Y-86839737D01*
X97053653Y-86870499D01*
X97053656Y-86870500D01*
X97053658Y-86870500D01*
X97211344Y-86870500D01*
X97211345Y-86870499D01*
X97365997Y-86839737D01*
X97511679Y-86779394D01*
X97539956Y-86760500D01*
X97643375Y-86691398D01*
X97710053Y-86670520D01*
X97712266Y-86670500D01*
X99522734Y-86670500D01*
X99589773Y-86690185D01*
X99591625Y-86691398D01*
X99723314Y-86779390D01*
X99723327Y-86779397D01*
X99868998Y-86839735D01*
X99869003Y-86839737D01*
X100023653Y-86870499D01*
X100023656Y-86870500D01*
X100023658Y-86870500D01*
X100181344Y-86870500D01*
X100181345Y-86870499D01*
X100335997Y-86839737D01*
X100481679Y-86779394D01*
X100612789Y-86691789D01*
X100724289Y-86580289D01*
X100811894Y-86449179D01*
X100872237Y-86303497D01*
X100903000Y-86148842D01*
X100903000Y-85991158D01*
X100903000Y-85991155D01*
X100902999Y-85991153D01*
X100872237Y-85836503D01*
X100872235Y-85836498D01*
X100811897Y-85690827D01*
X100811890Y-85690814D01*
X100724289Y-85559711D01*
X100724286Y-85559707D01*
X100612792Y-85448213D01*
X100612788Y-85448210D01*
X100481685Y-85360609D01*
X100481672Y-85360602D01*
X100336001Y-85300264D01*
X100335989Y-85300261D01*
X100181345Y-85269500D01*
X100181342Y-85269500D01*
X100023658Y-85269500D01*
X100023655Y-85269500D01*
X99869010Y-85300261D01*
X99868998Y-85300264D01*
X99723327Y-85360602D01*
X99723314Y-85360609D01*
X99591625Y-85448602D01*
X99524947Y-85469480D01*
X99522734Y-85469500D01*
X97712266Y-85469500D01*
X97645227Y-85449815D01*
X97643375Y-85448602D01*
X97511685Y-85360609D01*
X97511672Y-85360602D01*
X97366001Y-85300264D01*
X97365989Y-85300261D01*
X97211345Y-85269500D01*
X97211342Y-85269500D01*
X97053658Y-85269500D01*
X97053655Y-85269500D01*
X96899010Y-85300261D01*
X96898998Y-85300264D01*
X96753327Y-85360602D01*
X96753314Y-85360609D01*
X96622211Y-85448210D01*
X96622207Y-85448213D01*
X96510713Y-85559707D01*
X96510710Y-85559711D01*
X96423109Y-85690814D01*
X96423102Y-85690827D01*
X96362764Y-85836498D01*
X96362761Y-85836510D01*
X96332000Y-85991153D01*
X95743000Y-85991153D01*
X95743000Y-85345316D01*
X95752439Y-85297864D01*
X95812235Y-85153501D01*
X95812237Y-85153497D01*
X95843000Y-84998842D01*
X95843000Y-84841158D01*
X95843000Y-84841155D01*
X95842999Y-84841153D01*
X95831065Y-84781158D01*
X95812237Y-84686503D01*
X95812235Y-84686498D01*
X95751897Y-84540827D01*
X95751890Y-84540814D01*
X95664289Y-84409711D01*
X95664286Y-84409707D01*
X95552792Y-84298213D01*
X95552788Y-84298210D01*
X95421685Y-84210609D01*
X95421672Y-84210602D01*
X95276001Y-84150264D01*
X95275989Y-84150261D01*
X95121345Y-84119500D01*
X95121342Y-84119500D01*
X94963658Y-84119500D01*
X94963655Y-84119500D01*
X94809010Y-84150261D01*
X94808998Y-84150264D01*
X94663327Y-84210602D01*
X94663314Y-84210609D01*
X94532211Y-84298210D01*
X94532207Y-84298213D01*
X94420713Y-84409707D01*
X94420710Y-84409711D01*
X94333109Y-84540814D01*
X94333102Y-84540827D01*
X94272764Y-84686498D01*
X94272761Y-84686510D01*
X94242000Y-84841153D01*
X89133000Y-84841153D01*
X89133000Y-84781158D01*
X89133000Y-84781155D01*
X89132999Y-84781153D01*
X89102238Y-84626510D01*
X89102237Y-84626503D01*
X89066744Y-84540814D01*
X89041897Y-84480827D01*
X89041890Y-84480814D01*
X88954289Y-84349711D01*
X88954286Y-84349707D01*
X88842792Y-84238213D01*
X88842788Y-84238210D01*
X88711685Y-84150609D01*
X88711672Y-84150602D01*
X88566001Y-84090264D01*
X88565989Y-84090261D01*
X88411345Y-84059500D01*
X88411342Y-84059500D01*
X88253658Y-84059500D01*
X88253655Y-84059500D01*
X88099010Y-84090261D01*
X88098998Y-84090264D01*
X87953327Y-84150602D01*
X87953314Y-84150609D01*
X87822211Y-84238210D01*
X87822207Y-84238213D01*
X87710713Y-84349707D01*
X87710710Y-84349711D01*
X87623109Y-84480814D01*
X87623102Y-84480827D01*
X87562764Y-84626498D01*
X87562761Y-84626510D01*
X87532000Y-84781153D01*
X80823000Y-84781153D01*
X80823000Y-80639765D01*
X80842685Y-80572726D01*
X80843898Y-80570874D01*
X80931890Y-80439185D01*
X80931890Y-80439184D01*
X80931894Y-80439179D01*
X80992237Y-80293497D01*
X81023000Y-80138842D01*
X81023000Y-79981158D01*
X81023000Y-79981155D01*
X81004720Y-79889258D01*
X81004720Y-79889257D01*
X81001119Y-79871153D01*
X110282000Y-79871153D01*
X110282000Y-80028846D01*
X110312761Y-80183489D01*
X110312764Y-80183501D01*
X110373102Y-80329172D01*
X110373109Y-80329185D01*
X110461102Y-80460874D01*
X110481980Y-80527551D01*
X110482000Y-80529765D01*
X110482000Y-85380234D01*
X110462315Y-85447273D01*
X110461102Y-85449125D01*
X110373109Y-85580814D01*
X110373102Y-85580827D01*
X110312764Y-85726498D01*
X110312761Y-85726510D01*
X110282000Y-85881153D01*
X110282000Y-86038846D01*
X110312761Y-86193489D01*
X110312764Y-86193501D01*
X110373102Y-86339172D01*
X110373109Y-86339185D01*
X110460710Y-86470288D01*
X110460713Y-86470292D01*
X110572207Y-86581786D01*
X110572211Y-86581789D01*
X110703314Y-86669390D01*
X110703327Y-86669397D01*
X110848998Y-86729735D01*
X110849003Y-86729737D01*
X111003653Y-86760499D01*
X111003656Y-86760500D01*
X111003658Y-86760500D01*
X111161344Y-86760500D01*
X111161345Y-86760499D01*
X111315997Y-86729737D01*
X111461679Y-86669394D01*
X111592789Y-86581789D01*
X111704289Y-86470289D01*
X111791894Y-86339179D01*
X111852237Y-86193497D01*
X111883000Y-86038842D01*
X111883000Y-85881158D01*
X111883000Y-85881155D01*
X111882999Y-85881153D01*
X111874119Y-85836510D01*
X111852237Y-85726503D01*
X111837454Y-85690814D01*
X111791897Y-85580827D01*
X111791890Y-85580814D01*
X111703898Y-85449125D01*
X111683020Y-85382447D01*
X111683000Y-85380234D01*
X111683000Y-82921153D01*
X126349500Y-82921153D01*
X126349500Y-83078846D01*
X126380261Y-83233489D01*
X126380264Y-83233501D01*
X126440602Y-83379172D01*
X126440609Y-83379185D01*
X126528210Y-83510288D01*
X126528213Y-83510292D01*
X126639707Y-83621786D01*
X126639711Y-83621789D01*
X126770814Y-83709390D01*
X126770827Y-83709397D01*
X126916498Y-83769735D01*
X126916503Y-83769737D01*
X127071153Y-83800499D01*
X127071156Y-83800500D01*
X127071158Y-83800500D01*
X127228844Y-83800500D01*
X127228845Y-83800499D01*
X127383497Y-83769737D01*
X127529179Y-83709394D01*
X127660289Y-83621789D01*
X127771789Y-83510289D01*
X127859394Y-83379179D01*
X127919737Y-83233497D01*
X127950500Y-83078842D01*
X127950500Y-82921158D01*
X127950500Y-82921155D01*
X127950499Y-82921153D01*
X127919738Y-82766510D01*
X127919737Y-82766503D01*
X127859939Y-82622136D01*
X127850500Y-82574684D01*
X127850500Y-78848608D01*
X127870185Y-78781569D01*
X127871361Y-78779771D01*
X127931894Y-78689179D01*
X127992237Y-78543497D01*
X128023000Y-78388842D01*
X128023000Y-78231158D01*
X128023000Y-78231155D01*
X128022999Y-78231153D01*
X127992238Y-78076510D01*
X127992237Y-78076503D01*
X127992235Y-78076498D01*
X127931897Y-77930827D01*
X127931890Y-77930814D01*
X127844289Y-77799711D01*
X127844286Y-77799707D01*
X127732792Y-77688213D01*
X127732788Y-77688210D01*
X127601685Y-77600609D01*
X127601672Y-77600602D01*
X127456001Y-77540264D01*
X127455989Y-77540261D01*
X127301345Y-77509500D01*
X127301342Y-77509500D01*
X127143658Y-77509500D01*
X127143655Y-77509500D01*
X126989010Y-77540261D01*
X126988998Y-77540264D01*
X126843327Y-77600602D01*
X126843314Y-77600609D01*
X126712211Y-77688210D01*
X126712207Y-77688213D01*
X126600713Y-77799707D01*
X126600710Y-77799711D01*
X126513109Y-77930814D01*
X126513102Y-77930827D01*
X126452764Y-78076498D01*
X126452761Y-78076510D01*
X126422000Y-78231153D01*
X126422000Y-78231158D01*
X126422000Y-78388842D01*
X126422000Y-78388844D01*
X126421999Y-78388844D01*
X126447117Y-78515112D01*
X126449500Y-78539304D01*
X126449500Y-82574684D01*
X126440061Y-82622136D01*
X126380264Y-82766498D01*
X126380261Y-82766510D01*
X126349500Y-82921153D01*
X111683000Y-82921153D01*
X111683000Y-80529765D01*
X111702685Y-80462726D01*
X111703898Y-80460874D01*
X111791890Y-80329185D01*
X111791890Y-80329184D01*
X111791894Y-80329179D01*
X111852237Y-80183497D01*
X111883000Y-80028842D01*
X111883000Y-79871158D01*
X111883000Y-79871155D01*
X111882999Y-79871153D01*
X111874119Y-79826510D01*
X111852237Y-79716503D01*
X111837454Y-79680814D01*
X111791897Y-79570827D01*
X111791890Y-79570814D01*
X111740536Y-79493957D01*
X111704289Y-79439711D01*
X111704286Y-79439707D01*
X111695732Y-79431153D01*
X119722000Y-79431153D01*
X119722000Y-79588846D01*
X119752761Y-79743489D01*
X119752764Y-79743501D01*
X119813102Y-79889172D01*
X119813109Y-79889185D01*
X119900710Y-80020288D01*
X119900713Y-80020292D01*
X120012207Y-80131786D01*
X120012211Y-80131789D01*
X120143314Y-80219390D01*
X120143327Y-80219397D01*
X120288998Y-80279735D01*
X120289003Y-80279737D01*
X120443653Y-80310499D01*
X120443656Y-80310500D01*
X120443658Y-80310500D01*
X120601344Y-80310500D01*
X120601345Y-80310499D01*
X120755997Y-80279737D01*
X120901679Y-80219394D01*
X120955415Y-80183489D01*
X121033375Y-80131398D01*
X121100053Y-80110520D01*
X121102266Y-80110500D01*
X122272734Y-80110500D01*
X122339773Y-80130185D01*
X122341625Y-80131398D01*
X122473314Y-80219390D01*
X122473327Y-80219397D01*
X122618998Y-80279735D01*
X122619003Y-80279737D01*
X122773653Y-80310499D01*
X122773656Y-80310500D01*
X122773658Y-80310500D01*
X122931344Y-80310500D01*
X122931345Y-80310499D01*
X123085997Y-80279737D01*
X123231679Y-80219394D01*
X123362789Y-80131789D01*
X123474289Y-80020289D01*
X123561894Y-79889179D01*
X123569359Y-79871158D01*
X123622235Y-79743501D01*
X123622237Y-79743497D01*
X123653000Y-79588842D01*
X123653000Y-79431158D01*
X123653000Y-79431155D01*
X123652999Y-79431153D01*
X123622237Y-79276503D01*
X123615194Y-79259500D01*
X123561897Y-79130827D01*
X123561890Y-79130814D01*
X123474289Y-78999711D01*
X123474286Y-78999707D01*
X123362792Y-78888213D01*
X123362788Y-78888210D01*
X123231685Y-78800609D01*
X123231672Y-78800602D01*
X123086001Y-78740264D01*
X123085989Y-78740261D01*
X122931345Y-78709500D01*
X122931342Y-78709500D01*
X122773658Y-78709500D01*
X122773655Y-78709500D01*
X122619010Y-78740261D01*
X122618998Y-78740264D01*
X122473327Y-78800602D01*
X122473314Y-78800609D01*
X122341625Y-78888602D01*
X122274947Y-78909480D01*
X122272734Y-78909500D01*
X121102266Y-78909500D01*
X121035227Y-78889815D01*
X121033375Y-78888602D01*
X120901685Y-78800609D01*
X120901672Y-78800602D01*
X120756001Y-78740264D01*
X120755989Y-78740261D01*
X120601345Y-78709500D01*
X120601342Y-78709500D01*
X120443658Y-78709500D01*
X120443655Y-78709500D01*
X120289010Y-78740261D01*
X120288998Y-78740264D01*
X120143327Y-78800602D01*
X120143314Y-78800609D01*
X120012211Y-78888210D01*
X120012207Y-78888213D01*
X119900713Y-78999707D01*
X119900710Y-78999711D01*
X119813109Y-79130814D01*
X119813102Y-79130827D01*
X119752764Y-79276498D01*
X119752761Y-79276510D01*
X119722000Y-79431153D01*
X111695732Y-79431153D01*
X111592792Y-79328213D01*
X111592788Y-79328210D01*
X111461685Y-79240609D01*
X111461672Y-79240602D01*
X111316001Y-79180264D01*
X111315989Y-79180261D01*
X111161345Y-79149500D01*
X111161342Y-79149500D01*
X111003658Y-79149500D01*
X111003655Y-79149500D01*
X110849010Y-79180261D01*
X110848998Y-79180264D01*
X110703327Y-79240602D01*
X110703314Y-79240609D01*
X110572211Y-79328210D01*
X110572207Y-79328213D01*
X110460713Y-79439707D01*
X110460710Y-79439711D01*
X110373109Y-79570814D01*
X110373102Y-79570827D01*
X110312764Y-79716498D01*
X110312761Y-79716510D01*
X110282000Y-79871153D01*
X81001119Y-79871153D01*
X80992238Y-79826510D01*
X80992237Y-79826503D01*
X80946672Y-79716498D01*
X80931897Y-79680827D01*
X80931890Y-79680814D01*
X80844289Y-79549711D01*
X80844286Y-79549707D01*
X80732792Y-79438213D01*
X80732788Y-79438210D01*
X80601685Y-79350609D01*
X80601672Y-79350602D01*
X80456001Y-79290264D01*
X80455989Y-79290261D01*
X80301345Y-79259500D01*
X80301342Y-79259500D01*
X80143658Y-79259500D01*
X80143655Y-79259500D01*
X79989010Y-79290261D01*
X79988998Y-79290264D01*
X79843327Y-79350602D01*
X79843314Y-79350609D01*
X79712211Y-79438210D01*
X79712207Y-79438213D01*
X79600713Y-79549707D01*
X79600710Y-79549711D01*
X79513109Y-79680814D01*
X79513102Y-79680827D01*
X79452764Y-79826498D01*
X79452761Y-79826510D01*
X79422000Y-79981153D01*
X68913000Y-79981153D01*
X68913000Y-76707403D01*
X96535750Y-76707403D01*
X96535750Y-76865096D01*
X96566511Y-77019739D01*
X96566514Y-77019751D01*
X96626852Y-77165422D01*
X96626859Y-77165435D01*
X96714460Y-77296538D01*
X96714463Y-77296542D01*
X96825957Y-77408036D01*
X96825961Y-77408039D01*
X96957064Y-77495640D01*
X96957077Y-77495647D01*
X97064794Y-77540264D01*
X97102753Y-77555987D01*
X97257403Y-77586749D01*
X97257406Y-77586750D01*
X97257408Y-77586750D01*
X97415094Y-77586750D01*
X97415095Y-77586749D01*
X97569747Y-77555987D01*
X97715429Y-77495644D01*
X97846539Y-77408039D01*
X97958039Y-77296539D01*
X98045644Y-77165429D01*
X98105443Y-77021058D01*
X98132318Y-76980837D01*
X98456337Y-76656819D01*
X98517660Y-76623334D01*
X98544018Y-76620500D01*
X99957184Y-76620500D01*
X100004636Y-76629939D01*
X100078418Y-76660500D01*
X100149003Y-76689737D01*
X100237841Y-76707408D01*
X100303653Y-76720499D01*
X100303656Y-76720500D01*
X100303658Y-76720500D01*
X100461344Y-76720500D01*
X100461345Y-76720499D01*
X100615997Y-76689737D01*
X100761679Y-76629394D01*
X100892789Y-76541789D01*
X101004289Y-76430289D01*
X101091894Y-76299179D01*
X101152237Y-76153497D01*
X101183000Y-75998842D01*
X101183000Y-75841158D01*
X101183000Y-75841155D01*
X101182999Y-75841153D01*
X101171065Y-75781158D01*
X101152237Y-75686503D01*
X101152235Y-75686498D01*
X101091897Y-75540827D01*
X101091890Y-75540814D01*
X101004289Y-75409711D01*
X101004286Y-75409707D01*
X100892792Y-75298213D01*
X100892788Y-75298210D01*
X100761685Y-75210609D01*
X100761672Y-75210602D01*
X100616001Y-75150264D01*
X100615989Y-75150261D01*
X100461345Y-75119500D01*
X100461342Y-75119500D01*
X100303658Y-75119500D01*
X100303655Y-75119500D01*
X100149010Y-75150261D01*
X100148998Y-75150264D01*
X100004636Y-75210061D01*
X99957184Y-75219500D01*
X98133503Y-75219500D01*
X98031542Y-75239781D01*
X98031534Y-75239783D01*
X98025091Y-75241065D01*
X97998171Y-75246420D01*
X97966594Y-75259500D01*
X97961414Y-75261645D01*
X97961403Y-75261649D01*
X97870691Y-75299223D01*
X97787631Y-75354722D01*
X97787630Y-75354724D01*
X97756779Y-75375337D01*
X97755951Y-75375891D01*
X97141663Y-75990178D01*
X97101435Y-76017058D01*
X96957074Y-76076854D01*
X96957064Y-76076859D01*
X96825961Y-76164460D01*
X96825957Y-76164463D01*
X96714463Y-76275957D01*
X96714460Y-76275961D01*
X96626859Y-76407064D01*
X96626852Y-76407077D01*
X96566514Y-76552748D01*
X96566511Y-76552760D01*
X96535750Y-76707403D01*
X68913000Y-76707403D01*
X68913000Y-75781153D01*
X69182000Y-75781153D01*
X69182000Y-75938846D01*
X69212761Y-76093489D01*
X69212764Y-76093501D01*
X69273102Y-76239172D01*
X69273109Y-76239185D01*
X69360710Y-76370288D01*
X69360713Y-76370292D01*
X69472207Y-76481786D01*
X69472211Y-76481789D01*
X69603314Y-76569390D01*
X69603327Y-76569397D01*
X69748165Y-76629390D01*
X69749003Y-76629737D01*
X69903653Y-76660499D01*
X69903656Y-76660500D01*
X69903658Y-76660500D01*
X70061344Y-76660500D01*
X70061345Y-76660499D01*
X70215997Y-76629737D01*
X70361679Y-76569394D01*
X70386584Y-76552753D01*
X70493375Y-76481398D01*
X70560053Y-76460520D01*
X70562266Y-76460500D01*
X71762734Y-76460500D01*
X71829773Y-76480185D01*
X71831625Y-76481398D01*
X71963314Y-76569390D01*
X71963327Y-76569397D01*
X72108165Y-76629390D01*
X72109003Y-76629737D01*
X72263653Y-76660499D01*
X72263656Y-76660500D01*
X72263658Y-76660500D01*
X72421344Y-76660500D01*
X72421345Y-76660499D01*
X72575997Y-76629737D01*
X72613219Y-76614318D01*
X72679767Y-76586755D01*
X72721672Y-76569397D01*
X72721672Y-76569396D01*
X72721679Y-76569394D01*
X72852789Y-76481789D01*
X72964289Y-76370289D01*
X73051894Y-76239179D01*
X73112237Y-76093497D01*
X73143000Y-75938842D01*
X73143000Y-75781158D01*
X73143000Y-75781155D01*
X73142999Y-75781153D01*
X73112238Y-75626510D01*
X73112237Y-75626503D01*
X73076744Y-75540814D01*
X73051897Y-75480827D01*
X73051890Y-75480814D01*
X72964289Y-75349711D01*
X72964286Y-75349707D01*
X72852792Y-75238213D01*
X72852788Y-75238210D01*
X72721685Y-75150609D01*
X72721672Y-75150602D01*
X72576001Y-75090264D01*
X72575989Y-75090261D01*
X72421345Y-75059500D01*
X72421342Y-75059500D01*
X72263658Y-75059500D01*
X72263655Y-75059500D01*
X72109010Y-75090261D01*
X72108998Y-75090264D01*
X71963327Y-75150602D01*
X71963314Y-75150609D01*
X71831625Y-75238602D01*
X71764947Y-75259480D01*
X71762734Y-75259500D01*
X70562266Y-75259500D01*
X70495227Y-75239815D01*
X70493375Y-75238602D01*
X70361685Y-75150609D01*
X70361672Y-75150602D01*
X70216001Y-75090264D01*
X70215989Y-75090261D01*
X70061345Y-75059500D01*
X70061342Y-75059500D01*
X69903658Y-75059500D01*
X69903655Y-75059500D01*
X69749010Y-75090261D01*
X69748998Y-75090264D01*
X69603327Y-75150602D01*
X69603314Y-75150609D01*
X69472211Y-75238210D01*
X69472207Y-75238213D01*
X69360713Y-75349707D01*
X69360710Y-75349711D01*
X69273109Y-75480814D01*
X69273102Y-75480827D01*
X69212764Y-75626498D01*
X69212761Y-75626510D01*
X69182000Y-75781153D01*
X68913000Y-75781153D01*
X68913000Y-60057844D01*
X85122500Y-60057844D01*
X85128901Y-60117372D01*
X85128903Y-60117379D01*
X85179145Y-60252086D01*
X85179149Y-60252093D01*
X85265309Y-60367187D01*
X85265312Y-60367190D01*
X85380406Y-60453350D01*
X85380413Y-60453354D01*
X85515120Y-60503596D01*
X85515127Y-60503598D01*
X85574655Y-60509999D01*
X85574672Y-60510000D01*
X86122500Y-60510000D01*
X86622500Y-60510000D01*
X87170328Y-60510000D01*
X87170344Y-60509999D01*
X87229872Y-60503598D01*
X87229879Y-60503596D01*
X87364586Y-60453354D01*
X87364593Y-60453350D01*
X87479687Y-60367190D01*
X87479690Y-60367187D01*
X87565850Y-60252093D01*
X87565854Y-60252086D01*
X87616096Y-60117379D01*
X87616098Y-60117372D01*
X87622499Y-60057844D01*
X93622500Y-60057844D01*
X93628901Y-60117372D01*
X93628903Y-60117379D01*
X93679145Y-60252086D01*
X93679149Y-60252093D01*
X93765309Y-60367187D01*
X93765312Y-60367190D01*
X93880406Y-60453350D01*
X93880413Y-60453354D01*
X94015120Y-60503596D01*
X94015127Y-60503598D01*
X94074655Y-60509999D01*
X94074672Y-60510000D01*
X94622500Y-60510000D01*
X95122500Y-60510000D01*
X95670328Y-60510000D01*
X95670344Y-60509999D01*
X95729872Y-60503598D01*
X95729879Y-60503596D01*
X95864586Y-60453354D01*
X95864593Y-60453350D01*
X95979687Y-60367190D01*
X95979690Y-60367187D01*
X96065850Y-60252093D01*
X96065854Y-60252086D01*
X96116096Y-60117379D01*
X96116098Y-60117372D01*
X96122499Y-60057844D01*
X96122500Y-60057827D01*
X96122500Y-60047844D01*
X115992500Y-60047844D01*
X115998901Y-60107372D01*
X115998903Y-60107379D01*
X116049145Y-60242086D01*
X116049149Y-60242093D01*
X116135309Y-60357187D01*
X116135312Y-60357190D01*
X116250406Y-60443350D01*
X116250413Y-60443354D01*
X116385120Y-60493596D01*
X116385127Y-60493598D01*
X116444655Y-60499999D01*
X116444672Y-60500000D01*
X116992500Y-60500000D01*
X117492500Y-60500000D01*
X118040328Y-60500000D01*
X118040344Y-60499999D01*
X118099872Y-60493598D01*
X118099879Y-60493596D01*
X118234586Y-60443354D01*
X118234593Y-60443350D01*
X118349687Y-60357190D01*
X118349690Y-60357187D01*
X118435850Y-60242093D01*
X118435854Y-60242086D01*
X118486096Y-60107379D01*
X118486098Y-60107372D01*
X118492499Y-60047844D01*
X124492500Y-60047844D01*
X124498901Y-60107372D01*
X124498903Y-60107379D01*
X124549145Y-60242086D01*
X124549149Y-60242093D01*
X124635309Y-60357187D01*
X124635312Y-60357190D01*
X124750406Y-60443350D01*
X124750413Y-60443354D01*
X124885120Y-60493596D01*
X124885127Y-60493598D01*
X124944655Y-60499999D01*
X124944672Y-60500000D01*
X125492500Y-60500000D01*
X125992500Y-60500000D01*
X126540328Y-60500000D01*
X126540344Y-60499999D01*
X126599872Y-60493598D01*
X126599879Y-60493596D01*
X126734586Y-60443354D01*
X126734593Y-60443350D01*
X126849687Y-60357190D01*
X126849690Y-60357187D01*
X126935850Y-60242093D01*
X126935854Y-60242086D01*
X126986096Y-60107379D01*
X126986098Y-60107372D01*
X126992499Y-60047844D01*
X126992500Y-60047827D01*
X126992500Y-57710000D01*
X125992500Y-57710000D01*
X125992500Y-60500000D01*
X125492500Y-60500000D01*
X125492500Y-57710000D01*
X124492500Y-57710000D01*
X124492500Y-60047844D01*
X118492499Y-60047844D01*
X118492500Y-60047827D01*
X118492500Y-57710000D01*
X117492500Y-57710000D01*
X117492500Y-60500000D01*
X116992500Y-60500000D01*
X116992500Y-57710000D01*
X115992500Y-57710000D01*
X115992500Y-60047844D01*
X96122500Y-60047844D01*
X96122500Y-57720000D01*
X95122500Y-57720000D01*
X95122500Y-60510000D01*
X94622500Y-60510000D01*
X94622500Y-57720000D01*
X93622500Y-57720000D01*
X93622500Y-60057844D01*
X87622499Y-60057844D01*
X87622500Y-60057827D01*
X87622500Y-57720000D01*
X86622500Y-57720000D01*
X86622500Y-60510000D01*
X86122500Y-60510000D01*
X86122500Y-57720000D01*
X85122500Y-57720000D01*
X85122500Y-60057844D01*
X68913000Y-60057844D01*
X68913000Y-55234500D01*
X68932685Y-55167461D01*
X68985489Y-55121706D01*
X69037000Y-55110500D01*
X84998500Y-55110500D01*
X85065539Y-55130185D01*
G37*
%TD.AperFunction*%
%TD*%
M02*
