%TF.GenerationSoftware,KiCad,Pcbnew,9.0.3*%
%TF.CreationDate,2026-08-06T01:27:26+05:30*%
%TF.ProjectId,V2,56322e6b-6963-4616-945f-706362585858,rev?*%
%TF.SameCoordinates,Original*%
%TF.FileFunction,Legend,Top*%
%TF.FilePolarity,Positive*%
%FSLAX46Y46*%
G04 Gerber Fmt 4.6, Leading zero omitted, Abs format (unit mm)*
G04 Created by KiCad (PCBNEW 9.0.3) date 2026-08-06 01:27:26*
%MOMM*%
%LPD*%
G01*
G04 APERTURE LIST*
%ADD10C,0.150000*%
%ADD11C,0.050000*%
%ADD12C,0.120000*%
%ADD13C,0.152400*%
%ADD14C,0.203200*%
G04 APERTURE END LIST*
D10*
X117219642Y-110264819D02*
X116886309Y-109788628D01*
X116648214Y-110264819D02*
X116648214Y-109264819D01*
X116648214Y-109264819D02*
X117029166Y-109264819D01*
X117029166Y-109264819D02*
X117124404Y-109312438D01*
X117124404Y-109312438D02*
X117172023Y-109360057D01*
X117172023Y-109360057D02*
X117219642Y-109455295D01*
X117219642Y-109455295D02*
X117219642Y-109598152D01*
X117219642Y-109598152D02*
X117172023Y-109693390D01*
X117172023Y-109693390D02*
X117124404Y-109741009D01*
X117124404Y-109741009D02*
X117029166Y-109788628D01*
X117029166Y-109788628D02*
X116648214Y-109788628D01*
X117600595Y-109360057D02*
X117648214Y-109312438D01*
X117648214Y-109312438D02*
X117743452Y-109264819D01*
X117743452Y-109264819D02*
X117981547Y-109264819D01*
X117981547Y-109264819D02*
X118076785Y-109312438D01*
X118076785Y-109312438D02*
X118124404Y-109360057D01*
X118124404Y-109360057D02*
X118172023Y-109455295D01*
X118172023Y-109455295D02*
X118172023Y-109550533D01*
X118172023Y-109550533D02*
X118124404Y-109693390D01*
X118124404Y-109693390D02*
X117552976Y-110264819D01*
X117552976Y-110264819D02*
X118172023Y-110264819D01*
X119029166Y-109598152D02*
X119029166Y-110264819D01*
X118791071Y-109217200D02*
X118552976Y-109931485D01*
X118552976Y-109931485D02*
X119172023Y-109931485D01*
X72939700Y-80712332D02*
X72987319Y-80569475D01*
X72987319Y-80569475D02*
X72987319Y-80331380D01*
X72987319Y-80331380D02*
X72939700Y-80236142D01*
X72939700Y-80236142D02*
X72892080Y-80188523D01*
X72892080Y-80188523D02*
X72796842Y-80140904D01*
X72796842Y-80140904D02*
X72701604Y-80140904D01*
X72701604Y-80140904D02*
X72606366Y-80188523D01*
X72606366Y-80188523D02*
X72558747Y-80236142D01*
X72558747Y-80236142D02*
X72511128Y-80331380D01*
X72511128Y-80331380D02*
X72463509Y-80521856D01*
X72463509Y-80521856D02*
X72415890Y-80617094D01*
X72415890Y-80617094D02*
X72368271Y-80664713D01*
X72368271Y-80664713D02*
X72273033Y-80712332D01*
X72273033Y-80712332D02*
X72177795Y-80712332D01*
X72177795Y-80712332D02*
X72082557Y-80664713D01*
X72082557Y-80664713D02*
X72034938Y-80617094D01*
X72034938Y-80617094D02*
X71987319Y-80521856D01*
X71987319Y-80521856D02*
X71987319Y-80283761D01*
X71987319Y-80283761D02*
X72034938Y-80140904D01*
X71987319Y-79807570D02*
X72987319Y-79569475D01*
X72987319Y-79569475D02*
X72273033Y-79378999D01*
X72273033Y-79378999D02*
X72987319Y-79188523D01*
X72987319Y-79188523D02*
X71987319Y-78950428D01*
X72082557Y-78617094D02*
X72034938Y-78569475D01*
X72034938Y-78569475D02*
X71987319Y-78474237D01*
X71987319Y-78474237D02*
X71987319Y-78236142D01*
X71987319Y-78236142D02*
X72034938Y-78140904D01*
X72034938Y-78140904D02*
X72082557Y-78093285D01*
X72082557Y-78093285D02*
X72177795Y-78045666D01*
X72177795Y-78045666D02*
X72273033Y-78045666D01*
X72273033Y-78045666D02*
X72415890Y-78093285D01*
X72415890Y-78093285D02*
X72987319Y-78664713D01*
X72987319Y-78664713D02*
X72987319Y-78045666D01*
X104409700Y-80743332D02*
X104457319Y-80600475D01*
X104457319Y-80600475D02*
X104457319Y-80362380D01*
X104457319Y-80362380D02*
X104409700Y-80267142D01*
X104409700Y-80267142D02*
X104362080Y-80219523D01*
X104362080Y-80219523D02*
X104266842Y-80171904D01*
X104266842Y-80171904D02*
X104171604Y-80171904D01*
X104171604Y-80171904D02*
X104076366Y-80219523D01*
X104076366Y-80219523D02*
X104028747Y-80267142D01*
X104028747Y-80267142D02*
X103981128Y-80362380D01*
X103981128Y-80362380D02*
X103933509Y-80552856D01*
X103933509Y-80552856D02*
X103885890Y-80648094D01*
X103885890Y-80648094D02*
X103838271Y-80695713D01*
X103838271Y-80695713D02*
X103743033Y-80743332D01*
X103743033Y-80743332D02*
X103647795Y-80743332D01*
X103647795Y-80743332D02*
X103552557Y-80695713D01*
X103552557Y-80695713D02*
X103504938Y-80648094D01*
X103504938Y-80648094D02*
X103457319Y-80552856D01*
X103457319Y-80552856D02*
X103457319Y-80314761D01*
X103457319Y-80314761D02*
X103504938Y-80171904D01*
X103457319Y-79838570D02*
X104457319Y-79600475D01*
X104457319Y-79600475D02*
X103743033Y-79409999D01*
X103743033Y-79409999D02*
X104457319Y-79219523D01*
X104457319Y-79219523D02*
X103457319Y-78981428D01*
X103790652Y-78171904D02*
X104457319Y-78171904D01*
X103409700Y-78409999D02*
X104123985Y-78648094D01*
X104123985Y-78648094D02*
X104123985Y-78029047D01*
X103615300Y-70826667D02*
X103567680Y-70969524D01*
X103567680Y-70969524D02*
X103567680Y-71207619D01*
X103567680Y-71207619D02*
X103615300Y-71302857D01*
X103615300Y-71302857D02*
X103662919Y-71350476D01*
X103662919Y-71350476D02*
X103758157Y-71398095D01*
X103758157Y-71398095D02*
X103853395Y-71398095D01*
X103853395Y-71398095D02*
X103948633Y-71350476D01*
X103948633Y-71350476D02*
X103996252Y-71302857D01*
X103996252Y-71302857D02*
X104043871Y-71207619D01*
X104043871Y-71207619D02*
X104091490Y-71017143D01*
X104091490Y-71017143D02*
X104139109Y-70921905D01*
X104139109Y-70921905D02*
X104186728Y-70874286D01*
X104186728Y-70874286D02*
X104281966Y-70826667D01*
X104281966Y-70826667D02*
X104377204Y-70826667D01*
X104377204Y-70826667D02*
X104472442Y-70874286D01*
X104472442Y-70874286D02*
X104520061Y-70921905D01*
X104520061Y-70921905D02*
X104567680Y-71017143D01*
X104567680Y-71017143D02*
X104567680Y-71255238D01*
X104567680Y-71255238D02*
X104520061Y-71398095D01*
X104567680Y-71731429D02*
X103567680Y-71969524D01*
X103567680Y-71969524D02*
X104281966Y-72160000D01*
X104281966Y-72160000D02*
X103567680Y-72350476D01*
X103567680Y-72350476D02*
X104567680Y-72588572D01*
X104567680Y-72874286D02*
X104567680Y-73493333D01*
X104567680Y-73493333D02*
X104186728Y-73160000D01*
X104186728Y-73160000D02*
X104186728Y-73302857D01*
X104186728Y-73302857D02*
X104139109Y-73398095D01*
X104139109Y-73398095D02*
X104091490Y-73445714D01*
X104091490Y-73445714D02*
X103996252Y-73493333D01*
X103996252Y-73493333D02*
X103758157Y-73493333D01*
X103758157Y-73493333D02*
X103662919Y-73445714D01*
X103662919Y-73445714D02*
X103615300Y-73398095D01*
X103615300Y-73398095D02*
X103567680Y-73302857D01*
X103567680Y-73302857D02*
X103567680Y-73017143D01*
X103567680Y-73017143D02*
X103615300Y-72921905D01*
X103615300Y-72921905D02*
X103662919Y-72874286D01*
D11*
X113262976Y-113170876D02*
X113253452Y-113180400D01*
X113253452Y-113180400D02*
X113224881Y-113189923D01*
X113224881Y-113189923D02*
X113205833Y-113189923D01*
X113205833Y-113189923D02*
X113177262Y-113180400D01*
X113177262Y-113180400D02*
X113158214Y-113161352D01*
X113158214Y-113161352D02*
X113148691Y-113142304D01*
X113148691Y-113142304D02*
X113139167Y-113104209D01*
X113139167Y-113104209D02*
X113139167Y-113075638D01*
X113139167Y-113075638D02*
X113148691Y-113037542D01*
X113148691Y-113037542D02*
X113158214Y-113018495D01*
X113158214Y-113018495D02*
X113177262Y-112999447D01*
X113177262Y-112999447D02*
X113205833Y-112989923D01*
X113205833Y-112989923D02*
X113224881Y-112989923D01*
X113224881Y-112989923D02*
X113253452Y-112999447D01*
X113253452Y-112999447D02*
X113262976Y-113008971D01*
X113348691Y-113189923D02*
X113348691Y-112989923D01*
X113348691Y-113085161D02*
X113462976Y-113085161D01*
X113462976Y-113189923D02*
X113462976Y-112989923D01*
X113539167Y-112989923D02*
X113662976Y-112989923D01*
X113662976Y-112989923D02*
X113596310Y-113066114D01*
X113596310Y-113066114D02*
X113624881Y-113066114D01*
X113624881Y-113066114D02*
X113643929Y-113075638D01*
X113643929Y-113075638D02*
X113653453Y-113085161D01*
X113653453Y-113085161D02*
X113662976Y-113104209D01*
X113662976Y-113104209D02*
X113662976Y-113151828D01*
X113662976Y-113151828D02*
X113653453Y-113170876D01*
X113653453Y-113170876D02*
X113643929Y-113180400D01*
X113643929Y-113180400D02*
X113624881Y-113189923D01*
X113624881Y-113189923D02*
X113567738Y-113189923D01*
X113567738Y-113189923D02*
X113548691Y-113180400D01*
X113548691Y-113180400D02*
X113539167Y-113170876D01*
X113729643Y-112989923D02*
X113853452Y-112989923D01*
X113853452Y-112989923D02*
X113786786Y-113066114D01*
X113786786Y-113066114D02*
X113815357Y-113066114D01*
X113815357Y-113066114D02*
X113834405Y-113075638D01*
X113834405Y-113075638D02*
X113843929Y-113085161D01*
X113843929Y-113085161D02*
X113853452Y-113104209D01*
X113853452Y-113104209D02*
X113853452Y-113151828D01*
X113853452Y-113151828D02*
X113843929Y-113170876D01*
X113843929Y-113170876D02*
X113834405Y-113180400D01*
X113834405Y-113180400D02*
X113815357Y-113189923D01*
X113815357Y-113189923D02*
X113758214Y-113189923D01*
X113758214Y-113189923D02*
X113739167Y-113180400D01*
X113739167Y-113180400D02*
X113729643Y-113170876D01*
X114024881Y-113056590D02*
X114024881Y-113189923D01*
X113977262Y-112980400D02*
X113929643Y-113123257D01*
X113929643Y-113123257D02*
X114053452Y-113123257D01*
X114196309Y-113085161D02*
X114129643Y-113085161D01*
X114129643Y-113189923D02*
X114129643Y-112989923D01*
X114129643Y-112989923D02*
X114224881Y-112989923D01*
X114405833Y-113189923D02*
X114291548Y-113189923D01*
X114348691Y-113189923D02*
X114348691Y-112989923D01*
X114348691Y-112989923D02*
X114329643Y-113018495D01*
X114329643Y-113018495D02*
X114310595Y-113037542D01*
X114310595Y-113037542D02*
X114291548Y-113047066D01*
D10*
X102594819Y-94336666D02*
X102118628Y-94669999D01*
X102594819Y-94908094D02*
X101594819Y-94908094D01*
X101594819Y-94908094D02*
X101594819Y-94527142D01*
X101594819Y-94527142D02*
X101642438Y-94431904D01*
X101642438Y-94431904D02*
X101690057Y-94384285D01*
X101690057Y-94384285D02*
X101785295Y-94336666D01*
X101785295Y-94336666D02*
X101928152Y-94336666D01*
X101928152Y-94336666D02*
X102023390Y-94384285D01*
X102023390Y-94384285D02*
X102071009Y-94431904D01*
X102071009Y-94431904D02*
X102118628Y-94527142D01*
X102118628Y-94527142D02*
X102118628Y-94908094D01*
X101594819Y-93431904D02*
X101594819Y-93908094D01*
X101594819Y-93908094D02*
X102071009Y-93955713D01*
X102071009Y-93955713D02*
X102023390Y-93908094D01*
X102023390Y-93908094D02*
X101975771Y-93812856D01*
X101975771Y-93812856D02*
X101975771Y-93574761D01*
X101975771Y-93574761D02*
X102023390Y-93479523D01*
X102023390Y-93479523D02*
X102071009Y-93431904D01*
X102071009Y-93431904D02*
X102166247Y-93384285D01*
X102166247Y-93384285D02*
X102404342Y-93384285D01*
X102404342Y-93384285D02*
X102499580Y-93431904D01*
X102499580Y-93431904D02*
X102547200Y-93479523D01*
X102547200Y-93479523D02*
X102594819Y-93574761D01*
X102594819Y-93574761D02*
X102594819Y-93812856D01*
X102594819Y-93812856D02*
X102547200Y-93908094D01*
X102547200Y-93908094D02*
X102499580Y-93955713D01*
X85974819Y-99652857D02*
X85498628Y-99986190D01*
X85974819Y-100224285D02*
X84974819Y-100224285D01*
X84974819Y-100224285D02*
X84974819Y-99843333D01*
X84974819Y-99843333D02*
X85022438Y-99748095D01*
X85022438Y-99748095D02*
X85070057Y-99700476D01*
X85070057Y-99700476D02*
X85165295Y-99652857D01*
X85165295Y-99652857D02*
X85308152Y-99652857D01*
X85308152Y-99652857D02*
X85403390Y-99700476D01*
X85403390Y-99700476D02*
X85451009Y-99748095D01*
X85451009Y-99748095D02*
X85498628Y-99843333D01*
X85498628Y-99843333D02*
X85498628Y-100224285D01*
X85974819Y-98700476D02*
X85974819Y-99271904D01*
X85974819Y-98986190D02*
X84974819Y-98986190D01*
X84974819Y-98986190D02*
X85117676Y-99081428D01*
X85117676Y-99081428D02*
X85212914Y-99176666D01*
X85212914Y-99176666D02*
X85260533Y-99271904D01*
X85974819Y-98224285D02*
X85974819Y-98033809D01*
X85974819Y-98033809D02*
X85927200Y-97938571D01*
X85927200Y-97938571D02*
X85879580Y-97890952D01*
X85879580Y-97890952D02*
X85736723Y-97795714D01*
X85736723Y-97795714D02*
X85546247Y-97748095D01*
X85546247Y-97748095D02*
X85165295Y-97748095D01*
X85165295Y-97748095D02*
X85070057Y-97795714D01*
X85070057Y-97795714D02*
X85022438Y-97843333D01*
X85022438Y-97843333D02*
X84974819Y-97938571D01*
X84974819Y-97938571D02*
X84974819Y-98129047D01*
X84974819Y-98129047D02*
X85022438Y-98224285D01*
X85022438Y-98224285D02*
X85070057Y-98271904D01*
X85070057Y-98271904D02*
X85165295Y-98319523D01*
X85165295Y-98319523D02*
X85403390Y-98319523D01*
X85403390Y-98319523D02*
X85498628Y-98271904D01*
X85498628Y-98271904D02*
X85546247Y-98224285D01*
X85546247Y-98224285D02*
X85593866Y-98129047D01*
X85593866Y-98129047D02*
X85593866Y-97938571D01*
X85593866Y-97938571D02*
X85546247Y-97843333D01*
X85546247Y-97843333D02*
X85498628Y-97795714D01*
X85498628Y-97795714D02*
X85403390Y-97748095D01*
X72175300Y-70846667D02*
X72127680Y-70989524D01*
X72127680Y-70989524D02*
X72127680Y-71227619D01*
X72127680Y-71227619D02*
X72175300Y-71322857D01*
X72175300Y-71322857D02*
X72222919Y-71370476D01*
X72222919Y-71370476D02*
X72318157Y-71418095D01*
X72318157Y-71418095D02*
X72413395Y-71418095D01*
X72413395Y-71418095D02*
X72508633Y-71370476D01*
X72508633Y-71370476D02*
X72556252Y-71322857D01*
X72556252Y-71322857D02*
X72603871Y-71227619D01*
X72603871Y-71227619D02*
X72651490Y-71037143D01*
X72651490Y-71037143D02*
X72699109Y-70941905D01*
X72699109Y-70941905D02*
X72746728Y-70894286D01*
X72746728Y-70894286D02*
X72841966Y-70846667D01*
X72841966Y-70846667D02*
X72937204Y-70846667D01*
X72937204Y-70846667D02*
X73032442Y-70894286D01*
X73032442Y-70894286D02*
X73080061Y-70941905D01*
X73080061Y-70941905D02*
X73127680Y-71037143D01*
X73127680Y-71037143D02*
X73127680Y-71275238D01*
X73127680Y-71275238D02*
X73080061Y-71418095D01*
X73127680Y-71751429D02*
X72127680Y-71989524D01*
X72127680Y-71989524D02*
X72841966Y-72180000D01*
X72841966Y-72180000D02*
X72127680Y-72370476D01*
X72127680Y-72370476D02*
X73127680Y-72608572D01*
X72127680Y-73513333D02*
X72127680Y-72941905D01*
X72127680Y-73227619D02*
X73127680Y-73227619D01*
X73127680Y-73227619D02*
X72984823Y-73132381D01*
X72984823Y-73132381D02*
X72889585Y-73037143D01*
X72889585Y-73037143D02*
X72841966Y-72941905D01*
X94134819Y-69505594D02*
X93134819Y-69505594D01*
X93134819Y-69505594D02*
X93134819Y-69267499D01*
X93134819Y-69267499D02*
X93182438Y-69124642D01*
X93182438Y-69124642D02*
X93277676Y-69029404D01*
X93277676Y-69029404D02*
X93372914Y-68981785D01*
X93372914Y-68981785D02*
X93563390Y-68934166D01*
X93563390Y-68934166D02*
X93706247Y-68934166D01*
X93706247Y-68934166D02*
X93896723Y-68981785D01*
X93896723Y-68981785D02*
X93991961Y-69029404D01*
X93991961Y-69029404D02*
X94087200Y-69124642D01*
X94087200Y-69124642D02*
X94134819Y-69267499D01*
X94134819Y-69267499D02*
X94134819Y-69505594D01*
X93134819Y-68029404D02*
X93134819Y-68505594D01*
X93134819Y-68505594D02*
X93611009Y-68553213D01*
X93611009Y-68553213D02*
X93563390Y-68505594D01*
X93563390Y-68505594D02*
X93515771Y-68410356D01*
X93515771Y-68410356D02*
X93515771Y-68172261D01*
X93515771Y-68172261D02*
X93563390Y-68077023D01*
X93563390Y-68077023D02*
X93611009Y-68029404D01*
X93611009Y-68029404D02*
X93706247Y-67981785D01*
X93706247Y-67981785D02*
X93944342Y-67981785D01*
X93944342Y-67981785D02*
X94039580Y-68029404D01*
X94039580Y-68029404D02*
X94087200Y-68077023D01*
X94087200Y-68077023D02*
X94134819Y-68172261D01*
X94134819Y-68172261D02*
X94134819Y-68410356D01*
X94134819Y-68410356D02*
X94087200Y-68505594D01*
X94087200Y-68505594D02*
X94039580Y-68553213D01*
X96389819Y-125002594D02*
X95389819Y-125002594D01*
X95389819Y-125002594D02*
X95389819Y-124764499D01*
X95389819Y-124764499D02*
X95437438Y-124621642D01*
X95437438Y-124621642D02*
X95532676Y-124526404D01*
X95532676Y-124526404D02*
X95627914Y-124478785D01*
X95627914Y-124478785D02*
X95818390Y-124431166D01*
X95818390Y-124431166D02*
X95961247Y-124431166D01*
X95961247Y-124431166D02*
X96151723Y-124478785D01*
X96151723Y-124478785D02*
X96246961Y-124526404D01*
X96246961Y-124526404D02*
X96342200Y-124621642D01*
X96342200Y-124621642D02*
X96389819Y-124764499D01*
X96389819Y-124764499D02*
X96389819Y-125002594D01*
X96389819Y-123954975D02*
X96389819Y-123764499D01*
X96389819Y-123764499D02*
X96342200Y-123669261D01*
X96342200Y-123669261D02*
X96294580Y-123621642D01*
X96294580Y-123621642D02*
X96151723Y-123526404D01*
X96151723Y-123526404D02*
X95961247Y-123478785D01*
X95961247Y-123478785D02*
X95580295Y-123478785D01*
X95580295Y-123478785D02*
X95485057Y-123526404D01*
X95485057Y-123526404D02*
X95437438Y-123574023D01*
X95437438Y-123574023D02*
X95389819Y-123669261D01*
X95389819Y-123669261D02*
X95389819Y-123859737D01*
X95389819Y-123859737D02*
X95437438Y-123954975D01*
X95437438Y-123954975D02*
X95485057Y-124002594D01*
X95485057Y-124002594D02*
X95580295Y-124050213D01*
X95580295Y-124050213D02*
X95818390Y-124050213D01*
X95818390Y-124050213D02*
X95913628Y-124002594D01*
X95913628Y-124002594D02*
X95961247Y-123954975D01*
X95961247Y-123954975D02*
X96008866Y-123859737D01*
X96008866Y-123859737D02*
X96008866Y-123669261D01*
X96008866Y-123669261D02*
X95961247Y-123574023D01*
X95961247Y-123574023D02*
X95913628Y-123526404D01*
X95913628Y-123526404D02*
X95818390Y-123478785D01*
X75341905Y-68844819D02*
X75341905Y-67844819D01*
X75341905Y-67844819D02*
X75580000Y-67844819D01*
X75580000Y-67844819D02*
X75722857Y-67892438D01*
X75722857Y-67892438D02*
X75818095Y-67987676D01*
X75818095Y-67987676D02*
X75865714Y-68082914D01*
X75865714Y-68082914D02*
X75913333Y-68273390D01*
X75913333Y-68273390D02*
X75913333Y-68416247D01*
X75913333Y-68416247D02*
X75865714Y-68606723D01*
X75865714Y-68606723D02*
X75818095Y-68701961D01*
X75818095Y-68701961D02*
X75722857Y-68797200D01*
X75722857Y-68797200D02*
X75580000Y-68844819D01*
X75580000Y-68844819D02*
X75341905Y-68844819D01*
X76865714Y-68844819D02*
X76294286Y-68844819D01*
X76580000Y-68844819D02*
X76580000Y-67844819D01*
X76580000Y-67844819D02*
X76484762Y-67987676D01*
X76484762Y-67987676D02*
X76389524Y-68082914D01*
X76389524Y-68082914D02*
X76294286Y-68130533D01*
X120479642Y-74264819D02*
X120146309Y-73788628D01*
X119908214Y-74264819D02*
X119908214Y-73264819D01*
X119908214Y-73264819D02*
X120289166Y-73264819D01*
X120289166Y-73264819D02*
X120384404Y-73312438D01*
X120384404Y-73312438D02*
X120432023Y-73360057D01*
X120432023Y-73360057D02*
X120479642Y-73455295D01*
X120479642Y-73455295D02*
X120479642Y-73598152D01*
X120479642Y-73598152D02*
X120432023Y-73693390D01*
X120432023Y-73693390D02*
X120384404Y-73741009D01*
X120384404Y-73741009D02*
X120289166Y-73788628D01*
X120289166Y-73788628D02*
X119908214Y-73788628D01*
X121432023Y-74264819D02*
X120860595Y-74264819D01*
X121146309Y-74264819D02*
X121146309Y-73264819D01*
X121146309Y-73264819D02*
X121051071Y-73407676D01*
X121051071Y-73407676D02*
X120955833Y-73502914D01*
X120955833Y-73502914D02*
X120860595Y-73550533D01*
X122384404Y-74264819D02*
X121812976Y-74264819D01*
X122098690Y-74264819D02*
X122098690Y-73264819D01*
X122098690Y-73264819D02*
X122003452Y-73407676D01*
X122003452Y-73407676D02*
X121908214Y-73502914D01*
X121908214Y-73502914D02*
X121812976Y-73550533D01*
D12*
%TO.C,C31*%
X91362500Y-71452164D02*
X91362500Y-71667836D01*
X92082500Y-71452164D02*
X92082500Y-71667836D01*
%TO.C,FB1*%
X101450378Y-120150000D02*
X102249622Y-120150000D01*
X101450378Y-121270000D02*
X102249622Y-121270000D01*
%TO.C,D15*%
X106300000Y-68990000D02*
X106300000Y-70190000D01*
X108260000Y-68990000D02*
X106300000Y-68990000D01*
X108260000Y-70190000D02*
X106300000Y-70190000D01*
%TO.C,C50*%
X108089664Y-106785000D02*
X108305336Y-106785000D01*
X108089664Y-107505000D02*
X108305336Y-107505000D01*
%TO.C,R8*%
X95438859Y-102360000D02*
X95746141Y-102360000D01*
X95438859Y-103120000D02*
X95746141Y-103120000D01*
%TO.C,C49*%
X107463080Y-71550000D02*
X107181920Y-71550000D01*
X107463080Y-72570000D02*
X107181920Y-72570000D01*
%TO.C,R24*%
X118016141Y-108260000D02*
X117708859Y-108260000D01*
X118016141Y-109020000D02*
X117708859Y-109020000D01*
%TO.C,U3*%
X110532500Y-79580000D02*
X108582500Y-79580000D01*
X110532500Y-79580000D02*
X112482500Y-79580000D01*
X110532500Y-84700000D02*
X108582500Y-84700000D01*
X110532500Y-84700000D02*
X112482500Y-84700000D01*
X107832500Y-79675000D02*
X107592500Y-79345000D01*
X108072500Y-79345000D01*
X107832500Y-79675000D01*
G36*
X107832500Y-79675000D02*
G01*
X107592500Y-79345000D01*
X108072500Y-79345000D01*
X107832500Y-79675000D01*
G37*
%TO.C,C2*%
X77972500Y-68005580D02*
X77972500Y-67724420D01*
X78992500Y-68005580D02*
X78992500Y-67724420D01*
%TO.C,C34*%
X119382500Y-113002164D02*
X119382500Y-113217836D01*
X120102500Y-113002164D02*
X120102500Y-113217836D01*
%TO.C,C39*%
X112102500Y-68267836D02*
X112102500Y-68052164D01*
X112822500Y-68267836D02*
X112822500Y-68052164D01*
%TO.C,C54*%
X95492500Y-104767836D02*
X95492500Y-104552164D01*
X96212500Y-104767836D02*
X96212500Y-104552164D01*
%TO.C,C28*%
X103832500Y-124217836D02*
X103832500Y-124002164D01*
X104552500Y-124217836D02*
X104552500Y-124002164D01*
D13*
%TO.C,SW2*%
X71008500Y-77347000D02*
X71008500Y-81411000D01*
X71008500Y-81411000D02*
X71437760Y-81411000D01*
X71437760Y-77347000D02*
X71008500Y-77347000D01*
X73627240Y-81411000D02*
X74056500Y-81411000D01*
X74056500Y-77347000D02*
X73627240Y-77347000D01*
X74056500Y-81411000D02*
X74056500Y-77347000D01*
X72608700Y-82947700D02*
G75*
G02*
X72456300Y-82947700I-76200J0D01*
G01*
X72456300Y-82947700D02*
G75*
G02*
X72608700Y-82947700I76200J0D01*
G01*
D12*
%TO.C,R20*%
X88760000Y-94253641D02*
X88760000Y-93946359D01*
X89520000Y-94253641D02*
X89520000Y-93946359D01*
%TO.C,R14*%
X115102500Y-125673641D02*
X115102500Y-125366359D01*
X115862500Y-125673641D02*
X115862500Y-125366359D01*
%TO.C,C15*%
X91632500Y-69107836D02*
X91632500Y-68892164D01*
X92352500Y-69107836D02*
X92352500Y-68892164D01*
D13*
%TO.C,SW4*%
X102478500Y-77378000D02*
X102478500Y-81442000D01*
X102478500Y-81442000D02*
X102907760Y-81442000D01*
X102907760Y-77378000D02*
X102478500Y-77378000D01*
X105097240Y-81442000D02*
X105526500Y-81442000D01*
X105526500Y-77378000D02*
X105097240Y-77378000D01*
X105526500Y-81442000D02*
X105526500Y-77378000D01*
X104078700Y-82978700D02*
G75*
G02*
X103926300Y-82978700I-76200J0D01*
G01*
X103926300Y-82978700D02*
G75*
G02*
X104078700Y-82978700I76200J0D01*
G01*
D12*
%TO.C,C38*%
X110682500Y-68010580D02*
X110682500Y-67729420D01*
X111702500Y-68010580D02*
X111702500Y-67729420D01*
%TO.C,D7*%
X123457500Y-111570000D02*
X123457500Y-113490000D01*
X123457500Y-113490000D02*
X126142500Y-113490000D01*
X126142500Y-111570000D02*
X123457500Y-111570000D01*
%TO.C,U2*%
X79627500Y-79665000D02*
X77677500Y-79665000D01*
X79627500Y-79665000D02*
X81577500Y-79665000D01*
X79627500Y-84785000D02*
X77677500Y-84785000D01*
X79627500Y-84785000D02*
X81577500Y-84785000D01*
X76927500Y-79760000D02*
X76687500Y-79430000D01*
X77167500Y-79430000D01*
X76927500Y-79760000D01*
G36*
X76927500Y-79760000D02*
G01*
X76687500Y-79430000D01*
X77167500Y-79430000D01*
X76927500Y-79760000D01*
G37*
%TO.C,R18*%
X98410000Y-99476359D02*
X98410000Y-99783641D01*
X99170000Y-99476359D02*
X99170000Y-99783641D01*
%TO.C,Y3*%
X95532500Y-72970000D02*
X91412500Y-72970000D01*
X95532500Y-76390000D02*
X95532500Y-72970000D01*
%TO.C,C7*%
X80982500Y-68267836D02*
X80982500Y-68052164D01*
X81702500Y-68267836D02*
X81702500Y-68052164D01*
%TO.C,C13*%
X89962500Y-68840580D02*
X89962500Y-68559420D01*
X90982500Y-68840580D02*
X90982500Y-68559420D01*
%TO.C,Q4*%
X102162500Y-96070000D02*
X102162500Y-95420000D01*
X102162500Y-96070000D02*
X102162500Y-96720000D01*
X105282500Y-96070000D02*
X105282500Y-95420000D01*
X105282500Y-96070000D02*
X105282500Y-96720000D01*
X102212500Y-97232500D02*
X101882500Y-97472500D01*
X101882500Y-96992500D01*
X102212500Y-97232500D01*
G36*
X102212500Y-97232500D02*
G01*
X101882500Y-97472500D01*
X101882500Y-96992500D01*
X102212500Y-97232500D01*
G37*
D13*
%TO.C,SW3*%
X102498500Y-70128000D02*
X102498500Y-74192000D01*
X102498500Y-74192000D02*
X102927760Y-74192000D01*
X102927760Y-70128000D02*
X102498500Y-70128000D01*
X105117240Y-74192000D02*
X105546500Y-74192000D01*
X105546500Y-70128000D02*
X105117240Y-70128000D01*
X105546500Y-74192000D02*
X105546500Y-70128000D01*
X104098700Y-68591300D02*
G75*
G02*
X103946300Y-68591300I-76200J0D01*
G01*
X103946300Y-68591300D02*
G75*
G02*
X104098700Y-68591300I76200J0D01*
G01*
D12*
%TO.C,R1*%
X107337500Y-108441359D02*
X107337500Y-108748641D01*
X108097500Y-108441359D02*
X108097500Y-108748641D01*
%TO.C,C9*%
X80622500Y-73087836D02*
X80622500Y-72872164D01*
X81342500Y-73087836D02*
X81342500Y-72872164D01*
%TO.C,C36*%
X125034664Y-70700000D02*
X125250336Y-70700000D01*
X125034664Y-71420000D02*
X125250336Y-71420000D01*
%TO.C,C32*%
X94214664Y-70720000D02*
X94430336Y-70720000D01*
X94214664Y-71440000D02*
X94430336Y-71440000D01*
%TO.C,D2*%
X78872500Y-77020000D02*
X78872500Y-78980000D01*
X78872500Y-78980000D02*
X80072500Y-78980000D01*
X80072500Y-77020000D02*
X80072500Y-78980000D01*
%TO.C,C11*%
X81863080Y-77545000D02*
X81581920Y-77545000D01*
X81863080Y-78565000D02*
X81581920Y-78565000D01*
D14*
%TO.C,CH334F1*%
X111732500Y-109890000D02*
X112082500Y-109890000D01*
X111732500Y-110240000D02*
X111732500Y-109890000D01*
X111732500Y-113540000D02*
X111732500Y-113890000D01*
X112082500Y-113890000D02*
X111732500Y-113890000D01*
X115382500Y-113890000D02*
X115732500Y-113890000D01*
X115732500Y-110240000D02*
X115382500Y-109890000D01*
X115732500Y-113890000D02*
X115732500Y-113540000D01*
X115129500Y-108842000D02*
G75*
G02*
X114875500Y-108842000I-127000J0D01*
G01*
X114875500Y-108842000D02*
G75*
G02*
X115129500Y-108842000I127000J0D01*
G01*
D12*
%TO.C,C59*%
X88672500Y-63844420D02*
X88672500Y-64125580D01*
X89692500Y-63844420D02*
X89692500Y-64125580D01*
%TO.C,R3*%
X92412500Y-71426359D02*
X92412500Y-71733641D01*
X93172500Y-71426359D02*
X93172500Y-71733641D01*
%TO.C,C24*%
X95464664Y-72030000D02*
X95680336Y-72030000D01*
X95464664Y-72750000D02*
X95680336Y-72750000D01*
%TO.C,C41*%
X122422500Y-69147836D02*
X122422500Y-68932164D01*
X123142500Y-69147836D02*
X123142500Y-68932164D01*
%TO.C,R15*%
X124438859Y-116860000D02*
X124746141Y-116860000D01*
X124438859Y-117620000D02*
X124746141Y-117620000D01*
%TO.C,C47*%
X120112500Y-75852164D02*
X120112500Y-76067836D01*
X120832500Y-75852164D02*
X120832500Y-76067836D01*
%TO.C,R10*%
X126992500Y-110113641D02*
X126992500Y-109806359D01*
X127752500Y-110113641D02*
X127752500Y-109806359D01*
%TO.C,R5*%
X100590000Y-94016359D02*
X100590000Y-94323641D01*
X101350000Y-94016359D02*
X101350000Y-94323641D01*
%TO.C,C17*%
X76138080Y-71960000D02*
X75856920Y-71960000D01*
X76138080Y-72980000D02*
X75856920Y-72980000D01*
%TO.C,R27*%
X111228859Y-74040000D02*
X111536141Y-74040000D01*
X111228859Y-74800000D02*
X111536141Y-74800000D01*
%TO.C,C10*%
X89282500Y-75852164D02*
X89282500Y-76067836D01*
X90002500Y-75852164D02*
X90002500Y-76067836D01*
%TO.C,R19*%
X86310000Y-99163641D02*
X86310000Y-98856359D01*
X87070000Y-99163641D02*
X87070000Y-98856359D01*
D13*
%TO.C,SW1*%
X71058500Y-70148000D02*
X71058500Y-74212000D01*
X71058500Y-74212000D02*
X71487760Y-74212000D01*
X71487760Y-70148000D02*
X71058500Y-70148000D01*
X73677240Y-74212000D02*
X74106500Y-74212000D01*
X74106500Y-70148000D02*
X73677240Y-70148000D01*
X74106500Y-74212000D02*
X74106500Y-70148000D01*
X72658700Y-68611300D02*
G75*
G02*
X72506300Y-68611300I-76200J0D01*
G01*
X72506300Y-68611300D02*
G75*
G02*
X72658700Y-68611300I76200J0D01*
G01*
D12*
%TO.C,C37*%
X120552500Y-114560580D02*
X120552500Y-114279420D01*
X121572500Y-114560580D02*
X121572500Y-114279420D01*
%TO.C,C14*%
X122322500Y-77082164D02*
X122322500Y-77297836D01*
X123042500Y-77082164D02*
X123042500Y-77297836D01*
%TO.C,C29*%
X101430000Y-132380580D02*
X101430000Y-132099420D01*
X102450000Y-132380580D02*
X102450000Y-132099420D01*
%TO.C,J1*%
X121242500Y-61170000D02*
X121742500Y-61170000D01*
X121492500Y-60670000D02*
X121242500Y-61170000D01*
X121742500Y-61170000D02*
X121492500Y-60670000D01*
%TO.C,R28*%
X108722500Y-76576359D02*
X108722500Y-76883641D01*
X109482500Y-76576359D02*
X109482500Y-76883641D01*
%TO.C,C8*%
X84252500Y-68005580D02*
X84252500Y-67724420D01*
X85272500Y-68005580D02*
X85272500Y-67724420D01*
%TO.C,C58*%
X87772500Y-66412164D02*
X87772500Y-66627836D01*
X88492500Y-66412164D02*
X88492500Y-66627836D01*
%TO.C,C57*%
X86504664Y-68530000D02*
X86720336Y-68530000D01*
X86504664Y-69250000D02*
X86720336Y-69250000D01*
%TO.C,R9*%
X126982500Y-112866359D02*
X126982500Y-113173641D01*
X127742500Y-112866359D02*
X127742500Y-113173641D01*
%TO.C,U9*%
X113232500Y-116860000D02*
X112432500Y-116860000D01*
X113232500Y-116860000D02*
X114032500Y-116860000D01*
X113232500Y-119980000D02*
X112432500Y-119980000D01*
X113232500Y-119980000D02*
X114032500Y-119980000D01*
X111932500Y-116910000D02*
X111692500Y-116580000D01*
X112172500Y-116580000D01*
X111932500Y-116910000D01*
G36*
X111932500Y-116910000D02*
G01*
X111692500Y-116580000D01*
X112172500Y-116580000D01*
X111932500Y-116910000D01*
G37*
%TO.C,C1*%
X88672500Y-69107836D02*
X88672500Y-68892164D01*
X89392500Y-69107836D02*
X89392500Y-68892164D01*
%TO.C,R29*%
X107428859Y-70390000D02*
X107736141Y-70390000D01*
X107428859Y-71150000D02*
X107736141Y-71150000D01*
%TO.C,D5*%
X94380000Y-68067500D02*
X94380000Y-70027500D01*
X94380000Y-70027500D02*
X95580000Y-70027500D01*
X95580000Y-68067500D02*
X95580000Y-70027500D01*
%TO.C,D14*%
X109760000Y-76967500D02*
X109760000Y-78927500D01*
X109760000Y-78927500D02*
X110960000Y-78927500D01*
X110960000Y-76967500D02*
X110960000Y-78927500D01*
%TO.C,C46*%
X111492500Y-73097836D02*
X111492500Y-72882164D01*
X112212500Y-73097836D02*
X112212500Y-72882164D01*
%TO.C,D9*%
X96840000Y-126347500D02*
X96840000Y-122487500D01*
X96840000Y-126347500D02*
X98840000Y-126347500D01*
X98840000Y-126347500D02*
X98840000Y-122487500D01*
%TO.C,J3*%
X90372500Y-61180000D02*
X90872500Y-61180000D01*
X90622500Y-60680000D02*
X90372500Y-61180000D01*
X90872500Y-61180000D02*
X90622500Y-60680000D01*
%TO.C,C48*%
X107272500Y-76600580D02*
X107272500Y-76319420D01*
X108292500Y-76600580D02*
X108292500Y-76319420D01*
%TO.C,F1*%
X106015436Y-119790000D02*
X107219564Y-119790000D01*
X106015436Y-121610000D02*
X107219564Y-121610000D01*
%TO.C,C44*%
X120842500Y-68880580D02*
X120842500Y-68599420D01*
X121862500Y-68880580D02*
X121862500Y-68599420D01*
%TO.C,C27*%
X98692500Y-127709420D02*
X98692500Y-127990580D01*
X99712500Y-127709420D02*
X99712500Y-127990580D01*
%TO.C,C62*%
X117454664Y-68480000D02*
X117670336Y-68480000D01*
X117454664Y-69200000D02*
X117670336Y-69200000D01*
%TO.C,U11*%
X87722500Y-99130000D02*
X88447500Y-99130000D01*
X87722500Y-99855000D02*
X87722500Y-99130000D01*
X87722500Y-103625000D02*
X87722500Y-104050000D01*
X88447500Y-104350000D02*
X87962500Y-104350000D01*
X92942500Y-99130000D02*
X92217500Y-99130000D01*
X92942500Y-99855000D02*
X92942500Y-99130000D01*
X92942500Y-103625000D02*
X92942500Y-104350000D01*
X92942500Y-104350000D02*
X92217500Y-104350000D01*
X87722500Y-104350000D02*
X87392500Y-104590000D01*
X87392500Y-104110000D01*
X87722500Y-104350000D01*
G36*
X87722500Y-104350000D02*
G01*
X87392500Y-104590000D01*
X87392500Y-104110000D01*
X87722500Y-104350000D01*
G37*
%TO.C,C42*%
X115232500Y-68000580D02*
X115232500Y-67719420D01*
X116252500Y-68000580D02*
X116252500Y-67719420D01*
%TO.C,C35*%
X109112500Y-68000580D02*
X109112500Y-67719420D01*
X110132500Y-68000580D02*
X110132500Y-67719420D01*
%TO.C,C53*%
X94482500Y-104777836D02*
X94482500Y-104562164D01*
X95202500Y-104777836D02*
X95202500Y-104562164D01*
%TO.C,C16*%
X76112500Y-77859420D02*
X76112500Y-78140580D01*
X77132500Y-77859420D02*
X77132500Y-78140580D01*
%TO.C,C25*%
X123692500Y-68880580D02*
X123692500Y-68599420D01*
X124712500Y-68880580D02*
X124712500Y-68599420D01*
%TO.C,C61*%
X118712500Y-66292164D02*
X118712500Y-66507836D01*
X119432500Y-66292164D02*
X119432500Y-66507836D01*
%TO.C,R12*%
X76113859Y-70630000D02*
X76421141Y-70630000D01*
X76113859Y-71390000D02*
X76421141Y-71390000D01*
%TO.C,R16*%
X117358859Y-115960000D02*
X117666141Y-115960000D01*
X117358859Y-116720000D02*
X117666141Y-116720000D01*
%TO.C,Q2*%
X86090000Y-96060000D02*
X86090000Y-95410000D01*
X86090000Y-96060000D02*
X86090000Y-96710000D01*
X89210000Y-96060000D02*
X89210000Y-95410000D01*
X89210000Y-96060000D02*
X89210000Y-96710000D01*
X86140000Y-97222500D02*
X85810000Y-97462500D01*
X85810000Y-96982500D01*
X86140000Y-97222500D01*
G36*
X86140000Y-97222500D02*
G01*
X85810000Y-97462500D01*
X85810000Y-96982500D01*
X86140000Y-97222500D01*
G37*
%TO.C,C40*%
X122292500Y-71452164D02*
X122292500Y-71667836D01*
X123012500Y-71452164D02*
X123012500Y-71667836D01*
%TO.C,R26*%
X109722500Y-118953641D02*
X109722500Y-118646359D01*
X110482500Y-118953641D02*
X110482500Y-118646359D01*
%TO.C,D1*%
X74820000Y-69090000D02*
X74820000Y-70290000D01*
X76780000Y-69090000D02*
X74820000Y-69090000D01*
X76780000Y-70290000D02*
X74820000Y-70290000D01*
%TO.C,U4*%
X113132500Y-70170000D02*
X113682500Y-70170000D01*
X113132500Y-70720000D02*
X113132500Y-70170000D01*
X113132500Y-75840000D02*
X113132500Y-76390000D01*
X113132500Y-76390000D02*
X113682500Y-76390000D01*
X118802500Y-70170000D02*
X119112500Y-70170000D01*
X119352500Y-70720000D02*
X119352500Y-70470000D01*
X119352500Y-75840000D02*
X119352500Y-76390000D01*
X119352500Y-76390000D02*
X118802500Y-76390000D01*
X119682500Y-70410000D02*
X119352500Y-70170000D01*
X119682500Y-69930000D01*
X119682500Y-70410000D01*
G36*
X119682500Y-70410000D02*
G01*
X119352500Y-70170000D01*
X119682500Y-69930000D01*
X119682500Y-70410000D01*
G37*
%TO.C,U10*%
X101422500Y-123027500D02*
X100622500Y-123027500D01*
X101422500Y-123027500D02*
X102222500Y-123027500D01*
X101422500Y-126147500D02*
X100622500Y-126147500D01*
X101422500Y-126147500D02*
X102222500Y-126147500D01*
X100122500Y-123077500D02*
X99882500Y-122747500D01*
X100362500Y-122747500D01*
X100122500Y-123077500D01*
G36*
X100122500Y-123077500D02*
G01*
X99882500Y-122747500D01*
X100362500Y-122747500D01*
X100122500Y-123077500D01*
G37*
%TO.C,C3*%
X111102500Y-104757836D02*
X111102500Y-104542164D01*
X111822500Y-104757836D02*
X111822500Y-104542164D01*
%TO.C,C4*%
X110920336Y-106750000D02*
X110704664Y-106750000D01*
X110920336Y-107470000D02*
X110704664Y-107470000D01*
%TO.C,Q3*%
X98180000Y-96092500D02*
X98180000Y-95442500D01*
X98180000Y-96092500D02*
X98180000Y-96742500D01*
X101300000Y-96092500D02*
X101300000Y-95442500D01*
X101300000Y-96092500D02*
X101300000Y-96742500D01*
X98230000Y-97255000D02*
X97900000Y-97495000D01*
X97900000Y-97015000D01*
X98230000Y-97255000D01*
G36*
X98230000Y-97255000D02*
G01*
X97900000Y-97495000D01*
X97900000Y-97015000D01*
X98230000Y-97255000D01*
G37*
%TO.C,D8*%
X123437500Y-109510000D02*
X123437500Y-111430000D01*
X123437500Y-111430000D02*
X126122500Y-111430000D01*
X126122500Y-109510000D02*
X123437500Y-109510000D01*
%TO.C,R11*%
X121276141Y-72260000D02*
X120968859Y-72260000D01*
X121276141Y-73020000D02*
X120968859Y-73020000D01*
%TO.C,Y2*%
X111569930Y-106183655D02*
X114483210Y-109096935D01*
X113988236Y-103765349D02*
X111569930Y-106183655D01*
%TO.C,C5*%
X92932500Y-68850580D02*
X92932500Y-68569420D01*
X93952500Y-68850580D02*
X93952500Y-68569420D01*
%TO.C,C55*%
X92261920Y-105440000D02*
X92543080Y-105440000D01*
X92261920Y-106460000D02*
X92543080Y-106460000D01*
%TO.C,R17*%
X112235159Y-108370060D02*
X112452440Y-108587341D01*
X112772560Y-107832659D02*
X112989841Y-108049940D01*
%TO.C,D3*%
X108925000Y-109565000D02*
X111610000Y-109565000D01*
X111610000Y-107645000D02*
X108925000Y-107645000D01*
X111610000Y-109565000D02*
X111610000Y-107645000D01*
%TO.C,C21*%
X115972500Y-118802164D02*
X115972500Y-119017836D01*
X116692500Y-118802164D02*
X116692500Y-119017836D01*
%TO.C,C22*%
X110122500Y-104757836D02*
X110122500Y-104542164D01*
X110842500Y-104757836D02*
X110842500Y-104542164D01*
%TO.C,R7*%
X80358859Y-74050000D02*
X80666141Y-74050000D01*
X80358859Y-74810000D02*
X80666141Y-74810000D01*
%TO.C,C12*%
X126334664Y-71680000D02*
X126550336Y-71680000D01*
X126334664Y-72400000D02*
X126550336Y-72400000D01*
%TO.C,C60*%
X119572500Y-63784420D02*
X119572500Y-64065580D01*
X120592500Y-63784420D02*
X120592500Y-64065580D01*
%TO.C,R30*%
X111313859Y-102325000D02*
X111621141Y-102325000D01*
X111313859Y-103085000D02*
X111621141Y-103085000D01*
%TO.C,C26*%
X91462500Y-77332164D02*
X91462500Y-77547836D01*
X92182500Y-77332164D02*
X92182500Y-77547836D01*
%TO.C,C23*%
X117804664Y-106850000D02*
X118020336Y-106850000D01*
X117804664Y-107570000D02*
X118020336Y-107570000D01*
%TO.C,C6*%
X79522500Y-68005580D02*
X79522500Y-67724420D01*
X80542500Y-68005580D02*
X80542500Y-67724420D01*
%TO.C,J2*%
X109022500Y-130995000D02*
X109022500Y-132775000D01*
X110922500Y-128075000D02*
X110122500Y-128075000D01*
X118422500Y-130995000D02*
X118422500Y-132775000D01*
%TO.C,U1*%
X82182500Y-70170000D02*
X82732500Y-70170000D01*
X82182500Y-70720000D02*
X82182500Y-70170000D01*
X82182500Y-75840000D02*
X82182500Y-76390000D01*
X82182500Y-76390000D02*
X82732500Y-76390000D01*
X87852500Y-70170000D02*
X88162500Y-70170000D01*
X88402500Y-70720000D02*
X88402500Y-70470000D01*
X88402500Y-75840000D02*
X88402500Y-76390000D01*
X88402500Y-76390000D02*
X87852500Y-76390000D01*
X88732500Y-70410000D02*
X88402500Y-70170000D01*
X88732500Y-69930000D01*
X88732500Y-70410000D01*
G36*
X88732500Y-70410000D02*
G01*
X88402500Y-70170000D01*
X88732500Y-69930000D01*
X88732500Y-70410000D01*
G37*
%TO.C,U5*%
X103797500Y-99095000D02*
X104522500Y-99095000D01*
X103797500Y-99820000D02*
X103797500Y-99095000D01*
X103797500Y-103590000D02*
X103797500Y-104015000D01*
X104522500Y-104315000D02*
X104037500Y-104315000D01*
X109017500Y-99095000D02*
X108292500Y-99095000D01*
X109017500Y-99820000D02*
X109017500Y-99095000D01*
X109017500Y-103590000D02*
X109017500Y-104315000D01*
X109017500Y-104315000D02*
X108292500Y-104315000D01*
X103797500Y-104315000D02*
X103467500Y-104555000D01*
X103467500Y-104075000D01*
X103797500Y-104315000D01*
G36*
X103797500Y-104315000D02*
G01*
X103467500Y-104555000D01*
X103467500Y-104075000D01*
X103797500Y-104315000D01*
G37*
%TO.C,C45*%
X119522500Y-69137836D02*
X119522500Y-68922164D01*
X120242500Y-69137836D02*
X120242500Y-68922164D01*
%TO.C,D4*%
X92850000Y-109710000D02*
X95535000Y-109710000D01*
X95535000Y-107790000D02*
X92850000Y-107790000D01*
X95535000Y-109710000D02*
X95535000Y-107790000D01*
%TO.C,C30*%
X104860580Y-132100000D02*
X104579420Y-132100000D01*
X104860580Y-133120000D02*
X104579420Y-133120000D01*
%TO.C,Y1*%
X126382500Y-72680000D02*
X122262500Y-72680000D01*
X126382500Y-76100000D02*
X126382500Y-72680000D01*
%TO.C,C56*%
X108346920Y-105365000D02*
X108628080Y-105365000D01*
X108346920Y-106385000D02*
X108628080Y-106385000D01*
%TO.C,L3*%
X103122500Y-126680000D02*
X107642500Y-126680000D01*
X103122500Y-131200000D02*
X103122500Y-126680000D01*
X107642500Y-126680000D02*
X107642500Y-131200000D01*
X107642500Y-131200000D02*
X103122500Y-131200000D01*
%TO.C,R4*%
X77662500Y-76556359D02*
X77662500Y-76863641D01*
X78422500Y-76556359D02*
X78422500Y-76863641D01*
%TO.C,C33*%
X117772500Y-113269420D02*
X117772500Y-113550580D01*
X118792500Y-113269420D02*
X118792500Y-113550580D01*
%TO.C,C43*%
X112733080Y-77500000D02*
X112451920Y-77500000D01*
X112733080Y-78520000D02*
X112451920Y-78520000D01*
%TO.C,D13*%
X125170000Y-68080000D02*
X125170000Y-70040000D01*
X125170000Y-70040000D02*
X126370000Y-70040000D01*
X126370000Y-68080000D02*
X126370000Y-70040000D01*
%TO.C,R22*%
X90386141Y-72280000D02*
X90078859Y-72280000D01*
X90386141Y-73040000D02*
X90078859Y-73040000D01*
%TO.C,R23*%
X123272500Y-71416359D02*
X123272500Y-71723641D01*
X124032500Y-71416359D02*
X124032500Y-71723641D01*
%TO.C,R25*%
X116818859Y-125640000D02*
X117126141Y-125640000D01*
X116818859Y-126400000D02*
X117126141Y-126400000D01*
%TO.C,R2*%
X91242500Y-108586359D02*
X91242500Y-108893641D01*
X92002500Y-108586359D02*
X92002500Y-108893641D01*
%TO.C,C19*%
X91994664Y-106900000D02*
X92210336Y-106900000D01*
X91994664Y-107620000D02*
X92210336Y-107620000D01*
%TO.C,Q1*%
X82190000Y-95992500D02*
X82190000Y-95342500D01*
X82190000Y-95992500D02*
X82190000Y-96642500D01*
X85310000Y-95992500D02*
X85310000Y-95342500D01*
X85310000Y-95992500D02*
X85310000Y-96642500D01*
X82240000Y-97155000D02*
X81910000Y-97395000D01*
X81910000Y-96915000D01*
X82240000Y-97155000D01*
G36*
X82240000Y-97155000D02*
G01*
X81910000Y-97395000D01*
X81910000Y-96915000D01*
X82240000Y-97155000D01*
G37*
%TO.C,R13*%
X112092500Y-125623641D02*
X112092500Y-125316359D01*
X112852500Y-125623641D02*
X112852500Y-125316359D01*
%TD*%
M02*
