M48
; DRILL file {KiCad 9.0.3} date 2026-03-26T17:56:14+0530
; FORMAT={-:-/ absolute / metric / decimal}
; #@! TF.CreationDate,2026-03-26T17:56:14+05:30
; #@! TF.GenerationSoftware,Kicad,Pcbnew,9.0.3
; #@! TF.FileFunction,MixedPlating,1,4
FMAT,2
METRIC
; #@! TA.AperFunction,Plated,PTH,ViaDrill
T1C0.300
; #@! TA.AperFunction,Plated,PTH,ComponentDrill
T2C0.600
; #@! TA.AperFunction,Plated,PTH,ComponentDrill
T3C0.900
; #@! TA.AperFunction,Plated,PTH,ComponentDrill
T4C1.100
; #@! TA.AperFunction,Plated,PTH,ComponentDrill
T5C2.700
; #@! TA.AperFunction,NonPlated,NPTH,ComponentDrill
T6C0.650
%
G90
G05
T1
X120.95Y-58.875
X121.05Y-49.325
X121.125Y-63.9
X121.25Y-47.125
X121.35Y-51.675
X121.765Y-40.89
X121.765Y-54.235
X122.05Y-49.75
X122.2Y-44.625
X123.035Y-54.26
X123.2Y-32.45
X124.025Y-46.475
X124.15Y-42.45
X124.305Y-54.18
X124.475Y-37.125
X125.35Y-50.775
X125.4Y-40.225
X125.85Y-58.4
X125.95Y-63.625
X126.175Y-45.775
X126.375Y-52.275
X126.925Y-58.875
X127.125Y-37.0
X127.125Y-42.775
X127.275Y-44.625
X127.3Y-63.7
X128.175Y-54.85
X128.575Y-52.3
X128.975Y-41.425
X129.225Y-45.325
X129.3Y-32.325
X130.25Y-43.0
X130.45Y-53.175
X131.0Y-44.425
X131.05Y-37.3
X132.075Y-30.8
X132.425Y-63.625
X132.625Y-45.15
X132.762Y-31.438
X132.85Y-34.95
X132.85Y-48.4
X133.0Y-52.4
X133.425Y-63.8
X133.475Y-42.05
X135.275Y-32.45
X135.5Y-31.525
X135.55Y-34.575
X135.9Y-36.15
X136.3Y-35.4
X136.325Y-52.6
X136.33Y-45.605
X136.33Y-48.145
X136.335Y-50.685
X136.55Y-31.325
X137.25Y-34.75
X137.275Y-36.05
X137.375Y-32.475
X137.4Y-54.5
X139.221Y-55.445
X139.725Y-34.525
X140.025Y-38.85
X140.7Y-36.475
X140.875Y-50.2
X140.95Y-31.55
X141.075Y-34.825
X141.175Y-30.825
X141.25Y-62.4
X141.625Y-61.2
X141.668Y-44.182
X141.7Y-45.95
X141.711Y-48.061
X141.725Y-55.575
X141.95Y-54.725
X142.375Y-63.075
X142.407Y-39.4
X142.418Y-36.732
X142.475Y-58.025
X142.582Y-45.757
X142.614Y-47.864
X143.05Y-52.475
X143.5Y-48.475
X144.0Y-35.275
X144.062Y-49.462
X144.35Y-37.9
X144.375Y-53.25
X144.375Y-55.65
X144.425Y-63.935
X144.55Y-32.6
X144.775Y-61.05
X145.1Y-38.55
X145.107Y-45.325
X145.25Y-42.45
X145.275Y-41.125
X145.325Y-50.15
X145.502Y-31.348
X145.625Y-44.075
X146.025Y-60.425
X146.475Y-53.45
X146.625Y-33.65
X146.75Y-54.85
X147.275Y-58.025
X147.275Y-62.75
X147.3Y-61.2
X147.725Y-32.525
X147.8Y-38.775
X147.95Y-45.625
X148.375Y-37.7
X148.55Y-61.95
X148.85Y-32.325
X148.9Y-49.225
X148.975Y-38.25
X149.05Y-39.05
T3
X121.985Y-34.385
X121.985Y-61.06
X124.525Y-34.385
X124.525Y-61.06
X128.5Y-34.385
X128.51Y-61.06
X131.04Y-34.385
X131.05Y-61.06
T4
X147.8Y-40.975
X147.8Y-51.135
T5
X136.275Y-61.135
T6
X141.985Y-60.255
X147.765Y-60.255
T2
G00X140.555Y-59.205
M15
G01X140.555Y-60.305
M16
G05
G00X140.555Y-63.635
M15
G01X140.555Y-64.235
M16
G05
G00X149.195Y-59.205
M15
G01X149.195Y-60.305
M16
G05
G00X149.195Y-63.635
M15
G01X149.195Y-64.235
M16
G05
M30
