%TF.GenerationSoftware,KiCad,Pcbnew,9.0.3*%
%TF.CreationDate,2026-03-26T17:56:10+05:30*%
%TF.ProjectId,new',6e657727-2e6b-4696-9361-645f70636258,rev?*%
%TF.SameCoordinates,Original*%
%TF.FileFunction,Copper,L4,Bot*%
%TF.FilePolarity,Positive*%
%FSLAX46Y46*%
G04 Gerber Fmt 4.6, Leading zero omitted, Abs format (unit mm)*
G04 Created by KiCad (PCBNEW 9.0.3) date 2026-03-26 17:56:10*
%MOMM*%
%LPD*%
G01*
G04 APERTURE LIST*
G04 Aperture macros list*
%AMRoundRect*
0 Rectangle with rounded corners*
0 $1 Rounding radius*
0 $2 $3 $4 $5 $6 $7 $8 $9 X,Y pos of 4 corners*
0 Add a 4 corners polygon primitive as box body*
4,1,4,$2,$3,$4,$5,$6,$7,$8,$9,$2,$3,0*
0 Add four circle primitives for the rounded corners*
1,1,$1+$1,$2,$3*
1,1,$1+$1,$4,$5*
1,1,$1+$1,$6,$7*
1,1,$1+$1,$8,$9*
0 Add four rect primitives between the rounded corners*
20,1,$1+$1,$2,$3,$4,$5,0*
20,1,$1+$1,$4,$5,$6,$7,0*
20,1,$1+$1,$6,$7,$8,$9,0*
20,1,$1+$1,$8,$9,$2,$3,0*%
G04 Aperture macros list end*
%TA.AperFunction,ComponentPad*%
%ADD10RoundRect,0.249999X-0.850001X0.850001X-0.850001X-0.850001X0.850001X-0.850001X0.850001X0.850001X0*%
%TD*%
%TA.AperFunction,ComponentPad*%
%ADD11C,2.200000*%
%TD*%
%TA.AperFunction,ComponentPad*%
%ADD12C,5.400000*%
%TD*%
%TA.AperFunction,ComponentPad*%
%ADD13R,1.800000X1.800000*%
%TD*%
%TA.AperFunction,ComponentPad*%
%ADD14C,1.800000*%
%TD*%
%TA.AperFunction,HeatsinkPad*%
%ADD15O,1.000000X2.100000*%
%TD*%
%TA.AperFunction,HeatsinkPad*%
%ADD16O,1.000000X1.600000*%
%TD*%
%TA.AperFunction,ViaPad*%
%ADD17C,0.600000*%
%TD*%
G04 APERTURE END LIST*
D10*
%TO.P,D3,1,K*%
%TO.N,+5V*%
X147800000Y-40975000D03*
D11*
%TO.P,D3,2,A*%
%TO.N,Net-(D3-A)*%
X147800000Y-51135000D03*
%TD*%
D12*
%TO.P,H2,1*%
%TO.N,N/C*%
X136275000Y-61135000D03*
%TD*%
D13*
%TO.P,D13,1,K*%
%TO.N,GND*%
X128500000Y-34385000D03*
D14*
%TO.P,D13,2,A*%
%TO.N,Net-(D13-A)*%
X131040000Y-34385000D03*
%TD*%
D13*
%TO.P,D22,1,K*%
%TO.N,GND*%
X128510000Y-61060000D03*
D14*
%TO.P,D22,2,A*%
%TO.N,Net-(D22-A)*%
X131050000Y-61060000D03*
%TD*%
D13*
%TO.P,D21,1,K*%
%TO.N,GND*%
X121985000Y-61060000D03*
D14*
%TO.P,D21,2,A*%
%TO.N,Net-(D21-A)*%
X124525000Y-61060000D03*
%TD*%
D15*
%TO.P,J3,S1,SHIELD*%
%TO.N,GND*%
X140555000Y-59755000D03*
D16*
X140555000Y-63935000D03*
D15*
X149195000Y-59755000D03*
D16*
X149195000Y-63935000D03*
%TD*%
D13*
%TO.P,D12,1,K*%
%TO.N,GND*%
X121985000Y-34385000D03*
D14*
%TO.P,D12,2,A*%
%TO.N,Net-(D12-A)*%
X124525000Y-34385000D03*
%TD*%
D17*
%TO.N,GND*%
X132850000Y-48400000D03*
X125950000Y-63625000D03*
X120950000Y-58875000D03*
X141075000Y-34825000D03*
X145625000Y-44075000D03*
X128575000Y-52300000D03*
X135500000Y-31525000D03*
X129225000Y-45325000D03*
X121125000Y-63900000D03*
X121050000Y-49325000D03*
X141250000Y-62400000D03*
X123200000Y-32450000D03*
X135900000Y-36150000D03*
X132850000Y-34950000D03*
X141725000Y-55575000D03*
X137375000Y-32475000D03*
X148975000Y-38250000D03*
X132762500Y-31437500D03*
X145107000Y-45325000D03*
X143050000Y-52475000D03*
X125350000Y-50775000D03*
X135275000Y-32450000D03*
X145275000Y-41125000D03*
X128975000Y-41425000D03*
X124150000Y-42450000D03*
X126175000Y-45775000D03*
X137250000Y-34750000D03*
X125400000Y-40225000D03*
X127300000Y-63700000D03*
X130450000Y-53175000D03*
X132075000Y-30800000D03*
X135550000Y-34575000D03*
X142375000Y-63075000D03*
X128175000Y-54850000D03*
X127125000Y-42775000D03*
X125850000Y-58400000D03*
X146025000Y-60425000D03*
X132425000Y-63625000D03*
X141175000Y-30825000D03*
X121765000Y-40890000D03*
X131000000Y-44425000D03*
X149050000Y-39050000D03*
X127275000Y-44625000D03*
X121765000Y-54235000D03*
X137275000Y-36050000D03*
X122200000Y-44625000D03*
X127125000Y-37000000D03*
X126925000Y-58875000D03*
X136300000Y-35400000D03*
X133475000Y-42050000D03*
X144350000Y-37900000D03*
X133425000Y-63800000D03*
X144550000Y-32600000D03*
X133000000Y-52400000D03*
X121350000Y-51675000D03*
X124025000Y-46475000D03*
X147300000Y-61200000D03*
X129300000Y-32325000D03*
X145250000Y-42450000D03*
X147725000Y-32525000D03*
X146475000Y-53450000D03*
X132625000Y-45150000D03*
X144425000Y-63935000D03*
X130250000Y-43000000D03*
X121250000Y-47125000D03*
X122050000Y-49750000D03*
X136550000Y-31325000D03*
X140700000Y-36475000D03*
X147275000Y-62750000D03*
X144375000Y-55650000D03*
X148900000Y-49225000D03*
X144775000Y-61050000D03*
X126375000Y-52275000D03*
X146750000Y-54850000D03*
X141625000Y-61200000D03*
X136325000Y-52600000D03*
X148550000Y-61950000D03*
%TO.N,+3V3*%
X142407200Y-39400000D03*
X139220757Y-55445002D03*
X148375000Y-37700000D03*
X123035000Y-54260000D03*
X144000000Y-35275000D03*
X144062500Y-49462500D03*
X146625000Y-33650000D03*
X147950000Y-45625000D03*
X139725000Y-34525000D03*
X145325000Y-50150000D03*
X142418000Y-36732000D03*
%TO.N,Net-(D1-A2)*%
X124305000Y-54180000D03*
X140950000Y-31550000D03*
%TO.N,+5V*%
X141950000Y-54725000D03*
X145100000Y-38550000D03*
X144375000Y-53250000D03*
X147800000Y-38775000D03*
X148850000Y-32325000D03*
X145502500Y-31347500D03*
%TO.N,Net-(D12-A)*%
X124475000Y-37125000D03*
X143500000Y-48475000D03*
%TO.N,Net-(D13-A)*%
X140025000Y-38850000D03*
X131050000Y-37300000D03*
%TO.N,Net-(D21-A)*%
X142614400Y-47864400D03*
%TO.N,Net-(D22-A)*%
X142582200Y-45757200D03*
%TO.N,Net-(F3-Pad2)*%
X142475000Y-58025000D03*
X147275000Y-58025000D03*
%TO.N,Net-(U1-IO3)*%
X140875000Y-50200000D03*
X137400000Y-54500000D03*
%TO.N,/WIFI_OFF_3*%
X136335000Y-50685000D03*
X141710600Y-48060600D03*
%TO.N,/WIFI_con_3*%
X141700000Y-45950000D03*
X136330000Y-48145000D03*
%TO.N,/WIFI_On_3*%
X141667800Y-44182200D03*
X136330000Y-45605000D03*
%TD*%
%TA.AperFunction,Conductor*%
%TO.N,GND*%
G36*
X144987528Y-30520185D02*
G01*
X145033283Y-30572989D01*
X145043227Y-30642147D01*
X145014202Y-30705703D01*
X144996493Y-30721327D01*
X144996919Y-30721847D01*
X144992207Y-30725713D01*
X144880713Y-30837207D01*
X144880710Y-30837211D01*
X144793109Y-30968314D01*
X144793102Y-30968327D01*
X144732764Y-31113998D01*
X144732761Y-31114010D01*
X144702000Y-31268653D01*
X144702000Y-31426346D01*
X144732761Y-31580989D01*
X144732764Y-31581001D01*
X144793102Y-31726672D01*
X144793109Y-31726685D01*
X144880710Y-31857788D01*
X144880713Y-31857792D01*
X144992207Y-31969286D01*
X144992211Y-31969289D01*
X145123314Y-32056890D01*
X145123327Y-32056897D01*
X145268998Y-32117235D01*
X145269003Y-32117237D01*
X145423653Y-32147999D01*
X145423656Y-32148000D01*
X145423658Y-32148000D01*
X145581344Y-32148000D01*
X145581345Y-32147999D01*
X145735997Y-32117237D01*
X145848666Y-32070567D01*
X145881672Y-32056897D01*
X145881672Y-32056896D01*
X145881679Y-32056894D01*
X146012789Y-31969289D01*
X146124289Y-31857789D01*
X146211894Y-31726679D01*
X146272237Y-31580997D01*
X146303000Y-31426342D01*
X146303000Y-31268658D01*
X146303000Y-31268655D01*
X146302999Y-31268653D01*
X146272238Y-31114010D01*
X146272237Y-31114003D01*
X146272235Y-31113998D01*
X146211897Y-30968327D01*
X146211890Y-30968314D01*
X146124289Y-30837211D01*
X146124286Y-30837207D01*
X146012792Y-30725713D01*
X146008081Y-30721847D01*
X146009431Y-30720200D01*
X145970811Y-30673980D01*
X145962109Y-30604654D01*
X145992270Y-30541629D01*
X146051716Y-30504915D01*
X146084511Y-30500500D01*
X149234108Y-30500500D01*
X149290244Y-30500500D01*
X149309630Y-30502025D01*
X149342253Y-30507192D01*
X149379146Y-30519179D01*
X149399765Y-30529685D01*
X149431151Y-30552489D01*
X149447510Y-30568848D01*
X149470314Y-30600234D01*
X149480820Y-30620853D01*
X149492808Y-30657748D01*
X149497973Y-30690359D01*
X149499500Y-30709755D01*
X149499500Y-31564240D01*
X149479815Y-31631279D01*
X149427011Y-31677034D01*
X149357853Y-31686978D01*
X149306610Y-31667342D01*
X149229190Y-31615612D01*
X149229172Y-31615602D01*
X149083501Y-31555264D01*
X149083489Y-31555261D01*
X148928845Y-31524500D01*
X148928842Y-31524500D01*
X148771158Y-31524500D01*
X148771155Y-31524500D01*
X148616510Y-31555261D01*
X148616498Y-31555264D01*
X148470827Y-31615602D01*
X148470814Y-31615609D01*
X148339711Y-31703210D01*
X148339707Y-31703213D01*
X148228213Y-31814707D01*
X148228210Y-31814711D01*
X148140609Y-31945814D01*
X148140602Y-31945827D01*
X148080264Y-32091498D01*
X148080261Y-32091510D01*
X148049500Y-32246153D01*
X148049500Y-32403846D01*
X148080261Y-32558489D01*
X148080264Y-32558501D01*
X148140602Y-32704172D01*
X148140609Y-32704185D01*
X148228210Y-32835288D01*
X148228213Y-32835292D01*
X148339707Y-32946786D01*
X148339711Y-32946789D01*
X148470814Y-33034390D01*
X148470827Y-33034397D01*
X148616498Y-33094735D01*
X148616503Y-33094737D01*
X148771153Y-33125499D01*
X148771156Y-33125500D01*
X148771158Y-33125500D01*
X148928844Y-33125500D01*
X148928845Y-33125499D01*
X149083497Y-33094737D01*
X149211664Y-33041649D01*
X149229172Y-33034397D01*
X149229172Y-33034396D01*
X149229179Y-33034394D01*
X149306609Y-32982657D01*
X149373286Y-32961779D01*
X149440666Y-32980263D01*
X149487357Y-33032242D01*
X149499500Y-33085759D01*
X149499500Y-39635425D01*
X149479815Y-39702464D01*
X149427011Y-39748219D01*
X149357853Y-39758163D01*
X149294297Y-39729138D01*
X149269962Y-39700522D01*
X149242714Y-39656347D01*
X149242711Y-39656343D01*
X149118657Y-39532289D01*
X149118656Y-39532288D01*
X148969335Y-39440186D01*
X148802798Y-39385001D01*
X148802796Y-39385000D01*
X148700017Y-39374500D01*
X148700010Y-39374500D01*
X148594168Y-39374500D01*
X148527129Y-39354815D01*
X148481374Y-39302011D01*
X148471430Y-39232853D01*
X148491067Y-39181608D01*
X148509389Y-39154187D01*
X148509390Y-39154184D01*
X148509394Y-39154179D01*
X148569737Y-39008497D01*
X148600500Y-38853842D01*
X148600500Y-38696158D01*
X148600500Y-38696155D01*
X148584657Y-38616510D01*
X148579352Y-38589840D01*
X148585579Y-38520251D01*
X148628441Y-38465073D01*
X148653508Y-38451092D01*
X148754179Y-38409394D01*
X148885289Y-38321789D01*
X148996789Y-38210289D01*
X149084394Y-38079179D01*
X149144737Y-37933497D01*
X149175500Y-37778842D01*
X149175500Y-37621158D01*
X149175500Y-37621155D01*
X149175499Y-37621153D01*
X149158061Y-37533489D01*
X149144737Y-37466503D01*
X149108427Y-37378842D01*
X149084397Y-37320827D01*
X149084390Y-37320814D01*
X148996789Y-37189711D01*
X148996786Y-37189707D01*
X148885292Y-37078213D01*
X148885288Y-37078210D01*
X148754185Y-36990609D01*
X148754172Y-36990602D01*
X148608501Y-36930264D01*
X148608489Y-36930261D01*
X148453845Y-36899500D01*
X148453842Y-36899500D01*
X148296158Y-36899500D01*
X148296155Y-36899500D01*
X148141510Y-36930261D01*
X148141498Y-36930264D01*
X147995827Y-36990602D01*
X147995814Y-36990609D01*
X147864711Y-37078210D01*
X147864707Y-37078213D01*
X147753213Y-37189707D01*
X147753210Y-37189711D01*
X147665609Y-37320814D01*
X147665602Y-37320827D01*
X147605264Y-37466498D01*
X147605261Y-37466510D01*
X147574500Y-37621153D01*
X147574500Y-37778846D01*
X147595647Y-37885158D01*
X147589420Y-37954749D01*
X147546557Y-38009927D01*
X147521483Y-38023910D01*
X147420824Y-38065604D01*
X147420814Y-38065609D01*
X147289711Y-38153210D01*
X147289707Y-38153213D01*
X147178213Y-38264707D01*
X147178210Y-38264711D01*
X147090609Y-38395814D01*
X147090602Y-38395827D01*
X147030264Y-38541498D01*
X147030261Y-38541510D01*
X146999500Y-38696153D01*
X146999500Y-38853846D01*
X147030261Y-39008489D01*
X147030264Y-39008501D01*
X147090602Y-39154172D01*
X147090610Y-39154187D01*
X147108933Y-39181608D01*
X147129812Y-39248285D01*
X147111328Y-39315666D01*
X147059350Y-39362356D01*
X147005832Y-39374500D01*
X146899982Y-39374500D01*
X146797203Y-39385000D01*
X146797202Y-39385001D01*
X146714669Y-39412349D01*
X146630667Y-39440185D01*
X146630662Y-39440187D01*
X146481342Y-39532289D01*
X146357289Y-39656342D01*
X146265187Y-39805662D01*
X146265186Y-39805665D01*
X146210001Y-39972202D01*
X146210001Y-39972203D01*
X146210000Y-39972203D01*
X146199500Y-40074982D01*
X146199500Y-41875017D01*
X146210000Y-41977796D01*
X146210001Y-41977798D01*
X146265186Y-42144335D01*
X146357288Y-42293656D01*
X146481344Y-42417712D01*
X146630665Y-42509814D01*
X146797202Y-42564999D01*
X146899990Y-42575500D01*
X146899995Y-42575500D01*
X148700005Y-42575500D01*
X148700010Y-42575500D01*
X148802798Y-42564999D01*
X148969335Y-42509814D01*
X149118656Y-42417712D01*
X149242712Y-42293656D01*
X149269961Y-42249477D01*
X149321909Y-42202753D01*
X149390871Y-42191530D01*
X149454953Y-42219373D01*
X149493810Y-42277442D01*
X149499500Y-42314574D01*
X149499500Y-50428555D01*
X149479815Y-50495594D01*
X149427011Y-50541349D01*
X149357853Y-50551293D01*
X149294297Y-50522268D01*
X149265015Y-50484850D01*
X149213375Y-50383501D01*
X149168870Y-50296155D01*
X149119966Y-50228844D01*
X149020798Y-50092350D01*
X149020794Y-50092345D01*
X148842654Y-49914205D01*
X148842649Y-49914201D01*
X148638848Y-49766132D01*
X148638847Y-49766131D01*
X148638845Y-49766130D01*
X148568747Y-49730413D01*
X148414383Y-49651760D01*
X148174785Y-49573910D01*
X147925962Y-49534500D01*
X147674038Y-49534500D01*
X147549626Y-49554205D01*
X147425214Y-49573910D01*
X147185616Y-49651760D01*
X146961151Y-49766132D01*
X146757350Y-49914201D01*
X146757345Y-49914205D01*
X146579205Y-50092345D01*
X146579201Y-50092350D01*
X146431132Y-50296151D01*
X146316760Y-50520616D01*
X146238910Y-50760214D01*
X146199500Y-51009038D01*
X146199500Y-51260961D01*
X146238910Y-51509785D01*
X146316760Y-51749383D01*
X146431132Y-51973848D01*
X146579201Y-52177649D01*
X146579205Y-52177654D01*
X146757345Y-52355794D01*
X146757350Y-52355798D01*
X146886321Y-52449500D01*
X146961155Y-52503870D01*
X147104184Y-52576747D01*
X147185616Y-52618239D01*
X147185618Y-52618239D01*
X147185621Y-52618241D01*
X147425215Y-52696090D01*
X147674038Y-52735500D01*
X147674039Y-52735500D01*
X147925961Y-52735500D01*
X147925962Y-52735500D01*
X148174785Y-52696090D01*
X148414379Y-52618241D01*
X148638845Y-52503870D01*
X148842656Y-52355793D01*
X149020793Y-52177656D01*
X149168870Y-51973845D01*
X149265015Y-51785148D01*
X149312989Y-51734353D01*
X149380810Y-51717558D01*
X149446945Y-51740095D01*
X149490397Y-51794810D01*
X149499500Y-51841444D01*
X149499500Y-58131761D01*
X149479815Y-58198800D01*
X149454165Y-58227614D01*
X149445000Y-58235135D01*
X149445000Y-59038011D01*
X149435060Y-59020795D01*
X149379205Y-58964940D01*
X149310796Y-58925444D01*
X149234496Y-58905000D01*
X149155504Y-58905000D01*
X149079204Y-58925444D01*
X149010795Y-58964940D01*
X148954940Y-59020795D01*
X148945000Y-59038011D01*
X148945000Y-58235136D01*
X148944999Y-58235135D01*
X148903316Y-58243427D01*
X148903308Y-58243429D01*
X148721328Y-58318807D01*
X148721315Y-58318814D01*
X148557537Y-58428248D01*
X148557533Y-58428251D01*
X148418251Y-58567533D01*
X148418248Y-58567537D01*
X148308814Y-58731315D01*
X148308807Y-58731328D01*
X148233430Y-58913306D01*
X148233427Y-58913318D01*
X148195000Y-59106504D01*
X148195000Y-59505000D01*
X148895000Y-59505000D01*
X148895000Y-60005000D01*
X148356784Y-60005000D01*
X148289745Y-59985315D01*
X148249397Y-59943000D01*
X148229358Y-59908292D01*
X148225515Y-59901635D01*
X148118365Y-59794485D01*
X148013433Y-59733902D01*
X147987136Y-59718719D01*
X147894825Y-59693985D01*
X147840766Y-59679500D01*
X147689234Y-59679500D01*
X147542863Y-59718719D01*
X147411635Y-59794485D01*
X147411632Y-59794487D01*
X147304487Y-59901632D01*
X147304485Y-59901635D01*
X147228719Y-60032863D01*
X147189500Y-60179234D01*
X147189500Y-60330765D01*
X147228719Y-60477136D01*
X147266602Y-60542750D01*
X147304485Y-60608365D01*
X147411635Y-60715515D01*
X147525281Y-60781129D01*
X147533288Y-60785752D01*
X147542865Y-60791281D01*
X147689234Y-60830500D01*
X147689236Y-60830500D01*
X147840764Y-60830500D01*
X147840766Y-60830500D01*
X147987135Y-60791281D01*
X148118365Y-60715515D01*
X148118366Y-60715513D01*
X148125403Y-60711451D01*
X148126676Y-60713656D01*
X148179956Y-60693043D01*
X148248405Y-60707063D01*
X148298407Y-60755864D01*
X148304867Y-60769157D01*
X148308809Y-60778674D01*
X148308814Y-60778684D01*
X148418248Y-60942462D01*
X148418251Y-60942466D01*
X148557533Y-61081748D01*
X148557537Y-61081751D01*
X148721315Y-61191185D01*
X148721328Y-61191192D01*
X148903308Y-61266569D01*
X148945000Y-61274862D01*
X148945000Y-60471988D01*
X148954940Y-60489205D01*
X149010795Y-60545060D01*
X149079204Y-60584556D01*
X149155504Y-60605000D01*
X149234496Y-60605000D01*
X149310796Y-60584556D01*
X149379205Y-60545060D01*
X149435060Y-60489205D01*
X149445000Y-60471988D01*
X149445000Y-61274863D01*
X149454166Y-61282386D01*
X149493500Y-61340132D01*
X149499500Y-61378238D01*
X149499500Y-62561761D01*
X149479815Y-62628800D01*
X149454165Y-62657614D01*
X149445000Y-62665135D01*
X149445000Y-63468011D01*
X149435060Y-63450795D01*
X149379205Y-63394940D01*
X149310796Y-63355444D01*
X149234496Y-63335000D01*
X149155504Y-63335000D01*
X149079204Y-63355444D01*
X149010795Y-63394940D01*
X148954940Y-63450795D01*
X148945000Y-63468011D01*
X148945000Y-62665136D01*
X148944999Y-62665135D01*
X148903316Y-62673427D01*
X148903308Y-62673429D01*
X148721328Y-62748807D01*
X148721315Y-62748814D01*
X148557537Y-62858248D01*
X148557533Y-62858251D01*
X148418251Y-62997533D01*
X148418248Y-62997537D01*
X148308814Y-63161315D01*
X148308807Y-63161328D01*
X148233430Y-63343306D01*
X148233427Y-63343318D01*
X148195000Y-63536504D01*
X148195000Y-63685000D01*
X148895000Y-63685000D01*
X148895000Y-64185000D01*
X148195000Y-64185000D01*
X148195000Y-64333491D01*
X148198544Y-64351307D01*
X148192317Y-64420899D01*
X148149455Y-64476077D01*
X148083565Y-64499322D01*
X148076927Y-64499500D01*
X141673073Y-64499500D01*
X141606034Y-64479815D01*
X141560279Y-64427011D01*
X141550335Y-64357853D01*
X141551456Y-64351307D01*
X141555000Y-64333491D01*
X141555000Y-64185000D01*
X140855000Y-64185000D01*
X140855000Y-63685000D01*
X141555000Y-63685000D01*
X141555000Y-63536508D01*
X141554999Y-63536504D01*
X141516572Y-63343318D01*
X141516569Y-63343306D01*
X141441192Y-63161328D01*
X141441185Y-63161315D01*
X141331751Y-62997537D01*
X141331748Y-62997533D01*
X141192466Y-62858251D01*
X141192462Y-62858248D01*
X141028684Y-62748814D01*
X141028671Y-62748807D01*
X140846691Y-62673429D01*
X140846683Y-62673427D01*
X140805000Y-62665135D01*
X140805000Y-63468011D01*
X140795060Y-63450795D01*
X140739205Y-63394940D01*
X140670796Y-63355444D01*
X140594496Y-63335000D01*
X140515504Y-63335000D01*
X140439204Y-63355444D01*
X140370795Y-63394940D01*
X140314940Y-63450795D01*
X140305000Y-63468011D01*
X140305000Y-62665136D01*
X140304999Y-62665135D01*
X140263316Y-62673427D01*
X140263308Y-62673429D01*
X140081328Y-62748807D01*
X140081315Y-62748814D01*
X139917537Y-62858248D01*
X139917533Y-62858251D01*
X139778251Y-62997533D01*
X139778248Y-62997537D01*
X139668814Y-63161315D01*
X139668807Y-63161328D01*
X139593430Y-63343306D01*
X139593427Y-63343318D01*
X139555000Y-63536504D01*
X139555000Y-63685000D01*
X140255000Y-63685000D01*
X140255000Y-64185000D01*
X139555000Y-64185000D01*
X139555000Y-64333491D01*
X139558544Y-64351307D01*
X139552317Y-64420899D01*
X139509455Y-64476077D01*
X139443565Y-64499322D01*
X139436927Y-64499500D01*
X137017610Y-64499500D01*
X136950571Y-64479815D01*
X136904816Y-64427011D01*
X136894872Y-64357853D01*
X136923897Y-64294297D01*
X136982675Y-64256523D01*
X136990017Y-64254609D01*
X137162408Y-64215262D01*
X137501708Y-64096536D01*
X137825582Y-63940566D01*
X138129956Y-63749315D01*
X138411003Y-63525188D01*
X138665188Y-63271003D01*
X138889315Y-62989956D01*
X139080566Y-62685582D01*
X139236536Y-62361708D01*
X139355262Y-62022408D01*
X139435252Y-61671948D01*
X139475500Y-61314736D01*
X139475500Y-60955264D01*
X139469482Y-60901852D01*
X139481536Y-60833030D01*
X139528885Y-60781651D01*
X139596495Y-60764026D01*
X139662901Y-60785752D01*
X139695804Y-60819077D01*
X139778248Y-60942462D01*
X139778251Y-60942466D01*
X139917533Y-61081748D01*
X139917537Y-61081751D01*
X140081315Y-61191185D01*
X140081328Y-61191192D01*
X140263308Y-61266569D01*
X140305000Y-61274862D01*
X140305000Y-60471988D01*
X140314940Y-60489205D01*
X140370795Y-60545060D01*
X140439204Y-60584556D01*
X140515504Y-60605000D01*
X140594496Y-60605000D01*
X140670796Y-60584556D01*
X140739205Y-60545060D01*
X140795060Y-60489205D01*
X140805000Y-60471988D01*
X140805000Y-61274862D01*
X140846690Y-61266569D01*
X140846692Y-61266569D01*
X141028671Y-61191192D01*
X141028684Y-61191185D01*
X141192462Y-61081751D01*
X141192466Y-61081748D01*
X141331748Y-60942466D01*
X141331751Y-60942462D01*
X141441185Y-60778684D01*
X141441186Y-60778682D01*
X141445129Y-60769163D01*
X141488968Y-60714757D01*
X141555261Y-60692689D01*
X141622961Y-60709965D01*
X141628400Y-60713647D01*
X141753288Y-60785752D01*
X141762865Y-60791281D01*
X141909234Y-60830500D01*
X141909236Y-60830500D01*
X142060764Y-60830500D01*
X142060766Y-60830500D01*
X142207135Y-60791281D01*
X142338365Y-60715515D01*
X142445515Y-60608365D01*
X142521281Y-60477135D01*
X142560500Y-60330766D01*
X142560500Y-60179234D01*
X142521281Y-60032865D01*
X142445515Y-59901635D01*
X142338365Y-59794485D01*
X142233433Y-59733902D01*
X142207136Y-59718719D01*
X142114825Y-59693985D01*
X142060766Y-59679500D01*
X141909234Y-59679500D01*
X141762863Y-59718719D01*
X141631635Y-59794485D01*
X141631632Y-59794487D01*
X141524487Y-59901632D01*
X141524483Y-59901638D01*
X141500603Y-59943000D01*
X141450036Y-59991216D01*
X141393216Y-60005000D01*
X140855000Y-60005000D01*
X140855000Y-59505000D01*
X141555000Y-59505000D01*
X141555000Y-59106508D01*
X141554999Y-59106504D01*
X141516572Y-58913318D01*
X141516569Y-58913306D01*
X141441192Y-58731328D01*
X141441185Y-58731315D01*
X141331751Y-58567537D01*
X141331748Y-58567533D01*
X141192466Y-58428251D01*
X141192462Y-58428248D01*
X141028684Y-58318814D01*
X141028671Y-58318807D01*
X140846691Y-58243429D01*
X140846683Y-58243427D01*
X140805000Y-58235135D01*
X140805000Y-59038011D01*
X140795060Y-59020795D01*
X140739205Y-58964940D01*
X140670796Y-58925444D01*
X140594496Y-58905000D01*
X140515504Y-58905000D01*
X140439204Y-58925444D01*
X140370795Y-58964940D01*
X140314940Y-59020795D01*
X140305000Y-59038011D01*
X140305000Y-58235136D01*
X140304999Y-58235135D01*
X140263316Y-58243427D01*
X140263308Y-58243429D01*
X140081328Y-58318807D01*
X140081315Y-58318814D01*
X139917537Y-58428248D01*
X139917533Y-58428251D01*
X139778251Y-58567533D01*
X139778248Y-58567537D01*
X139668814Y-58731315D01*
X139668807Y-58731328D01*
X139593430Y-58913306D01*
X139593427Y-58913318D01*
X139555000Y-59106504D01*
X139555000Y-59505000D01*
X140255000Y-59505000D01*
X140255000Y-60005000D01*
X139555000Y-60005000D01*
X139555000Y-60088598D01*
X139535315Y-60155637D01*
X139482511Y-60201392D01*
X139413353Y-60211336D01*
X139349797Y-60182311D01*
X139313959Y-60129553D01*
X139276551Y-60022648D01*
X139236536Y-59908292D01*
X139120047Y-59666401D01*
X139080567Y-59584420D01*
X139030664Y-59505000D01*
X138889315Y-59280044D01*
X138807721Y-59177728D01*
X138807721Y-59177727D01*
X138665194Y-58999003D01*
X138411002Y-58744811D01*
X138288082Y-58646786D01*
X138129956Y-58520685D01*
X137825582Y-58329434D01*
X137825579Y-58329432D01*
X137501711Y-58173465D01*
X137169185Y-58057108D01*
X137169182Y-58057108D01*
X137162409Y-58054738D01*
X137162407Y-58054737D01*
X136811951Y-57974748D01*
X136811935Y-57974746D01*
X136558164Y-57946153D01*
X141674500Y-57946153D01*
X141674500Y-58103846D01*
X141705261Y-58258489D01*
X141705264Y-58258501D01*
X141765602Y-58404172D01*
X141765609Y-58404185D01*
X141853210Y-58535288D01*
X141853213Y-58535292D01*
X141964707Y-58646786D01*
X141964711Y-58646789D01*
X142095814Y-58734390D01*
X142095827Y-58734397D01*
X142241498Y-58794735D01*
X142241503Y-58794737D01*
X142396153Y-58825499D01*
X142396156Y-58825500D01*
X142396158Y-58825500D01*
X142553844Y-58825500D01*
X142553845Y-58825499D01*
X142708497Y-58794737D01*
X142854179Y-58734394D01*
X142985289Y-58646789D01*
X143096789Y-58535289D01*
X143184394Y-58404179D01*
X143244737Y-58258497D01*
X143275500Y-58103842D01*
X143275500Y-57946158D01*
X143275500Y-57946155D01*
X143275499Y-57946153D01*
X146474500Y-57946153D01*
X146474500Y-58103846D01*
X146505261Y-58258489D01*
X146505264Y-58258501D01*
X146565602Y-58404172D01*
X146565609Y-58404185D01*
X146653210Y-58535288D01*
X146653213Y-58535292D01*
X146764707Y-58646786D01*
X146764711Y-58646789D01*
X146895814Y-58734390D01*
X146895827Y-58734397D01*
X147041498Y-58794735D01*
X147041503Y-58794737D01*
X147196153Y-58825499D01*
X147196156Y-58825500D01*
X147196158Y-58825500D01*
X147353844Y-58825500D01*
X147353845Y-58825499D01*
X147508497Y-58794737D01*
X147654179Y-58734394D01*
X147785289Y-58646789D01*
X147896789Y-58535289D01*
X147984394Y-58404179D01*
X148044737Y-58258497D01*
X148075500Y-58103842D01*
X148075500Y-57946158D01*
X148075500Y-57946155D01*
X148075499Y-57946153D01*
X148044738Y-57791510D01*
X148044737Y-57791503D01*
X148044735Y-57791498D01*
X147984397Y-57645827D01*
X147984390Y-57645814D01*
X147896789Y-57514711D01*
X147896786Y-57514707D01*
X147785292Y-57403213D01*
X147785288Y-57403210D01*
X147654185Y-57315609D01*
X147654172Y-57315602D01*
X147508501Y-57255264D01*
X147508489Y-57255261D01*
X147353845Y-57224500D01*
X147353842Y-57224500D01*
X147196158Y-57224500D01*
X147196155Y-57224500D01*
X147041510Y-57255261D01*
X147041498Y-57255264D01*
X146895827Y-57315602D01*
X146895814Y-57315609D01*
X146764711Y-57403210D01*
X146764707Y-57403213D01*
X146653213Y-57514707D01*
X146653210Y-57514711D01*
X146565609Y-57645814D01*
X146565602Y-57645827D01*
X146505264Y-57791498D01*
X146505261Y-57791510D01*
X146474500Y-57946153D01*
X143275499Y-57946153D01*
X143244738Y-57791510D01*
X143244737Y-57791503D01*
X143244735Y-57791498D01*
X143184397Y-57645827D01*
X143184390Y-57645814D01*
X143096789Y-57514711D01*
X143096786Y-57514707D01*
X142985292Y-57403213D01*
X142985288Y-57403210D01*
X142854185Y-57315609D01*
X142854172Y-57315602D01*
X142708501Y-57255264D01*
X142708489Y-57255261D01*
X142553845Y-57224500D01*
X142553842Y-57224500D01*
X142396158Y-57224500D01*
X142396155Y-57224500D01*
X142241510Y-57255261D01*
X142241498Y-57255264D01*
X142095827Y-57315602D01*
X142095814Y-57315609D01*
X141964711Y-57403210D01*
X141964707Y-57403213D01*
X141853213Y-57514707D01*
X141853210Y-57514711D01*
X141765609Y-57645814D01*
X141765602Y-57645827D01*
X141705264Y-57791498D01*
X141705261Y-57791510D01*
X141674500Y-57946153D01*
X136558164Y-57946153D01*
X136454740Y-57934500D01*
X136454736Y-57934500D01*
X136095264Y-57934500D01*
X136095259Y-57934500D01*
X135738064Y-57974746D01*
X135738048Y-57974748D01*
X135387592Y-58054737D01*
X135387580Y-58054741D01*
X135048288Y-58173465D01*
X134724420Y-58329432D01*
X134420045Y-58520684D01*
X134138997Y-58744811D01*
X133884811Y-58998997D01*
X133660684Y-59280045D01*
X133469432Y-59584420D01*
X133313465Y-59908288D01*
X133194741Y-60247580D01*
X133194737Y-60247592D01*
X133114748Y-60598048D01*
X133114746Y-60598064D01*
X133074500Y-60955259D01*
X133074500Y-61314740D01*
X133114746Y-61671935D01*
X133114748Y-61671951D01*
X133194737Y-62022407D01*
X133194741Y-62022419D01*
X133313465Y-62361711D01*
X133469432Y-62685579D01*
X133469434Y-62685582D01*
X133660685Y-62989956D01*
X133884812Y-63271003D01*
X134138997Y-63525188D01*
X134420044Y-63749315D01*
X134724418Y-63940566D01*
X135048292Y-64096536D01*
X135269083Y-64173794D01*
X135387580Y-64215258D01*
X135387588Y-64215261D01*
X135559983Y-64254609D01*
X135620961Y-64288718D01*
X135653819Y-64350379D01*
X135648124Y-64420016D01*
X135605684Y-64475520D01*
X135539974Y-64499268D01*
X135532390Y-64499500D01*
X120709756Y-64499500D01*
X120690360Y-64497973D01*
X120674110Y-64495399D01*
X120657749Y-64492808D01*
X120620853Y-64480820D01*
X120600234Y-64470314D01*
X120568848Y-64447510D01*
X120552489Y-64431151D01*
X120529685Y-64399765D01*
X120519179Y-64379146D01*
X120507192Y-64342253D01*
X120502025Y-64309630D01*
X120500500Y-64290244D01*
X120500500Y-62386097D01*
X120520185Y-62319058D01*
X120572989Y-62273303D01*
X120642147Y-62263359D01*
X120705703Y-62292384D01*
X120723767Y-62311786D01*
X120727813Y-62317190D01*
X120842906Y-62403350D01*
X120842913Y-62403354D01*
X120977620Y-62453596D01*
X120977627Y-62453598D01*
X121037155Y-62459999D01*
X121037172Y-62460000D01*
X121735000Y-62460000D01*
X121735000Y-61435277D01*
X121811306Y-61479333D01*
X121925756Y-61510000D01*
X122044244Y-61510000D01*
X122158694Y-61479333D01*
X122235000Y-61435277D01*
X122235000Y-62460000D01*
X122932828Y-62460000D01*
X122932844Y-62459999D01*
X122992372Y-62453598D01*
X122992379Y-62453596D01*
X123127086Y-62403354D01*
X123127093Y-62403350D01*
X123242187Y-62317190D01*
X123242190Y-62317187D01*
X123328350Y-62202093D01*
X123328354Y-62202086D01*
X123358213Y-62122031D01*
X123400084Y-62066097D01*
X123465548Y-62041680D01*
X123533821Y-62056531D01*
X123562076Y-62077683D01*
X123612636Y-62128243D01*
X123612641Y-62128247D01*
X123768192Y-62241260D01*
X123790978Y-62257815D01*
X123896901Y-62311786D01*
X123987393Y-62357895D01*
X123987396Y-62357896D01*
X124074192Y-62386097D01*
X124197049Y-62426015D01*
X124414778Y-62460500D01*
X124414779Y-62460500D01*
X124635221Y-62460500D01*
X124635222Y-62460500D01*
X124852951Y-62426015D01*
X125062606Y-62357895D01*
X125259022Y-62257815D01*
X125437365Y-62128242D01*
X125593242Y-61972365D01*
X125722815Y-61794022D01*
X125822895Y-61597606D01*
X125891015Y-61387951D01*
X125907735Y-61282386D01*
X125914569Y-61239240D01*
X125914569Y-61239239D01*
X125925500Y-61170222D01*
X125925500Y-60949778D01*
X125900396Y-60791280D01*
X125891015Y-60732049D01*
X125856955Y-60627221D01*
X125822896Y-60522396D01*
X125822895Y-60522393D01*
X125722815Y-60325978D01*
X125618018Y-60181736D01*
X125618017Y-60181735D01*
X125593243Y-60147636D01*
X125557762Y-60112155D01*
X127110000Y-60112155D01*
X127110000Y-60810000D01*
X128134722Y-60810000D01*
X128090667Y-60886306D01*
X128060000Y-61000756D01*
X128060000Y-61119244D01*
X128090667Y-61233694D01*
X128134722Y-61310000D01*
X127110000Y-61310000D01*
X127110000Y-62007844D01*
X127116401Y-62067372D01*
X127116403Y-62067379D01*
X127166645Y-62202086D01*
X127166649Y-62202093D01*
X127252809Y-62317187D01*
X127252812Y-62317190D01*
X127367906Y-62403350D01*
X127367913Y-62403354D01*
X127502620Y-62453596D01*
X127502627Y-62453598D01*
X127562155Y-62459999D01*
X127562172Y-62460000D01*
X128260000Y-62460000D01*
X128260000Y-61435277D01*
X128336306Y-61479333D01*
X128450756Y-61510000D01*
X128569244Y-61510000D01*
X128683694Y-61479333D01*
X128760000Y-61435277D01*
X128760000Y-62460000D01*
X129457828Y-62460000D01*
X129457844Y-62459999D01*
X129517372Y-62453598D01*
X129517379Y-62453596D01*
X129652086Y-62403354D01*
X129652093Y-62403350D01*
X129767187Y-62317190D01*
X129767190Y-62317187D01*
X129853350Y-62202093D01*
X129853354Y-62202086D01*
X129883213Y-62122031D01*
X129925084Y-62066097D01*
X129990548Y-62041680D01*
X130058821Y-62056531D01*
X130087076Y-62077683D01*
X130137636Y-62128243D01*
X130137641Y-62128247D01*
X130293192Y-62241260D01*
X130315978Y-62257815D01*
X130421901Y-62311786D01*
X130512393Y-62357895D01*
X130512396Y-62357896D01*
X130599192Y-62386097D01*
X130722049Y-62426015D01*
X130939778Y-62460500D01*
X130939779Y-62460500D01*
X131160221Y-62460500D01*
X131160222Y-62460500D01*
X131377951Y-62426015D01*
X131587606Y-62357895D01*
X131784022Y-62257815D01*
X131962365Y-62128242D01*
X132118242Y-61972365D01*
X132247815Y-61794022D01*
X132347895Y-61597606D01*
X132416015Y-61387951D01*
X132450500Y-61170222D01*
X132450500Y-60949778D01*
X132416015Y-60732049D01*
X132381955Y-60627221D01*
X132347896Y-60522396D01*
X132347895Y-60522393D01*
X132313237Y-60454375D01*
X132247815Y-60325978D01*
X132190856Y-60247580D01*
X132118247Y-60147641D01*
X132118243Y-60147636D01*
X131962363Y-59991756D01*
X131962358Y-59991752D01*
X131784025Y-59862187D01*
X131784024Y-59862186D01*
X131784022Y-59862185D01*
X131704329Y-59821579D01*
X131587606Y-59762104D01*
X131587603Y-59762103D01*
X131377952Y-59693985D01*
X131269086Y-59676742D01*
X131160222Y-59659500D01*
X130939778Y-59659500D01*
X130867201Y-59670995D01*
X130722047Y-59693985D01*
X130512396Y-59762103D01*
X130512393Y-59762104D01*
X130315974Y-59862187D01*
X130137641Y-59991752D01*
X130137636Y-59991756D01*
X130087075Y-60042317D01*
X130025752Y-60075801D01*
X129956060Y-60070816D01*
X129900127Y-60028945D01*
X129883213Y-59997968D01*
X129853354Y-59917913D01*
X129853350Y-59917906D01*
X129767190Y-59802812D01*
X129767187Y-59802809D01*
X129652093Y-59716649D01*
X129652086Y-59716645D01*
X129517379Y-59666403D01*
X129517372Y-59666401D01*
X129457844Y-59660000D01*
X128760000Y-59660000D01*
X128760000Y-60684722D01*
X128683694Y-60640667D01*
X128569244Y-60610000D01*
X128450756Y-60610000D01*
X128336306Y-60640667D01*
X128260000Y-60684722D01*
X128260000Y-59660000D01*
X127562155Y-59660000D01*
X127502627Y-59666401D01*
X127502620Y-59666403D01*
X127367913Y-59716645D01*
X127367906Y-59716649D01*
X127252812Y-59802809D01*
X127252809Y-59802812D01*
X127166649Y-59917906D01*
X127166645Y-59917913D01*
X127116403Y-60052620D01*
X127116401Y-60052627D01*
X127110000Y-60112155D01*
X125557762Y-60112155D01*
X125437363Y-59991756D01*
X125437358Y-59991752D01*
X125259025Y-59862187D01*
X125259024Y-59862186D01*
X125259022Y-59862185D01*
X125179329Y-59821579D01*
X125062606Y-59762104D01*
X125062603Y-59762103D01*
X124852952Y-59693985D01*
X124744086Y-59676742D01*
X124635222Y-59659500D01*
X124414778Y-59659500D01*
X124342201Y-59670995D01*
X124197047Y-59693985D01*
X123987396Y-59762103D01*
X123987393Y-59762104D01*
X123790974Y-59862187D01*
X123612641Y-59991752D01*
X123612636Y-59991756D01*
X123562075Y-60042317D01*
X123500752Y-60075801D01*
X123431060Y-60070816D01*
X123375127Y-60028945D01*
X123358213Y-59997968D01*
X123328354Y-59917913D01*
X123328350Y-59917906D01*
X123242190Y-59802812D01*
X123242187Y-59802809D01*
X123127093Y-59716649D01*
X123127086Y-59716645D01*
X122992379Y-59666403D01*
X122992372Y-59666401D01*
X122932844Y-59660000D01*
X122235000Y-59660000D01*
X122235000Y-60684722D01*
X122158694Y-60640667D01*
X122044244Y-60610000D01*
X121925756Y-60610000D01*
X121811306Y-60640667D01*
X121735000Y-60684722D01*
X121735000Y-59660000D01*
X121037155Y-59660000D01*
X120977627Y-59666401D01*
X120977620Y-59666403D01*
X120842913Y-59716645D01*
X120842906Y-59716649D01*
X120727812Y-59802809D01*
X120723764Y-59808217D01*
X120667828Y-59850086D01*
X120598137Y-59855067D01*
X120536815Y-59821579D01*
X120503333Y-59760255D01*
X120500500Y-59733902D01*
X120500500Y-55366155D01*
X138420257Y-55366155D01*
X138420257Y-55523848D01*
X138451018Y-55678491D01*
X138451021Y-55678503D01*
X138511359Y-55824174D01*
X138511366Y-55824187D01*
X138598967Y-55955290D01*
X138598970Y-55955294D01*
X138710464Y-56066788D01*
X138710468Y-56066791D01*
X138841571Y-56154392D01*
X138841584Y-56154399D01*
X138987255Y-56214737D01*
X138987260Y-56214739D01*
X139141910Y-56245501D01*
X139141913Y-56245502D01*
X139141915Y-56245502D01*
X139299601Y-56245502D01*
X139299602Y-56245501D01*
X139454254Y-56214739D01*
X139599936Y-56154396D01*
X139731046Y-56066791D01*
X139842546Y-55955291D01*
X139930151Y-55824181D01*
X139990494Y-55678499D01*
X140021257Y-55523844D01*
X140021257Y-55366160D01*
X140021257Y-55366157D01*
X140021256Y-55366155D01*
X140002077Y-55269737D01*
X139990494Y-55211505D01*
X139953333Y-55121789D01*
X139930154Y-55065829D01*
X139930147Y-55065816D01*
X139842546Y-54934713D01*
X139842543Y-54934709D01*
X139731049Y-54823215D01*
X139731045Y-54823212D01*
X139611299Y-54743200D01*
X139611250Y-54743168D01*
X139599936Y-54735608D01*
X139599929Y-54735604D01*
X139454258Y-54675266D01*
X139454246Y-54675263D01*
X139307902Y-54646153D01*
X141149500Y-54646153D01*
X141149500Y-54803846D01*
X141180261Y-54958489D01*
X141180264Y-54958501D01*
X141240602Y-55104172D01*
X141240609Y-55104185D01*
X141328210Y-55235288D01*
X141328213Y-55235292D01*
X141439707Y-55346786D01*
X141439711Y-55346789D01*
X141570814Y-55434390D01*
X141570827Y-55434397D01*
X141716498Y-55494735D01*
X141716503Y-55494737D01*
X141862833Y-55523844D01*
X141871153Y-55525499D01*
X141871156Y-55525500D01*
X141871158Y-55525500D01*
X142028844Y-55525500D01*
X142028845Y-55525499D01*
X142183497Y-55494737D01*
X142329179Y-55434394D01*
X142460289Y-55346789D01*
X142571789Y-55235289D01*
X142659394Y-55104179D01*
X142719737Y-54958497D01*
X142750500Y-54803842D01*
X142750500Y-54646158D01*
X142750500Y-54646155D01*
X142750499Y-54646153D01*
X142733200Y-54559185D01*
X142719737Y-54491503D01*
X142719735Y-54491498D01*
X142659397Y-54345827D01*
X142659390Y-54345814D01*
X142571789Y-54214711D01*
X142571786Y-54214707D01*
X142460292Y-54103213D01*
X142460288Y-54103210D01*
X142329185Y-54015609D01*
X142329172Y-54015602D01*
X142183501Y-53955264D01*
X142183489Y-53955261D01*
X142028845Y-53924500D01*
X142028842Y-53924500D01*
X141871158Y-53924500D01*
X141871155Y-53924500D01*
X141716510Y-53955261D01*
X141716498Y-53955264D01*
X141570827Y-54015602D01*
X141570814Y-54015609D01*
X141439711Y-54103210D01*
X141439707Y-54103213D01*
X141328213Y-54214707D01*
X141328210Y-54214711D01*
X141240609Y-54345814D01*
X141240602Y-54345827D01*
X141180264Y-54491498D01*
X141180261Y-54491510D01*
X141149500Y-54646153D01*
X139307902Y-54646153D01*
X139299602Y-54644502D01*
X139299599Y-54644502D01*
X139141915Y-54644502D01*
X139141912Y-54644502D01*
X138987267Y-54675263D01*
X138987255Y-54675266D01*
X138841584Y-54735604D01*
X138841571Y-54735611D01*
X138710468Y-54823212D01*
X138710464Y-54823215D01*
X138598970Y-54934709D01*
X138598967Y-54934713D01*
X138511366Y-55065816D01*
X138511359Y-55065829D01*
X138451021Y-55211500D01*
X138451018Y-55211512D01*
X138420257Y-55366155D01*
X120500500Y-55366155D01*
X120500500Y-54181153D01*
X122234500Y-54181153D01*
X122234500Y-54338846D01*
X122265261Y-54493489D01*
X122265264Y-54493501D01*
X122325602Y-54639172D01*
X122325609Y-54639185D01*
X122413210Y-54770288D01*
X122413213Y-54770292D01*
X122524707Y-54881786D01*
X122524711Y-54881789D01*
X122655814Y-54969390D01*
X122655827Y-54969397D01*
X122754558Y-55010292D01*
X122801503Y-55029737D01*
X122956153Y-55060499D01*
X122956156Y-55060500D01*
X122956158Y-55060500D01*
X123113844Y-55060500D01*
X123113845Y-55060499D01*
X123268497Y-55029737D01*
X123414179Y-54969394D01*
X123545289Y-54881789D01*
X123622319Y-54804758D01*
X123683639Y-54771274D01*
X123753331Y-54776258D01*
X123788980Y-54799167D01*
X123790001Y-54797924D01*
X123794711Y-54801789D01*
X123925814Y-54889390D01*
X123925827Y-54889397D01*
X124071498Y-54949735D01*
X124071503Y-54949737D01*
X124226153Y-54980499D01*
X124226156Y-54980500D01*
X124226158Y-54980500D01*
X124383844Y-54980500D01*
X124383845Y-54980499D01*
X124538497Y-54949737D01*
X124684179Y-54889394D01*
X124815289Y-54801789D01*
X124926789Y-54690289D01*
X125014394Y-54559179D01*
X125071566Y-54421153D01*
X136599500Y-54421153D01*
X136599500Y-54578846D01*
X136630261Y-54733489D01*
X136630264Y-54733501D01*
X136690602Y-54879172D01*
X136690609Y-54879185D01*
X136778210Y-55010288D01*
X136778213Y-55010292D01*
X136889707Y-55121786D01*
X136889711Y-55121789D01*
X137020814Y-55209390D01*
X137020827Y-55209397D01*
X137108006Y-55245507D01*
X137166503Y-55269737D01*
X137321153Y-55300499D01*
X137321156Y-55300500D01*
X137321158Y-55300500D01*
X137478844Y-55300500D01*
X137478845Y-55300499D01*
X137633497Y-55269737D01*
X137657880Y-55259637D01*
X137691995Y-55245507D01*
X137779172Y-55209397D01*
X137779172Y-55209396D01*
X137779179Y-55209394D01*
X137910289Y-55121789D01*
X138021789Y-55010289D01*
X138109394Y-54879179D01*
X138169737Y-54733497D01*
X138200500Y-54578842D01*
X138200500Y-54421158D01*
X138200500Y-54421155D01*
X138200499Y-54421153D01*
X138194476Y-54390874D01*
X138169737Y-54266503D01*
X138148283Y-54214707D01*
X138109397Y-54120827D01*
X138109390Y-54120814D01*
X138021789Y-53989711D01*
X138021786Y-53989707D01*
X137910292Y-53878213D01*
X137910288Y-53878210D01*
X137779185Y-53790609D01*
X137779172Y-53790602D01*
X137633501Y-53730264D01*
X137633489Y-53730261D01*
X137478845Y-53699500D01*
X137478842Y-53699500D01*
X137321158Y-53699500D01*
X137321155Y-53699500D01*
X137166510Y-53730261D01*
X137166498Y-53730264D01*
X137020827Y-53790602D01*
X137020814Y-53790609D01*
X136889711Y-53878210D01*
X136889707Y-53878213D01*
X136778213Y-53989707D01*
X136778210Y-53989711D01*
X136690609Y-54120814D01*
X136690602Y-54120827D01*
X136630264Y-54266498D01*
X136630261Y-54266510D01*
X136599500Y-54421153D01*
X125071566Y-54421153D01*
X125074737Y-54413497D01*
X125105500Y-54258842D01*
X125105500Y-54101158D01*
X125105500Y-54101155D01*
X125105499Y-54101153D01*
X125088483Y-54015609D01*
X125074737Y-53946503D01*
X125065623Y-53924500D01*
X125014397Y-53800827D01*
X125014390Y-53800814D01*
X124926789Y-53669711D01*
X124926786Y-53669707D01*
X124815292Y-53558213D01*
X124815288Y-53558210D01*
X124684185Y-53470609D01*
X124684172Y-53470602D01*
X124538501Y-53410264D01*
X124538489Y-53410261D01*
X124383845Y-53379500D01*
X124383842Y-53379500D01*
X124226158Y-53379500D01*
X124226155Y-53379500D01*
X124071510Y-53410261D01*
X124071498Y-53410264D01*
X123925827Y-53470602D01*
X123925814Y-53470609D01*
X123794711Y-53558210D01*
X123717680Y-53635241D01*
X123656356Y-53668725D01*
X123586665Y-53663740D01*
X123551024Y-53640826D01*
X123549999Y-53642076D01*
X123545288Y-53638210D01*
X123414185Y-53550609D01*
X123414172Y-53550602D01*
X123268501Y-53490264D01*
X123268489Y-53490261D01*
X123113845Y-53459500D01*
X123113842Y-53459500D01*
X122956158Y-53459500D01*
X122956155Y-53459500D01*
X122801510Y-53490261D01*
X122801498Y-53490264D01*
X122655827Y-53550602D01*
X122655814Y-53550609D01*
X122524711Y-53638210D01*
X122524707Y-53638213D01*
X122413213Y-53749707D01*
X122413210Y-53749711D01*
X122325609Y-53880814D01*
X122325602Y-53880827D01*
X122265264Y-54026498D01*
X122265261Y-54026510D01*
X122234500Y-54181153D01*
X120500500Y-54181153D01*
X120500500Y-53171153D01*
X143574500Y-53171153D01*
X143574500Y-53328846D01*
X143605261Y-53483489D01*
X143605264Y-53483501D01*
X143665602Y-53629172D01*
X143665609Y-53629185D01*
X143753210Y-53760288D01*
X143753213Y-53760292D01*
X143864707Y-53871786D01*
X143864711Y-53871789D01*
X143995814Y-53959390D01*
X143995827Y-53959397D01*
X144069013Y-53989711D01*
X144141503Y-54019737D01*
X144296153Y-54050499D01*
X144296156Y-54050500D01*
X144296158Y-54050500D01*
X144453844Y-54050500D01*
X144453845Y-54050499D01*
X144608497Y-54019737D01*
X144754179Y-53959394D01*
X144885289Y-53871789D01*
X144996789Y-53760289D01*
X145084394Y-53629179D01*
X145144737Y-53483497D01*
X145175500Y-53328842D01*
X145175500Y-53171158D01*
X145175500Y-53171155D01*
X145175499Y-53171153D01*
X145144738Y-53016510D01*
X145144737Y-53016503D01*
X145144735Y-53016498D01*
X145084397Y-52870827D01*
X145084390Y-52870814D01*
X144996789Y-52739711D01*
X144996786Y-52739707D01*
X144885292Y-52628213D01*
X144885288Y-52628210D01*
X144754185Y-52540609D01*
X144754172Y-52540602D01*
X144608501Y-52480264D01*
X144608489Y-52480261D01*
X144453845Y-52449500D01*
X144453842Y-52449500D01*
X144296158Y-52449500D01*
X144296155Y-52449500D01*
X144141510Y-52480261D01*
X144141498Y-52480264D01*
X143995827Y-52540602D01*
X143995814Y-52540609D01*
X143864711Y-52628210D01*
X143864707Y-52628213D01*
X143753213Y-52739707D01*
X143753210Y-52739711D01*
X143665609Y-52870814D01*
X143665602Y-52870827D01*
X143605264Y-53016498D01*
X143605261Y-53016510D01*
X143574500Y-53171153D01*
X120500500Y-53171153D01*
X120500500Y-50606153D01*
X135534500Y-50606153D01*
X135534500Y-50763846D01*
X135565261Y-50918489D01*
X135565264Y-50918501D01*
X135625602Y-51064172D01*
X135625609Y-51064185D01*
X135713210Y-51195288D01*
X135713213Y-51195292D01*
X135824707Y-51306786D01*
X135824711Y-51306789D01*
X135955814Y-51394390D01*
X135955827Y-51394397D01*
X136101498Y-51454735D01*
X136101503Y-51454737D01*
X136256153Y-51485499D01*
X136256156Y-51485500D01*
X136256158Y-51485500D01*
X136413844Y-51485500D01*
X136413845Y-51485499D01*
X136568497Y-51454737D01*
X136714179Y-51394394D01*
X136845289Y-51306789D01*
X136956789Y-51195289D01*
X137044394Y-51064179D01*
X137104737Y-50918497D01*
X137135500Y-50763842D01*
X137135500Y-50606158D01*
X137135500Y-50606155D01*
X137135499Y-50606153D01*
X137130135Y-50579185D01*
X137104737Y-50451503D01*
X137104735Y-50451498D01*
X137044397Y-50305827D01*
X137044390Y-50305814D01*
X136962967Y-50183957D01*
X136962966Y-50183955D01*
X136956790Y-50174712D01*
X136956786Y-50174707D01*
X136903232Y-50121153D01*
X140074500Y-50121153D01*
X140074500Y-50278846D01*
X140105261Y-50433489D01*
X140105264Y-50433501D01*
X140165602Y-50579172D01*
X140165609Y-50579185D01*
X140253210Y-50710288D01*
X140253213Y-50710292D01*
X140364707Y-50821786D01*
X140364711Y-50821789D01*
X140495814Y-50909390D01*
X140495827Y-50909397D01*
X140595060Y-50950500D01*
X140641503Y-50969737D01*
X140796153Y-51000499D01*
X140796156Y-51000500D01*
X140796158Y-51000500D01*
X140953844Y-51000500D01*
X140953845Y-51000499D01*
X141108497Y-50969737D01*
X141254179Y-50909394D01*
X141385289Y-50821789D01*
X141496789Y-50710289D01*
X141584394Y-50579179D01*
X141644737Y-50433497D01*
X141675500Y-50278842D01*
X141675500Y-50121158D01*
X141675500Y-50121155D01*
X141675499Y-50121153D01*
X141669769Y-50092345D01*
X141644737Y-49966503D01*
X141644735Y-49966498D01*
X141584397Y-49820827D01*
X141584390Y-49820814D01*
X141496789Y-49689711D01*
X141496786Y-49689707D01*
X141385292Y-49578213D01*
X141385288Y-49578210D01*
X141254185Y-49490609D01*
X141254172Y-49490602D01*
X141108501Y-49430264D01*
X141108489Y-49430261D01*
X140953845Y-49399500D01*
X140953842Y-49399500D01*
X140796158Y-49399500D01*
X140796155Y-49399500D01*
X140641510Y-49430261D01*
X140641498Y-49430264D01*
X140495827Y-49490602D01*
X140495814Y-49490609D01*
X140364711Y-49578210D01*
X140364707Y-49578213D01*
X140253213Y-49689707D01*
X140253210Y-49689711D01*
X140165609Y-49820814D01*
X140165602Y-49820827D01*
X140105264Y-49966498D01*
X140105261Y-49966510D01*
X140074500Y-50121153D01*
X136903232Y-50121153D01*
X136845292Y-50063213D01*
X136845288Y-50063210D01*
X136714185Y-49975609D01*
X136714172Y-49975602D01*
X136568501Y-49915264D01*
X136568489Y-49915261D01*
X136413845Y-49884500D01*
X136413842Y-49884500D01*
X136256158Y-49884500D01*
X136256155Y-49884500D01*
X136101510Y-49915261D01*
X136101498Y-49915264D01*
X135955827Y-49975602D01*
X135955814Y-49975609D01*
X135824711Y-50063210D01*
X135824707Y-50063213D01*
X135713213Y-50174707D01*
X135713210Y-50174711D01*
X135625609Y-50305814D01*
X135625602Y-50305827D01*
X135565264Y-50451498D01*
X135565261Y-50451510D01*
X135534500Y-50606153D01*
X120500500Y-50606153D01*
X120500500Y-48066153D01*
X135529500Y-48066153D01*
X135529500Y-48223846D01*
X135560261Y-48378489D01*
X135560264Y-48378501D01*
X135620602Y-48524172D01*
X135620609Y-48524185D01*
X135708210Y-48655288D01*
X135708213Y-48655292D01*
X135819707Y-48766786D01*
X135819711Y-48766789D01*
X135950814Y-48854390D01*
X135950827Y-48854397D01*
X136096498Y-48914735D01*
X136096503Y-48914737D01*
X136251153Y-48945499D01*
X136251156Y-48945500D01*
X136251158Y-48945500D01*
X136408844Y-48945500D01*
X136408845Y-48945499D01*
X136563497Y-48914737D01*
X136709179Y-48854394D01*
X136840289Y-48766789D01*
X136951789Y-48655289D01*
X137039394Y-48524179D01*
X137099737Y-48378497D01*
X137130500Y-48223842D01*
X137130500Y-48066158D01*
X137130500Y-48066155D01*
X137117312Y-47999858D01*
X137117312Y-47999857D01*
X137113711Y-47981753D01*
X140910100Y-47981753D01*
X140910100Y-48139446D01*
X140940861Y-48294089D01*
X140940864Y-48294101D01*
X141001202Y-48439772D01*
X141001209Y-48439785D01*
X141088810Y-48570888D01*
X141088813Y-48570892D01*
X141200307Y-48682386D01*
X141200311Y-48682389D01*
X141331414Y-48769990D01*
X141331427Y-48769997D01*
X141477098Y-48830335D01*
X141477103Y-48830337D01*
X141598025Y-48854390D01*
X141631753Y-48861099D01*
X141631756Y-48861100D01*
X141631758Y-48861100D01*
X141789444Y-48861100D01*
X141789445Y-48861099D01*
X141944097Y-48830337D01*
X142089779Y-48769994D01*
X142220889Y-48682389D01*
X142243289Y-48659987D01*
X142304609Y-48626504D01*
X142374300Y-48631487D01*
X142378423Y-48633110D01*
X142380898Y-48634135D01*
X142380903Y-48634137D01*
X142487236Y-48655288D01*
X142535553Y-48664899D01*
X142535556Y-48664900D01*
X142629350Y-48664900D01*
X142696389Y-48684585D01*
X142742144Y-48737389D01*
X142743911Y-48741448D01*
X142790602Y-48854172D01*
X142790609Y-48854185D01*
X142878210Y-48985288D01*
X142878213Y-48985292D01*
X142989707Y-49096786D01*
X142989711Y-49096789D01*
X143120814Y-49184390D01*
X143120827Y-49184397D01*
X143193853Y-49214645D01*
X143248257Y-49258485D01*
X143270322Y-49324780D01*
X143268019Y-49353395D01*
X143262000Y-49383657D01*
X143262000Y-49541346D01*
X143292761Y-49695989D01*
X143292764Y-49696001D01*
X143353102Y-49841672D01*
X143353109Y-49841685D01*
X143440710Y-49972788D01*
X143440713Y-49972792D01*
X143552207Y-50084286D01*
X143552211Y-50084289D01*
X143683314Y-50171890D01*
X143683327Y-50171897D01*
X143820816Y-50228846D01*
X143829003Y-50232237D01*
X143983653Y-50262999D01*
X143983656Y-50263000D01*
X143983658Y-50263000D01*
X144141344Y-50263000D01*
X144141345Y-50262999D01*
X144295997Y-50232237D01*
X144368140Y-50202354D01*
X144437604Y-50194886D01*
X144500084Y-50226160D01*
X144535737Y-50286249D01*
X144537206Y-50292724D01*
X144555261Y-50383491D01*
X144555264Y-50383501D01*
X144615602Y-50529172D01*
X144615609Y-50529185D01*
X144703210Y-50660288D01*
X144703213Y-50660292D01*
X144814707Y-50771786D01*
X144814711Y-50771789D01*
X144945814Y-50859390D01*
X144945827Y-50859397D01*
X145088490Y-50918489D01*
X145091503Y-50919737D01*
X145246153Y-50950499D01*
X145246156Y-50950500D01*
X145246158Y-50950500D01*
X145403844Y-50950500D01*
X145403845Y-50950499D01*
X145558497Y-50919737D01*
X145704179Y-50859394D01*
X145835289Y-50771789D01*
X145946789Y-50660289D01*
X146034394Y-50529179D01*
X146094737Y-50383497D01*
X146125500Y-50228842D01*
X146125500Y-50071158D01*
X146125500Y-50071155D01*
X146125499Y-50071153D01*
X146106493Y-49975606D01*
X146094737Y-49916503D01*
X146093785Y-49914205D01*
X146034397Y-49770827D01*
X146034390Y-49770814D01*
X145946789Y-49639711D01*
X145946786Y-49639707D01*
X145835292Y-49528213D01*
X145835288Y-49528210D01*
X145704185Y-49440609D01*
X145704172Y-49440602D01*
X145558501Y-49380264D01*
X145558489Y-49380261D01*
X145403845Y-49349500D01*
X145403842Y-49349500D01*
X145246158Y-49349500D01*
X145246155Y-49349500D01*
X145091510Y-49380261D01*
X145091498Y-49380264D01*
X145019362Y-49410144D01*
X144949893Y-49417613D01*
X144887414Y-49386337D01*
X144851762Y-49326248D01*
X144850293Y-49319774D01*
X144836247Y-49249162D01*
X144832237Y-49229003D01*
X144813761Y-49184397D01*
X144771897Y-49083327D01*
X144771890Y-49083314D01*
X144684289Y-48952211D01*
X144684286Y-48952207D01*
X144572792Y-48840713D01*
X144572788Y-48840710D01*
X144441685Y-48753109D01*
X144441675Y-48753104D01*
X144368645Y-48722854D01*
X144314242Y-48679013D01*
X144292177Y-48612719D01*
X144294481Y-48584100D01*
X144297109Y-48570892D01*
X144300500Y-48553842D01*
X144300500Y-48396158D01*
X144300500Y-48396155D01*
X144300499Y-48396153D01*
X144280199Y-48294101D01*
X144269737Y-48241503D01*
X144262423Y-48223846D01*
X144209397Y-48095827D01*
X144209390Y-48095814D01*
X144121789Y-47964711D01*
X144121786Y-47964707D01*
X144010292Y-47853213D01*
X144010288Y-47853210D01*
X143879185Y-47765609D01*
X143879172Y-47765602D01*
X143733501Y-47705264D01*
X143733489Y-47705261D01*
X143578845Y-47674500D01*
X143578842Y-47674500D01*
X143485050Y-47674500D01*
X143418011Y-47654815D01*
X143372256Y-47602011D01*
X143370489Y-47597952D01*
X143323797Y-47485227D01*
X143323790Y-47485214D01*
X143236189Y-47354111D01*
X143236186Y-47354107D01*
X143124692Y-47242613D01*
X143124688Y-47242610D01*
X142993585Y-47155009D01*
X142993572Y-47155002D01*
X142847901Y-47094664D01*
X142847889Y-47094661D01*
X142693245Y-47063900D01*
X142693242Y-47063900D01*
X142535558Y-47063900D01*
X142535555Y-47063900D01*
X142380910Y-47094661D01*
X142380898Y-47094664D01*
X142235227Y-47155002D01*
X142235214Y-47155009D01*
X142104114Y-47242608D01*
X142104113Y-47242608D01*
X142081707Y-47265014D01*
X142020383Y-47298496D01*
X141950691Y-47293509D01*
X141946577Y-47291890D01*
X141944101Y-47290864D01*
X141944089Y-47290861D01*
X141789445Y-47260100D01*
X141789442Y-47260100D01*
X141631758Y-47260100D01*
X141631755Y-47260100D01*
X141477110Y-47290861D01*
X141477098Y-47290864D01*
X141331427Y-47351202D01*
X141331414Y-47351209D01*
X141200311Y-47438810D01*
X141200307Y-47438813D01*
X141088813Y-47550307D01*
X141088810Y-47550311D01*
X141001209Y-47681414D01*
X141001202Y-47681427D01*
X140940864Y-47827098D01*
X140940861Y-47827110D01*
X140910100Y-47981753D01*
X137113711Y-47981753D01*
X137099738Y-47911510D01*
X137099737Y-47911503D01*
X137075592Y-47853211D01*
X137039397Y-47765827D01*
X137039390Y-47765814D01*
X136951789Y-47634711D01*
X136951786Y-47634707D01*
X136840292Y-47523213D01*
X136840288Y-47523210D01*
X136709185Y-47435609D01*
X136709172Y-47435602D01*
X136563501Y-47375264D01*
X136563489Y-47375261D01*
X136408845Y-47344500D01*
X136408842Y-47344500D01*
X136251158Y-47344500D01*
X136251155Y-47344500D01*
X136096510Y-47375261D01*
X136096498Y-47375264D01*
X135950827Y-47435602D01*
X135950814Y-47435609D01*
X135819711Y-47523210D01*
X135819707Y-47523213D01*
X135708213Y-47634707D01*
X135708210Y-47634711D01*
X135620609Y-47765814D01*
X135620602Y-47765827D01*
X135560264Y-47911498D01*
X135560261Y-47911510D01*
X135529500Y-48066153D01*
X120500500Y-48066153D01*
X120500500Y-45526153D01*
X135529500Y-45526153D01*
X135529500Y-45683846D01*
X135560261Y-45838489D01*
X135560264Y-45838501D01*
X135620602Y-45984172D01*
X135620609Y-45984185D01*
X135708210Y-46115288D01*
X135708213Y-46115292D01*
X135819707Y-46226786D01*
X135819711Y-46226789D01*
X135950814Y-46314390D01*
X135950827Y-46314397D01*
X136096498Y-46374735D01*
X136096503Y-46374737D01*
X136251153Y-46405499D01*
X136251156Y-46405500D01*
X136251158Y-46405500D01*
X136408844Y-46405500D01*
X136408845Y-46405499D01*
X136563497Y-46374737D01*
X136709179Y-46314394D01*
X136840289Y-46226789D01*
X136951789Y-46115289D01*
X137039394Y-45984179D01*
X137099737Y-45838497D01*
X137130500Y-45683842D01*
X137130500Y-45526158D01*
X137130500Y-45526155D01*
X137130499Y-45526153D01*
X137130011Y-45523698D01*
X137099737Y-45371503D01*
X137047681Y-45245827D01*
X137039397Y-45225827D01*
X137039390Y-45225814D01*
X136951789Y-45094711D01*
X136951786Y-45094707D01*
X136840292Y-44983213D01*
X136840288Y-44983210D01*
X136709185Y-44895609D01*
X136709172Y-44895602D01*
X136563501Y-44835264D01*
X136563489Y-44835261D01*
X136408845Y-44804500D01*
X136408842Y-44804500D01*
X136251158Y-44804500D01*
X136251155Y-44804500D01*
X136096510Y-44835261D01*
X136096498Y-44835264D01*
X135950827Y-44895602D01*
X135950814Y-44895609D01*
X135819711Y-44983210D01*
X135819707Y-44983213D01*
X135708213Y-45094707D01*
X135708210Y-45094711D01*
X135620609Y-45225814D01*
X135620602Y-45225827D01*
X135560264Y-45371498D01*
X135560261Y-45371510D01*
X135529500Y-45526153D01*
X120500500Y-45526153D01*
X120500500Y-44103353D01*
X140867300Y-44103353D01*
X140867300Y-44261046D01*
X140898061Y-44415689D01*
X140898064Y-44415701D01*
X140958402Y-44561372D01*
X140958409Y-44561385D01*
X141046010Y-44692488D01*
X141046013Y-44692492D01*
X141157507Y-44803986D01*
X141157511Y-44803989D01*
X141288614Y-44891590D01*
X141288627Y-44891597D01*
X141434298Y-44951935D01*
X141434303Y-44951937D01*
X141434307Y-44951937D01*
X141439456Y-44953500D01*
X141497894Y-44991799D01*
X141526349Y-45055612D01*
X141515787Y-45124678D01*
X141469562Y-45177071D01*
X141450911Y-45186721D01*
X141320823Y-45240604D01*
X141320814Y-45240609D01*
X141189711Y-45328210D01*
X141189707Y-45328213D01*
X141078213Y-45439707D01*
X141078210Y-45439711D01*
X140990609Y-45570814D01*
X140990602Y-45570827D01*
X140930264Y-45716498D01*
X140930261Y-45716510D01*
X140899500Y-45871153D01*
X140899500Y-46028846D01*
X140930261Y-46183489D01*
X140930264Y-46183501D01*
X140990602Y-46329172D01*
X140990609Y-46329185D01*
X141078210Y-46460288D01*
X141078213Y-46460292D01*
X141189707Y-46571786D01*
X141189711Y-46571789D01*
X141320814Y-46659390D01*
X141320827Y-46659397D01*
X141466498Y-46719735D01*
X141466503Y-46719737D01*
X141621153Y-46750499D01*
X141621156Y-46750500D01*
X141621158Y-46750500D01*
X141778844Y-46750500D01*
X141778845Y-46750499D01*
X141933497Y-46719737D01*
X142079179Y-46659394D01*
X142210289Y-46571789D01*
X142224362Y-46557714D01*
X142285682Y-46524231D01*
X142342575Y-46526516D01*
X142342728Y-46525749D01*
X142347601Y-46526718D01*
X142348039Y-46526736D01*
X142348703Y-46526937D01*
X142503353Y-46557699D01*
X142503356Y-46557700D01*
X142503358Y-46557700D01*
X142661044Y-46557700D01*
X142661045Y-46557699D01*
X142815697Y-46526937D01*
X142961379Y-46466594D01*
X143092489Y-46378989D01*
X143203989Y-46267489D01*
X143291594Y-46136379D01*
X143292046Y-46135289D01*
X143346350Y-46004185D01*
X143351937Y-45990697D01*
X143382700Y-45836042D01*
X143382700Y-45678358D01*
X143382700Y-45678355D01*
X143360004Y-45564258D01*
X143360004Y-45564257D01*
X143356403Y-45546153D01*
X147149500Y-45546153D01*
X147149500Y-45703846D01*
X147180261Y-45858489D01*
X147180264Y-45858501D01*
X147240602Y-46004172D01*
X147240609Y-46004185D01*
X147328210Y-46135288D01*
X147328213Y-46135292D01*
X147439707Y-46246786D01*
X147439711Y-46246789D01*
X147570814Y-46334390D01*
X147570827Y-46334397D01*
X147716498Y-46394735D01*
X147716503Y-46394737D01*
X147871153Y-46425499D01*
X147871156Y-46425500D01*
X147871158Y-46425500D01*
X148028844Y-46425500D01*
X148028845Y-46425499D01*
X148183497Y-46394737D01*
X148329179Y-46334394D01*
X148460289Y-46246789D01*
X148571789Y-46135289D01*
X148659394Y-46004179D01*
X148719737Y-45858497D01*
X148750500Y-45703842D01*
X148750500Y-45546158D01*
X148750500Y-45546155D01*
X148750499Y-45546153D01*
X148719738Y-45391510D01*
X148719737Y-45391503D01*
X148693521Y-45328211D01*
X148659397Y-45245827D01*
X148659390Y-45245814D01*
X148571789Y-45114711D01*
X148571786Y-45114707D01*
X148460292Y-45003213D01*
X148460288Y-45003210D01*
X148329185Y-44915609D01*
X148329172Y-44915602D01*
X148183501Y-44855264D01*
X148183489Y-44855261D01*
X148028845Y-44824500D01*
X148028842Y-44824500D01*
X147871158Y-44824500D01*
X147871155Y-44824500D01*
X147716510Y-44855261D01*
X147716498Y-44855264D01*
X147570827Y-44915602D01*
X147570814Y-44915609D01*
X147439711Y-45003210D01*
X147439707Y-45003213D01*
X147328213Y-45114707D01*
X147328210Y-45114711D01*
X147240609Y-45245814D01*
X147240602Y-45245827D01*
X147180264Y-45391498D01*
X147180261Y-45391510D01*
X147149500Y-45546153D01*
X143356403Y-45546153D01*
X143352425Y-45526158D01*
X143351937Y-45523703D01*
X143317145Y-45439707D01*
X143291597Y-45378027D01*
X143291590Y-45378014D01*
X143203989Y-45246911D01*
X143203986Y-45246907D01*
X143092492Y-45135413D01*
X143092488Y-45135410D01*
X142961385Y-45047809D01*
X142961372Y-45047802D01*
X142815701Y-44987464D01*
X142815689Y-44987461D01*
X142661045Y-44956700D01*
X142661042Y-44956700D01*
X142503358Y-44956700D01*
X142503355Y-44956700D01*
X142348710Y-44987461D01*
X142348698Y-44987464D01*
X142320172Y-44999280D01*
X142250703Y-45006747D01*
X142188224Y-44975471D01*
X142152573Y-44915381D01*
X142155068Y-44845556D01*
X142185039Y-44797038D01*
X142289589Y-44692489D01*
X142377194Y-44561379D01*
X142437537Y-44415697D01*
X142468300Y-44261042D01*
X142468300Y-44103358D01*
X142468300Y-44103355D01*
X142468299Y-44103353D01*
X142437538Y-43948710D01*
X142437537Y-43948703D01*
X142437535Y-43948698D01*
X142377197Y-43803027D01*
X142377190Y-43803014D01*
X142289589Y-43671911D01*
X142289586Y-43671907D01*
X142178092Y-43560413D01*
X142178088Y-43560410D01*
X142046985Y-43472809D01*
X142046972Y-43472802D01*
X141901301Y-43412464D01*
X141901289Y-43412461D01*
X141746645Y-43381700D01*
X141746642Y-43381700D01*
X141588958Y-43381700D01*
X141588955Y-43381700D01*
X141434310Y-43412461D01*
X141434298Y-43412464D01*
X141288627Y-43472802D01*
X141288614Y-43472809D01*
X141157511Y-43560410D01*
X141157507Y-43560413D01*
X141046013Y-43671907D01*
X141046010Y-43671911D01*
X140958409Y-43803014D01*
X140958402Y-43803027D01*
X140898064Y-43948698D01*
X140898061Y-43948710D01*
X140867300Y-44103353D01*
X120500500Y-44103353D01*
X120500500Y-38771153D01*
X139224500Y-38771153D01*
X139224500Y-38928846D01*
X139255261Y-39083489D01*
X139255264Y-39083501D01*
X139315602Y-39229172D01*
X139315609Y-39229185D01*
X139403210Y-39360288D01*
X139403213Y-39360292D01*
X139514707Y-39471786D01*
X139514711Y-39471789D01*
X139645814Y-39559390D01*
X139645827Y-39559397D01*
X139791498Y-39619735D01*
X139791503Y-39619737D01*
X139946153Y-39650499D01*
X139946156Y-39650500D01*
X139946158Y-39650500D01*
X140103844Y-39650500D01*
X140103845Y-39650499D01*
X140258497Y-39619737D01*
X140404179Y-39559394D01*
X140535289Y-39471789D01*
X140646789Y-39360289D01*
X140672939Y-39321153D01*
X141606700Y-39321153D01*
X141606700Y-39478846D01*
X141637461Y-39633489D01*
X141637464Y-39633501D01*
X141697802Y-39779172D01*
X141697809Y-39779185D01*
X141785410Y-39910288D01*
X141785413Y-39910292D01*
X141896907Y-40021786D01*
X141896911Y-40021789D01*
X142028014Y-40109390D01*
X142028027Y-40109397D01*
X142173698Y-40169735D01*
X142173703Y-40169737D01*
X142328353Y-40200499D01*
X142328356Y-40200500D01*
X142328358Y-40200500D01*
X142486044Y-40200500D01*
X142486045Y-40200499D01*
X142640697Y-40169737D01*
X142786379Y-40109394D01*
X142917489Y-40021789D01*
X143028989Y-39910289D01*
X143116594Y-39779179D01*
X143176937Y-39633497D01*
X143207700Y-39478842D01*
X143207700Y-39321158D01*
X143207700Y-39321155D01*
X143207699Y-39321153D01*
X143195413Y-39259390D01*
X143176937Y-39166503D01*
X143142552Y-39083489D01*
X143116597Y-39020827D01*
X143116590Y-39020814D01*
X143028989Y-38889711D01*
X143028986Y-38889707D01*
X142917492Y-38778213D01*
X142917488Y-38778210D01*
X142786385Y-38690609D01*
X142786372Y-38690602D01*
X142640701Y-38630264D01*
X142640689Y-38630261D01*
X142486045Y-38599500D01*
X142486042Y-38599500D01*
X142328358Y-38599500D01*
X142328355Y-38599500D01*
X142173710Y-38630261D01*
X142173698Y-38630264D01*
X142028027Y-38690602D01*
X142028014Y-38690609D01*
X141896911Y-38778210D01*
X141896907Y-38778213D01*
X141785413Y-38889707D01*
X141785410Y-38889711D01*
X141697809Y-39020814D01*
X141697802Y-39020827D01*
X141637464Y-39166498D01*
X141637461Y-39166510D01*
X141606700Y-39321153D01*
X140672939Y-39321153D01*
X140734394Y-39229179D01*
X140794737Y-39083497D01*
X140825500Y-38928842D01*
X140825500Y-38771158D01*
X140825500Y-38771155D01*
X140825499Y-38771153D01*
X140810580Y-38696153D01*
X140794737Y-38616503D01*
X140783694Y-38589842D01*
X140751666Y-38512518D01*
X140734532Y-38471153D01*
X144299500Y-38471153D01*
X144299500Y-38628846D01*
X144330261Y-38783489D01*
X144330264Y-38783501D01*
X144390602Y-38929172D01*
X144390609Y-38929185D01*
X144478210Y-39060288D01*
X144478213Y-39060292D01*
X144589707Y-39171786D01*
X144589711Y-39171789D01*
X144720814Y-39259390D01*
X144720827Y-39259397D01*
X144866498Y-39319735D01*
X144866503Y-39319737D01*
X145021153Y-39350499D01*
X145021156Y-39350500D01*
X145021158Y-39350500D01*
X145178844Y-39350500D01*
X145178845Y-39350499D01*
X145333497Y-39319737D01*
X145479179Y-39259394D01*
X145610289Y-39171789D01*
X145721789Y-39060289D01*
X145809394Y-38929179D01*
X145869737Y-38783497D01*
X145900500Y-38628842D01*
X145900500Y-38471158D01*
X145900500Y-38471155D01*
X145900499Y-38471153D01*
X145888213Y-38409390D01*
X145869737Y-38316503D01*
X145848283Y-38264707D01*
X145809397Y-38170827D01*
X145809390Y-38170814D01*
X145721789Y-38039711D01*
X145721786Y-38039707D01*
X145610292Y-37928213D01*
X145610288Y-37928210D01*
X145479185Y-37840609D01*
X145479172Y-37840602D01*
X145333501Y-37780264D01*
X145333489Y-37780261D01*
X145178845Y-37749500D01*
X145178842Y-37749500D01*
X145021158Y-37749500D01*
X145021155Y-37749500D01*
X144866510Y-37780261D01*
X144866498Y-37780264D01*
X144720827Y-37840602D01*
X144720814Y-37840609D01*
X144589711Y-37928210D01*
X144589707Y-37928213D01*
X144478213Y-38039707D01*
X144478210Y-38039711D01*
X144390609Y-38170814D01*
X144390602Y-38170827D01*
X144330264Y-38316498D01*
X144330261Y-38316510D01*
X144299500Y-38471153D01*
X140734532Y-38471153D01*
X140734395Y-38470823D01*
X140734390Y-38470814D01*
X140646789Y-38339711D01*
X140646786Y-38339707D01*
X140535292Y-38228213D01*
X140535288Y-38228210D01*
X140404185Y-38140609D01*
X140404172Y-38140602D01*
X140258501Y-38080264D01*
X140258489Y-38080261D01*
X140103845Y-38049500D01*
X140103842Y-38049500D01*
X139946158Y-38049500D01*
X139946155Y-38049500D01*
X139791510Y-38080261D01*
X139791498Y-38080264D01*
X139645827Y-38140602D01*
X139645814Y-38140609D01*
X139514711Y-38228210D01*
X139514707Y-38228213D01*
X139403213Y-38339707D01*
X139403210Y-38339711D01*
X139315609Y-38470814D01*
X139315602Y-38470827D01*
X139255264Y-38616498D01*
X139255261Y-38616510D01*
X139224500Y-38771153D01*
X120500500Y-38771153D01*
X120500500Y-37046153D01*
X123674500Y-37046153D01*
X123674500Y-37203846D01*
X123705261Y-37358489D01*
X123705264Y-37358501D01*
X123765602Y-37504172D01*
X123765609Y-37504185D01*
X123853210Y-37635288D01*
X123853213Y-37635292D01*
X123964707Y-37746786D01*
X123964711Y-37746789D01*
X124095814Y-37834390D01*
X124095827Y-37834397D01*
X124218377Y-37885158D01*
X124241503Y-37894737D01*
X124377487Y-37921786D01*
X124396153Y-37925499D01*
X124396156Y-37925500D01*
X124396158Y-37925500D01*
X124553844Y-37925500D01*
X124553845Y-37925499D01*
X124708497Y-37894737D01*
X124839182Y-37840606D01*
X124854172Y-37834397D01*
X124854172Y-37834396D01*
X124854179Y-37834394D01*
X124985289Y-37746789D01*
X125096789Y-37635289D01*
X125184394Y-37504179D01*
X125244737Y-37358497D01*
X125267852Y-37242292D01*
X125272057Y-37221153D01*
X130249500Y-37221153D01*
X130249500Y-37378846D01*
X130280261Y-37533489D01*
X130280264Y-37533501D01*
X130340602Y-37679172D01*
X130340609Y-37679185D01*
X130428210Y-37810288D01*
X130428213Y-37810292D01*
X130539707Y-37921786D01*
X130539711Y-37921789D01*
X130670814Y-38009390D01*
X130670827Y-38009397D01*
X130744013Y-38039711D01*
X130816503Y-38069737D01*
X130971153Y-38100499D01*
X130971156Y-38100500D01*
X130971158Y-38100500D01*
X131128844Y-38100500D01*
X131128845Y-38100499D01*
X131283497Y-38069737D01*
X131429179Y-38009394D01*
X131560289Y-37921789D01*
X131671789Y-37810289D01*
X131759394Y-37679179D01*
X131819737Y-37533497D01*
X131850500Y-37378842D01*
X131850500Y-37221158D01*
X131850500Y-37221155D01*
X131850499Y-37221153D01*
X131828625Y-37111185D01*
X131819737Y-37066503D01*
X131777901Y-36965501D01*
X131759397Y-36920827D01*
X131759390Y-36920814D01*
X131671789Y-36789711D01*
X131671786Y-36789707D01*
X131560292Y-36678213D01*
X131560288Y-36678210D01*
X131522788Y-36653153D01*
X141617500Y-36653153D01*
X141617500Y-36810846D01*
X141648261Y-36965489D01*
X141648264Y-36965501D01*
X141708602Y-37111172D01*
X141708609Y-37111185D01*
X141796210Y-37242288D01*
X141796213Y-37242292D01*
X141907707Y-37353786D01*
X141907711Y-37353789D01*
X142038814Y-37441390D01*
X142038827Y-37441397D01*
X142184498Y-37501735D01*
X142184503Y-37501737D01*
X142339153Y-37532499D01*
X142339156Y-37532500D01*
X142339158Y-37532500D01*
X142496844Y-37532500D01*
X142496845Y-37532499D01*
X142651497Y-37501737D01*
X142797179Y-37441394D01*
X142928289Y-37353789D01*
X143039789Y-37242289D01*
X143127394Y-37111179D01*
X143187737Y-36965497D01*
X143218500Y-36810842D01*
X143218500Y-36653158D01*
X143218500Y-36653155D01*
X143218499Y-36653153D01*
X143210852Y-36614711D01*
X143187737Y-36498503D01*
X143187735Y-36498498D01*
X143127397Y-36352827D01*
X143127390Y-36352814D01*
X143039789Y-36221711D01*
X143039786Y-36221707D01*
X142928292Y-36110213D01*
X142928288Y-36110210D01*
X142797185Y-36022609D01*
X142797172Y-36022602D01*
X142651501Y-35962264D01*
X142651489Y-35962261D01*
X142496845Y-35931500D01*
X142496842Y-35931500D01*
X142339158Y-35931500D01*
X142339155Y-35931500D01*
X142184510Y-35962261D01*
X142184498Y-35962264D01*
X142038827Y-36022602D01*
X142038814Y-36022609D01*
X141907711Y-36110210D01*
X141907707Y-36110213D01*
X141796213Y-36221707D01*
X141796210Y-36221711D01*
X141708609Y-36352814D01*
X141708602Y-36352827D01*
X141648264Y-36498498D01*
X141648261Y-36498510D01*
X141617500Y-36653153D01*
X131522788Y-36653153D01*
X131429185Y-36590609D01*
X131429172Y-36590602D01*
X131283501Y-36530264D01*
X131283489Y-36530261D01*
X131128845Y-36499500D01*
X131128842Y-36499500D01*
X130971158Y-36499500D01*
X130971155Y-36499500D01*
X130816510Y-36530261D01*
X130816498Y-36530264D01*
X130670827Y-36590602D01*
X130670814Y-36590609D01*
X130539711Y-36678210D01*
X130539707Y-36678213D01*
X130428213Y-36789707D01*
X130428210Y-36789711D01*
X130340609Y-36920814D01*
X130340602Y-36920827D01*
X130280264Y-37066498D01*
X130280261Y-37066510D01*
X130249500Y-37221153D01*
X125272057Y-37221153D01*
X125275500Y-37203845D01*
X125275500Y-37046155D01*
X125275499Y-37046153D01*
X125244737Y-36891503D01*
X125211328Y-36810846D01*
X125184397Y-36745827D01*
X125184390Y-36745814D01*
X125096789Y-36614711D01*
X125096786Y-36614707D01*
X124985292Y-36503213D01*
X124985288Y-36503210D01*
X124854185Y-36415609D01*
X124854172Y-36415602D01*
X124708501Y-36355264D01*
X124708489Y-36355261D01*
X124553845Y-36324500D01*
X124553842Y-36324500D01*
X124396158Y-36324500D01*
X124396155Y-36324500D01*
X124241510Y-36355261D01*
X124241498Y-36355264D01*
X124095827Y-36415602D01*
X124095814Y-36415609D01*
X123964711Y-36503210D01*
X123964707Y-36503213D01*
X123853213Y-36614707D01*
X123853210Y-36614711D01*
X123765609Y-36745814D01*
X123765602Y-36745827D01*
X123705264Y-36891498D01*
X123705261Y-36891510D01*
X123674500Y-37046153D01*
X120500500Y-37046153D01*
X120500500Y-35711097D01*
X120520185Y-35644058D01*
X120572989Y-35598303D01*
X120642147Y-35588359D01*
X120705703Y-35617384D01*
X120723767Y-35636786D01*
X120727813Y-35642190D01*
X120842906Y-35728350D01*
X120842913Y-35728354D01*
X120977620Y-35778596D01*
X120977627Y-35778598D01*
X121037155Y-35784999D01*
X121037172Y-35785000D01*
X121735000Y-35785000D01*
X121735000Y-34760277D01*
X121811306Y-34804333D01*
X121925756Y-34835000D01*
X122044244Y-34835000D01*
X122158694Y-34804333D01*
X122235000Y-34760277D01*
X122235000Y-35785000D01*
X122932828Y-35785000D01*
X122932844Y-35784999D01*
X122992372Y-35778598D01*
X122992379Y-35778596D01*
X123127086Y-35728354D01*
X123127093Y-35728350D01*
X123242187Y-35642190D01*
X123242190Y-35642187D01*
X123328350Y-35527093D01*
X123328354Y-35527086D01*
X123358213Y-35447031D01*
X123400084Y-35391097D01*
X123465548Y-35366680D01*
X123533821Y-35381531D01*
X123562076Y-35402683D01*
X123612636Y-35453243D01*
X123612641Y-35453247D01*
X123768192Y-35566260D01*
X123790978Y-35582815D01*
X123896901Y-35636786D01*
X123987393Y-35682895D01*
X123987396Y-35682896D01*
X124074192Y-35711097D01*
X124197049Y-35751015D01*
X124414778Y-35785500D01*
X124414779Y-35785500D01*
X124635221Y-35785500D01*
X124635222Y-35785500D01*
X124852951Y-35751015D01*
X125062606Y-35682895D01*
X125259022Y-35582815D01*
X125437365Y-35453242D01*
X125593242Y-35297365D01*
X125722815Y-35119022D01*
X125822895Y-34922606D01*
X125891015Y-34712951D01*
X125914352Y-34565609D01*
X125914569Y-34564240D01*
X125914569Y-34564239D01*
X125925500Y-34495222D01*
X125925500Y-34274778D01*
X125907367Y-34160292D01*
X125891015Y-34057049D01*
X125856955Y-33952221D01*
X125822896Y-33847396D01*
X125822895Y-33847393D01*
X125722815Y-33650978D01*
X125618018Y-33506736D01*
X125618017Y-33506735D01*
X125593243Y-33472636D01*
X125557762Y-33437155D01*
X127100000Y-33437155D01*
X127100000Y-34135000D01*
X128124722Y-34135000D01*
X128080667Y-34211306D01*
X128050000Y-34325756D01*
X128050000Y-34444244D01*
X128080667Y-34558694D01*
X128124722Y-34635000D01*
X127100000Y-34635000D01*
X127100000Y-35332844D01*
X127106401Y-35392372D01*
X127106403Y-35392379D01*
X127156645Y-35527086D01*
X127156649Y-35527093D01*
X127242809Y-35642187D01*
X127242812Y-35642190D01*
X127357906Y-35728350D01*
X127357913Y-35728354D01*
X127492620Y-35778596D01*
X127492627Y-35778598D01*
X127552155Y-35784999D01*
X127552172Y-35785000D01*
X128250000Y-35785000D01*
X128250000Y-34760277D01*
X128326306Y-34804333D01*
X128440756Y-34835000D01*
X128559244Y-34835000D01*
X128673694Y-34804333D01*
X128750000Y-34760277D01*
X128750000Y-35785000D01*
X129447828Y-35785000D01*
X129447844Y-35784999D01*
X129507372Y-35778598D01*
X129507379Y-35778596D01*
X129642086Y-35728354D01*
X129642093Y-35728350D01*
X129757187Y-35642190D01*
X129757190Y-35642187D01*
X129843350Y-35527093D01*
X129843354Y-35527086D01*
X129873213Y-35447031D01*
X129915084Y-35391097D01*
X129980548Y-35366680D01*
X130048821Y-35381531D01*
X130077076Y-35402683D01*
X130127636Y-35453243D01*
X130127641Y-35453247D01*
X130283192Y-35566260D01*
X130305978Y-35582815D01*
X130411901Y-35636786D01*
X130502393Y-35682895D01*
X130502396Y-35682896D01*
X130589192Y-35711097D01*
X130712049Y-35751015D01*
X130929778Y-35785500D01*
X130929779Y-35785500D01*
X131150221Y-35785500D01*
X131150222Y-35785500D01*
X131367951Y-35751015D01*
X131577606Y-35682895D01*
X131774022Y-35582815D01*
X131952365Y-35453242D01*
X132108242Y-35297365D01*
X132237815Y-35119022D01*
X132337895Y-34922606D01*
X132406015Y-34712951D01*
X132440500Y-34495222D01*
X132440500Y-34446153D01*
X138924500Y-34446153D01*
X138924500Y-34603846D01*
X138955261Y-34758489D01*
X138955264Y-34758501D01*
X139015602Y-34904172D01*
X139015609Y-34904185D01*
X139103210Y-35035288D01*
X139103213Y-35035292D01*
X139214707Y-35146786D01*
X139214711Y-35146789D01*
X139345814Y-35234390D01*
X139345827Y-35234397D01*
X139491498Y-35294735D01*
X139491503Y-35294737D01*
X139646153Y-35325499D01*
X139646156Y-35325500D01*
X139646158Y-35325500D01*
X139803844Y-35325500D01*
X139803845Y-35325499D01*
X139958497Y-35294737D01*
X140104179Y-35234394D01*
X140161411Y-35196153D01*
X143199500Y-35196153D01*
X143199500Y-35353846D01*
X143230261Y-35508489D01*
X143230264Y-35508501D01*
X143290602Y-35654172D01*
X143290609Y-35654185D01*
X143378210Y-35785288D01*
X143378213Y-35785292D01*
X143489707Y-35896786D01*
X143489711Y-35896789D01*
X143620814Y-35984390D01*
X143620827Y-35984397D01*
X143766498Y-36044735D01*
X143766503Y-36044737D01*
X143921153Y-36075499D01*
X143921156Y-36075500D01*
X143921158Y-36075500D01*
X144078844Y-36075500D01*
X144078845Y-36075499D01*
X144233497Y-36044737D01*
X144379179Y-35984394D01*
X144510289Y-35896789D01*
X144621789Y-35785289D01*
X144709394Y-35654179D01*
X144769737Y-35508497D01*
X144800500Y-35353842D01*
X144800500Y-35196158D01*
X144800500Y-35196155D01*
X144800499Y-35196153D01*
X144785157Y-35119025D01*
X144769737Y-35041503D01*
X144720489Y-34922606D01*
X144709397Y-34895827D01*
X144709390Y-34895814D01*
X144621789Y-34764711D01*
X144621786Y-34764707D01*
X144510292Y-34653213D01*
X144510288Y-34653210D01*
X144379185Y-34565609D01*
X144379172Y-34565602D01*
X144233501Y-34505264D01*
X144233489Y-34505261D01*
X144078845Y-34474500D01*
X144078842Y-34474500D01*
X143921158Y-34474500D01*
X143921155Y-34474500D01*
X143766510Y-34505261D01*
X143766498Y-34505264D01*
X143620827Y-34565602D01*
X143620814Y-34565609D01*
X143489711Y-34653210D01*
X143489707Y-34653213D01*
X143378213Y-34764707D01*
X143378210Y-34764711D01*
X143290609Y-34895814D01*
X143290602Y-34895827D01*
X143230264Y-35041498D01*
X143230261Y-35041510D01*
X143199500Y-35196153D01*
X140161411Y-35196153D01*
X140235289Y-35146789D01*
X140235292Y-35146786D01*
X140279694Y-35102385D01*
X140346786Y-35035292D01*
X140346789Y-35035289D01*
X140434394Y-34904179D01*
X140437854Y-34895827D01*
X140492163Y-34764711D01*
X140494737Y-34758497D01*
X140525500Y-34603842D01*
X140525500Y-34446158D01*
X140525500Y-34446155D01*
X140525499Y-34446153D01*
X140520245Y-34419738D01*
X140494737Y-34291503D01*
X140461519Y-34211306D01*
X140434397Y-34145827D01*
X140434390Y-34145814D01*
X140346789Y-34014711D01*
X140346786Y-34014707D01*
X140235292Y-33903213D01*
X140235288Y-33903210D01*
X140104185Y-33815609D01*
X140104172Y-33815602D01*
X139958501Y-33755264D01*
X139958489Y-33755261D01*
X139803845Y-33724500D01*
X139803842Y-33724500D01*
X139646158Y-33724500D01*
X139646155Y-33724500D01*
X139491510Y-33755261D01*
X139491498Y-33755264D01*
X139345827Y-33815602D01*
X139345814Y-33815609D01*
X139214711Y-33903210D01*
X139214707Y-33903213D01*
X139103213Y-34014707D01*
X139103210Y-34014711D01*
X139015609Y-34145814D01*
X139015602Y-34145827D01*
X138955264Y-34291498D01*
X138955261Y-34291510D01*
X138924500Y-34446153D01*
X132440500Y-34446153D01*
X132440500Y-34274778D01*
X132406015Y-34057049D01*
X132371955Y-33952221D01*
X132337896Y-33847396D01*
X132337895Y-33847393D01*
X132277489Y-33728842D01*
X132237815Y-33650978D01*
X132236555Y-33649244D01*
X132228351Y-33637951D01*
X132179820Y-33571153D01*
X145824500Y-33571153D01*
X145824500Y-33728846D01*
X145855261Y-33883489D01*
X145855264Y-33883501D01*
X145915602Y-34029172D01*
X145915609Y-34029185D01*
X146003210Y-34160288D01*
X146003213Y-34160292D01*
X146114707Y-34271786D01*
X146114711Y-34271789D01*
X146245814Y-34359390D01*
X146245827Y-34359397D01*
X146391498Y-34419735D01*
X146391503Y-34419737D01*
X146546153Y-34450499D01*
X146546156Y-34450500D01*
X146546158Y-34450500D01*
X146703844Y-34450500D01*
X146703845Y-34450499D01*
X146858497Y-34419737D01*
X147004179Y-34359394D01*
X147135289Y-34271789D01*
X147246789Y-34160289D01*
X147334394Y-34029179D01*
X147340389Y-34014707D01*
X147386571Y-33903211D01*
X147394737Y-33883497D01*
X147425500Y-33728842D01*
X147425500Y-33571158D01*
X147425500Y-33571155D01*
X147425499Y-33571153D01*
X147394737Y-33416503D01*
X147353419Y-33316752D01*
X147334397Y-33270827D01*
X147334390Y-33270814D01*
X147246789Y-33139711D01*
X147246786Y-33139707D01*
X147135292Y-33028213D01*
X147135288Y-33028210D01*
X147004185Y-32940609D01*
X147004172Y-32940602D01*
X146858501Y-32880264D01*
X146858489Y-32880261D01*
X146703845Y-32849500D01*
X146703842Y-32849500D01*
X146546158Y-32849500D01*
X146546155Y-32849500D01*
X146391510Y-32880261D01*
X146391498Y-32880264D01*
X146245827Y-32940602D01*
X146245814Y-32940609D01*
X146114711Y-33028210D01*
X146114707Y-33028213D01*
X146003213Y-33139707D01*
X146003210Y-33139711D01*
X145915609Y-33270814D01*
X145915602Y-33270827D01*
X145855264Y-33416498D01*
X145855261Y-33416510D01*
X145824500Y-33571153D01*
X132179820Y-33571153D01*
X132108247Y-33472640D01*
X131952363Y-33316756D01*
X131952358Y-33316752D01*
X131774025Y-33187187D01*
X131774024Y-33187186D01*
X131774022Y-33187185D01*
X131680850Y-33139711D01*
X131577606Y-33087104D01*
X131577603Y-33087103D01*
X131367952Y-33018985D01*
X131259086Y-33001742D01*
X131150222Y-32984500D01*
X130929778Y-32984500D01*
X130857201Y-32995995D01*
X130712047Y-33018985D01*
X130502396Y-33087103D01*
X130502393Y-33087104D01*
X130305974Y-33187187D01*
X130127641Y-33316752D01*
X130127636Y-33316756D01*
X130077075Y-33367317D01*
X130015752Y-33400801D01*
X129946060Y-33395816D01*
X129890127Y-33353945D01*
X129873213Y-33322968D01*
X129843354Y-33242913D01*
X129843350Y-33242906D01*
X129757190Y-33127812D01*
X129757187Y-33127809D01*
X129642093Y-33041649D01*
X129642086Y-33041645D01*
X129507379Y-32991403D01*
X129507372Y-32991401D01*
X129447844Y-32985000D01*
X128750000Y-32985000D01*
X128750000Y-34009722D01*
X128673694Y-33965667D01*
X128559244Y-33935000D01*
X128440756Y-33935000D01*
X128326306Y-33965667D01*
X128250000Y-34009722D01*
X128250000Y-32985000D01*
X127552155Y-32985000D01*
X127492627Y-32991401D01*
X127492620Y-32991403D01*
X127357913Y-33041645D01*
X127357906Y-33041649D01*
X127242812Y-33127809D01*
X127242809Y-33127812D01*
X127156649Y-33242906D01*
X127156645Y-33242913D01*
X127106403Y-33377620D01*
X127106401Y-33377627D01*
X127100000Y-33437155D01*
X125557762Y-33437155D01*
X125437363Y-33316756D01*
X125437358Y-33316752D01*
X125259025Y-33187187D01*
X125259024Y-33187186D01*
X125259022Y-33187185D01*
X125165850Y-33139711D01*
X125062606Y-33087104D01*
X125062603Y-33087103D01*
X124852952Y-33018985D01*
X124744086Y-33001742D01*
X124635222Y-32984500D01*
X124414778Y-32984500D01*
X124342201Y-32995995D01*
X124197047Y-33018985D01*
X123987396Y-33087103D01*
X123987393Y-33087104D01*
X123790974Y-33187187D01*
X123612641Y-33316752D01*
X123612636Y-33316756D01*
X123562075Y-33367317D01*
X123500752Y-33400801D01*
X123431060Y-33395816D01*
X123375127Y-33353945D01*
X123358213Y-33322968D01*
X123328354Y-33242913D01*
X123328350Y-33242906D01*
X123242190Y-33127812D01*
X123242187Y-33127809D01*
X123127093Y-33041649D01*
X123127086Y-33041645D01*
X122992379Y-32991403D01*
X122992372Y-32991401D01*
X122932844Y-32985000D01*
X122235000Y-32985000D01*
X122235000Y-34009722D01*
X122158694Y-33965667D01*
X122044244Y-33935000D01*
X121925756Y-33935000D01*
X121811306Y-33965667D01*
X121735000Y-34009722D01*
X121735000Y-32985000D01*
X121037155Y-32985000D01*
X120977627Y-32991401D01*
X120977620Y-32991403D01*
X120842913Y-33041645D01*
X120842906Y-33041649D01*
X120727812Y-33127809D01*
X120723764Y-33133217D01*
X120667828Y-33175086D01*
X120598137Y-33180067D01*
X120536815Y-33146579D01*
X120503333Y-33085255D01*
X120500500Y-33058902D01*
X120500500Y-31471153D01*
X140149500Y-31471153D01*
X140149500Y-31628846D01*
X140180261Y-31783489D01*
X140180264Y-31783501D01*
X140240602Y-31929172D01*
X140240609Y-31929185D01*
X140328210Y-32060288D01*
X140328213Y-32060292D01*
X140439707Y-32171786D01*
X140439711Y-32171789D01*
X140570814Y-32259390D01*
X140570827Y-32259397D01*
X140716498Y-32319735D01*
X140716503Y-32319737D01*
X140871153Y-32350499D01*
X140871156Y-32350500D01*
X140871158Y-32350500D01*
X141028844Y-32350500D01*
X141028845Y-32350499D01*
X141183497Y-32319737D01*
X141329179Y-32259394D01*
X141460289Y-32171789D01*
X141571789Y-32060289D01*
X141659394Y-31929179D01*
X141719737Y-31783497D01*
X141750500Y-31628842D01*
X141750500Y-31471158D01*
X141750500Y-31471155D01*
X141750499Y-31471153D01*
X141719738Y-31316510D01*
X141719737Y-31316503D01*
X141699917Y-31268653D01*
X141659397Y-31170827D01*
X141659390Y-31170814D01*
X141571789Y-31039711D01*
X141571786Y-31039707D01*
X141460292Y-30928213D01*
X141460288Y-30928210D01*
X141329185Y-30840609D01*
X141329172Y-30840602D01*
X141183501Y-30780264D01*
X141183489Y-30780261D01*
X141028845Y-30749500D01*
X141028842Y-30749500D01*
X140871158Y-30749500D01*
X140871155Y-30749500D01*
X140716510Y-30780261D01*
X140716498Y-30780264D01*
X140570827Y-30840602D01*
X140570814Y-30840609D01*
X140439711Y-30928210D01*
X140439707Y-30928213D01*
X140328213Y-31039707D01*
X140328210Y-31039711D01*
X140240609Y-31170814D01*
X140240602Y-31170827D01*
X140180264Y-31316498D01*
X140180261Y-31316510D01*
X140149500Y-31471153D01*
X120500500Y-31471153D01*
X120500500Y-30709755D01*
X120502025Y-30690370D01*
X120507192Y-30657744D01*
X120519177Y-30620857D01*
X120529687Y-30600230D01*
X120552486Y-30568851D01*
X120568851Y-30552486D01*
X120600230Y-30529687D01*
X120620857Y-30519177D01*
X120657744Y-30507192D01*
X120690369Y-30502025D01*
X120709756Y-30500500D01*
X120765892Y-30500500D01*
X144920489Y-30500500D01*
X144987528Y-30520185D01*
G37*
%TD.AperFunction*%
%TD*%
M02*
