%TF.GenerationSoftware,KiCad,Pcbnew,9.0.3*%
%TF.CreationDate,2026-03-26T17:56:10+05:30*%
%TF.ProjectId,new',6e657727-2e6b-4696-9361-645f70636258,rev?*%
%TF.SameCoordinates,Original*%
%TF.FileFunction,Copper,L1,Top*%
%TF.FilePolarity,Positive*%
%FSLAX46Y46*%
G04 Gerber Fmt 4.6, Leading zero omitted, Abs format (unit mm)*
G04 Created by KiCad (PCBNEW 9.0.3) date 2026-03-26 17:56:10*
%MOMM*%
%LPD*%
G01*
G04 APERTURE LIST*
G04 Aperture macros list*
%AMRoundRect*
0 Rectangle with rounded corners*
0 $1 Rounding radius*
0 $2 $3 $4 $5 $6 $7 $8 $9 X,Y pos of 4 corners*
0 Add a 4 corners polygon primitive as box body*
4,1,4,$2,$3,$4,$5,$6,$7,$8,$9,$2,$3,0*
0 Add four circle primitives for the rounded corners*
1,1,$1+$1,$2,$3*
1,1,$1+$1,$4,$5*
1,1,$1+$1,$6,$7*
1,1,$1+$1,$8,$9*
0 Add four rect primitives between the rounded corners*
20,1,$1+$1,$2,$3,$4,$5,0*
20,1,$1+$1,$4,$5,$6,$7,0*
20,1,$1+$1,$6,$7,$8,$9,0*
20,1,$1+$1,$8,$9,$2,$3,0*%
G04 Aperture macros list end*
%ADD10C,0.300000*%
%TA.AperFunction,NonConductor*%
%ADD11C,0.300000*%
%TD*%
%TA.AperFunction,ComponentPad*%
%ADD12RoundRect,0.249999X-0.850001X0.850001X-0.850001X-0.850001X0.850001X-0.850001X0.850001X0.850001X0*%
%TD*%
%TA.AperFunction,ComponentPad*%
%ADD13C,2.200000*%
%TD*%
%TA.AperFunction,SMDPad,CuDef*%
%ADD14R,0.457200X0.457200*%
%TD*%
%TA.AperFunction,SMDPad,CuDef*%
%ADD15RoundRect,0.067500X-0.232500X0.202500X-0.232500X-0.202500X0.232500X-0.202500X0.232500X0.202500X0*%
%TD*%
%TA.AperFunction,SMDPad,CuDef*%
%ADD16RoundRect,0.067500X0.232500X-0.202500X0.232500X0.202500X-0.232500X0.202500X-0.232500X-0.202500X0*%
%TD*%
%TA.AperFunction,ComponentPad*%
%ADD17C,5.400000*%
%TD*%
%TA.AperFunction,ComponentPad*%
%ADD18R,1.800000X1.800000*%
%TD*%
%TA.AperFunction,ComponentPad*%
%ADD19C,1.800000*%
%TD*%
%TA.AperFunction,SMDPad,CuDef*%
%ADD20R,0.508000X1.524000*%
%TD*%
%TA.AperFunction,SMDPad,CuDef*%
%ADD21RoundRect,0.150000X0.150000X-0.512500X0.150000X0.512500X-0.150000X0.512500X-0.150000X-0.512500X0*%
%TD*%
%TA.AperFunction,SMDPad,CuDef*%
%ADD22RoundRect,0.075000X0.075000X-0.175000X0.075000X0.175000X-0.075000X0.175000X-0.075000X-0.175000X0*%
%TD*%
%TA.AperFunction,SMDPad,CuDef*%
%ADD23R,1.450000X0.900001*%
%TD*%
%TA.AperFunction,SMDPad,CuDef*%
%ADD24R,1.450000X3.149999*%
%TD*%
%TA.AperFunction,SMDPad,CuDef*%
%ADD25RoundRect,0.067500X-0.202500X-0.232500X0.202500X-0.232500X0.202500X0.232500X-0.202500X0.232500X0*%
%TD*%
%TA.AperFunction,SMDPad,CuDef*%
%ADD26RoundRect,0.150000X-0.150000X-0.500000X0.150000X-0.500000X0.150000X0.500000X-0.150000X0.500000X0*%
%TD*%
%TA.AperFunction,SMDPad,CuDef*%
%ADD27RoundRect,0.075000X-0.075000X-0.575000X0.075000X-0.575000X0.075000X0.575000X-0.075000X0.575000X0*%
%TD*%
%TA.AperFunction,HeatsinkPad*%
%ADD28O,1.000000X2.100000*%
%TD*%
%TA.AperFunction,HeatsinkPad*%
%ADD29O,1.000000X1.600000*%
%TD*%
%TA.AperFunction,SMDPad,CuDef*%
%ADD30R,0.900000X1.500000*%
%TD*%
%TA.AperFunction,SMDPad,CuDef*%
%ADD31R,1.500000X0.900000*%
%TD*%
%TA.AperFunction,SMDPad,CuDef*%
%ADD32R,0.900000X0.900000*%
%TD*%
%TA.AperFunction,SMDPad,CuDef*%
%ADD33R,1.020000X0.950000*%
%TD*%
%TA.AperFunction,ViaPad*%
%ADD34C,0.600000*%
%TD*%
%TA.AperFunction,Conductor*%
%ADD35C,0.200000*%
%TD*%
%TA.AperFunction,Conductor*%
%ADD36C,0.600000*%
%TD*%
%TA.AperFunction,Conductor*%
%ADD37C,0.700000*%
%TD*%
%TA.AperFunction,Conductor*%
%ADD38C,0.240000*%
%TD*%
G04 APERTURE END LIST*
D10*
D11*
X121354510Y-31875828D02*
X121354510Y-30375828D01*
X122068796Y-31875828D02*
X122068796Y-30875828D01*
X122068796Y-31161542D02*
X122140225Y-31018685D01*
X122140225Y-31018685D02*
X122211654Y-30947257D01*
X122211654Y-30947257D02*
X122354511Y-30875828D01*
X122354511Y-30875828D02*
X122497368Y-30875828D01*
X123211653Y-31875828D02*
X123068796Y-31804400D01*
X123068796Y-31804400D02*
X122997367Y-31732971D01*
X122997367Y-31732971D02*
X122925939Y-31590114D01*
X122925939Y-31590114D02*
X122925939Y-31161542D01*
X122925939Y-31161542D02*
X122997367Y-31018685D01*
X122997367Y-31018685D02*
X123068796Y-30947257D01*
X123068796Y-30947257D02*
X123211653Y-30875828D01*
X123211653Y-30875828D02*
X123425939Y-30875828D01*
X123425939Y-30875828D02*
X123568796Y-30947257D01*
X123568796Y-30947257D02*
X123640225Y-31018685D01*
X123640225Y-31018685D02*
X123711653Y-31161542D01*
X123711653Y-31161542D02*
X123711653Y-31590114D01*
X123711653Y-31590114D02*
X123640225Y-31732971D01*
X123640225Y-31732971D02*
X123568796Y-31804400D01*
X123568796Y-31804400D02*
X123425939Y-31875828D01*
X123425939Y-31875828D02*
X123211653Y-31875828D01*
X124997368Y-31804400D02*
X124854510Y-31875828D01*
X124854510Y-31875828D02*
X124568796Y-31875828D01*
X124568796Y-31875828D02*
X124425939Y-31804400D01*
X124425939Y-31804400D02*
X124354510Y-31732971D01*
X124354510Y-31732971D02*
X124283082Y-31590114D01*
X124283082Y-31590114D02*
X124283082Y-31161542D01*
X124283082Y-31161542D02*
X124354510Y-31018685D01*
X124354510Y-31018685D02*
X124425939Y-30947257D01*
X124425939Y-30947257D02*
X124568796Y-30875828D01*
X124568796Y-30875828D02*
X124854510Y-30875828D01*
X124854510Y-30875828D02*
X124997368Y-30947257D01*
X125854510Y-31875828D02*
X125711653Y-31804400D01*
X125711653Y-31804400D02*
X125640224Y-31732971D01*
X125640224Y-31732971D02*
X125568796Y-31590114D01*
X125568796Y-31590114D02*
X125568796Y-31161542D01*
X125568796Y-31161542D02*
X125640224Y-31018685D01*
X125640224Y-31018685D02*
X125711653Y-30947257D01*
X125711653Y-30947257D02*
X125854510Y-30875828D01*
X125854510Y-30875828D02*
X126068796Y-30875828D01*
X126068796Y-30875828D02*
X126211653Y-30947257D01*
X126211653Y-30947257D02*
X126283082Y-31018685D01*
X126283082Y-31018685D02*
X126354510Y-31161542D01*
X126354510Y-31161542D02*
X126354510Y-31590114D01*
X126354510Y-31590114D02*
X126283082Y-31732971D01*
X126283082Y-31732971D02*
X126211653Y-31804400D01*
X126211653Y-31804400D02*
X126068796Y-31875828D01*
X126068796Y-31875828D02*
X125854510Y-31875828D01*
X126997367Y-31875828D02*
X126997367Y-30375828D01*
X126997367Y-30947257D02*
X127140225Y-30875828D01*
X127140225Y-30875828D02*
X127425939Y-30875828D01*
X127425939Y-30875828D02*
X127568796Y-30947257D01*
X127568796Y-30947257D02*
X127640225Y-31018685D01*
X127640225Y-31018685D02*
X127711653Y-31161542D01*
X127711653Y-31161542D02*
X127711653Y-31590114D01*
X127711653Y-31590114D02*
X127640225Y-31732971D01*
X127640225Y-31732971D02*
X127568796Y-31804400D01*
X127568796Y-31804400D02*
X127425939Y-31875828D01*
X127425939Y-31875828D02*
X127140225Y-31875828D01*
X127140225Y-31875828D02*
X126997367Y-31804400D01*
X128354510Y-31875828D02*
X128354510Y-30375828D01*
X128354510Y-30947257D02*
X128497368Y-30875828D01*
X128497368Y-30875828D02*
X128783082Y-30875828D01*
X128783082Y-30875828D02*
X128925939Y-30947257D01*
X128925939Y-30947257D02*
X128997368Y-31018685D01*
X128997368Y-31018685D02*
X129068796Y-31161542D01*
X129068796Y-31161542D02*
X129068796Y-31590114D01*
X129068796Y-31590114D02*
X128997368Y-31732971D01*
X128997368Y-31732971D02*
X128925939Y-31804400D01*
X128925939Y-31804400D02*
X128783082Y-31875828D01*
X128783082Y-31875828D02*
X128497368Y-31875828D01*
X128497368Y-31875828D02*
X128354510Y-31804400D01*
X129925939Y-31875828D02*
X129783082Y-31804400D01*
X129783082Y-31804400D02*
X129711653Y-31661542D01*
X129711653Y-31661542D02*
X129711653Y-30375828D01*
X131068796Y-31804400D02*
X130925939Y-31875828D01*
X130925939Y-31875828D02*
X130640225Y-31875828D01*
X130640225Y-31875828D02*
X130497367Y-31804400D01*
X130497367Y-31804400D02*
X130425939Y-31661542D01*
X130425939Y-31661542D02*
X130425939Y-31090114D01*
X130425939Y-31090114D02*
X130497367Y-30947257D01*
X130497367Y-30947257D02*
X130640225Y-30875828D01*
X130640225Y-30875828D02*
X130925939Y-30875828D01*
X130925939Y-30875828D02*
X131068796Y-30947257D01*
X131068796Y-30947257D02*
X131140225Y-31090114D01*
X131140225Y-31090114D02*
X131140225Y-31232971D01*
X131140225Y-31232971D02*
X130425939Y-31375828D01*
D12*
%TO.P,D3,1,K*%
%TO.N,+5V*%
X147800000Y-40975000D03*
D13*
%TO.P,D3,2,A*%
%TO.N,Net-(D3-A)*%
X147800000Y-51135000D03*
%TD*%
D14*
%TO.P,R1,1*%
%TO.N,+3V3*%
X139725000Y-33764400D03*
%TO.P,R1,2*%
%TO.N,Net-(D1-A2)*%
X139725000Y-32850000D03*
%TD*%
%TO.P,R2,1*%
%TO.N,+3V3*%
X142657200Y-50200000D03*
%TO.P,R2,2*%
%TO.N,Net-(U1-IO3)*%
X141742800Y-50200000D03*
%TD*%
D15*
%TO.P,C2,1*%
%TO.N,+3V3*%
X145325000Y-51100000D03*
%TO.P,C2,2*%
%TO.N,GND*%
X145325000Y-51964000D03*
%TD*%
D14*
%TO.P,R5,1*%
%TO.N,/CC1_2*%
X141725000Y-57167200D03*
%TO.P,R5,2*%
%TO.N,GND*%
X141725000Y-56252800D03*
%TD*%
D16*
%TO.P,C1,1*%
%TO.N,+3V3*%
X145325000Y-49289000D03*
%TO.P,C1,2*%
%TO.N,GND*%
X145325000Y-48425000D03*
%TD*%
D17*
%TO.P,H2,1*%
%TO.N,N/C*%
X136275000Y-61135000D03*
%TD*%
D14*
%TO.P,R11,1*%
%TO.N,Net-(D12-A)*%
X142625000Y-48975000D03*
%TO.P,R11,2*%
%TO.N,/WIFI_OFF_3*%
X141710600Y-48975000D03*
%TD*%
%TO.P,R23,1*%
%TO.N,+3V3*%
X142407200Y-40975000D03*
%TO.P,R23,2*%
%TO.N,Net-(D13-A)*%
X141492800Y-40975000D03*
%TD*%
D18*
%TO.P,D13,1,K*%
%TO.N,GND*%
X128500000Y-34385000D03*
D19*
%TO.P,D13,2,A*%
%TO.N,Net-(D13-A)*%
X131040000Y-34385000D03*
%TD*%
D20*
%TO.P,SW2,1,A*%
%TO.N,GND*%
X134132000Y-35475000D03*
%TO.P,SW2,2,B*%
%TO.N,/ESP_IO_3*%
X138450000Y-35475000D03*
%TD*%
D21*
%TO.P,U2,1,I/O1*%
%TO.N,/D_2-*%
X143425000Y-56687500D03*
%TO.P,U2,2,GND*%
%TO.N,GND*%
X144375000Y-56687500D03*
%TO.P,U2,3,I/O2*%
%TO.N,/D_2+*%
X145325000Y-56687500D03*
%TO.P,U2,4,I/O3*%
%TO.N,/USB_D3+*%
X145325000Y-54412500D03*
%TO.P,U2,5,VBUS*%
%TO.N,+5V*%
X144375000Y-54412500D03*
%TO.P,U2,6,I/O4*%
%TO.N,/USB_D3-*%
X143425000Y-54412500D03*
%TD*%
D18*
%TO.P,D22,1,K*%
%TO.N,GND*%
X128510000Y-61060000D03*
D19*
%TO.P,D22,2,A*%
%TO.N,Net-(D22-A)*%
X131050000Y-61060000D03*
%TD*%
D22*
%TO.P,D1,1,A1*%
%TO.N,GND*%
X140825000Y-33725000D03*
%TO.P,D1,2,A2*%
%TO.N,Net-(D1-A2)*%
X140825000Y-32725000D03*
%TD*%
D14*
%TO.P,R13,1*%
%TO.N,Net-(D22-A)*%
X142582200Y-45025000D03*
%TO.P,R13,2*%
%TO.N,/WIFI_On_3*%
X141667800Y-45025000D03*
%TD*%
D23*
%TO.P,U4,1,ADJ*%
%TO.N,GND*%
X148550000Y-35925000D03*
%TO.P,U4,2,VO*%
%TO.N,+3V3*%
X148550000Y-33625000D03*
%TO.P,U4,3,VI*%
%TO.N,+5V*%
X148550000Y-31325000D03*
D24*
%TO.P,U4,4*%
%TO.N,N/C*%
X142400000Y-33625000D03*
%TD*%
D25*
%TO.P,FB3,1*%
%TO.N,Net-(D3-A)*%
X147793000Y-53560000D03*
%TO.P,FB3,2*%
%TO.N,Net-(F3-Pad1)*%
X148657000Y-53560000D03*
%TD*%
D14*
%TO.P,R12,1*%
%TO.N,Net-(D21-A)*%
X142614400Y-46975000D03*
%TO.P,R12,2*%
%TO.N,/WIFI_con_3*%
X141700000Y-46975000D03*
%TD*%
D18*
%TO.P,D21,1,K*%
%TO.N,GND*%
X121985000Y-61060000D03*
D19*
%TO.P,D21,2,A*%
%TO.N,Net-(D21-A)*%
X124525000Y-61060000D03*
%TD*%
D26*
%TO.P,J3,A1,GND*%
%TO.N,GND*%
X141675000Y-59115000D03*
%TO.P,J3,A4,VBUS*%
%TO.N,Net-(F3-Pad2)*%
X142475000Y-59115000D03*
D27*
%TO.P,J3,A5,CC1*%
%TO.N,/CC1_2*%
X143625000Y-59115000D03*
%TO.P,J3,A6,D+*%
%TO.N,/D_2+*%
X144625000Y-59115000D03*
%TO.P,J3,A7,D-*%
%TO.N,/D_2-*%
X145125000Y-59115000D03*
%TO.P,J3,A8,SBU1*%
%TO.N,unconnected-(J3-SBU1-PadA8)*%
X146125000Y-59115000D03*
D26*
%TO.P,J3,A9,VBUS*%
%TO.N,Net-(F3-Pad2)*%
X147275000Y-59115000D03*
%TO.P,J3,A12,GND*%
%TO.N,GND*%
X148075000Y-59115000D03*
%TO.P,J3,B1,GND*%
X148075000Y-59115000D03*
%TO.P,J3,B4,VBUS*%
%TO.N,Net-(F3-Pad2)*%
X147275000Y-59115000D03*
D27*
%TO.P,J3,B5,CC2*%
%TO.N,/CC2_2*%
X146625000Y-59115000D03*
%TO.P,J3,B6,D+*%
%TO.N,/D_2+*%
X145625000Y-59115000D03*
%TO.P,J3,B7,D-*%
%TO.N,/D_2-*%
X144125000Y-59115000D03*
%TO.P,J3,B8,SBU2*%
%TO.N,unconnected-(J3-SBU2-PadB8)*%
X143125000Y-59115000D03*
D26*
%TO.P,J3,B9,VBUS*%
%TO.N,Net-(F3-Pad2)*%
X142475000Y-59115000D03*
%TO.P,J3,B12,GND*%
%TO.N,GND*%
X141675000Y-59115000D03*
D28*
%TO.P,J3,S1,SHIELD*%
X140555000Y-59755000D03*
D29*
X140555000Y-63935000D03*
D28*
X149195000Y-59755000D03*
D29*
X149195000Y-63935000D03*
%TD*%
D25*
%TO.P,C5,1*%
%TO.N,+5V*%
X144243000Y-47360000D03*
%TO.P,C5,2*%
%TO.N,GND*%
X145107000Y-47360000D03*
%TD*%
D16*
%TO.P,C22,1*%
%TO.N,+5V*%
X141950000Y-53639000D03*
%TO.P,C22,2*%
%TO.N,GND*%
X141950000Y-52775000D03*
%TD*%
D30*
%TO.P,U1,1,GND*%
%TO.N,GND*%
X121765000Y-56260000D03*
%TO.P,U1,2,3V3*%
%TO.N,+3V3*%
X123035000Y-56260000D03*
%TO.P,U1,3,EN*%
%TO.N,Net-(D1-A2)*%
X124305000Y-56260000D03*
%TO.P,U1,4,IO4*%
%TO.N,unconnected-(U1-IO4-Pad4)*%
X125575000Y-56260000D03*
%TO.P,U1,5,IO5*%
%TO.N,unconnected-(U1-IO5-Pad5)*%
X126845000Y-56260000D03*
%TO.P,U1,6,IO6*%
%TO.N,unconnected-(U1-IO6-Pad6)*%
X128115000Y-56260000D03*
%TO.P,U1,7,IO7*%
%TO.N,unconnected-(U1-IO7-Pad7)*%
X129385000Y-56260000D03*
%TO.P,U1,8,IO15*%
%TO.N,unconnected-(U1-IO15-Pad8)*%
X130655000Y-56260000D03*
%TO.P,U1,9,IO16*%
%TO.N,unconnected-(U1-IO16-Pad9)*%
X131925000Y-56260000D03*
%TO.P,U1,10,IO17*%
%TO.N,unconnected-(U1-IO17-Pad10)*%
X133195000Y-56260000D03*
%TO.P,U1,11,IO18*%
%TO.N,unconnected-(U1-IO18-Pad11)*%
X134465000Y-56260000D03*
%TO.P,U1,12,IO8*%
%TO.N,unconnected-(U1-IO8-Pad12)*%
X135735000Y-56260000D03*
%TO.P,U1,13,IO19*%
%TO.N,/USB_D3-*%
X137005000Y-56260000D03*
%TO.P,U1,14,IO20*%
%TO.N,/USB_D3+*%
X138275000Y-56260000D03*
D31*
%TO.P,U1,15,IO3*%
%TO.N,Net-(U1-IO3)*%
X139525000Y-54495000D03*
%TO.P,U1,16,IO46*%
%TO.N,unconnected-(U1-IO46-Pad16)*%
X139525000Y-53225000D03*
%TO.P,U1,17,IO9*%
%TO.N,unconnected-(U1-IO9-Pad17)*%
X139525000Y-51955000D03*
%TO.P,U1,18,IO10*%
%TO.N,/WIFI_OFF_3*%
X139525000Y-50685000D03*
%TO.P,U1,19,IO11*%
%TO.N,unconnected-(U1-IO11-Pad19)*%
X139525000Y-49415000D03*
%TO.P,U1,20,IO12*%
%TO.N,/WIFI_con_3*%
X139525000Y-48145000D03*
%TO.P,U1,21,IO13*%
%TO.N,unconnected-(U1-IO13-Pad21)*%
X139525000Y-46875000D03*
%TO.P,U1,22,IO14*%
%TO.N,/WIFI_On_3*%
X139525000Y-45605000D03*
%TO.P,U1,23,IO21*%
%TO.N,unconnected-(U1-IO21-Pad23)*%
X139525000Y-44335000D03*
%TO.P,U1,24,IO47*%
%TO.N,unconnected-(U1-IO47-Pad24)*%
X139525000Y-43065000D03*
%TO.P,U1,25,IO48*%
%TO.N,unconnected-(U1-IO48-Pad25)*%
X139525000Y-41795000D03*
%TO.P,U1,26,IO45*%
%TO.N,unconnected-(U1-IO45-Pad26)*%
X139525000Y-40525000D03*
D30*
%TO.P,U1,27,IO0*%
%TO.N,/ESP_IO_3*%
X138275000Y-38760000D03*
%TO.P,U1,28,IO35*%
%TO.N,unconnected-(U1-IO35-Pad28)*%
X137005000Y-38760000D03*
%TO.P,U1,29,IO36*%
%TO.N,unconnected-(U1-IO36-Pad29)*%
X135735000Y-38760000D03*
%TO.P,U1,30,IO37*%
%TO.N,unconnected-(U1-IO37-Pad30)*%
X134465000Y-38760000D03*
%TO.P,U1,31,IO38*%
%TO.N,unconnected-(U1-IO38-Pad31)*%
X133195000Y-38760000D03*
%TO.P,U1,32,IO39*%
%TO.N,unconnected-(U1-IO39-Pad32)*%
X131925000Y-38760000D03*
%TO.P,U1,33,IO40*%
%TO.N,unconnected-(U1-IO40-Pad33)*%
X130655000Y-38760000D03*
%TO.P,U1,34,IO41*%
%TO.N,unconnected-(U1-IO41-Pad34)*%
X129385000Y-38760000D03*
%TO.P,U1,35,IO42*%
%TO.N,unconnected-(U1-IO42-Pad35)*%
X128115000Y-38760000D03*
%TO.P,U1,36,RXD0*%
%TO.N,unconnected-(U1-RXD0-Pad36)*%
X126845000Y-38760000D03*
%TO.P,U1,37,TXD0*%
%TO.N,unconnected-(U1-TXD0-Pad37)*%
X125575000Y-38760000D03*
%TO.P,U1,38,IO2*%
%TO.N,unconnected-(U1-IO2-Pad38)*%
X124305000Y-38760000D03*
%TO.P,U1,39,IO1*%
%TO.N,unconnected-(U1-IO1-Pad39)*%
X123035000Y-38760000D03*
%TO.P,U1,40,GND*%
%TO.N,GND*%
X121765000Y-38760000D03*
D32*
%TO.P,U1,41*%
%TO.N,N/C*%
X128085000Y-50410000D03*
X129485000Y-50410000D03*
X130885000Y-50410000D03*
X128085000Y-49010000D03*
X129485000Y-49010000D03*
X130885000Y-49010000D03*
X128085000Y-47610000D03*
X129485000Y-47610000D03*
X130885000Y-47610000D03*
%TD*%
D22*
%TO.P,D2,1,A1*%
%TO.N,GND*%
X139800000Y-36475000D03*
%TO.P,D2,2,A2*%
%TO.N,/ESP_IO_3*%
X139800000Y-35475000D03*
%TD*%
D16*
%TO.P,C3,1*%
%TO.N,Net-(D1-A2)*%
X139775000Y-31489000D03*
%TO.P,C3,2*%
%TO.N,GND*%
X139775000Y-30625000D03*
%TD*%
D14*
%TO.P,R6,1*%
%TO.N,/CC2_2*%
X146700000Y-56882200D03*
%TO.P,R6,2*%
%TO.N,GND*%
X146700000Y-55967800D03*
%TD*%
D25*
%TO.P,C23,1*%
%TO.N,+3V3*%
X142418000Y-37900000D03*
%TO.P,C23,2*%
%TO.N,GND*%
X143282000Y-37900000D03*
%TD*%
D18*
%TO.P,D12,1,K*%
%TO.N,GND*%
X121985000Y-34385000D03*
D19*
%TO.P,D12,2,A*%
%TO.N,Net-(D12-A)*%
X124525000Y-34385000D03*
%TD*%
D33*
%TO.P,F3,1*%
%TO.N,Net-(F3-Pad1)*%
X148650000Y-55300000D03*
%TO.P,F3,2*%
%TO.N,Net-(F3-Pad2)*%
X148650000Y-56870000D03*
%TD*%
D20*
%TO.P,SW1,1,A*%
%TO.N,GND*%
X134116000Y-32050000D03*
%TO.P,SW1,2,B*%
%TO.N,Net-(D1-A2)*%
X138434000Y-32050000D03*
%TD*%
D34*
%TO.N,GND*%
X132850000Y-48400000D03*
X125950000Y-63625000D03*
X120950000Y-58875000D03*
X141075000Y-34825000D03*
X145625000Y-44075000D03*
X128575000Y-52300000D03*
X135500000Y-31525000D03*
X129225000Y-45325000D03*
X121125000Y-63900000D03*
X121050000Y-49325000D03*
X141250000Y-62400000D03*
X123200000Y-32450000D03*
X135900000Y-36150000D03*
X132850000Y-34950000D03*
X141725000Y-55575000D03*
X137375000Y-32475000D03*
X148975000Y-38250000D03*
X132762500Y-31437500D03*
X145107000Y-45325000D03*
X143050000Y-52475000D03*
X125350000Y-50775000D03*
X135275000Y-32450000D03*
X145275000Y-41125000D03*
X128975000Y-41425000D03*
X124150000Y-42450000D03*
X126175000Y-45775000D03*
X137250000Y-34750000D03*
X125400000Y-40225000D03*
X127300000Y-63700000D03*
X130450000Y-53175000D03*
X132075000Y-30800000D03*
X135550000Y-34575000D03*
X142375000Y-63075000D03*
X128175000Y-54850000D03*
X127125000Y-42775000D03*
X125850000Y-58400000D03*
X146025000Y-60425000D03*
X132425000Y-63625000D03*
X141175000Y-30825000D03*
X121765000Y-40890000D03*
X131000000Y-44425000D03*
X149050000Y-39050000D03*
X127275000Y-44625000D03*
X121765000Y-54235000D03*
X137275000Y-36050000D03*
X122200000Y-44625000D03*
X127125000Y-37000000D03*
X126925000Y-58875000D03*
X136300000Y-35400000D03*
X133475000Y-42050000D03*
X144350000Y-37900000D03*
X133425000Y-63800000D03*
X144550000Y-32600000D03*
X133000000Y-52400000D03*
X121350000Y-51675000D03*
X124025000Y-46475000D03*
X147300000Y-61200000D03*
X129300000Y-32325000D03*
X145250000Y-42450000D03*
X147725000Y-32525000D03*
X146475000Y-53450000D03*
X132625000Y-45150000D03*
X144425000Y-63935000D03*
X130250000Y-43000000D03*
X121250000Y-47125000D03*
X122050000Y-49750000D03*
X136550000Y-31325000D03*
X140700000Y-36475000D03*
X147275000Y-62750000D03*
X144375000Y-55650000D03*
X148900000Y-49225000D03*
X144775000Y-61050000D03*
X126375000Y-52275000D03*
X146750000Y-54850000D03*
X141625000Y-61200000D03*
X136325000Y-52600000D03*
X148550000Y-61950000D03*
%TO.N,+3V3*%
X142407200Y-39400000D03*
X139220757Y-55445002D03*
X148375000Y-37700000D03*
X123035000Y-54260000D03*
X144000000Y-35275000D03*
X144062500Y-49462500D03*
X146625000Y-33650000D03*
X147950000Y-45625000D03*
X139725000Y-34525000D03*
X145325000Y-50150000D03*
X142418000Y-36732000D03*
%TO.N,Net-(D1-A2)*%
X124305000Y-54180000D03*
X140950000Y-31550000D03*
%TO.N,+5V*%
X141950000Y-54725000D03*
X145100000Y-38550000D03*
X144375000Y-53250000D03*
X147800000Y-38775000D03*
X148850000Y-32325000D03*
X145502500Y-31347500D03*
%TO.N,Net-(D12-A)*%
X124475000Y-37125000D03*
X143500000Y-48475000D03*
%TO.N,Net-(D13-A)*%
X140025000Y-38850000D03*
X131050000Y-37300000D03*
%TO.N,Net-(D21-A)*%
X142614400Y-47864400D03*
%TO.N,Net-(D22-A)*%
X142582200Y-45757200D03*
%TO.N,Net-(F3-Pad2)*%
X142475000Y-58025000D03*
X147275000Y-58025000D03*
%TO.N,Net-(U1-IO3)*%
X140875000Y-50200000D03*
X137400000Y-54500000D03*
%TO.N,/WIFI_OFF_3*%
X136335000Y-50685000D03*
X141710600Y-48060600D03*
%TO.N,/WIFI_con_3*%
X141700000Y-45950000D03*
X136330000Y-48145000D03*
%TO.N,/WIFI_On_3*%
X141667800Y-44182200D03*
X136330000Y-45605000D03*
%TD*%
D35*
%TO.N,GND*%
X141950000Y-52775000D02*
X142750000Y-52775000D01*
X148441000Y-60535008D02*
X147776008Y-61200000D01*
X148441000Y-59481000D02*
X148441000Y-60535008D01*
D36*
X132762500Y-31437500D02*
X133125000Y-31800000D01*
D35*
X146700000Y-55967800D02*
X146700000Y-54900000D01*
X141625000Y-60851008D02*
X141195000Y-60421008D01*
X145325000Y-51964000D02*
X145325000Y-52300000D01*
X141725000Y-56252800D02*
X141725000Y-55575000D01*
D36*
X128510000Y-61060000D02*
X126925000Y-59475000D01*
D35*
X140555000Y-63935000D02*
X144425000Y-63935000D01*
D36*
X145107000Y-45325000D02*
X145550000Y-45325000D01*
X123200000Y-33170000D02*
X123200000Y-32450000D01*
D35*
X140825000Y-33725000D02*
X140825000Y-34575000D01*
X145950000Y-63935000D02*
X149195000Y-63935000D01*
D36*
X133125000Y-31800000D02*
X134091000Y-31800000D01*
X146150000Y-45925000D02*
X146150000Y-48000000D01*
D35*
X144425000Y-63935000D02*
X145950000Y-63935000D01*
D36*
X121985000Y-61060000D02*
X121985000Y-59910000D01*
D35*
X146700000Y-54900000D02*
X146750000Y-54850000D01*
X142750000Y-52775000D02*
X143050000Y-52475000D01*
X147776008Y-61200000D02*
X147300000Y-61200000D01*
X148555000Y-59115000D02*
X149195000Y-59755000D01*
X139800000Y-36475000D02*
X140700000Y-36475000D01*
X149399000Y-37826000D02*
X149399000Y-36499000D01*
D36*
X145550000Y-45325000D02*
X146150000Y-45925000D01*
D35*
X139775000Y-30625000D02*
X140975000Y-30625000D01*
D36*
X128500000Y-34385000D02*
X128500000Y-33125000D01*
X121985000Y-59910000D02*
X120950000Y-58875000D01*
X145725000Y-48425000D02*
X145125000Y-48425000D01*
X126925000Y-59475000D02*
X126925000Y-58875000D01*
D35*
X141195000Y-59595000D02*
X141675000Y-59115000D01*
X141625000Y-61200000D02*
X141625000Y-60851008D01*
X149399000Y-36499000D02*
X148850000Y-35950000D01*
X141035000Y-59755000D02*
X141195000Y-59595000D01*
X148075000Y-59115000D02*
X148441000Y-59481000D01*
D36*
X121985000Y-34385000D02*
X123200000Y-33170000D01*
X121765000Y-38760000D02*
X121765000Y-40890000D01*
D35*
X145107000Y-45325000D02*
X145107000Y-45282000D01*
D36*
X121765000Y-56260000D02*
X121765000Y-54235000D01*
D35*
X145950000Y-62550000D02*
X147300000Y-61200000D01*
D36*
X146150000Y-48000000D02*
X145725000Y-48425000D01*
D35*
X140555000Y-59755000D02*
X141035000Y-59755000D01*
X140825000Y-34575000D02*
X141075000Y-34825000D01*
D37*
X145107000Y-47360000D02*
X145107000Y-45325000D01*
D36*
X134132000Y-35475000D02*
X133375000Y-35475000D01*
D35*
X148975000Y-38250000D02*
X149399000Y-37826000D01*
X145950000Y-63935000D02*
X145950000Y-62550000D01*
X143282000Y-37900000D02*
X144350000Y-37900000D01*
X141195000Y-60421008D02*
X141195000Y-59595000D01*
X140975000Y-30625000D02*
X141175000Y-30825000D01*
X148075000Y-59115000D02*
X148555000Y-59115000D01*
D36*
X144375000Y-56687500D02*
X144375000Y-55650000D01*
X128500000Y-33125000D02*
X129300000Y-32325000D01*
D35*
X145325000Y-52300000D02*
X146475000Y-53450000D01*
D36*
X133375000Y-35475000D02*
X132850000Y-34950000D01*
%TO.N,+3V3*%
X145325000Y-50025000D02*
X145325000Y-49289000D01*
D37*
X142418000Y-37900000D02*
X142418000Y-36732000D01*
X144062500Y-49462500D02*
X143325000Y-50200000D01*
X148847500Y-33647500D02*
X148850000Y-33650000D01*
D36*
X145200000Y-50150000D02*
X145325000Y-50025000D01*
D37*
X143325000Y-50200000D02*
X142728800Y-50200000D01*
X142407200Y-40260000D02*
X142407200Y-39400000D01*
D36*
X145325000Y-50275000D02*
X145325000Y-51100000D01*
X145200000Y-50150000D02*
X145325000Y-50275000D01*
X147950000Y-48575000D02*
X146375000Y-50150000D01*
D37*
X142407200Y-40975000D02*
X142407200Y-40260000D01*
X148850000Y-33650000D02*
X146625000Y-33650000D01*
D36*
X146375000Y-50150000D02*
X145325000Y-50150000D01*
X123035000Y-56260000D02*
X123035000Y-54260000D01*
X147950000Y-45625000D02*
X147950000Y-48575000D01*
D35*
X142407200Y-39400000D02*
X142407200Y-39392800D01*
X139725000Y-33764400D02*
X139725000Y-34525000D01*
%TO.N,Net-(D1-A2)*%
X139475000Y-32225000D02*
X140275000Y-32225000D01*
X140950000Y-31550000D02*
X140575000Y-31925000D01*
X124305000Y-56260000D02*
X124305000Y-54180000D01*
X139725000Y-32850000D02*
X139725000Y-32475000D01*
X138434000Y-32050000D02*
X138975000Y-32050000D01*
X138409000Y-31800000D02*
X138437499Y-31771501D01*
X139150000Y-32225000D02*
X139475000Y-32225000D01*
X139775000Y-31489000D02*
X139775000Y-31925000D01*
X140275000Y-32225000D02*
X140575000Y-31925000D01*
X140825000Y-32175000D02*
X140575000Y-31925000D01*
X139775000Y-31925000D02*
X139475000Y-32225000D01*
X140825000Y-32725000D02*
X140825000Y-32175000D01*
X139725000Y-32475000D02*
X139475000Y-32225000D01*
X138975000Y-32050000D02*
X139150000Y-32225000D01*
D37*
%TO.N,+5V*%
X145502500Y-31347500D02*
X148847500Y-31347500D01*
X148850000Y-31350000D02*
X148850000Y-32325000D01*
X148847500Y-31347500D02*
X148850000Y-31350000D01*
X144206000Y-47360000D02*
X144206000Y-39444000D01*
X144375000Y-54412500D02*
X144375000Y-53250000D01*
X147800000Y-40975000D02*
X147800000Y-38775000D01*
X141950000Y-53639000D02*
X141950000Y-54725000D01*
X144206000Y-39444000D02*
X145100000Y-38550000D01*
D35*
%TO.N,/ESP_IO_3*%
X138450000Y-35475000D02*
X139800000Y-35475000D01*
X138450000Y-35475000D02*
X138450000Y-38585000D01*
X138450000Y-38585000D02*
X138275000Y-38760000D01*
D37*
%TO.N,Net-(D3-A)*%
X147793000Y-53560000D02*
X147793000Y-51142000D01*
X147793000Y-51142000D02*
X147800000Y-51135000D01*
D36*
%TO.N,Net-(D12-A)*%
X124475000Y-37125000D02*
X124525000Y-37075000D01*
X143000000Y-48975000D02*
X143500000Y-48475000D01*
X142625000Y-48975000D02*
X143000000Y-48975000D01*
X124525000Y-37075000D02*
X124525000Y-34385000D01*
D35*
%TO.N,Net-(D13-A)*%
X140475000Y-38925000D02*
X140400000Y-38850000D01*
D36*
X141492800Y-40260000D02*
X141492800Y-39942800D01*
X141492800Y-39942800D02*
X140475000Y-38925000D01*
X140025000Y-38850000D02*
X140000000Y-38850000D01*
X131050000Y-37300000D02*
X131050000Y-34395000D01*
X141492800Y-40975000D02*
X141492800Y-40260000D01*
X140400000Y-38850000D02*
X140025000Y-38850000D01*
X131050000Y-34395000D02*
X131040000Y-34385000D01*
%TO.N,Net-(D21-A)*%
X142614400Y-46975000D02*
X142614400Y-47864400D01*
%TO.N,Net-(D22-A)*%
X142582200Y-45025000D02*
X142582200Y-45757200D01*
D37*
%TO.N,Net-(F3-Pad1)*%
X148650000Y-55300000D02*
X148650000Y-53567000D01*
D35*
X148650000Y-53567000D02*
X148657000Y-53560000D01*
D37*
%TO.N,Net-(F3-Pad2)*%
X142475000Y-59115000D02*
X142475000Y-58025000D01*
X147275000Y-58025000D02*
X148430000Y-56870000D01*
X148430000Y-56870000D02*
X148650000Y-56870000D01*
X147275000Y-59115000D02*
X147275000Y-58025000D01*
D38*
%TO.N,/D_2+*%
X144625000Y-59115000D02*
X144625000Y-58615000D01*
X144570000Y-58560000D02*
X144570000Y-58436251D01*
X144625000Y-58615000D02*
X144570000Y-58560000D01*
X144570000Y-58436251D02*
X145325000Y-57681251D01*
X145325000Y-57681251D02*
X145325000Y-56687500D01*
D35*
%TO.N,/CC1_2*%
X141460015Y-57167200D02*
X141725000Y-57167200D01*
X140125000Y-61700000D02*
X139500000Y-61075000D01*
X143625000Y-59115000D02*
X143625000Y-60550000D01*
X139500000Y-61075000D02*
X139500000Y-59127215D01*
X143625000Y-60550000D02*
X142475000Y-61700000D01*
X139500000Y-59127215D02*
X141460015Y-57167200D01*
X142475000Y-61700000D02*
X140125000Y-61700000D01*
%TO.N,/CC2_2*%
X146625000Y-59115000D02*
X146625000Y-56957200D01*
X146625000Y-56957200D02*
X146700000Y-56882200D01*
D38*
%TO.N,/D_2-*%
X144125000Y-58615000D02*
X144180000Y-58560000D01*
X144125000Y-59115000D02*
X144125000Y-58615000D01*
X144180000Y-58560000D02*
X144180000Y-58436251D01*
X143425000Y-57681251D02*
X143425000Y-56687500D01*
X144180000Y-58436251D02*
X143425000Y-57681251D01*
D36*
%TO.N,Net-(U1-IO3)*%
X141742800Y-50200000D02*
X140875000Y-50200000D01*
X139525000Y-54495000D02*
X137405000Y-54495000D01*
D35*
X137400000Y-54500000D02*
X137405000Y-54495000D01*
D36*
%TO.N,/WIFI_OFF_3*%
X141710600Y-48975000D02*
X141710600Y-48060600D01*
X139525000Y-50685000D02*
X136335000Y-50685000D01*
%TO.N,/WIFI_con_3*%
X141700000Y-46975000D02*
X141700000Y-45950000D01*
X139525000Y-48145000D02*
X136330000Y-48145000D01*
%TO.N,/WIFI_On_3*%
X141667800Y-44875000D02*
X141667800Y-44182200D01*
X139525000Y-45605000D02*
X136330000Y-45605000D01*
X141667800Y-45025000D02*
X141667800Y-44875000D01*
D38*
%TO.N,/USB_D3+*%
X145325000Y-53418749D02*
X145046000Y-53139749D01*
X139344228Y-58055000D02*
X140605000Y-56794228D01*
X145046000Y-53139749D02*
X145046000Y-52972063D01*
X145046000Y-52972063D02*
X144652937Y-52579000D01*
X138275000Y-56260000D02*
X138275000Y-56560000D01*
X138275000Y-56560000D02*
X137835000Y-57000000D01*
X144570000Y-52579000D02*
X144570000Y-51919228D01*
X137835000Y-57768256D02*
X138121744Y-58055000D01*
X137835000Y-57000000D02*
X137835000Y-57768256D01*
X143880772Y-51230000D02*
X141594228Y-51230000D01*
X140605000Y-56794228D02*
X140605000Y-52219228D01*
X140605000Y-52219228D02*
X141594228Y-51230000D01*
X138121744Y-58055000D02*
X139344228Y-58055000D01*
X144652937Y-52579000D02*
X144570000Y-52579000D01*
X145325000Y-54412500D02*
X145325000Y-53418749D01*
X144570000Y-51919228D02*
X143880772Y-51230000D01*
%TO.N,/USB_D3-*%
X137445000Y-57929800D02*
X137960200Y-58445000D01*
X140995000Y-52380772D02*
X141755772Y-51620000D01*
X144180000Y-52080772D02*
X143719228Y-51620000D01*
X143425000Y-54412500D02*
X143425000Y-53418749D01*
X139505772Y-58445000D02*
X140995000Y-56955772D01*
X143719228Y-51620000D02*
X141755772Y-51620000D01*
X143704000Y-52972063D02*
X144097063Y-52579000D01*
X137005000Y-56260000D02*
X137005000Y-56560000D01*
X137960200Y-58445000D02*
X139505772Y-58445000D01*
X144180000Y-52579000D02*
X144180000Y-52080772D01*
X140995000Y-56955772D02*
X140995000Y-52380772D01*
X137445000Y-57000000D02*
X137445000Y-57929800D01*
X144097063Y-52579000D02*
X144180000Y-52579000D01*
X143425000Y-53418749D02*
X143704000Y-53139749D01*
X137005000Y-56560000D02*
X137445000Y-57000000D01*
X143704000Y-53139749D02*
X143704000Y-52972063D01*
%TD*%
M02*
