%TF.GenerationSoftware,KiCad,Pcbnew,9.0.3*%
%TF.CreationDate,2026-03-26T17:56:10+05:30*%
%TF.ProjectId,new',6e657727-2e6b-4696-9361-645f70636258,rev?*%
%TF.SameCoordinates,Original*%
%TF.FileFunction,Paste,Top*%
%TF.FilePolarity,Positive*%
%FSLAX46Y46*%
G04 Gerber Fmt 4.6, Leading zero omitted, Abs format (unit mm)*
G04 Created by KiCad (PCBNEW 9.0.3) date 2026-03-26 17:56:10*
%MOMM*%
%LPD*%
G01*
G04 APERTURE LIST*
G04 Aperture macros list*
%AMRoundRect*
0 Rectangle with rounded corners*
0 $1 Rounding radius*
0 $2 $3 $4 $5 $6 $7 $8 $9 X,Y pos of 4 corners*
0 Add a 4 corners polygon primitive as box body*
4,1,4,$2,$3,$4,$5,$6,$7,$8,$9,$2,$3,0*
0 Add four circle primitives for the rounded corners*
1,1,$1+$1,$2,$3*
1,1,$1+$1,$4,$5*
1,1,$1+$1,$6,$7*
1,1,$1+$1,$8,$9*
0 Add four rect primitives between the rounded corners*
20,1,$1+$1,$2,$3,$4,$5,0*
20,1,$1+$1,$4,$5,$6,$7,0*
20,1,$1+$1,$6,$7,$8,$9,0*
20,1,$1+$1,$8,$9,$2,$3,0*%
G04 Aperture macros list end*
%ADD10R,0.457200X0.457200*%
%ADD11RoundRect,0.067500X-0.232500X0.202500X-0.232500X-0.202500X0.232500X-0.202500X0.232500X0.202500X0*%
%ADD12RoundRect,0.067500X0.232500X-0.202500X0.232500X0.202500X-0.232500X0.202500X-0.232500X-0.202500X0*%
%ADD13R,0.508000X1.524000*%
%ADD14RoundRect,0.150000X0.150000X-0.512500X0.150000X0.512500X-0.150000X0.512500X-0.150000X-0.512500X0*%
%ADD15RoundRect,0.075000X0.075000X-0.175000X0.075000X0.175000X-0.075000X0.175000X-0.075000X-0.175000X0*%
%ADD16R,1.450000X0.900001*%
%ADD17R,1.450000X3.149999*%
%ADD18RoundRect,0.067500X-0.202500X-0.232500X0.202500X-0.232500X0.202500X0.232500X-0.202500X0.232500X0*%
%ADD19RoundRect,0.150000X-0.150000X-0.500000X0.150000X-0.500000X0.150000X0.500000X-0.150000X0.500000X0*%
%ADD20RoundRect,0.075000X-0.075000X-0.575000X0.075000X-0.575000X0.075000X0.575000X-0.075000X0.575000X0*%
%ADD21R,0.900000X1.500000*%
%ADD22R,1.500000X0.900000*%
%ADD23R,0.900000X0.900000*%
%ADD24R,1.020000X0.950000*%
G04 APERTURE END LIST*
D10*
%TO.C,R1*%
X139725000Y-33764400D03*
X139725000Y-32850000D03*
%TD*%
%TO.C,R2*%
X142657200Y-50200000D03*
X141742800Y-50200000D03*
%TD*%
D11*
%TO.C,C2*%
X145325000Y-51100000D03*
X145325000Y-51964000D03*
%TD*%
D10*
%TO.C,R5*%
X141725000Y-57167200D03*
X141725000Y-56252800D03*
%TD*%
D12*
%TO.C,C1*%
X145325000Y-49289000D03*
X145325000Y-48425000D03*
%TD*%
D10*
%TO.C,R11*%
X142625000Y-48975000D03*
X141710600Y-48975000D03*
%TD*%
%TO.C,R23*%
X142407200Y-40975000D03*
X141492800Y-40975000D03*
%TD*%
D13*
%TO.C,SW2*%
X134132000Y-35475000D03*
X138450000Y-35475000D03*
%TD*%
D14*
%TO.C,U2*%
X143425000Y-56687500D03*
X144375000Y-56687500D03*
X145325000Y-56687500D03*
X145325000Y-54412500D03*
X144375000Y-54412500D03*
X143425000Y-54412500D03*
%TD*%
D15*
%TO.C,D1*%
X140825000Y-33725000D03*
X140825000Y-32725000D03*
%TD*%
D10*
%TO.C,R13*%
X142582200Y-45025000D03*
X141667800Y-45025000D03*
%TD*%
D16*
%TO.C,U4*%
X148550000Y-35925000D03*
X148550000Y-33625000D03*
X148550000Y-31325000D03*
D17*
X142400000Y-33625000D03*
%TD*%
D18*
%TO.C,FB3*%
X147793000Y-53560000D03*
X148657000Y-53560000D03*
%TD*%
D10*
%TO.C,R12*%
X142614400Y-46975000D03*
X141700000Y-46975000D03*
%TD*%
D19*
%TO.C,J3*%
X141675000Y-59115000D03*
X142475000Y-59115000D03*
D20*
X143625000Y-59115000D03*
X144625000Y-59115000D03*
X145125000Y-59115000D03*
X146125000Y-59115000D03*
D19*
X147275000Y-59115000D03*
X148075000Y-59115000D03*
X148075000Y-59115000D03*
X147275000Y-59115000D03*
D20*
X146625000Y-59115000D03*
X145625000Y-59115000D03*
X144125000Y-59115000D03*
X143125000Y-59115000D03*
D19*
X142475000Y-59115000D03*
X141675000Y-59115000D03*
%TD*%
D18*
%TO.C,C5*%
X144243000Y-47360000D03*
X145107000Y-47360000D03*
%TD*%
D12*
%TO.C,C22*%
X141950000Y-53639000D03*
X141950000Y-52775000D03*
%TD*%
D21*
%TO.C,U1*%
X121765000Y-56260000D03*
X123035000Y-56260000D03*
X124305000Y-56260000D03*
X125575000Y-56260000D03*
X126845000Y-56260000D03*
X128115000Y-56260000D03*
X129385000Y-56260000D03*
X130655000Y-56260000D03*
X131925000Y-56260000D03*
X133195000Y-56260000D03*
X134465000Y-56260000D03*
X135735000Y-56260000D03*
X137005000Y-56260000D03*
X138275000Y-56260000D03*
D22*
X139525000Y-54495000D03*
X139525000Y-53225000D03*
X139525000Y-51955000D03*
X139525000Y-50685000D03*
X139525000Y-49415000D03*
X139525000Y-48145000D03*
X139525000Y-46875000D03*
X139525000Y-45605000D03*
X139525000Y-44335000D03*
X139525000Y-43065000D03*
X139525000Y-41795000D03*
X139525000Y-40525000D03*
D21*
X138275000Y-38760000D03*
X137005000Y-38760000D03*
X135735000Y-38760000D03*
X134465000Y-38760000D03*
X133195000Y-38760000D03*
X131925000Y-38760000D03*
X130655000Y-38760000D03*
X129385000Y-38760000D03*
X128115000Y-38760000D03*
X126845000Y-38760000D03*
X125575000Y-38760000D03*
X124305000Y-38760000D03*
X123035000Y-38760000D03*
X121765000Y-38760000D03*
D23*
X128085000Y-50410000D03*
X129485000Y-50410000D03*
X130885000Y-50410000D03*
X128085000Y-49010000D03*
X129485000Y-49010000D03*
X130885000Y-49010000D03*
X128085000Y-47610000D03*
X129485000Y-47610000D03*
X130885000Y-47610000D03*
%TD*%
D15*
%TO.C,D2*%
X139800000Y-36475000D03*
X139800000Y-35475000D03*
%TD*%
D12*
%TO.C,C3*%
X139775000Y-31489000D03*
X139775000Y-30625000D03*
%TD*%
D10*
%TO.C,R6*%
X146700000Y-56882200D03*
X146700000Y-55967800D03*
%TD*%
D18*
%TO.C,C23*%
X142418000Y-37900000D03*
X143282000Y-37900000D03*
%TD*%
D24*
%TO.C,F3*%
X148650000Y-55300000D03*
X148650000Y-56870000D03*
%TD*%
D13*
%TO.C,SW1*%
X134116000Y-32050000D03*
X138434000Y-32050000D03*
%TD*%
M02*
