%TF.GenerationSoftware,KiCad,Pcbnew,9.0.3*%
%TF.CreationDate,2026-03-26T17:56:10+05:30*%
%TF.ProjectId,new',6e657727-2e6b-4696-9361-645f70636258,rev?*%
%TF.SameCoordinates,Original*%
%TF.FileFunction,Legend,Top*%
%TF.FilePolarity,Positive*%
%FSLAX46Y46*%
G04 Gerber Fmt 4.6, Leading zero omitted, Abs format (unit mm)*
G04 Created by KiCad (PCBNEW 9.0.3) date 2026-03-26 17:56:10*
%MOMM*%
%LPD*%
G01*
G04 APERTURE LIST*
%ADD10C,0.150000*%
%ADD11C,0.098425*%
%ADD12C,0.120000*%
%ADD13C,0.152400*%
%ADD14C,0.127000*%
%ADD15C,0.200000*%
%ADD16C,0.250000*%
G04 APERTURE END LIST*
D10*
X118529819Y-48271904D02*
X119339342Y-48271904D01*
X119339342Y-48271904D02*
X119434580Y-48224285D01*
X119434580Y-48224285D02*
X119482200Y-48176666D01*
X119482200Y-48176666D02*
X119529819Y-48081428D01*
X119529819Y-48081428D02*
X119529819Y-47890952D01*
X119529819Y-47890952D02*
X119482200Y-47795714D01*
X119482200Y-47795714D02*
X119434580Y-47748095D01*
X119434580Y-47748095D02*
X119339342Y-47700476D01*
X119339342Y-47700476D02*
X118529819Y-47700476D01*
X119529819Y-46700476D02*
X119529819Y-47271904D01*
X119529819Y-46986190D02*
X118529819Y-46986190D01*
X118529819Y-46986190D02*
X118672676Y-47081428D01*
X118672676Y-47081428D02*
X118767914Y-47176666D01*
X118767914Y-47176666D02*
X118815533Y-47271904D01*
D11*
X142896907Y-37159519D02*
X142878159Y-37178267D01*
X142878159Y-37178267D02*
X142821916Y-37197014D01*
X142821916Y-37197014D02*
X142784421Y-37197014D01*
X142784421Y-37197014D02*
X142728178Y-37178267D01*
X142728178Y-37178267D02*
X142690683Y-37140771D01*
X142690683Y-37140771D02*
X142671935Y-37103276D01*
X142671935Y-37103276D02*
X142653187Y-37028285D01*
X142653187Y-37028285D02*
X142653187Y-36972042D01*
X142653187Y-36972042D02*
X142671935Y-36897052D01*
X142671935Y-36897052D02*
X142690683Y-36859556D01*
X142690683Y-36859556D02*
X142728178Y-36822061D01*
X142728178Y-36822061D02*
X142784421Y-36803313D01*
X142784421Y-36803313D02*
X142821916Y-36803313D01*
X142821916Y-36803313D02*
X142878159Y-36822061D01*
X142878159Y-36822061D02*
X142896907Y-36840809D01*
X143046888Y-36840809D02*
X143065636Y-36822061D01*
X143065636Y-36822061D02*
X143103131Y-36803313D01*
X143103131Y-36803313D02*
X143196870Y-36803313D01*
X143196870Y-36803313D02*
X143234365Y-36822061D01*
X143234365Y-36822061D02*
X143253113Y-36840809D01*
X143253113Y-36840809D02*
X143271860Y-36878304D01*
X143271860Y-36878304D02*
X143271860Y-36915799D01*
X143271860Y-36915799D02*
X143253113Y-36972042D01*
X143253113Y-36972042D02*
X143028141Y-37197014D01*
X143028141Y-37197014D02*
X143271860Y-37197014D01*
X143403094Y-36803313D02*
X143646813Y-36803313D01*
X143646813Y-36803313D02*
X143515580Y-36953295D01*
X143515580Y-36953295D02*
X143571823Y-36953295D01*
X143571823Y-36953295D02*
X143609318Y-36972042D01*
X143609318Y-36972042D02*
X143628066Y-36990790D01*
X143628066Y-36990790D02*
X143646813Y-37028285D01*
X143646813Y-37028285D02*
X143646813Y-37122024D01*
X143646813Y-37122024D02*
X143628066Y-37159519D01*
X143628066Y-37159519D02*
X143609318Y-37178267D01*
X143609318Y-37178267D02*
X143571823Y-37197014D01*
X143571823Y-37197014D02*
X143459337Y-37197014D01*
X143459337Y-37197014D02*
X143421841Y-37178267D01*
X143421841Y-37178267D02*
X143403094Y-37159519D01*
D12*
%TO.C,D3*%
X147800000Y-42315000D02*
X147800000Y-43335000D01*
X147800000Y-49795000D02*
X147800000Y-48775000D01*
X149270000Y-44115000D02*
X146330000Y-44115000D01*
X149270000Y-44235000D02*
X146330000Y-44235000D01*
X149270000Y-44355000D02*
X146330000Y-44355000D01*
X149270000Y-43335000D02*
X146330000Y-43335000D01*
X146330000Y-48775000D01*
X149270000Y-48775000D01*
X149270000Y-43335000D01*
%TO.C,D13*%
X127210000Y-32840000D02*
X127210000Y-35930000D01*
X127210000Y-32840170D02*
G75*
G02*
X132760000Y-34385000I2560000J-1544830D01*
G01*
X132760000Y-34385000D02*
G75*
G02*
X127210000Y-35929830I-2990000J0D01*
G01*
X132270000Y-34385000D02*
G75*
G02*
X127270000Y-34385000I-2500000J0D01*
G01*
X127270000Y-34385000D02*
G75*
G02*
X132270000Y-34385000I2500000J0D01*
G01*
D13*
%TO.C,SW2*%
X134259000Y-33951000D02*
X134259000Y-34380260D01*
X134259000Y-36569740D02*
X134259000Y-36999000D01*
X134259000Y-36999000D02*
X138323000Y-36999000D01*
X138323000Y-33951000D02*
X134259000Y-33951000D01*
X138323000Y-34380260D02*
X138323000Y-33951000D01*
X138323000Y-36999000D02*
X138323000Y-36569740D01*
X132798500Y-35475000D02*
G75*
G02*
X132646100Y-35475000I-76200J0D01*
G01*
X132646100Y-35475000D02*
G75*
G02*
X132798500Y-35475000I76200J0D01*
G01*
D12*
%TO.C,U2*%
X142815000Y-55550000D02*
X142815000Y-54750000D01*
X142815000Y-55550000D02*
X142815000Y-56350000D01*
X145935000Y-55550000D02*
X145935000Y-54750000D01*
X145935000Y-55550000D02*
X145935000Y-56350000D01*
X142865000Y-56850000D02*
X142535000Y-57090000D01*
X142535000Y-56610000D01*
X142865000Y-56850000D01*
G36*
X142865000Y-56850000D02*
G01*
X142535000Y-57090000D01*
X142535000Y-56610000D01*
X142865000Y-56850000D01*
G37*
%TO.C,D22*%
X127220000Y-59515000D02*
X127220000Y-62605000D01*
X127220000Y-59515170D02*
G75*
G02*
X132770000Y-61060000I2560000J-1544830D01*
G01*
X132770000Y-61060000D02*
G75*
G02*
X127220000Y-62604830I-2990000J0D01*
G01*
X132280000Y-61060000D02*
G75*
G02*
X127280000Y-61060000I-2500000J0D01*
G01*
X127280000Y-61060000D02*
G75*
G02*
X132280000Y-61060000I2500000J0D01*
G01*
D14*
%TO.C,D1*%
X140445000Y-33655000D02*
X140445000Y-32795000D01*
X141205000Y-32795000D02*
X141205000Y-33655000D01*
X140905000Y-34425000D02*
G75*
G02*
X140745000Y-34425000I-80000J0D01*
G01*
X140745000Y-34425000D02*
G75*
G02*
X140905000Y-34425000I80000J0D01*
G01*
D15*
%TO.C,U4*%
X143975000Y-30275002D02*
X143975000Y-36975001D01*
X146975000Y-30275002D02*
X143975000Y-30275002D01*
X146975000Y-30275002D02*
X146975000Y-36975001D01*
X146975000Y-36975001D02*
X143975000Y-36975001D01*
D16*
X148450000Y-36925001D02*
G75*
G02*
X148199998Y-36925001I-125001J0D01*
G01*
X148199998Y-36925001D02*
G75*
G02*
X148450000Y-36925001I125001J0D01*
G01*
D12*
%TO.C,D21*%
X120695000Y-59515000D02*
X120695000Y-62605000D01*
X120695000Y-59515170D02*
G75*
G02*
X126245000Y-61060000I2560000J-1544830D01*
G01*
X126245000Y-61060000D02*
G75*
G02*
X120695000Y-62604830I-2990000J0D01*
G01*
X125755000Y-61060000D02*
G75*
G02*
X120755000Y-61060000I-2500000J0D01*
G01*
X120755000Y-61060000D02*
G75*
G02*
X125755000Y-61060000I2500000J0D01*
G01*
%TO.C,J3*%
X140175000Y-61080000D02*
X140175000Y-62860000D01*
X142075000Y-58160000D02*
X141275000Y-58160000D01*
X149575000Y-61080000D02*
X149575000Y-62860000D01*
%TO.C,U1*%
X120425000Y-38360000D02*
X120425000Y-39360000D01*
X120425000Y-56710000D02*
X120425000Y-55610000D01*
X120575000Y-38510000D02*
X120575000Y-56510000D01*
X120575000Y-38510000D02*
X121075000Y-38510000D01*
X120575000Y-56510000D02*
X121075000Y-56510000D01*
X121075000Y-38360000D02*
X120425000Y-38360000D01*
X138925000Y-56510000D02*
X139775000Y-56510000D01*
X139025000Y-38360000D02*
X139925000Y-38360000D01*
X139025000Y-38510000D02*
X139775000Y-38510000D01*
X139775000Y-38510000D02*
X139775000Y-39860000D01*
X139775000Y-56510000D02*
X139775000Y-55210000D01*
X139925000Y-38360000D02*
X139925000Y-39360000D01*
X139925000Y-56660000D02*
X138925000Y-56660000D01*
X139925000Y-56660000D02*
X139925000Y-55660000D01*
D14*
%TO.C,D2*%
X139420000Y-36405000D02*
X139420000Y-35545000D01*
X140180000Y-35545000D02*
X140180000Y-36405000D01*
X139880000Y-37175000D02*
G75*
G02*
X139720000Y-37175000I-80000J0D01*
G01*
X139720000Y-37175000D02*
G75*
G02*
X139880000Y-37175000I80000J0D01*
G01*
D12*
%TO.C,D12*%
X120695000Y-32840000D02*
X120695000Y-35930000D01*
X120695000Y-32840170D02*
G75*
G02*
X126245000Y-34385000I2560000J-1544830D01*
G01*
X126245000Y-34385000D02*
G75*
G02*
X120695000Y-35929830I-2990000J0D01*
G01*
X125755000Y-34385000D02*
G75*
G02*
X120755000Y-34385000I-2500000J0D01*
G01*
X120755000Y-34385000D02*
G75*
G02*
X125755000Y-34385000I2500000J0D01*
G01*
D13*
%TO.C,SW1*%
X134243000Y-30526000D02*
X134243000Y-30955260D01*
X134243000Y-33144740D02*
X134243000Y-33574000D01*
X134243000Y-33574000D02*
X138307000Y-33574000D01*
X138307000Y-30526000D02*
X134243000Y-30526000D01*
X138307000Y-30955260D02*
X138307000Y-30526000D01*
X138307000Y-33574000D02*
X138307000Y-33144740D01*
X132782500Y-32050000D02*
G75*
G02*
X132630100Y-32050000I-76200J0D01*
G01*
X132630100Y-32050000D02*
G75*
G02*
X132782500Y-32050000I76200J0D01*
G01*
%TD*%
M02*
