%TF.GenerationSoftware,KiCad,Pcbnew,9.0.3*%
%TF.CreationDate,2026-03-26T17:56:10+05:30*%
%TF.ProjectId,new',6e657727-2e6b-4696-9361-645f70636258,rev?*%
%TF.SameCoordinates,Original*%
%TF.FileFunction,Copper,L2,Inr*%
%TF.FilePolarity,Positive*%
%FSLAX46Y46*%
G04 Gerber Fmt 4.6, Leading zero omitted, Abs format (unit mm)*
G04 Created by KiCad (PCBNEW 9.0.3) date 2026-03-26 17:56:10*
%MOMM*%
%LPD*%
G01*
G04 APERTURE LIST*
G04 Aperture macros list*
%AMRoundRect*
0 Rectangle with rounded corners*
0 $1 Rounding radius*
0 $2 $3 $4 $5 $6 $7 $8 $9 X,Y pos of 4 corners*
0 Add a 4 corners polygon primitive as box body*
4,1,4,$2,$3,$4,$5,$6,$7,$8,$9,$2,$3,0*
0 Add four circle primitives for the rounded corners*
1,1,$1+$1,$2,$3*
1,1,$1+$1,$4,$5*
1,1,$1+$1,$6,$7*
1,1,$1+$1,$8,$9*
0 Add four rect primitives between the rounded corners*
20,1,$1+$1,$2,$3,$4,$5,0*
20,1,$1+$1,$4,$5,$6,$7,0*
20,1,$1+$1,$6,$7,$8,$9,0*
20,1,$1+$1,$8,$9,$2,$3,0*%
G04 Aperture macros list end*
%TA.AperFunction,ComponentPad*%
%ADD10RoundRect,0.249999X-0.850001X0.850001X-0.850001X-0.850001X0.850001X-0.850001X0.850001X0.850001X0*%
%TD*%
%TA.AperFunction,ComponentPad*%
%ADD11C,2.200000*%
%TD*%
%TA.AperFunction,ComponentPad*%
%ADD12C,5.400000*%
%TD*%
%TA.AperFunction,ComponentPad*%
%ADD13R,1.800000X1.800000*%
%TD*%
%TA.AperFunction,ComponentPad*%
%ADD14C,1.800000*%
%TD*%
%TA.AperFunction,HeatsinkPad*%
%ADD15O,1.000000X2.100000*%
%TD*%
%TA.AperFunction,HeatsinkPad*%
%ADD16O,1.000000X1.600000*%
%TD*%
%TA.AperFunction,ViaPad*%
%ADD17C,0.600000*%
%TD*%
%TA.AperFunction,Conductor*%
%ADD18C,0.700000*%
%TD*%
%TA.AperFunction,Conductor*%
%ADD19C,0.200000*%
%TD*%
%TA.AperFunction,Conductor*%
%ADD20C,0.600000*%
%TD*%
G04 APERTURE END LIST*
D10*
%TO.N,+5V*%
%TO.C,D3*%
X147800000Y-40975000D03*
D11*
%TO.N,Net-(D3-A)*%
X147800000Y-51135000D03*
%TD*%
D12*
%TO.N,N/C*%
%TO.C,H2*%
X136275000Y-61135000D03*
%TD*%
D13*
%TO.N,GND*%
%TO.C,D13*%
X128500000Y-34385000D03*
D14*
%TO.N,Net-(D13-A)*%
X131040000Y-34385000D03*
%TD*%
D13*
%TO.N,GND*%
%TO.C,D22*%
X128510000Y-61060000D03*
D14*
%TO.N,Net-(D22-A)*%
X131050000Y-61060000D03*
%TD*%
D13*
%TO.N,GND*%
%TO.C,D21*%
X121985000Y-61060000D03*
D14*
%TO.N,Net-(D21-A)*%
X124525000Y-61060000D03*
%TD*%
D15*
%TO.N,GND*%
%TO.C,J3*%
X140555000Y-59755000D03*
D16*
X140555000Y-63935000D03*
D15*
X149195000Y-59755000D03*
D16*
X149195000Y-63935000D03*
%TD*%
D13*
%TO.N,GND*%
%TO.C,D12*%
X121985000Y-34385000D03*
D14*
%TO.N,Net-(D12-A)*%
X124525000Y-34385000D03*
%TD*%
D17*
%TO.N,GND*%
X132850000Y-48400000D03*
X125950000Y-63625000D03*
X120950000Y-58875000D03*
X141075000Y-34825000D03*
X145625000Y-44075000D03*
X128575000Y-52300000D03*
X135500000Y-31525000D03*
X129225000Y-45325000D03*
X121125000Y-63900000D03*
X121050000Y-49325000D03*
X141250000Y-62400000D03*
X123200000Y-32450000D03*
X135900000Y-36150000D03*
X132850000Y-34950000D03*
X141725000Y-55575000D03*
X137375000Y-32475000D03*
X148975000Y-38250000D03*
X132762500Y-31437500D03*
X145107000Y-45325000D03*
X143050000Y-52475000D03*
X125350000Y-50775000D03*
X135275000Y-32450000D03*
X145275000Y-41125000D03*
X128975000Y-41425000D03*
X124150000Y-42450000D03*
X126175000Y-45775000D03*
X137250000Y-34750000D03*
X125400000Y-40225000D03*
X127300000Y-63700000D03*
X130450000Y-53175000D03*
X132075000Y-30800000D03*
X135550000Y-34575000D03*
X142375000Y-63075000D03*
X128175000Y-54850000D03*
X127125000Y-42775000D03*
X125850000Y-58400000D03*
X146025000Y-60425000D03*
X132425000Y-63625000D03*
X141175000Y-30825000D03*
X121765000Y-40890000D03*
X131000000Y-44425000D03*
X149050000Y-39050000D03*
X127275000Y-44625000D03*
X121765000Y-54235000D03*
X137275000Y-36050000D03*
X122200000Y-44625000D03*
X127125000Y-37000000D03*
X126925000Y-58875000D03*
X136300000Y-35400000D03*
X133475000Y-42050000D03*
X144350000Y-37900000D03*
X133425000Y-63800000D03*
X144550000Y-32600000D03*
X133000000Y-52400000D03*
X121350000Y-51675000D03*
X124025000Y-46475000D03*
X147300000Y-61200000D03*
X129300000Y-32325000D03*
X145250000Y-42450000D03*
X147725000Y-32525000D03*
X146475000Y-53450000D03*
X132625000Y-45150000D03*
X144425000Y-63935000D03*
X130250000Y-43000000D03*
X121250000Y-47125000D03*
X122050000Y-49750000D03*
X136550000Y-31325000D03*
X140700000Y-36475000D03*
X147275000Y-62750000D03*
X144375000Y-55650000D03*
X148900000Y-49225000D03*
X144775000Y-61050000D03*
X126375000Y-52275000D03*
X146750000Y-54850000D03*
X141625000Y-61200000D03*
X136325000Y-52600000D03*
X148550000Y-61950000D03*
%TO.N,+3V3*%
X142407200Y-39400000D03*
X139220757Y-55445002D03*
X148375000Y-37700000D03*
X123035000Y-54260000D03*
X144000000Y-35275000D03*
X144062500Y-49462500D03*
X146625000Y-33650000D03*
X147950000Y-45625000D03*
X139725000Y-34525000D03*
X145325000Y-50150000D03*
X142418000Y-36732000D03*
%TO.N,Net-(D1-A2)*%
X124305000Y-54180000D03*
X140950000Y-31550000D03*
%TO.N,+5V*%
X141950000Y-54725000D03*
X145100000Y-38550000D03*
X144375000Y-53250000D03*
X147800000Y-38775000D03*
X148850000Y-32325000D03*
X145502500Y-31347500D03*
%TO.N,Net-(D12-A)*%
X124475000Y-37125000D03*
X143500000Y-48475000D03*
%TO.N,Net-(D13-A)*%
X140025000Y-38850000D03*
X131050000Y-37300000D03*
%TO.N,Net-(D21-A)*%
X142614400Y-47864400D03*
%TO.N,Net-(D22-A)*%
X142582200Y-45757200D03*
%TO.N,Net-(F3-Pad2)*%
X142475000Y-58025000D03*
X147275000Y-58025000D03*
%TO.N,Net-(U1-IO3)*%
X140875000Y-50200000D03*
X137400000Y-54500000D03*
%TO.N,/WIFI_OFF_3*%
X136335000Y-50685000D03*
X141710600Y-48060600D03*
%TO.N,/WIFI_con_3*%
X141700000Y-45950000D03*
X136330000Y-48145000D03*
%TO.N,/WIFI_On_3*%
X141667800Y-44182200D03*
X136330000Y-45605000D03*
%TD*%
D18*
%TO.N,+3V3*%
X139220757Y-54079243D02*
X142000000Y-51300000D01*
X144000000Y-35275000D02*
X145000000Y-35275000D01*
X139220757Y-55445002D02*
X139220757Y-54079243D01*
X139725000Y-34525000D02*
X140600000Y-33650000D01*
X146625000Y-35525000D02*
X145418000Y-36732000D01*
X142000000Y-51300000D02*
X144175000Y-51300000D01*
X144175000Y-51300000D02*
X145325000Y-50150000D01*
X144062500Y-49462500D02*
X145125000Y-48400000D01*
X145418000Y-36732000D02*
X142418000Y-36732000D01*
X146625000Y-33650000D02*
X146625000Y-35525000D01*
X145000000Y-35275000D02*
X146625000Y-33650000D01*
X145125000Y-48400000D02*
X146528496Y-48400000D01*
X140600000Y-33650000D02*
X146625000Y-33650000D01*
X147925000Y-44525000D02*
X146149000Y-42749000D01*
X146149000Y-42749000D02*
X146149000Y-39222504D01*
X147925000Y-47003496D02*
X147925000Y-44525000D01*
X146149000Y-39222504D02*
X147671504Y-37700000D01*
X147671504Y-37700000D02*
X148375000Y-37700000D01*
X146528496Y-48400000D02*
X147925000Y-47003496D01*
D19*
%TO.N,Net-(D1-A2)*%
X139316000Y-33184000D02*
X123966000Y-33184000D01*
X123275000Y-53150000D02*
X124305000Y-54180000D01*
X123966000Y-33184000D02*
X123275000Y-33875000D01*
X140950000Y-31550000D02*
X139316000Y-33184000D01*
X123275000Y-33875000D02*
X123275000Y-53150000D01*
D18*
%TO.N,+5V*%
X145100000Y-38550000D02*
X148850000Y-34800000D01*
X148850000Y-34800000D02*
X148850000Y-32325000D01*
D20*
%TO.N,Net-(D12-A)*%
X141425000Y-40125000D02*
X144250000Y-42950000D01*
X127475000Y-40125000D02*
X141425000Y-40125000D01*
X144250000Y-47725000D02*
X143500000Y-48475000D01*
X124475000Y-37125000D02*
X127475000Y-40125000D01*
X144250000Y-42950000D02*
X144250000Y-47725000D01*
%TO.N,Net-(D13-A)*%
X132600000Y-38850000D02*
X131050000Y-37300000D01*
X139992800Y-38832200D02*
X140000000Y-38825000D01*
X140025000Y-38850000D02*
X132600000Y-38850000D01*
%TO.N,Net-(D21-A)*%
X134250000Y-56275000D02*
X131950000Y-58575000D01*
X143400000Y-43275000D02*
X141425000Y-41300000D01*
X134250000Y-44200000D02*
X134250000Y-56275000D01*
X137150000Y-41300000D02*
X134250000Y-44200000D01*
X143400000Y-47078800D02*
X143400000Y-43275000D01*
X141425000Y-41300000D02*
X137150000Y-41300000D01*
X128357786Y-58575000D02*
X125872786Y-61060000D01*
X125872786Y-61060000D02*
X124525000Y-61060000D01*
X142614400Y-47864400D02*
X143400000Y-47078800D01*
X131950000Y-58575000D02*
X128357786Y-58575000D01*
%TO.N,Net-(D22-A)*%
X137700000Y-42225000D02*
X135325000Y-44600000D01*
X135325000Y-44600000D02*
X135325000Y-56785000D01*
X142582200Y-43963815D02*
X140843385Y-42225000D01*
X142582200Y-45757200D02*
X142582200Y-43963815D01*
X140843385Y-42225000D02*
X137700000Y-42225000D01*
X135325000Y-56785000D02*
X131050000Y-61060000D01*
%TO.N,Net-(U1-IO3)*%
X140875000Y-50200000D02*
X137400000Y-53675000D01*
X137400000Y-53675000D02*
X137400000Y-54500000D01*
%TO.N,/WIFI_OFF_3*%
X136335000Y-50685000D02*
X136335000Y-49715000D01*
X137989400Y-48060600D02*
X141710600Y-48060600D01*
X136335000Y-49715000D02*
X137989400Y-48060600D01*
%TO.N,/WIFI_con_3*%
X141700000Y-45950000D02*
X137725000Y-45950000D01*
X137725000Y-45950000D02*
X136330000Y-47345000D01*
X136330000Y-47345000D02*
X136330000Y-48145000D01*
%TO.N,/WIFI_On_3*%
X137752800Y-44182200D02*
X141667800Y-44182200D01*
X136330000Y-45605000D02*
X137752800Y-44182200D01*
%TD*%
M02*
